G04 #@! TF.GenerationSoftware,KiCad,Pcbnew,(5.1.4)-1*
G04 #@! TF.CreationDate,2020-03-25T18:45:55-07:00*
G04 #@! TF.ProjectId,frogdor_plates,66726f67-646f-4725-9f70-6c617465732e,rev?*
G04 #@! TF.SameCoordinates,Original*
G04 #@! TF.FileFunction,Copper,L2,Bot*
G04 #@! TF.FilePolarity,Positive*
%FSLAX46Y46*%
G04 Gerber Fmt 4.6, Leading zero omitted, Abs format (unit mm)*
G04 Created by KiCad (PCBNEW (5.1.4)-1) date 2020-03-25 18:45:55*
%MOMM*%
%LPD*%
G04 APERTURE LIST*
%ADD10C,0.800000*%
%ADD11C,6.400000*%
G04 APERTURE END LIST*
D10*
X472497056Y-101927944D03*
X470800000Y-101225000D03*
X469102944Y-101927944D03*
X468400000Y-103625000D03*
X469102944Y-105322056D03*
X470800000Y-106025000D03*
X472497056Y-105322056D03*
X473200000Y-103625000D03*
D11*
X470800000Y-103625000D03*
D10*
X472472056Y-158177944D03*
X470775000Y-157475000D03*
X469077944Y-158177944D03*
X468375000Y-159875000D03*
X469077944Y-161572056D03*
X470775000Y-162275000D03*
X472472056Y-161572056D03*
X473175000Y-159875000D03*
D11*
X470775000Y-159875000D03*
D10*
X408297056Y-187252944D03*
X406600000Y-186550000D03*
X404902944Y-187252944D03*
X404200000Y-188950000D03*
X404902944Y-190647056D03*
X406600000Y-191350000D03*
X408297056Y-190647056D03*
X409000000Y-188950000D03*
D11*
X406600000Y-188950000D03*
D10*
X345122056Y-187252944D03*
X343425000Y-186550000D03*
X341727944Y-187252944D03*
X341025000Y-188950000D03*
X341727944Y-190647056D03*
X343425000Y-191350000D03*
X345122056Y-190647056D03*
X345825000Y-188950000D03*
D11*
X343425000Y-188950000D03*
D10*
X281947056Y-187252944D03*
X280250000Y-186550000D03*
X278552944Y-187252944D03*
X277850000Y-188950000D03*
X278552944Y-190647056D03*
X280250000Y-191350000D03*
X281947056Y-190647056D03*
X282650000Y-188950000D03*
D11*
X280250000Y-188950000D03*
D10*
X218772056Y-187252944D03*
X217075000Y-186550000D03*
X215377944Y-187252944D03*
X214675000Y-188950000D03*
X215377944Y-190647056D03*
X217075000Y-191350000D03*
X218772056Y-190647056D03*
X219475000Y-188950000D03*
D11*
X217075000Y-188950000D03*
D10*
X155572056Y-187252944D03*
X153875000Y-186550000D03*
X152177944Y-187252944D03*
X151475000Y-188950000D03*
X152177944Y-190647056D03*
X153875000Y-191350000D03*
X155572056Y-190647056D03*
X156275000Y-188950000D03*
D11*
X153875000Y-188950000D03*
D10*
X91372056Y-158127944D03*
X89675000Y-157425000D03*
X87977944Y-158127944D03*
X87275000Y-159825000D03*
X87977944Y-161522056D03*
X89675000Y-162225000D03*
X91372056Y-161522056D03*
X92075000Y-159825000D03*
D11*
X89675000Y-159825000D03*
D10*
X91372056Y-101927944D03*
X89675000Y-101225000D03*
X87977944Y-101927944D03*
X87275000Y-103625000D03*
X87977944Y-105322056D03*
X89675000Y-106025000D03*
X91372056Y-105322056D03*
X92075000Y-103625000D03*
D11*
X89675000Y-103625000D03*
D10*
X408297056Y-72802944D03*
X406600000Y-72100000D03*
X404902944Y-72802944D03*
X404200000Y-74500000D03*
X404902944Y-76197056D03*
X406600000Y-76900000D03*
X408297056Y-76197056D03*
X409000000Y-74500000D03*
D11*
X406600000Y-74500000D03*
D10*
X345122056Y-72827944D03*
X343425000Y-72125000D03*
X341727944Y-72827944D03*
X341025000Y-74525000D03*
X341727944Y-76222056D03*
X343425000Y-76925000D03*
X345122056Y-76222056D03*
X345825000Y-74525000D03*
D11*
X343425000Y-74525000D03*
D10*
X281922056Y-72827944D03*
X280225000Y-72125000D03*
X278527944Y-72827944D03*
X277825000Y-74525000D03*
X278527944Y-76222056D03*
X280225000Y-76925000D03*
X281922056Y-76222056D03*
X282625000Y-74525000D03*
D11*
X280225000Y-74525000D03*
D10*
X218772056Y-72802944D03*
X217075000Y-72100000D03*
X215377944Y-72802944D03*
X214675000Y-74500000D03*
X215377944Y-76197056D03*
X217075000Y-76900000D03*
X218772056Y-76197056D03*
X219475000Y-74500000D03*
D11*
X217075000Y-74500000D03*
D10*
X155572056Y-72777944D03*
X153875000Y-72075000D03*
X152177944Y-72777944D03*
X151475000Y-74475000D03*
X152177944Y-76172056D03*
X153875000Y-76875000D03*
X155572056Y-76172056D03*
X156275000Y-74475000D03*
D11*
X153875000Y-74475000D03*
M02*
