M48
; DRILL file {KiCad (5.1.4)-1} date 03/25/20 18:46:05
; FORMAT={3:3/ absolute / metric / suppress leading zeros}
; #@! TF.CreationDate,2020-03-25T18:46:05-07:00
; #@! TF.GenerationSoftware,Kicad,Pcbnew,(5.1.4)-1
FMAT,2
METRIC,TZ
T1C0.500
T2C3.200
%
G90
G05
T1
X214675Y-74500
X215378Y-72803
X215378Y-76197
X217075Y-72100
X217075Y-76900
X218772Y-72803
X218772Y-76197
X219475Y-74500
X214675Y-188950
X215378Y-187253
X215378Y-190647
X217075Y-186550
X217075Y-191350
X218772Y-187253
X218772Y-190647
X219475Y-188950
X341025Y-188950
X341728Y-187253
X341728Y-190647
X343425Y-186550
X343425Y-191350
X345122Y-187253
X345122Y-190647
X345825Y-188950
X151475Y-188950
X152178Y-187253
X152178Y-190647
X153875Y-186550
X153875Y-191350
X155572Y-187253
X155572Y-190647
X156275Y-188950
X468400Y-103625
X469103Y-101928
X469103Y-105322
X470800Y-101225
X470800Y-106025
X472497Y-101928
X472497Y-105322
X473200Y-103625
X277825Y-74525
X278528Y-72828
X278528Y-76222
X280225Y-72125
X280225Y-76925
X281922Y-72828
X281922Y-76222
X282625Y-74525
X87275Y-159825
X87978Y-158128
X87978Y-161522
X89675Y-157425
X89675Y-162225
X91372Y-158128
X91372Y-161522
X92075Y-159825
X87275Y-103625
X87978Y-101928
X87978Y-105322
X89675Y-101225
X89675Y-106025
X91372Y-101928
X91372Y-105322
X92075Y-103625
X277850Y-188950
X278553Y-187253
X278553Y-190647
X280250Y-186550
X280250Y-191350
X281947Y-187253
X281947Y-190647
X282650Y-188950
X151475Y-74475
X152178Y-72778
X152178Y-76172
X153875Y-72075
X153875Y-76875
X155572Y-72778
X155572Y-76172
X156275Y-74475
X404200Y-188950
X404903Y-187253
X404903Y-190647
X406600Y-186550
X406600Y-191350
X408297Y-187253
X408297Y-190647
X409000Y-188950
X341025Y-74525
X341728Y-72828
X341728Y-76222
X343425Y-72125
X343425Y-76925
X345122Y-72828
X345122Y-76222
X345825Y-74525
X468375Y-159875
X469078Y-158178
X469078Y-161572
X470775Y-157475
X470775Y-162275
X472472Y-158178
X472472Y-161572
X473175Y-159875
X404200Y-74500
X404903Y-72803
X404903Y-76197
X406600Y-72100
X406600Y-76900
X408297Y-72803
X408297Y-76197
X409000Y-74500
T2
X153875Y-188950
X470800Y-103625
X280225Y-74525
X89675Y-159825
X89675Y-103625
X280250Y-188950
X153875Y-74475
X406600Y-188950
X343425Y-74525
X470775Y-159875
X406600Y-74500
X217075Y-74500
X217075Y-188950
X343425Y-188950
T0
M30
