G04 #@! TF.GenerationSoftware,KiCad,Pcbnew,(5.1.4)-1*
G04 #@! TF.CreationDate,2020-03-25T18:45:55-07:00*
G04 #@! TF.ProjectId,frogdor_plates,66726f67-646f-4725-9f70-6c617465732e,rev?*
G04 #@! TF.SameCoordinates,Original*
G04 #@! TF.FileFunction,Profile,NP*
%FSLAX46Y46*%
G04 Gerber Fmt 4.6, Leading zero omitted, Abs format (unit mm)*
G04 Created by KiCad (PCBNEW (5.1.4)-1) date 2020-03-25 18:45:55*
%MOMM*%
%LPD*%
G04 APERTURE LIST*
%ADD10C,0.200000*%
G04 APERTURE END LIST*
D10*
X322349000Y-175436801D02*
X319049000Y-175436801D01*
X319049000Y-174249031D02*
X319049000Y-175436801D01*
X319049000Y-174249031D02*
X317325000Y-174249031D01*
X317325000Y-169780071D02*
X317325000Y-174249031D01*
X315799000Y-169766200D02*
X317325000Y-169780071D01*
X442793999Y-179229201D02*
X455793000Y-179229201D01*
X442794000Y-179229201D02*
G75*
G02X442294000Y-178729201I0J500000D01*
G01*
X442294000Y-165729801D02*
X442294000Y-178729201D01*
X455793000Y-165229801D02*
X442793999Y-165229801D01*
X456293000Y-178729200D02*
X456293000Y-165729801D01*
X217325000Y-174249031D02*
X217325000Y-167978960D01*
X222349000Y-175449300D02*
X219050000Y-175449300D01*
X219050000Y-175449300D02*
X219050000Y-174249031D01*
X222349000Y-174249031D02*
X222349000Y-175449300D01*
X227111999Y-175436801D02*
X223811000Y-175436801D01*
X216499000Y-167978960D02*
X216499000Y-165178801D01*
X223811000Y-175436801D02*
X223811000Y-174236501D01*
X437243000Y-178729200D02*
X437243000Y-165729801D01*
X219050000Y-174249031D02*
X217325000Y-174249031D01*
X216499000Y-165178801D02*
X217325000Y-165178801D01*
X455793000Y-165229801D02*
G75*
G02X456293000Y-165729801I0J-500000D01*
G01*
X442294001Y-165729801D02*
G75*
G02X442793999Y-165229801I499999J1D01*
G01*
X217325000Y-167978960D02*
X216499000Y-167978960D01*
X223811000Y-174236501D02*
X222349000Y-174249031D01*
X456293000Y-178729201D02*
G75*
G02X455793000Y-179229201I-500000J0D01*
G01*
X436743000Y-165229801D02*
X423744000Y-165229801D01*
X436743000Y-165229801D02*
G75*
G02X437243000Y-165729801I0J-500000D01*
G01*
X404694000Y-179229201D02*
X417693000Y-179229201D01*
X418193000Y-178729201D02*
G75*
G02X417693000Y-179229201I-500000J0D01*
G01*
X168161800Y-135877686D02*
G75*
G02X167660487Y-136377685I-500001J0D01*
G01*
X163399299Y-136366501D02*
X167660487Y-136377685D01*
X423744000Y-179229200D02*
X436743000Y-179229200D01*
X149899999Y-136366502D02*
G75*
G02X149399999Y-135866500I1J500001D01*
G01*
X149400000Y-122867201D02*
G75*
G02X149900000Y-122367201I500000J0D01*
G01*
X437243000Y-178729200D02*
G75*
G02X436743000Y-179229200I-500000J0D01*
G01*
X163399300Y-122367201D02*
X149900000Y-122367201D01*
X149400000Y-122867201D02*
X149399999Y-135866500D01*
X167663112Y-122378392D02*
G75*
G02X168161800Y-122878390I-1312J-499998D01*
G01*
X167663112Y-122378392D02*
X163399300Y-122367201D01*
X423244001Y-165729800D02*
G75*
G02X423744000Y-165229801I499999J0D01*
G01*
X423743999Y-179229201D02*
G75*
G02X423244000Y-178729200I1J500000D01*
G01*
X168161800Y-135877686D02*
X168161800Y-122878390D01*
X423244000Y-165729801D02*
X423244000Y-178729200D01*
X149900000Y-136366501D02*
X163399299Y-136366501D01*
X404194000Y-165729801D02*
G75*
G02X404694000Y-165229801I500000J0D01*
G01*
X405431000Y-155186500D02*
X405431000Y-150716101D01*
X407155000Y-156386701D02*
X407155000Y-155186500D01*
X410456000Y-155186500D02*
X410456000Y-156386701D01*
X404693999Y-179229201D02*
G75*
G02X404194000Y-178729200I1J500000D01*
G01*
X407155000Y-155186500D02*
X405431000Y-155186500D01*
X410456000Y-156386701D02*
X407155000Y-156386701D01*
X417693000Y-165229801D02*
G75*
G02X418193000Y-165729801I0J-500000D01*
G01*
X404194000Y-165729801D02*
X404194000Y-178729200D01*
X403406000Y-155416500D02*
X390406000Y-155416500D01*
X403906000Y-154916500D02*
G75*
G02X403406000Y-155416500I-500000J0D01*
G01*
X418193000Y-178729200D02*
X418193000Y-165729801D01*
X403906000Y-150716101D02*
X403906000Y-154916500D01*
X405431000Y-150716101D02*
X403906000Y-150716101D01*
X417693000Y-165229801D02*
X404694000Y-165229801D01*
X412181000Y-155186500D02*
X410456000Y-155186500D01*
X118443699Y-84766800D02*
X118443699Y-97766800D01*
X293868000Y-84266801D02*
G75*
G02X294368000Y-84766801I0J-500000D01*
G01*
X118943699Y-98266800D02*
G75*
G02X118443699Y-97766800I0J500000D01*
G01*
X92163750Y-69036550D02*
X468286250Y-69036550D01*
X179567999Y-84266800D02*
G75*
G02X180067999Y-84766800I0J-500000D01*
G01*
X293868000Y-84266800D02*
X280869000Y-84266800D01*
X166068700Y-84766800D02*
X166068700Y-97766800D01*
X179568000Y-84266801D02*
X166568700Y-84266801D01*
X99893649Y-98266800D02*
X112893199Y-98266800D01*
X113393199Y-97766800D02*
G75*
G02X112893199Y-98266800I-500000J0D01*
G01*
X280869000Y-98266800D02*
X293868000Y-98266800D01*
X84163750Y-186459051D02*
X84163750Y-77036550D01*
X112893199Y-84266800D02*
G75*
G02X113393199Y-84766800I0J-500000D01*
G01*
X476286250Y-186459051D02*
G75*
G02X468286250Y-194459051I-8000000J0D01*
G01*
X99393649Y-84766800D02*
X99393649Y-97766800D01*
X112893199Y-84266800D02*
X99893649Y-84266800D01*
X280369000Y-84766800D02*
G75*
G02X280869000Y-84266800I500000J0D01*
G01*
X84163750Y-77036550D02*
G75*
G02X92163750Y-69036550I8000000J0D01*
G01*
X92163750Y-194459051D02*
G75*
G02X84163750Y-186459051I0J8000000D01*
G01*
X280869000Y-98266800D02*
G75*
G02X280369000Y-97766800I0J500000D01*
G01*
X166568700Y-98266800D02*
X179567999Y-98266800D01*
X113393199Y-97766800D02*
X113393199Y-84766800D01*
X468286250Y-194459051D02*
X92163750Y-194459051D01*
X280369000Y-84766800D02*
X280369000Y-97766800D01*
X166068701Y-84766800D02*
G75*
G02X166568700Y-84266801I499999J0D01*
G01*
X180067999Y-97766800D02*
X180067999Y-84766800D01*
X180067999Y-97766800D02*
G75*
G02X179567999Y-98266800I-500000J0D01*
G01*
X99893649Y-98266800D02*
G75*
G02X99393649Y-97766800I0J500000D01*
G01*
X99393649Y-84766800D02*
G75*
G02X99893649Y-84266800I500000J0D01*
G01*
X476286250Y-77036550D02*
X476286250Y-186459051D01*
X294368000Y-97766800D02*
G75*
G02X293868000Y-98266800I-500000J0D01*
G01*
X468286250Y-69036550D02*
G75*
G02X476286250Y-77036550I0J-8000000D01*
G01*
X166568700Y-98266800D02*
G75*
G02X166068700Y-97766800I0J500000D01*
G01*
X294368000Y-97766800D02*
X294368000Y-84766801D01*
X236718000Y-84266800D02*
G75*
G02X237218000Y-84766800I0J-500000D01*
G01*
X261818999Y-98266800D02*
G75*
G02X261318999Y-97766800I0J500000D01*
G01*
X223719000Y-98266800D02*
X236718000Y-98266800D01*
X318969000Y-98266800D02*
X331968000Y-98266800D01*
X236718000Y-84266800D02*
X223719000Y-84266800D01*
X331968000Y-84266800D02*
X318969000Y-84266800D01*
X312918000Y-84266801D02*
G75*
G02X313417999Y-84766800I0J-499999D01*
G01*
X223219000Y-84766800D02*
G75*
G02X223719000Y-84266800I500000J0D01*
G01*
X160518000Y-84266801D02*
X147518700Y-84266800D01*
X147518701Y-98266800D02*
G75*
G02X147018700Y-97766801I-1J500000D01*
G01*
X299919000Y-98266800D02*
X312918000Y-98266800D01*
X299419000Y-84766800D02*
G75*
G02X299919000Y-84266800I500000J0D01*
G01*
X261319000Y-84766800D02*
G75*
G02X261819000Y-84266800I500000J0D01*
G01*
X418193000Y-84266800D02*
X404194000Y-84266800D01*
X261319000Y-84766800D02*
X261318999Y-97766800D01*
X400943000Y-99223801D02*
X400943000Y-98266800D01*
X318968999Y-98266800D02*
G75*
G02X318468999Y-97766800I0J500000D01*
G01*
X237218000Y-97766800D02*
X237218000Y-84766800D01*
X131942999Y-84266800D02*
G75*
G02X132442999Y-84766800I0J-500000D01*
G01*
X118943699Y-98266800D02*
X131942999Y-98266800D01*
X161017999Y-97766799D02*
G75*
G02X160518000Y-98266800I-500000J-1D01*
G01*
X318469000Y-84766800D02*
G75*
G02X318969000Y-84266800I500000J0D01*
G01*
X147018700Y-84766800D02*
G75*
G02X147518700Y-84266800I500000J0D01*
G01*
X424743000Y-99223801D02*
X424743000Y-98266800D01*
X299919000Y-98266800D02*
G75*
G02X299419000Y-97766800I0J500000D01*
G01*
X397644000Y-99223801D02*
X400943000Y-99223801D01*
X421444000Y-98266800D02*
X421444000Y-99223801D01*
X223219000Y-84766800D02*
X223219000Y-97766800D01*
X161017999Y-97766800D02*
X161017999Y-84766800D01*
X395169000Y-98266800D02*
X397644000Y-98266800D01*
X394669000Y-84766800D02*
G75*
G02X395169000Y-84266800I500000J0D01*
G01*
X237218000Y-97766800D02*
G75*
G02X236718000Y-98266800I-500000J0D01*
G01*
X331968000Y-84266801D02*
G75*
G02X332467999Y-84766800I0J-499999D01*
G01*
X299419000Y-84766800D02*
X299419000Y-97766800D01*
X332468000Y-97766800D02*
G75*
G02X331968000Y-98266800I-500000J0D01*
G01*
X397644000Y-98266800D02*
X397644000Y-99223801D01*
X427718000Y-97766800D02*
G75*
G02X427218000Y-98266800I-500000J0D01*
G01*
X424743000Y-98266800D02*
X427218000Y-98266800D01*
X275318000Y-97766800D02*
X275318000Y-84766800D01*
X318469000Y-84766801D02*
X318468999Y-97766800D01*
X313417999Y-97766799D02*
G75*
G02X312918000Y-98266800I-500000J-1D01*
G01*
X118443699Y-84766800D02*
G75*
G02X118943699Y-84266800I500000J0D01*
G01*
X131942999Y-84266801D02*
X118943699Y-84266800D01*
X404194000Y-84266800D02*
X395169000Y-84266800D01*
X274818000Y-84266800D02*
G75*
G02X275318000Y-84766800I0J-500000D01*
G01*
X427218000Y-84266800D02*
G75*
G02X427718000Y-84766800I0J-500000D01*
G01*
X132442999Y-97766800D02*
X132442999Y-84766800D01*
X332468000Y-97766800D02*
X332467999Y-84766800D01*
X223719000Y-98266800D02*
G75*
G02X223219000Y-97766800I0J500000D01*
G01*
X132442999Y-97766800D02*
G75*
G02X131942999Y-98266800I-500000J0D01*
G01*
X147518700Y-98266800D02*
X160518000Y-98266800D01*
X147018700Y-84766800D02*
X147018700Y-97766801D01*
X394669000Y-84766800D02*
X394669000Y-97766800D01*
X160517999Y-84266800D02*
G75*
G02X161017999Y-84766800I0J-500000D01*
G01*
X274818000Y-84266800D02*
X261819000Y-84266800D01*
X261819000Y-98266800D02*
X274818000Y-98266800D01*
X427218000Y-84266801D02*
X418193000Y-84266800D01*
X427718000Y-97766800D02*
X427718000Y-84766800D01*
X421444000Y-99223801D02*
X424743000Y-99223801D01*
X400943000Y-98266800D02*
X421444000Y-98266800D01*
X312917999Y-84266800D02*
X299919000Y-84266800D01*
X395168999Y-98266801D02*
G75*
G02X394669000Y-97766800I1J500000D01*
G01*
X275318000Y-97766800D02*
G75*
G02X274818000Y-98266800I-500000J0D01*
G01*
X163399299Y-173966700D02*
G75*
G02X162899300Y-174466701I-500000J-1D01*
G01*
X113393199Y-173966701D02*
X113393199Y-160967301D01*
X335636000Y-174466701D02*
X348635000Y-174466701D01*
X113393199Y-173966701D02*
G75*
G02X112893199Y-174466701I-500000J0D01*
G01*
X163399299Y-173966701D02*
X163399299Y-160967300D01*
X423244001Y-146679701D02*
G75*
G02X423743999Y-146179701I499999J1D01*
G01*
X437243000Y-159679000D02*
X437243000Y-146679701D01*
X99893649Y-174466701D02*
X112893199Y-174466701D01*
X118943699Y-174466701D02*
X131943000Y-174466701D01*
X436743000Y-146179701D02*
G75*
G02X437243000Y-146679701I0J-500000D01*
G01*
X112893199Y-160467300D02*
X99893649Y-160467300D01*
X118943699Y-174466701D02*
G75*
G02X118443699Y-173966701I0J500000D01*
G01*
X118443699Y-160967300D02*
X118443699Y-173966701D01*
X149900000Y-174466701D02*
G75*
G02X149400000Y-173966701I0J500000D01*
G01*
X99393649Y-160967300D02*
G75*
G02X99893649Y-160467300I500000J0D01*
G01*
X149900000Y-174466701D02*
X162899300Y-174466701D01*
X99393649Y-160967300D02*
X99393649Y-173966701D01*
X348635000Y-160467300D02*
G75*
G02X349135000Y-160967300I0J-500000D01*
G01*
X349135000Y-173966701D02*
X349135000Y-160967300D01*
X335636001Y-174466700D02*
G75*
G02X335136000Y-173966701I-1J500000D01*
G01*
X132442999Y-173966701D02*
X132442999Y-160967300D01*
X423244000Y-146679701D02*
X423244000Y-159679001D01*
X412181000Y-148916601D02*
X412181000Y-155186500D01*
X412181000Y-142886200D02*
X412181000Y-146116301D01*
X436743000Y-146179701D02*
X423743999Y-146179701D01*
X413005000Y-148916601D02*
X412181000Y-148916601D01*
X162899299Y-160467300D02*
G75*
G02X163399299Y-160967300I0J-500000D01*
G01*
X349135001Y-173966700D02*
G75*
G02X348635000Y-174466701I-500001J0D01*
G01*
X412181000Y-146116301D02*
X413005000Y-146116301D01*
X405431000Y-142886200D02*
X412181000Y-142886200D01*
X437243000Y-159679000D02*
G75*
G02X436743000Y-160179000I-500000J0D01*
G01*
X423743999Y-160179000D02*
X436743000Y-160179000D01*
X413005000Y-146116301D02*
X413005000Y-148916601D01*
X423744000Y-160179001D02*
G75*
G02X423244000Y-159679001I0J500000D01*
G01*
X99893649Y-174466701D02*
G75*
G02X99393649Y-173966701I0J500000D01*
G01*
X405431000Y-146116301D02*
X405431000Y-142886200D01*
X348635000Y-160467300D02*
X335636000Y-160467300D01*
X131942999Y-160467300D02*
X118943699Y-160467300D01*
X162899299Y-160467300D02*
X149899999Y-160467300D01*
X112893200Y-160467300D02*
G75*
G02X113393199Y-160967301I-1J-500000D01*
G01*
X149400000Y-160967301D02*
G75*
G02X149899999Y-160467300I500000J1D01*
G01*
X149400000Y-160967300D02*
X149400000Y-173966701D01*
X335136000Y-160967300D02*
G75*
G02X335636000Y-160467300I500000J0D01*
G01*
X335136000Y-160967300D02*
X335136000Y-173966701D01*
X118443699Y-160967300D02*
G75*
G02X118943699Y-160467300I500000J0D01*
G01*
X131942999Y-160467300D02*
G75*
G02X132442999Y-160967300I0J-500000D01*
G01*
X150649899Y-146116301D02*
X150649899Y-142886200D01*
X285131000Y-141917201D02*
X285131000Y-154916501D01*
X192761100Y-174466701D02*
X205762000Y-174466701D01*
X206261999Y-173966700D02*
G75*
G02X205762000Y-174466701I-500000J-1D01*
G01*
X205761999Y-160467300D02*
G75*
G02X206261999Y-160967300I0J-500000D01*
G01*
X158924999Y-141917201D02*
G75*
G02X159424999Y-141417201I500000J0D01*
G01*
X159424999Y-141417201D02*
X172424300Y-141417201D01*
X172924300Y-141917201D02*
X172924300Y-146116301D01*
X182024900Y-146116301D02*
X182024900Y-148916601D01*
X181199399Y-146116301D02*
X182024900Y-146116301D01*
X192261100Y-160967301D02*
X192261100Y-173966701D01*
X149824400Y-146116301D02*
X150649899Y-146116301D01*
X378500000Y-174466701D02*
X391499000Y-174466701D01*
X174450000Y-142886200D02*
X181199399Y-142886200D01*
X174450000Y-146116301D02*
X174450000Y-142886200D01*
X172424300Y-141417201D02*
G75*
G02X172924300Y-141917201I0J-500000D01*
G01*
X158924999Y-146116301D02*
X158924999Y-141917201D01*
X299131000Y-154916500D02*
G75*
G02X298631000Y-155416500I-500000J0D01*
G01*
X391499000Y-160467300D02*
X378500000Y-160467300D01*
X378500000Y-174466701D02*
G75*
G02X378000000Y-173966701I0J500000D01*
G01*
X391999000Y-173966701D02*
X391999000Y-160967301D01*
X192761101Y-174466700D02*
G75*
G02X192261100Y-173966701I-1J500000D01*
G01*
X285631000Y-155416500D02*
X298631000Y-155416500D01*
X298631000Y-141417201D02*
X285631000Y-141417201D01*
X132442999Y-173966700D02*
G75*
G02X131943000Y-174466701I-500000J-1D01*
G01*
X206261999Y-173966701D02*
X206261999Y-160967300D01*
X378000000Y-160967300D02*
X378000000Y-173966701D01*
X181199399Y-148916601D02*
X181199399Y-155186500D01*
X378000000Y-160967300D02*
G75*
G02X378500000Y-160467300I500000J0D01*
G01*
X179474299Y-156386701D02*
X176173699Y-156386701D01*
X179474299Y-155186500D02*
X179474299Y-156386701D01*
X182024900Y-148916601D02*
X181199399Y-148916601D01*
X205761999Y-160467300D02*
X192761100Y-160467300D01*
X150649899Y-142886200D02*
X157399600Y-142886200D01*
X299131000Y-154916500D02*
X299131000Y-141917201D01*
X298631000Y-141417201D02*
G75*
G02X299131000Y-141917201I0J-500000D01*
G01*
X285131000Y-141917201D02*
G75*
G02X285631000Y-141417201I500000J0D01*
G01*
X285631001Y-155416500D02*
G75*
G02X285131000Y-154916501I-1J500000D01*
G01*
X181199399Y-155186500D02*
X179474299Y-155186500D01*
X172924300Y-146116301D02*
X174450000Y-146116301D01*
X181199399Y-142886200D02*
X181199399Y-146116301D01*
X157399600Y-146116301D02*
X158924999Y-146116301D01*
X157399600Y-142886200D02*
X157399600Y-146116301D01*
X391999001Y-173966700D02*
G75*
G02X391499000Y-174466701I-500001J0D01*
G01*
X192261100Y-160967300D02*
G75*
G02X192761100Y-160467300I500000J0D01*
G01*
X391499000Y-160467301D02*
G75*
G02X391999000Y-160967301I0J-500000D01*
G01*
X222931000Y-154916500D02*
G75*
G02X222431000Y-155416500I-500000J0D01*
G01*
X209431000Y-155416500D02*
G75*
G02X208931000Y-154916500I0J500000D01*
G01*
X266581000Y-155416500D02*
G75*
G02X266081000Y-154916500I0J500000D01*
G01*
X266081000Y-141917201D02*
X266081000Y-154916500D01*
X280081000Y-154916500D02*
X280081000Y-141917201D01*
X189881200Y-141917201D02*
G75*
G02X190381200Y-141417201I500000J0D01*
G01*
X203381000Y-141417201D02*
X190381200Y-141417201D01*
X323731001Y-155416500D02*
G75*
G02X323231000Y-154916501I-1J500000D01*
G01*
X222931000Y-154916500D02*
X222931000Y-141917201D01*
X266081001Y-141917200D02*
G75*
G02X266581000Y-141417201I499999J0D01*
G01*
X323231000Y-141917200D02*
X323231000Y-154916501D01*
X336731000Y-141417201D02*
X323731000Y-141417201D01*
X279581000Y-141417201D02*
G75*
G02X280081000Y-141917201I0J-500000D01*
G01*
X279581000Y-141417201D02*
X266581000Y-141417201D01*
X222431000Y-141417201D02*
G75*
G02X222931000Y-141917201I0J-500000D01*
G01*
X266581000Y-155416500D02*
X279581000Y-155416500D01*
X208931000Y-141917201D02*
X208931000Y-154916500D01*
X190381200Y-155416500D02*
G75*
G02X189881200Y-154916500I0J500000D01*
G01*
X323731000Y-155416500D02*
X336730999Y-155416500D01*
X336730999Y-141417201D02*
G75*
G02X337231000Y-141917200I1J-500000D01*
G01*
X208931000Y-141917201D02*
G75*
G02X209431000Y-141417201I500000J0D01*
G01*
X190381200Y-155416501D02*
X203381000Y-155416501D01*
X189881200Y-141917201D02*
X189881200Y-154916500D01*
X337230999Y-154916500D02*
G75*
G02X336730999Y-155416500I-500000J0D01*
G01*
X323231000Y-141917201D02*
G75*
G02X323731000Y-141417201I500000J0D01*
G01*
X209431000Y-155416500D02*
X222431000Y-155416500D01*
X280081000Y-154916500D02*
G75*
G02X279581000Y-155416500I-500000J0D01*
G01*
X337231000Y-154916500D02*
X337231000Y-141917200D01*
X228481000Y-155416500D02*
X241480999Y-155416500D01*
X461056000Y-135866501D02*
G75*
G02X460556000Y-136366501I-500000J0D01*
G01*
X99393649Y-141917201D02*
G75*
G02X99893649Y-141417201I500000J0D01*
G01*
X247030999Y-141917200D02*
G75*
G02X247531000Y-141417201I500000J-1D01*
G01*
X327206000Y-122367201D02*
G75*
G02X327706000Y-122867201I0J-500000D01*
G01*
X241981000Y-154916501D02*
X241981000Y-141917201D01*
X118443699Y-122867200D02*
G75*
G02X118943700Y-122367201I500000J-1D01*
G01*
X203381000Y-141417201D02*
G75*
G02X203881000Y-141917201I0J-500000D01*
G01*
X461055999Y-135866501D02*
X461055999Y-122867200D01*
X241480999Y-141417201D02*
X228481000Y-141417201D01*
X131942999Y-122367201D02*
X118943700Y-122367201D01*
X131943000Y-122367201D02*
G75*
G02X132443000Y-122867201I0J-500000D01*
G01*
X132442999Y-135866501D02*
X132443000Y-122867201D01*
X132442999Y-135866500D02*
G75*
G02X131943000Y-136366501I-500000J-1D01*
G01*
X118943699Y-136366501D02*
X131943000Y-136366501D01*
X193855500Y-122367201D02*
G75*
G02X194355500Y-122867201I0J-500000D01*
G01*
X180356201Y-122867200D02*
G75*
G02X180856200Y-122367201I499999J0D01*
G01*
X247030999Y-141917201D02*
X247030999Y-154916500D01*
X247530999Y-155416500D02*
G75*
G02X247030999Y-154916500I0J500000D01*
G01*
X261030999Y-154916501D02*
X261030999Y-141917201D01*
X99893650Y-155416501D02*
G75*
G02X99393649Y-154916500I0J500001D01*
G01*
X118443700Y-141917201D02*
G75*
G02X118943700Y-141417201I500000J0D01*
G01*
X118943699Y-155416500D02*
X131943000Y-155416501D01*
X447555999Y-136366501D02*
X460556000Y-136366501D01*
X112893200Y-141417202D02*
G75*
G02X113393199Y-141917201I0J-499999D01*
G01*
X447055999Y-122867200D02*
G75*
G02X447555999Y-122367200I500000J0D01*
G01*
X132443000Y-154916499D02*
G75*
G02X131943000Y-155416501I-500001J-1D01*
G01*
X180856200Y-136366501D02*
G75*
G02X180356200Y-135866501I0J500000D01*
G01*
X180356200Y-122867200D02*
X180356200Y-135866501D01*
X132442999Y-154916500D02*
X132442999Y-141917201D01*
X447555999Y-136366501D02*
G75*
G02X447055999Y-135866501I0J500000D01*
G01*
X261030999Y-154916500D02*
G75*
G02X260530999Y-155416500I-500000J0D01*
G01*
X228480999Y-155416500D02*
G75*
G02X227980999Y-154916500I0J500000D01*
G01*
X447055999Y-122867200D02*
X447055999Y-135866501D01*
X118943700Y-155416501D02*
G75*
G02X118443699Y-154916500I0J500001D01*
G01*
X99393649Y-141917201D02*
X99393649Y-154916500D01*
X113393199Y-154916500D02*
X113393199Y-141917201D01*
X247531000Y-155416500D02*
X260530999Y-155416500D01*
X131943000Y-141417201D02*
X118943700Y-141417201D01*
X131942999Y-141417201D02*
G75*
G02X132442999Y-141917201I0J-500000D01*
G01*
X203881000Y-154916499D02*
G75*
G02X203381000Y-155416501I-500001J-1D01*
G01*
X118943700Y-136366502D02*
G75*
G02X118443699Y-135866501I0J500001D01*
G01*
X118443699Y-122867201D02*
X118443699Y-135866501D01*
X194355500Y-135866501D02*
X194355500Y-122867201D01*
X180856200Y-136366501D02*
X193855499Y-136366501D01*
X241980999Y-154916500D02*
G75*
G02X241480999Y-155416500I-500000J0D01*
G01*
X227981000Y-141917201D02*
G75*
G02X228481000Y-141417201I500000J0D01*
G01*
X99893649Y-155416501D02*
X112893199Y-155416500D01*
X118443699Y-141917201D02*
X118443699Y-154916500D01*
X460556000Y-122367200D02*
X447555999Y-122367200D01*
X203881000Y-154916500D02*
X203881000Y-141917201D01*
X113393199Y-154916500D02*
G75*
G02X112893199Y-155416500I-500000J0D01*
G01*
X260530999Y-141417201D02*
G75*
G02X261030999Y-141917201I0J-500000D01*
G01*
X313706000Y-122867201D02*
X313706000Y-135866501D01*
X313706001Y-122867200D02*
G75*
G02X314206000Y-122367201I499999J0D01*
G01*
X327206000Y-122367201D02*
X314206000Y-122367201D01*
X194355499Y-135866501D02*
G75*
G02X193855499Y-136366501I-500000J0D01*
G01*
X327706000Y-135866501D02*
X327706000Y-122867201D01*
X193855499Y-122367201D02*
X180856200Y-122367201D01*
X460556000Y-122367201D02*
G75*
G02X461055999Y-122867200I0J-499999D01*
G01*
X241480999Y-141417200D02*
G75*
G02X241981000Y-141917201I0J-500001D01*
G01*
X112893199Y-141417201D02*
X99893649Y-141417201D01*
X227981000Y-141917201D02*
X227980999Y-154916500D01*
X260530999Y-141417201D02*
X247531000Y-141417201D01*
X213406000Y-135866501D02*
G75*
G02X212906000Y-136366501I-500000J0D01*
G01*
X199406000Y-122867201D02*
X199406000Y-135866501D01*
X99393649Y-122867201D02*
X99393649Y-135866501D01*
X99893649Y-136366501D02*
G75*
G02X99393649Y-135866501I0J500000D01*
G01*
X213406000Y-135866501D02*
X213406000Y-122867201D01*
X314206000Y-136366501D02*
G75*
G02X313706000Y-135866501I0J500000D01*
G01*
X112893199Y-122367201D02*
G75*
G02X113393199Y-122867201I0J-500000D01*
G01*
X270056000Y-122367201D02*
X257056000Y-122367201D01*
X199906000Y-136366501D02*
X212906000Y-136366501D01*
X113393199Y-135866501D02*
G75*
G02X112893199Y-136366501I-500000J0D01*
G01*
X270056000Y-122367201D02*
G75*
G02X270556000Y-122867201I0J-500000D01*
G01*
X327706000Y-135866501D02*
G75*
G02X327206000Y-136366501I-500000J0D01*
G01*
X212906000Y-122367201D02*
X199906000Y-122367201D01*
X99393649Y-122867201D02*
G75*
G02X99893649Y-122367201I500000J0D01*
G01*
X199906000Y-136366501D02*
G75*
G02X199406000Y-135866501I0J500000D01*
G01*
X314206000Y-136366501D02*
X327206000Y-136366501D01*
X113393199Y-135866501D02*
X113393199Y-122867201D01*
X256556000Y-122867201D02*
G75*
G02X257056000Y-122367201I500000J0D01*
G01*
X212906000Y-122367201D02*
G75*
G02X213406000Y-122867201I0J-500000D01*
G01*
X270556000Y-135866501D02*
X270556000Y-122867201D01*
X218456000Y-122867200D02*
X218456000Y-135866501D01*
X199406000Y-122867201D02*
G75*
G02X199906000Y-122367201I500000J0D01*
G01*
X256556000Y-122867201D02*
X256556000Y-135866501D01*
X270556000Y-135866501D02*
G75*
G02X270056000Y-136366501I-500000J0D01*
G01*
X257056000Y-136366501D02*
X270056000Y-136366501D01*
X257056000Y-136366501D02*
G75*
G02X256556000Y-135866501I0J500000D01*
G01*
X112893199Y-122367201D02*
X99893649Y-122367201D01*
X99893649Y-136366501D02*
X112893199Y-136366501D01*
X218956000Y-136366501D02*
G75*
G02X218456000Y-135866501I0J500000D01*
G01*
X295156000Y-136366501D02*
X308156000Y-136366501D01*
X371356001Y-136366500D02*
G75*
G02X370856000Y-135866501I-1J500000D01*
G01*
X371356000Y-136366501D02*
X384356000Y-136366501D01*
X370856001Y-122867200D02*
G75*
G02X371356000Y-122367201I499999J0D01*
G01*
X195143700Y-117316500D02*
X208143000Y-117316500D01*
X289106000Y-122367201D02*
X276105999Y-122367201D01*
X276106000Y-136366502D02*
G75*
G02X275605999Y-135866501I0J500001D01*
G01*
X275605999Y-122867201D02*
G75*
G02X276105999Y-122367201I500000J0D01*
G01*
X195143700Y-117316500D02*
G75*
G02X194643700Y-116816500I0J500000D01*
G01*
X251506000Y-135866501D02*
X251506000Y-122867201D01*
X308655999Y-135866500D02*
G75*
G02X308156000Y-136366501I-500000J-1D01*
G01*
X218956000Y-136366501D02*
X231956000Y-136366501D01*
X384856000Y-135866501D02*
X384856000Y-122867200D01*
X351806000Y-122867201D02*
G75*
G02X352306000Y-122367201I500000J0D01*
G01*
X365806001Y-135866501D02*
G75*
G02X365305999Y-136366501I-500001J1D01*
G01*
X384356000Y-122367200D02*
G75*
G02X384856000Y-122867200I0J-500000D01*
G01*
X333256000Y-136366501D02*
X346256000Y-136366501D01*
X289605999Y-135866501D02*
X289606000Y-122867200D01*
X194643700Y-103817200D02*
X194643700Y-116816500D01*
X384356000Y-122367201D02*
X371356000Y-122367201D01*
X194643700Y-103817200D02*
G75*
G02X195143700Y-103317200I500000J0D01*
G01*
X208643000Y-116816500D02*
X208643000Y-103817200D01*
X308156000Y-122367201D02*
X295156000Y-122367201D01*
X351806000Y-122867201D02*
X351806000Y-135866501D01*
X346256000Y-122367201D02*
X333256000Y-122367201D01*
X333256000Y-136366501D02*
G75*
G02X332756000Y-135866501I0J500000D01*
G01*
X308656000Y-135866501D02*
X308656000Y-122867201D01*
X346756000Y-135866501D02*
X346756000Y-122867201D01*
X208143000Y-103317200D02*
G75*
G02X208643000Y-103817200I0J-500000D01*
G01*
X365305999Y-122367201D02*
G75*
G02X365805999Y-122867201I0J-500000D01*
G01*
X232456000Y-135866501D02*
X232456000Y-122867200D01*
X237506001Y-122867200D02*
G75*
G02X238006000Y-122367201I499999J0D01*
G01*
X218456000Y-122867200D02*
G75*
G02X218956000Y-122367200I500000J0D01*
G01*
X289105999Y-122367201D02*
G75*
G02X289606000Y-122867200I1J-500000D01*
G01*
X251005999Y-122367201D02*
X238006000Y-122367201D01*
X332756000Y-122867201D02*
X332756000Y-135866501D01*
X352306000Y-136366501D02*
X365305999Y-136366501D01*
X275605999Y-122867201D02*
X275605999Y-135866501D01*
X238006000Y-136366501D02*
X251005999Y-136366501D01*
X332756000Y-122867201D02*
G75*
G02X333256000Y-122367201I500000J0D01*
G01*
X384856000Y-135866501D02*
G75*
G02X384356000Y-136366501I-500000J0D01*
G01*
X365305999Y-122367201D02*
X352306000Y-122367201D01*
X208643000Y-116816500D02*
G75*
G02X208143000Y-117316500I-500000J0D01*
G01*
X232456000Y-135866501D02*
G75*
G02X231956000Y-136366501I-500000J0D01*
G01*
X352306000Y-136366501D02*
G75*
G02X351806000Y-135866501I0J500000D01*
G01*
X276106000Y-136366501D02*
X289106000Y-136366501D01*
X189593000Y-116816500D02*
X189593000Y-103817201D01*
X295156000Y-136366501D02*
G75*
G02X294656000Y-135866501I0J500000D01*
G01*
X208143000Y-103317200D02*
X195143700Y-103317200D01*
X370856000Y-122867201D02*
X370856000Y-135866501D01*
X238006000Y-136366502D02*
G75*
G02X237505999Y-135866501I0J500001D01*
G01*
X237506000Y-122867201D02*
X237505999Y-135866501D01*
X231956000Y-122367200D02*
G75*
G02X232456000Y-122867200I0J-500000D01*
G01*
X251506001Y-135866501D02*
G75*
G02X251005999Y-136366501I-500001J1D01*
G01*
X294656000Y-122867201D02*
X294656000Y-135866501D01*
X251006000Y-122367201D02*
G75*
G02X251506000Y-122867201I0J-500000D01*
G01*
X294656000Y-122867201D02*
G75*
G02X295156000Y-122367201I500000J0D01*
G01*
X308156000Y-122367201D02*
G75*
G02X308656000Y-122867201I0J-500000D01*
G01*
X365806000Y-135866501D02*
X365805999Y-122867201D01*
X346756001Y-135866500D02*
G75*
G02X346256000Y-136366501I-500001J0D01*
G01*
X289605999Y-135866500D02*
G75*
G02X289106000Y-136366501I-500000J-1D01*
G01*
X231956000Y-122367200D02*
X218956000Y-122367200D01*
X346256000Y-122367201D02*
G75*
G02X346756000Y-122867201I0J-500000D01*
G01*
X389906000Y-150716101D02*
X388381000Y-150716101D01*
X390406001Y-155416500D02*
G75*
G02X389906000Y-154916501I-1J500000D01*
G01*
X403906000Y-146116301D02*
X405431000Y-146116301D01*
X380805999Y-146116301D02*
X381631000Y-146116301D01*
X403906000Y-141917201D02*
X403906000Y-146116301D01*
X388381000Y-142886200D02*
X388381000Y-146116301D01*
X381631000Y-155186500D02*
X381631000Y-148916601D01*
X381631000Y-146116301D02*
X381631000Y-142886200D01*
X403406000Y-141417201D02*
G75*
G02X403906000Y-141917201I0J-500000D01*
G01*
X389906000Y-146116301D02*
X389906000Y-141917201D01*
X381631000Y-142886200D02*
X388381000Y-142886200D01*
X386655000Y-155186500D02*
X386655000Y-156386701D01*
X390406000Y-141417201D02*
X403406000Y-141417201D01*
X389906000Y-141917201D02*
G75*
G02X390406000Y-141417201I500000J0D01*
G01*
X388381000Y-146116301D02*
X389906000Y-146116301D01*
X381631000Y-148916601D02*
X380805999Y-148916601D01*
X380805999Y-148916601D02*
X380805999Y-146116301D01*
X383355000Y-155186500D02*
X381631000Y-155186500D01*
X388381000Y-155186500D02*
X386655000Y-155186500D01*
X383355000Y-156386701D02*
X383355000Y-155186500D01*
X389906000Y-154916501D02*
X389906000Y-150716101D01*
X386655000Y-156386701D02*
X383355000Y-156386701D01*
X388381000Y-150716101D02*
X388381000Y-155186500D01*
X328494000Y-117316500D02*
G75*
G02X327994000Y-116816500I0J500000D01*
G01*
X271343999Y-117316501D02*
G75*
G02X270844000Y-116816500I1J500000D01*
G01*
X270844000Y-103817200D02*
X270844000Y-116816500D01*
X328494000Y-117316500D02*
X341493000Y-117316500D01*
X309444000Y-117316500D02*
X322443000Y-117316500D01*
X309443999Y-117316500D02*
G75*
G02X308943999Y-116816500I0J500000D01*
G01*
X99393649Y-103817200D02*
X99393649Y-116816500D01*
X284343000Y-103317200D02*
X271344000Y-103317200D01*
X327994000Y-103817201D02*
X327994000Y-116816500D01*
X308943999Y-103817200D02*
X308943999Y-116816500D01*
X322443000Y-103317200D02*
X309444000Y-103317200D01*
X308943998Y-103817200D02*
G75*
G02X309444000Y-103317200I500001J-1D01*
G01*
X341493000Y-103317201D02*
G75*
G02X341993000Y-103817201I0J-500000D01*
G01*
X341993000Y-116816500D02*
X341993000Y-103817201D01*
X270844000Y-103817200D02*
G75*
G02X271344000Y-103317200I500000J0D01*
G01*
X112893200Y-103317200D02*
G75*
G02X113393199Y-103817201I-1J-500000D01*
G01*
X271344000Y-117316501D02*
X284343000Y-117316500D01*
X99893649Y-117316500D02*
G75*
G02X99393649Y-116816500I0J500000D01*
G01*
X99393649Y-103817200D02*
G75*
G02X99893649Y-103317200I500000J0D01*
G01*
X99893649Y-117316500D02*
X112893199Y-117316500D01*
X327994000Y-103817201D02*
G75*
G02X328494000Y-103317201I500000J0D01*
G01*
X341493000Y-103317201D02*
X328494000Y-103317201D01*
X284843000Y-116816500D02*
G75*
G02X284343000Y-117316500I-500000J0D01*
G01*
X341993000Y-116816500D02*
G75*
G02X341493000Y-117316500I-500000J0D01*
G01*
X112893199Y-103317200D02*
X99893649Y-103317200D01*
X113393199Y-116816500D02*
X113393199Y-103817201D01*
X113393199Y-116816500D02*
G75*
G02X112893199Y-117316500I-500000J0D01*
G01*
X284343000Y-103317200D02*
G75*
G02X284843000Y-103817200I0J-500000D01*
G01*
X461055999Y-116816501D02*
G75*
G02X460556000Y-117316500I-499999J0D01*
G01*
X265793000Y-116816501D02*
G75*
G02X265293000Y-117316501I-500000J0D01*
G01*
X447056000Y-103817201D02*
X447055999Y-116816500D01*
X366094000Y-103817201D02*
X366094000Y-116816500D01*
X461055999Y-116816500D02*
X461056000Y-103817200D01*
X380093000Y-116816500D02*
X380093000Y-103817201D01*
X165780499Y-116816500D02*
G75*
G02X165280499Y-117316500I-500000J0D01*
G01*
X460556000Y-103317200D02*
G75*
G02X461056000Y-103817200I0J-500000D01*
G01*
X176093700Y-117316500D02*
G75*
G02X175593700Y-116816500I0J500000D01*
G01*
X347544000Y-117316500D02*
X360543000Y-117316500D01*
X289894000Y-103817200D02*
X289894000Y-116816500D01*
X385644000Y-117316500D02*
X398643000Y-117316500D01*
X385144000Y-103817201D02*
G75*
G02X385644000Y-103317201I500000J0D01*
G01*
X252294000Y-117316501D02*
G75*
G02X251794000Y-116816501I0J500000D01*
G01*
X252294000Y-117316500D02*
X265293000Y-117316501D01*
X189592999Y-116816499D02*
G75*
G02X189093000Y-117316500I-500000J-1D01*
G01*
X289894000Y-103817200D02*
G75*
G02X290394000Y-103317200I500000J0D01*
G01*
X366094000Y-103817200D02*
G75*
G02X366594000Y-103317200I500000J0D01*
G01*
X447555999Y-117316500D02*
X460556000Y-117316500D01*
X176093700Y-117316500D02*
X189093000Y-117316500D01*
X303392999Y-103317201D02*
G75*
G02X303893000Y-103817200I1J-500000D01*
G01*
X290394000Y-117316500D02*
X303393000Y-117316500D01*
X379593001Y-103317200D02*
G75*
G02X380093000Y-103817201I-1J-500000D01*
G01*
X398643000Y-103317201D02*
G75*
G02X399143000Y-103817201I0J-500000D01*
G01*
X399143000Y-116816500D02*
X399143000Y-103817201D01*
X385644000Y-117316500D02*
G75*
G02X385144000Y-116816500I0J500000D01*
G01*
X380093000Y-116816500D02*
G75*
G02X379593000Y-117316500I-500000J0D01*
G01*
X165280499Y-103317200D02*
X152281200Y-103317200D01*
X460556000Y-103317200D02*
X447555999Y-103317200D01*
X165280499Y-103317199D02*
G75*
G02X165780500Y-103817200I0J-500001D01*
G01*
X189093000Y-103317201D02*
X176093700Y-103317201D01*
X447555998Y-117316501D02*
G75*
G02X447055999Y-116816500I1J500000D01*
G01*
X189093000Y-103317201D02*
G75*
G02X189593000Y-103817201I0J-500000D01*
G01*
X151781200Y-103817200D02*
G75*
G02X152281200Y-103317200I500000J0D01*
G01*
X385144000Y-103817201D02*
X385144000Y-116816500D01*
X366593999Y-117316501D02*
G75*
G02X366094000Y-116816500I1J500000D01*
G01*
X303393000Y-103317200D02*
X290394000Y-103317200D01*
X347044000Y-103817200D02*
G75*
G02X347544000Y-103317200I500000J0D01*
G01*
X290394000Y-117316500D02*
G75*
G02X289894000Y-116816500I0J500000D01*
G01*
X265292999Y-103317200D02*
X252294000Y-103317200D01*
X379593000Y-103317200D02*
X366594000Y-103317200D01*
X399143000Y-116816500D02*
G75*
G02X398643000Y-117316500I-500000J0D01*
G01*
X175593700Y-103817201D02*
X175593700Y-116816500D01*
X151781200Y-103817200D02*
X151781200Y-116816500D01*
X152281200Y-117316500D02*
G75*
G02X151781200Y-116816500I0J500000D01*
G01*
X251794000Y-103817200D02*
G75*
G02X252294000Y-103317200I500000J0D01*
G01*
X284843000Y-116816500D02*
X284843000Y-103817200D01*
X347544000Y-117316501D02*
G75*
G02X347044000Y-116816501I0J500000D01*
G01*
X366594000Y-117316500D02*
X379593000Y-117316500D01*
X447056000Y-103817201D02*
G75*
G02X447555999Y-103317200I500000J1D01*
G01*
X175593700Y-103817201D02*
G75*
G02X176093700Y-103317201I500000J0D01*
G01*
X347044000Y-103817200D02*
X347044000Y-116816501D01*
X165780499Y-116816500D02*
X165780500Y-103817200D01*
X303893000Y-116816500D02*
G75*
G02X303393000Y-117316500I-500000J0D01*
G01*
X360543000Y-103317200D02*
X347544000Y-103317200D01*
X251794000Y-103817201D02*
X251794000Y-116816501D01*
X265793000Y-116816500D02*
X265793000Y-103817201D01*
X360543000Y-103317200D02*
G75*
G02X361043000Y-103817200I0J-500000D01*
G01*
X361043000Y-116816501D02*
X361043000Y-103817200D01*
X361043000Y-116816500D02*
G75*
G02X360543000Y-117316500I-500000J0D01*
G01*
X152281200Y-117316500D02*
X165280499Y-117316500D01*
X398643000Y-103317201D02*
X385644000Y-103317201D01*
X303893000Y-116816500D02*
X303893000Y-103817200D01*
X265293000Y-103317201D02*
G75*
G02X265793000Y-103817201I0J-500000D01*
G01*
X447555998Y-155416501D02*
G75*
G02X447055999Y-154916500I1J500000D01*
G01*
X150649899Y-148916601D02*
X149824400Y-148916601D01*
X461055999Y-154916500D02*
G75*
G02X460556000Y-155416501I-500000J-1D01*
G01*
X150649899Y-155186500D02*
X150649899Y-148916601D01*
X157399600Y-150716101D02*
X157399600Y-155186500D01*
X158924999Y-150716101D02*
X157399600Y-150716101D01*
X176173699Y-156386701D02*
X176173699Y-155186500D01*
X149824400Y-148916601D02*
X149824400Y-146116301D01*
X355780999Y-141417200D02*
X342781000Y-141417201D01*
X356280999Y-154916500D02*
X356280999Y-141917200D01*
X361831000Y-155416500D02*
X374831000Y-155416500D01*
X304681000Y-155416500D02*
G75*
G02X304181000Y-154916500I0J500000D01*
G01*
X361331000Y-141917200D02*
X361331000Y-154916500D01*
X317681000Y-141417201D02*
G75*
G02X318181000Y-141917201I0J-500000D01*
G01*
X318181000Y-154916500D02*
X318181000Y-141917201D01*
X158924999Y-154916500D02*
X158924999Y-150716101D01*
X304181000Y-141917201D02*
X304181000Y-154916500D01*
X172424300Y-155416500D02*
X159424999Y-155416500D01*
X174450000Y-150716101D02*
X172924300Y-150716101D01*
X375331000Y-154916500D02*
X375331000Y-141917200D01*
X155674099Y-155186500D02*
X155674099Y-156386701D01*
X159425000Y-155416501D02*
G75*
G02X158924999Y-154916500I0J500001D01*
G01*
X172924300Y-154916500D02*
G75*
G02X172424300Y-155416500I-500000J0D01*
G01*
X447055999Y-141917201D02*
X447055999Y-154916500D01*
X157399600Y-155186500D02*
X155674099Y-155186500D01*
X317681000Y-141417201D02*
X304681000Y-141417201D01*
X172924300Y-150716101D02*
X172924300Y-154916500D01*
X355780999Y-141417200D02*
G75*
G02X356280999Y-141917200I0J-500000D01*
G01*
X361831000Y-155416500D02*
G75*
G02X361331000Y-154916500I0J500000D01*
G01*
X304181000Y-141917201D02*
G75*
G02X304681000Y-141417201I500000J0D01*
G01*
X152375000Y-155186500D02*
X150649899Y-155186500D01*
X155674099Y-156386701D02*
X152375000Y-156386701D01*
X375331000Y-154916500D02*
G75*
G02X374831000Y-155416500I-500000J0D01*
G01*
X361331000Y-141917200D02*
G75*
G02X361831000Y-141417200I500000J0D01*
G01*
X460556000Y-141417201D02*
X447555999Y-141417201D01*
X152375000Y-156386701D02*
X152375000Y-155186500D01*
X174450000Y-155186500D02*
X174450000Y-150716101D01*
X374831000Y-141417201D02*
X361831000Y-141417200D01*
X447555999Y-155416500D02*
X460556000Y-155416501D01*
X374831000Y-141417200D02*
G75*
G02X375331000Y-141917200I0J-500000D01*
G01*
X318181000Y-154916500D02*
G75*
G02X317681000Y-155416500I-500000J0D01*
G01*
X304681000Y-155416501D02*
X317681000Y-155416500D01*
X460556000Y-141417200D02*
G75*
G02X461055999Y-141917201I-1J-500000D01*
G01*
X176173699Y-155186500D02*
X174450000Y-155186500D01*
X447055999Y-141917201D02*
G75*
G02X447555999Y-141417201I500000J0D01*
G01*
X461055999Y-154916500D02*
X461055999Y-141917201D01*
X415312000Y-136366501D02*
X402311000Y-136366501D01*
X417336000Y-131666101D02*
X415812000Y-131666101D01*
X401811000Y-131666101D02*
X400286999Y-131666101D01*
X402311000Y-136366501D02*
G75*
G02X401811000Y-135866501I0J500000D01*
G01*
X402311000Y-122367200D02*
X415312000Y-122367200D01*
X401811000Y-135866501D02*
X401811000Y-131666101D01*
X395261000Y-137336700D02*
X395261000Y-136136501D01*
X398562000Y-136136501D02*
X398562000Y-137336700D01*
X422361999Y-137336700D02*
X419061000Y-137336700D01*
X400286999Y-131666101D02*
X400286999Y-136136501D01*
X400286999Y-123836200D02*
X400286999Y-127066301D01*
X401811000Y-127066301D02*
X401811000Y-122867201D01*
X424911000Y-129866601D02*
X424086999Y-129866601D01*
X415812000Y-135866501D02*
G75*
G02X415312000Y-136366501I-500000J0D01*
G01*
X400286999Y-127066301D02*
X401811000Y-127066301D01*
X342781000Y-155416500D02*
X355780999Y-155416500D01*
X424911000Y-127066301D02*
X424911000Y-129866601D01*
X424086999Y-127066301D02*
X424911000Y-127066301D01*
X419061000Y-136136501D02*
X417336000Y-136136501D01*
X415812000Y-127066301D02*
X417336000Y-127066301D01*
X415812000Y-122867201D02*
X415812000Y-127066301D01*
X393536000Y-127066301D02*
X393536000Y-123836200D01*
X415812000Y-131666101D02*
X415812000Y-135866501D01*
X417336000Y-127066301D02*
X417336000Y-123836200D01*
X342281000Y-141917200D02*
X342281000Y-154916500D01*
X400286999Y-136136501D02*
X398562000Y-136136501D01*
X419061000Y-137336700D02*
X419061000Y-136136501D01*
X424086999Y-136136501D02*
X422361999Y-136136501D01*
X393536000Y-123836200D02*
X400286999Y-123836200D01*
X422361999Y-136136501D02*
X422361999Y-137336700D01*
X424086999Y-123836200D02*
X424086999Y-127066301D01*
X417336000Y-123836200D02*
X424086999Y-123836200D01*
X417336000Y-136136501D02*
X417336000Y-131666101D01*
X342781000Y-155416500D02*
G75*
G02X342281000Y-154916500I0J500000D01*
G01*
X424086999Y-129866601D02*
X424086999Y-136136501D01*
X342281000Y-141917201D02*
G75*
G02X342781000Y-141417201I500000J0D01*
G01*
X222431000Y-141417201D02*
X209431000Y-141417201D01*
X392712000Y-127066301D02*
X393536000Y-127066301D01*
X415312000Y-122367201D02*
G75*
G02X415812000Y-122867201I0J-500000D01*
G01*
X392712000Y-129866601D02*
X392712000Y-127066301D01*
X393536000Y-129866601D02*
X392712000Y-129866601D01*
X393536000Y-136136501D02*
X393536000Y-129866601D01*
X395261000Y-136136501D02*
X393536000Y-136136501D01*
X401811000Y-122867200D02*
G75*
G02X402311000Y-122367200I500000J0D01*
G01*
X356280999Y-154916500D02*
G75*
G02X355780999Y-155416500I-500000J0D01*
G01*
X398562000Y-137336700D02*
X395261000Y-137336700D01*
X253461000Y-165178801D02*
X263699999Y-165178801D01*
X253461000Y-165166301D02*
X253461000Y-165178801D01*
X244362000Y-160967301D02*
X244362000Y-165166301D01*
X252637000Y-165166301D02*
X253461000Y-165166301D01*
X252637000Y-161936200D02*
X252637000Y-165166301D01*
X245886000Y-161936200D02*
X252637000Y-161936200D01*
X244362000Y-165166301D02*
X245886000Y-165166301D01*
X243862000Y-160467299D02*
G75*
G02X244362000Y-160967301I-1J-500001D01*
G01*
X245886000Y-165166301D02*
X245886000Y-161936200D01*
X230861000Y-160467300D02*
X243862000Y-160467300D01*
X263699999Y-165178801D02*
X263700000Y-160979370D01*
X301800000Y-160967301D02*
G75*
G02X302300000Y-160467301I500000J0D01*
G01*
X282462000Y-165178801D02*
X293525000Y-165166301D01*
X301800000Y-165166301D02*
X301800000Y-160967301D01*
X300274999Y-165166301D02*
X301800000Y-165166301D01*
X293525000Y-165166301D02*
X293525000Y-161936200D01*
X264199669Y-160479370D02*
X281961669Y-160467631D01*
X263700000Y-160979371D02*
G75*
G02X264199669Y-160479370I500000J1D01*
G01*
X293525000Y-161936200D02*
X300274999Y-161936200D01*
X282462000Y-160967631D02*
X282462000Y-165178801D01*
X281961669Y-160467630D02*
G75*
G02X282462000Y-160967631I330J-500001D01*
G01*
X300274999Y-161936200D02*
X300274999Y-165166301D01*
X228836999Y-169766200D02*
X228836999Y-174236501D01*
X230361000Y-169766200D02*
X228836999Y-169766200D01*
X230861001Y-174466700D02*
G75*
G02X230361000Y-173966701I-1J500000D01*
G01*
X245886000Y-174236501D02*
X245886000Y-169766200D01*
X243862000Y-174466701D02*
X230861000Y-174466701D01*
X230361000Y-173966701D02*
X230361000Y-169766200D01*
X227111999Y-174236501D02*
X227111999Y-175436801D01*
X244362001Y-173966700D02*
G75*
G02X243862000Y-174466701I-500001J0D01*
G01*
X245886000Y-169766200D02*
X244362000Y-169766200D01*
X244362000Y-169766200D02*
X244362000Y-173966701D01*
X228836999Y-174236501D02*
X227111999Y-174236501D01*
X324074000Y-167966501D02*
X324074000Y-174236501D01*
X324899999Y-167966501D02*
X324074000Y-167966501D01*
X324074000Y-161936200D02*
X324074000Y-165166301D01*
X302300000Y-160467301D02*
X315299000Y-160467301D01*
X324899999Y-165166301D02*
X324899999Y-167966501D01*
X324074000Y-165166301D02*
X324899999Y-165166301D01*
X317325000Y-165166301D02*
X317325000Y-161936200D01*
X317325000Y-161936200D02*
X324074000Y-161936200D01*
X315799000Y-165166301D02*
X317325000Y-165166301D01*
X315299000Y-160467301D02*
G75*
G02X315799000Y-160967301I0J-500000D01*
G01*
X315799000Y-160967301D02*
X315799000Y-165166301D01*
X302300000Y-174466700D02*
G75*
G02X301800000Y-173966700I0J500000D01*
G01*
X315299000Y-174466700D02*
X302300000Y-174466700D01*
X324074000Y-174236501D02*
X322349000Y-174236501D01*
X315799000Y-173966700D02*
G75*
G02X315299000Y-174466700I-500000J0D01*
G01*
X322349000Y-174236501D02*
X322349000Y-175436801D01*
X315799000Y-169766200D02*
X315799000Y-173966701D01*
X293525000Y-174236501D02*
X293525000Y-169780071D01*
X298549000Y-175436801D02*
X295249999Y-175436801D01*
X300274999Y-169766200D02*
X300274999Y-174236501D01*
X282462000Y-169780071D02*
X282461999Y-173967032D01*
X295249999Y-174236501D02*
X293525000Y-174236501D01*
X295249999Y-175436801D02*
X295249999Y-174236501D01*
X298549000Y-174236501D02*
X298549000Y-175436801D01*
X300274999Y-174236501D02*
X298549000Y-174236501D01*
X301800000Y-173966700D02*
X301800000Y-169766200D01*
X301800000Y-169766200D02*
X300274999Y-169766200D01*
X293525000Y-169780071D02*
X282462000Y-169780071D01*
X282461999Y-173967031D02*
G75*
G02X281962332Y-174467032I-500000J-1D01*
G01*
X263699999Y-173978828D02*
X263699999Y-169780071D01*
X247611000Y-175436801D02*
X247611000Y-174236501D01*
X247611000Y-174236501D02*
X245886000Y-174236501D01*
X252637000Y-169780071D02*
X252637000Y-174236501D01*
X250912000Y-175436801D02*
X247611000Y-175436801D01*
X264200332Y-174478829D02*
G75*
G02X263699999Y-173978828I-332J500001D01*
G01*
X250912000Y-174236501D02*
X250912000Y-175436801D01*
X252637000Y-174236501D02*
X250912000Y-174236501D01*
X263699999Y-169780071D02*
X252637000Y-169780071D01*
X281962332Y-174467032D02*
X264200332Y-174478828D01*
X376119000Y-98266800D02*
G75*
G02X375619000Y-97766800I0J500000D01*
G01*
X461055999Y-97766800D02*
G75*
G02X460555999Y-98266800I-500000J0D01*
G01*
X447556000Y-98266800D02*
X460555999Y-98266800D01*
X217667998Y-84266800D02*
G75*
G02X218168000Y-84766800I1J-500001D01*
G01*
X376119000Y-98266800D02*
X389118000Y-98266800D01*
X370568000Y-97766800D02*
G75*
G02X370068000Y-98266800I-500000J0D01*
G01*
X447556000Y-98266801D02*
G75*
G02X447055999Y-97766800I0J500001D01*
G01*
X447055999Y-84766801D02*
X447055999Y-97766800D01*
X447055999Y-84766801D02*
G75*
G02X447555999Y-84266801I500000J0D01*
G01*
X460556000Y-84266801D02*
G75*
G02X461055999Y-84766800I0J-499999D01*
G01*
X204668999Y-98266800D02*
G75*
G02X204168999Y-97766800I0J500000D01*
G01*
X204168999Y-84766800D02*
X204168999Y-97766800D01*
X460556000Y-84266800D02*
X447555999Y-84266801D01*
X370068000Y-84266800D02*
G75*
G02X370568000Y-84766800I0J-500000D01*
G01*
X461055999Y-97766800D02*
X461055999Y-84766800D01*
X204169000Y-84766800D02*
G75*
G02X204668999Y-84266801I499999J0D01*
G01*
X217667999Y-84266800D02*
X204668999Y-84266801D01*
X204668999Y-98266800D02*
X217667999Y-98266800D01*
X218168000Y-97766800D02*
X218168000Y-84766800D01*
X218167999Y-97766800D02*
G75*
G02X217667999Y-98266800I-500000J0D01*
G01*
X389618000Y-97766800D02*
G75*
G02X389118000Y-98266800I-500000J0D01*
G01*
X356569000Y-84766800D02*
G75*
G02X357069000Y-84266800I500000J0D01*
G01*
X357069000Y-98266800D02*
X370068000Y-98266800D01*
X313417999Y-97766800D02*
X313417999Y-84766800D01*
X357069000Y-98266800D02*
G75*
G02X356569000Y-97766800I0J500000D01*
G01*
X356569000Y-84766801D02*
X356569000Y-97766800D01*
X370068000Y-84266800D02*
X357069000Y-84266800D01*
X370568000Y-97766800D02*
X370568000Y-84766800D01*
X213694000Y-103817201D02*
X213694000Y-116816501D01*
X199118000Y-97766801D02*
X199118000Y-84766801D01*
X227192998Y-103317201D02*
G75*
G02X227692999Y-103817200I1J-500000D01*
G01*
X408956000Y-103817200D02*
X408956000Y-116816500D01*
X246743000Y-116816500D02*
X246743000Y-103817201D01*
X213694000Y-103817200D02*
G75*
G02X214194000Y-103317200I500000J0D01*
G01*
X198618001Y-84266800D02*
G75*
G02X199118000Y-84766801I-1J-500000D01*
G01*
X199118000Y-97766800D02*
G75*
G02X198618000Y-98266800I-500000J0D01*
G01*
X409456000Y-117316500D02*
G75*
G02X408956000Y-116816500I0J500000D01*
G01*
X338019000Y-98266800D02*
X351018000Y-98266800D01*
X389618000Y-97766800D02*
X389618000Y-84766800D01*
X242268999Y-84766801D02*
G75*
G02X242769000Y-84266800I500001J0D01*
G01*
X256268000Y-97766800D02*
X256267999Y-84766800D01*
X256268000Y-97766800D02*
G75*
G02X255768000Y-98266800I-500000J0D01*
G01*
X242769000Y-98266800D02*
X255768000Y-98266800D01*
X242769000Y-98266800D02*
G75*
G02X242269000Y-97766800I0J500000D01*
G01*
X232744000Y-103817200D02*
G75*
G02X233244000Y-103317200I500000J0D01*
G01*
X232744000Y-103817200D02*
X232744000Y-116816500D01*
X132443000Y-116816500D02*
X132443000Y-103817200D01*
X132443000Y-116816500D02*
G75*
G02X131943000Y-117316500I-500000J0D01*
G01*
X214194000Y-117316500D02*
X227192999Y-117316500D01*
X338018999Y-98266800D02*
G75*
G02X337518999Y-97766800I0J500000D01*
G01*
X118943699Y-117316500D02*
X131943000Y-117316500D01*
X337519000Y-84766800D02*
G75*
G02X338019000Y-84266800I500000J0D01*
G01*
X322443000Y-103317201D02*
G75*
G02X322943000Y-103817201I0J-500000D01*
G01*
X422956000Y-116816500D02*
X422956000Y-103817200D01*
X322942999Y-116816499D02*
G75*
G02X322443000Y-117316500I-500000J-1D01*
G01*
X131943000Y-103317200D02*
X118943699Y-103317200D01*
X227692999Y-116816500D02*
X227692999Y-103817200D01*
X185118700Y-84766800D02*
X185118700Y-97766800D01*
X337519000Y-84766800D02*
X337518999Y-97766800D01*
X351018000Y-84266800D02*
X338019000Y-84266800D01*
X351018000Y-84266801D02*
G75*
G02X351518000Y-84766801I0J-500000D01*
G01*
X242269000Y-84766800D02*
X242269000Y-97766800D01*
X227692999Y-116816500D02*
G75*
G02X227192999Y-117316500I-500000J0D01*
G01*
X351518000Y-97766800D02*
X351518000Y-84766801D01*
X422456000Y-103317200D02*
G75*
G02X422956000Y-103817200I0J-500000D01*
G01*
X375619000Y-84766801D02*
X375619000Y-97766800D01*
X375619000Y-84766800D02*
G75*
G02X376119000Y-84266800I500000J0D01*
G01*
X389118000Y-84266801D02*
X376119000Y-84266800D01*
X255768000Y-84266800D02*
X242769000Y-84266800D01*
X246242999Y-103317200D02*
X233244000Y-103317200D01*
X185618700Y-98266800D02*
X198618000Y-98266800D01*
X233244000Y-117316500D02*
G75*
G02X232744000Y-116816500I0J500000D01*
G01*
X131943000Y-103317200D02*
G75*
G02X132443000Y-103817200I0J-500000D01*
G01*
X118443699Y-103817200D02*
G75*
G02X118943699Y-103317200I500000J0D01*
G01*
X422456000Y-103317200D02*
X409456000Y-103317200D01*
X198618000Y-84266800D02*
X185618700Y-84266801D01*
X322942999Y-116816500D02*
X322943000Y-103817201D01*
X185618700Y-98266800D02*
G75*
G02X185118700Y-97766800I0J500000D01*
G01*
X422956000Y-116816500D02*
G75*
G02X422456000Y-117316500I-500000J0D01*
G01*
X118943699Y-117316500D02*
G75*
G02X118443699Y-116816500I0J500000D01*
G01*
X227192999Y-103317201D02*
X214194000Y-103317200D01*
X351518000Y-97766800D02*
G75*
G02X351018000Y-98266800I-500000J0D01*
G01*
X389117999Y-84266801D02*
G75*
G02X389618000Y-84766800I1J-500000D01*
G01*
X255768000Y-84266801D02*
G75*
G02X256267999Y-84766800I0J-499999D01*
G01*
X118443699Y-103817200D02*
X118443699Y-116816500D01*
X246243000Y-103317201D02*
G75*
G02X246743000Y-103817201I0J-500000D01*
G01*
X214194001Y-117316500D02*
G75*
G02X213694000Y-116816501I-1J500000D01*
G01*
X409456000Y-117316500D02*
X422456000Y-117316500D01*
X233244000Y-117316500D02*
X246242999Y-117316500D01*
X408955999Y-103817201D02*
G75*
G02X409456000Y-103317200I500001J0D01*
G01*
X185118701Y-84766800D02*
G75*
G02X185618700Y-84266801I499999J0D01*
G01*
X246742999Y-116816500D02*
G75*
G02X246242999Y-117316500I-500000J0D01*
G01*
X228836999Y-161936200D02*
X228836999Y-165166301D01*
X217325000Y-161950000D02*
X224075000Y-161950000D01*
X217325000Y-165178801D02*
X217325000Y-161950000D01*
X230361000Y-160967300D02*
G75*
G02X230861000Y-160467300I500000J0D01*
G01*
X230361000Y-165166301D02*
X230361000Y-160967300D01*
X228836999Y-165166301D02*
X230361000Y-165166301D01*
X224075000Y-161950000D02*
X228836999Y-161936200D01*
M02*
