G04 #@! TF.GenerationSoftware,KiCad,Pcbnew,(5.1.4)-1*
G04 #@! TF.CreationDate,2020-03-25T18:45:55-07:00*
G04 #@! TF.ProjectId,frogdor_plates,66726f67-646f-4725-9f70-6c617465732e,rev?*
G04 #@! TF.SameCoordinates,Original*
G04 #@! TF.FileFunction,Soldermask,Bot*
G04 #@! TF.FilePolarity,Negative*
%FSLAX46Y46*%
G04 Gerber Fmt 4.6, Leading zero omitted, Abs format (unit mm)*
G04 Created by KiCad (PCBNEW (5.1.4)-1) date 2020-03-25 18:45:55*
%MOMM*%
%LPD*%
G04 APERTURE LIST*
%ADD10C,0.100000*%
G04 APERTURE END LIST*
D10*
G36*
X344059239Y-185761467D02*
G01*
X344373282Y-185823934D01*
X344964926Y-186069001D01*
X345497392Y-186424784D01*
X345950216Y-186877608D01*
X346305999Y-187410074D01*
X346551066Y-188001718D01*
X346551066Y-188001719D01*
X346676000Y-188629803D01*
X346676000Y-189270197D01*
X346613533Y-189584239D01*
X346551066Y-189898282D01*
X346305999Y-190489926D01*
X345950216Y-191022392D01*
X345497392Y-191475216D01*
X344964926Y-191830999D01*
X344373282Y-192076066D01*
X344059239Y-192138533D01*
X343745197Y-192201000D01*
X343104803Y-192201000D01*
X342790761Y-192138533D01*
X342476718Y-192076066D01*
X341885074Y-191830999D01*
X341352608Y-191475216D01*
X340899784Y-191022392D01*
X340544001Y-190489926D01*
X340298934Y-189898282D01*
X340236467Y-189584239D01*
X340174000Y-189270197D01*
X340174000Y-188629803D01*
X340298934Y-188001719D01*
X340298934Y-188001718D01*
X340544001Y-187410074D01*
X340899784Y-186877608D01*
X341352608Y-186424784D01*
X341885074Y-186069001D01*
X342476718Y-185823934D01*
X342790761Y-185761467D01*
X343104803Y-185699000D01*
X343745197Y-185699000D01*
X344059239Y-185761467D01*
X344059239Y-185761467D01*
G37*
G36*
X407234239Y-185761467D02*
G01*
X407548282Y-185823934D01*
X408139926Y-186069001D01*
X408672392Y-186424784D01*
X409125216Y-186877608D01*
X409480999Y-187410074D01*
X409726066Y-188001718D01*
X409726066Y-188001719D01*
X409851000Y-188629803D01*
X409851000Y-189270197D01*
X409788533Y-189584239D01*
X409726066Y-189898282D01*
X409480999Y-190489926D01*
X409125216Y-191022392D01*
X408672392Y-191475216D01*
X408139926Y-191830999D01*
X407548282Y-192076066D01*
X407234239Y-192138533D01*
X406920197Y-192201000D01*
X406279803Y-192201000D01*
X405965761Y-192138533D01*
X405651718Y-192076066D01*
X405060074Y-191830999D01*
X404527608Y-191475216D01*
X404074784Y-191022392D01*
X403719001Y-190489926D01*
X403473934Y-189898282D01*
X403411467Y-189584239D01*
X403349000Y-189270197D01*
X403349000Y-188629803D01*
X403473934Y-188001719D01*
X403473934Y-188001718D01*
X403719001Y-187410074D01*
X404074784Y-186877608D01*
X404527608Y-186424784D01*
X405060074Y-186069001D01*
X405651718Y-185823934D01*
X405965761Y-185761467D01*
X406279803Y-185699000D01*
X406920197Y-185699000D01*
X407234239Y-185761467D01*
X407234239Y-185761467D01*
G37*
G36*
X280884239Y-185761467D02*
G01*
X281198282Y-185823934D01*
X281789926Y-186069001D01*
X282322392Y-186424784D01*
X282775216Y-186877608D01*
X283130999Y-187410074D01*
X283376066Y-188001718D01*
X283376066Y-188001719D01*
X283501000Y-188629803D01*
X283501000Y-189270197D01*
X283438533Y-189584239D01*
X283376066Y-189898282D01*
X283130999Y-190489926D01*
X282775216Y-191022392D01*
X282322392Y-191475216D01*
X281789926Y-191830999D01*
X281198282Y-192076066D01*
X280884239Y-192138533D01*
X280570197Y-192201000D01*
X279929803Y-192201000D01*
X279615761Y-192138533D01*
X279301718Y-192076066D01*
X278710074Y-191830999D01*
X278177608Y-191475216D01*
X277724784Y-191022392D01*
X277369001Y-190489926D01*
X277123934Y-189898282D01*
X277061467Y-189584239D01*
X276999000Y-189270197D01*
X276999000Y-188629803D01*
X277123934Y-188001719D01*
X277123934Y-188001718D01*
X277369001Y-187410074D01*
X277724784Y-186877608D01*
X278177608Y-186424784D01*
X278710074Y-186069001D01*
X279301718Y-185823934D01*
X279615761Y-185761467D01*
X279929803Y-185699000D01*
X280570197Y-185699000D01*
X280884239Y-185761467D01*
X280884239Y-185761467D01*
G37*
G36*
X217709239Y-185761467D02*
G01*
X218023282Y-185823934D01*
X218614926Y-186069001D01*
X219147392Y-186424784D01*
X219600216Y-186877608D01*
X219955999Y-187410074D01*
X220201066Y-188001718D01*
X220201066Y-188001719D01*
X220326000Y-188629803D01*
X220326000Y-189270197D01*
X220263533Y-189584239D01*
X220201066Y-189898282D01*
X219955999Y-190489926D01*
X219600216Y-191022392D01*
X219147392Y-191475216D01*
X218614926Y-191830999D01*
X218023282Y-192076066D01*
X217709239Y-192138533D01*
X217395197Y-192201000D01*
X216754803Y-192201000D01*
X216440761Y-192138533D01*
X216126718Y-192076066D01*
X215535074Y-191830999D01*
X215002608Y-191475216D01*
X214549784Y-191022392D01*
X214194001Y-190489926D01*
X213948934Y-189898282D01*
X213886467Y-189584239D01*
X213824000Y-189270197D01*
X213824000Y-188629803D01*
X213948934Y-188001719D01*
X213948934Y-188001718D01*
X214194001Y-187410074D01*
X214549784Y-186877608D01*
X215002608Y-186424784D01*
X215535074Y-186069001D01*
X216126718Y-185823934D01*
X216440761Y-185761467D01*
X216754803Y-185699000D01*
X217395197Y-185699000D01*
X217709239Y-185761467D01*
X217709239Y-185761467D01*
G37*
G36*
X154509239Y-185761467D02*
G01*
X154823282Y-185823934D01*
X155414926Y-186069001D01*
X155947392Y-186424784D01*
X156400216Y-186877608D01*
X156755999Y-187410074D01*
X157001066Y-188001718D01*
X157001066Y-188001719D01*
X157126000Y-188629803D01*
X157126000Y-189270197D01*
X157063533Y-189584239D01*
X157001066Y-189898282D01*
X156755999Y-190489926D01*
X156400216Y-191022392D01*
X155947392Y-191475216D01*
X155414926Y-191830999D01*
X154823282Y-192076066D01*
X154509239Y-192138533D01*
X154195197Y-192201000D01*
X153554803Y-192201000D01*
X153240761Y-192138533D01*
X152926718Y-192076066D01*
X152335074Y-191830999D01*
X151802608Y-191475216D01*
X151349784Y-191022392D01*
X150994001Y-190489926D01*
X150748934Y-189898282D01*
X150686467Y-189584239D01*
X150624000Y-189270197D01*
X150624000Y-188629803D01*
X150748934Y-188001719D01*
X150748934Y-188001718D01*
X150994001Y-187410074D01*
X151349784Y-186877608D01*
X151802608Y-186424784D01*
X152335074Y-186069001D01*
X152926718Y-185823934D01*
X153240761Y-185761467D01*
X153554803Y-185699000D01*
X154195197Y-185699000D01*
X154509239Y-185761467D01*
X154509239Y-185761467D01*
G37*
G36*
X471409239Y-156686467D02*
G01*
X471723282Y-156748934D01*
X472314926Y-156994001D01*
X472847392Y-157349784D01*
X473300216Y-157802608D01*
X473655999Y-158335074D01*
X473901066Y-158926718D01*
X473901066Y-158926719D01*
X474026000Y-159554803D01*
X474026000Y-160195197D01*
X473963533Y-160509239D01*
X473901066Y-160823282D01*
X473655999Y-161414926D01*
X473300216Y-161947392D01*
X472847392Y-162400216D01*
X472314926Y-162755999D01*
X471723282Y-163001066D01*
X471409239Y-163063533D01*
X471095197Y-163126000D01*
X470454803Y-163126000D01*
X470140761Y-163063533D01*
X469826718Y-163001066D01*
X469235074Y-162755999D01*
X468702608Y-162400216D01*
X468249784Y-161947392D01*
X467894001Y-161414926D01*
X467648934Y-160823282D01*
X467586467Y-160509239D01*
X467524000Y-160195197D01*
X467524000Y-159554803D01*
X467648934Y-158926719D01*
X467648934Y-158926718D01*
X467894001Y-158335074D01*
X468249784Y-157802608D01*
X468702608Y-157349784D01*
X469235074Y-156994001D01*
X469826718Y-156748934D01*
X470140761Y-156686467D01*
X470454803Y-156624000D01*
X471095197Y-156624000D01*
X471409239Y-156686467D01*
X471409239Y-156686467D01*
G37*
G36*
X90246563Y-156624000D02*
G01*
X90623282Y-156698934D01*
X91214926Y-156944001D01*
X91747392Y-157299784D01*
X92200216Y-157752608D01*
X92555999Y-158285074D01*
X92801066Y-158876718D01*
X92811012Y-158926719D01*
X92926000Y-159504803D01*
X92926000Y-160145197D01*
X92890036Y-160326000D01*
X92801066Y-160773282D01*
X92555999Y-161364926D01*
X92200216Y-161897392D01*
X91747392Y-162350216D01*
X91214926Y-162705999D01*
X90623282Y-162951066D01*
X90371915Y-163001066D01*
X89995197Y-163076000D01*
X89354803Y-163076000D01*
X88978085Y-163001066D01*
X88726718Y-162951066D01*
X88135074Y-162705999D01*
X87602608Y-162350216D01*
X87149784Y-161897392D01*
X86794001Y-161364926D01*
X86548934Y-160773282D01*
X86459964Y-160326000D01*
X86424000Y-160145197D01*
X86424000Y-159504803D01*
X86538988Y-158926719D01*
X86548934Y-158876718D01*
X86794001Y-158285074D01*
X87149784Y-157752608D01*
X87602608Y-157299784D01*
X88135074Y-156944001D01*
X88726718Y-156698934D01*
X89103437Y-156624000D01*
X89354803Y-156574000D01*
X89995197Y-156574000D01*
X90246563Y-156624000D01*
X90246563Y-156624000D01*
G37*
G36*
X90309239Y-100436467D02*
G01*
X90623282Y-100498934D01*
X91214926Y-100744001D01*
X91747392Y-101099784D01*
X92200216Y-101552608D01*
X92555999Y-102085074D01*
X92801066Y-102676718D01*
X92801066Y-102676719D01*
X92926000Y-103304803D01*
X92926000Y-103945197D01*
X92863533Y-104259239D01*
X92801066Y-104573282D01*
X92555999Y-105164926D01*
X92200216Y-105697392D01*
X91747392Y-106150216D01*
X91214926Y-106505999D01*
X90623282Y-106751066D01*
X90309239Y-106813533D01*
X89995197Y-106876000D01*
X89354803Y-106876000D01*
X89040761Y-106813533D01*
X88726718Y-106751066D01*
X88135074Y-106505999D01*
X87602608Y-106150216D01*
X87149784Y-105697392D01*
X86794001Y-105164926D01*
X86548934Y-104573282D01*
X86486467Y-104259239D01*
X86424000Y-103945197D01*
X86424000Y-103304803D01*
X86548934Y-102676719D01*
X86548934Y-102676718D01*
X86794001Y-102085074D01*
X87149784Y-101552608D01*
X87602608Y-101099784D01*
X88135074Y-100744001D01*
X88726718Y-100498934D01*
X89040761Y-100436467D01*
X89354803Y-100374000D01*
X89995197Y-100374000D01*
X90309239Y-100436467D01*
X90309239Y-100436467D01*
G37*
G36*
X471434239Y-100436467D02*
G01*
X471748282Y-100498934D01*
X472339926Y-100744001D01*
X472872392Y-101099784D01*
X473325216Y-101552608D01*
X473680999Y-102085074D01*
X473926066Y-102676718D01*
X473926066Y-102676719D01*
X474051000Y-103304803D01*
X474051000Y-103945197D01*
X473988533Y-104259239D01*
X473926066Y-104573282D01*
X473680999Y-105164926D01*
X473325216Y-105697392D01*
X472872392Y-106150216D01*
X472339926Y-106505999D01*
X471748282Y-106751066D01*
X471434239Y-106813533D01*
X471120197Y-106876000D01*
X470479803Y-106876000D01*
X470165761Y-106813533D01*
X469851718Y-106751066D01*
X469260074Y-106505999D01*
X468727608Y-106150216D01*
X468274784Y-105697392D01*
X467919001Y-105164926D01*
X467673934Y-104573282D01*
X467611467Y-104259239D01*
X467549000Y-103945197D01*
X467549000Y-103304803D01*
X467673934Y-102676719D01*
X467673934Y-102676718D01*
X467919001Y-102085074D01*
X468274784Y-101552608D01*
X468727608Y-101099784D01*
X469260074Y-100744001D01*
X469851718Y-100498934D01*
X470165761Y-100436467D01*
X470479803Y-100374000D01*
X471120197Y-100374000D01*
X471434239Y-100436467D01*
X471434239Y-100436467D01*
G37*
G36*
X280859239Y-71336467D02*
G01*
X281173282Y-71398934D01*
X281764926Y-71644001D01*
X282165073Y-71911371D01*
X282297391Y-71999783D01*
X282750217Y-72452609D01*
X282798367Y-72524671D01*
X283105999Y-72985074D01*
X283340711Y-73551719D01*
X283351066Y-73576719D01*
X283476000Y-74204803D01*
X283476000Y-74845197D01*
X283413533Y-75159239D01*
X283351066Y-75473282D01*
X283105999Y-76064926D01*
X282842318Y-76459552D01*
X282750661Y-76596727D01*
X282750216Y-76597392D01*
X282297392Y-77050216D01*
X281764926Y-77405999D01*
X281173282Y-77651066D01*
X280859239Y-77713533D01*
X280545197Y-77776000D01*
X279904803Y-77776000D01*
X279590761Y-77713533D01*
X279276718Y-77651066D01*
X278685074Y-77405999D01*
X278152608Y-77050216D01*
X277699784Y-76597392D01*
X277699340Y-76596727D01*
X277607682Y-76459552D01*
X277344001Y-76064926D01*
X277098934Y-75473282D01*
X277036467Y-75159239D01*
X276974000Y-74845197D01*
X276974000Y-74204803D01*
X277098934Y-73576719D01*
X277109289Y-73551719D01*
X277344001Y-72985074D01*
X277651633Y-72524671D01*
X277699783Y-72452609D01*
X278152609Y-71999783D01*
X278284927Y-71911371D01*
X278685074Y-71644001D01*
X279276718Y-71398934D01*
X279590761Y-71336467D01*
X279904803Y-71274000D01*
X280545197Y-71274000D01*
X280859239Y-71336467D01*
X280859239Y-71336467D01*
G37*
G36*
X344059239Y-71336467D02*
G01*
X344373282Y-71398934D01*
X344964926Y-71644001D01*
X345365073Y-71911371D01*
X345497391Y-71999783D01*
X345950217Y-72452609D01*
X345998367Y-72524671D01*
X346305999Y-72985074D01*
X346540711Y-73551719D01*
X346551066Y-73576719D01*
X346676000Y-74204803D01*
X346676000Y-74845197D01*
X346613533Y-75159239D01*
X346551066Y-75473282D01*
X346305999Y-76064926D01*
X346042318Y-76459552D01*
X345950661Y-76596727D01*
X345950216Y-76597392D01*
X345497392Y-77050216D01*
X344964926Y-77405999D01*
X344373282Y-77651066D01*
X344059239Y-77713533D01*
X343745197Y-77776000D01*
X343104803Y-77776000D01*
X342790761Y-77713533D01*
X342476718Y-77651066D01*
X341885074Y-77405999D01*
X341352608Y-77050216D01*
X340899784Y-76597392D01*
X340899340Y-76596727D01*
X340807682Y-76459552D01*
X340544001Y-76064926D01*
X340298934Y-75473282D01*
X340236467Y-75159239D01*
X340174000Y-74845197D01*
X340174000Y-74204803D01*
X340298934Y-73576719D01*
X340309289Y-73551719D01*
X340544001Y-72985074D01*
X340851633Y-72524671D01*
X340899783Y-72452609D01*
X341352609Y-71999783D01*
X341484927Y-71911371D01*
X341885074Y-71644001D01*
X342476718Y-71398934D01*
X342790761Y-71336467D01*
X343104803Y-71274000D01*
X343745197Y-71274000D01*
X344059239Y-71336467D01*
X344059239Y-71336467D01*
G37*
G36*
X217520880Y-71274000D02*
G01*
X218023282Y-71373934D01*
X218614926Y-71619001D01*
X219015073Y-71886371D01*
X219147391Y-71974783D01*
X219600217Y-72427609D01*
X219648367Y-72499671D01*
X219955999Y-72960074D01*
X220190711Y-73526719D01*
X220201066Y-73551719D01*
X220326000Y-74179803D01*
X220326000Y-74820197D01*
X220298456Y-74958668D01*
X220201066Y-75448282D01*
X219955999Y-76039926D01*
X219691561Y-76435685D01*
X219600217Y-76572391D01*
X219147391Y-77025217D01*
X219052488Y-77088629D01*
X218614926Y-77380999D01*
X218023282Y-77626066D01*
X217897598Y-77651066D01*
X217395197Y-77751000D01*
X216754803Y-77751000D01*
X216252402Y-77651066D01*
X216126718Y-77626066D01*
X215535074Y-77380999D01*
X215097512Y-77088629D01*
X215002609Y-77025217D01*
X214549783Y-76572391D01*
X214458439Y-76435685D01*
X214194001Y-76039926D01*
X213948934Y-75448282D01*
X213851544Y-74958668D01*
X213824000Y-74820197D01*
X213824000Y-74179803D01*
X213948934Y-73551719D01*
X213959289Y-73526719D01*
X214194001Y-72960074D01*
X214501633Y-72499671D01*
X214549783Y-72427609D01*
X215002609Y-71974783D01*
X215134927Y-71886371D01*
X215535074Y-71619001D01*
X216126718Y-71373934D01*
X216629120Y-71274000D01*
X216754803Y-71249000D01*
X217395197Y-71249000D01*
X217520880Y-71274000D01*
X217520880Y-71274000D01*
G37*
G36*
X407045880Y-71274000D02*
G01*
X407548282Y-71373934D01*
X408139926Y-71619001D01*
X408540073Y-71886371D01*
X408672391Y-71974783D01*
X409125217Y-72427609D01*
X409173367Y-72499671D01*
X409480999Y-72960074D01*
X409715711Y-73526719D01*
X409726066Y-73551719D01*
X409851000Y-74179803D01*
X409851000Y-74820197D01*
X409823456Y-74958668D01*
X409726066Y-75448282D01*
X409480999Y-76039926D01*
X409216561Y-76435685D01*
X409125217Y-76572391D01*
X408672391Y-77025217D01*
X408577488Y-77088629D01*
X408139926Y-77380999D01*
X407548282Y-77626066D01*
X407422598Y-77651066D01*
X406920197Y-77751000D01*
X406279803Y-77751000D01*
X405777402Y-77651066D01*
X405651718Y-77626066D01*
X405060074Y-77380999D01*
X404622512Y-77088629D01*
X404527609Y-77025217D01*
X404074783Y-76572391D01*
X403983439Y-76435685D01*
X403719001Y-76039926D01*
X403473934Y-75448282D01*
X403376544Y-74958668D01*
X403349000Y-74820197D01*
X403349000Y-74179803D01*
X403473934Y-73551719D01*
X403484289Y-73526719D01*
X403719001Y-72960074D01*
X404026633Y-72499671D01*
X404074783Y-72427609D01*
X404527609Y-71974783D01*
X404659927Y-71886371D01*
X405060074Y-71619001D01*
X405651718Y-71373934D01*
X406154120Y-71274000D01*
X406279803Y-71249000D01*
X406920197Y-71249000D01*
X407045880Y-71274000D01*
X407045880Y-71274000D01*
G37*
G36*
X154320880Y-71249000D02*
G01*
X154823282Y-71348934D01*
X155414926Y-71594001D01*
X155704523Y-71787504D01*
X155947391Y-71949783D01*
X156400217Y-72402609D01*
X156416921Y-72427609D01*
X156755999Y-72935074D01*
X157001066Y-73526718D01*
X157011012Y-73576719D01*
X157126000Y-74154803D01*
X157126000Y-74795197D01*
X157090036Y-74976000D01*
X157001066Y-75423282D01*
X156755999Y-76014926D01*
X156508265Y-76385685D01*
X156400217Y-76547391D01*
X155947391Y-77000217D01*
X155872562Y-77050216D01*
X155414926Y-77355999D01*
X154823282Y-77601066D01*
X154697598Y-77626066D01*
X154195197Y-77726000D01*
X153554803Y-77726000D01*
X153052402Y-77626066D01*
X152926718Y-77601066D01*
X152335074Y-77355999D01*
X151877438Y-77050216D01*
X151802609Y-77000217D01*
X151349783Y-76547391D01*
X151241735Y-76385685D01*
X150994001Y-76014926D01*
X150748934Y-75423282D01*
X150659964Y-74976000D01*
X150624000Y-74795197D01*
X150624000Y-74154803D01*
X150738988Y-73576719D01*
X150748934Y-73526718D01*
X150994001Y-72935074D01*
X151333079Y-72427609D01*
X151349783Y-72402609D01*
X151802609Y-71949783D01*
X152045477Y-71787504D01*
X152335074Y-71594001D01*
X152926718Y-71348934D01*
X153429120Y-71249000D01*
X153554803Y-71224000D01*
X154195197Y-71224000D01*
X154320880Y-71249000D01*
X154320880Y-71249000D01*
G37*
M02*
