0
SECTION
2
HEADER
9
$INSUNITS
70
4
9
$ACADVER
1
AC1014
9
$HANDSEED
5
FFFF
0
ENDSEC
0
SECTION
2
TABLES
0
TABLE
2
VPORT
5
8
100
AcDbSymbolTable
0
ENDTAB
0
TABLE
2
LTYPE
5
5
100
AcDbSymbolTable
0
LTYPE
5
14
100
AcDbSymbolTableRecord
100
AcDbLinetypeTableRecord
2
BYBLOCK
70
0
0
LTYPE
5
15
100
AcDbSymbolTableRecord
100
AcDbLinetypeTableRecord
2
BYLAYER
70
0
0
ENDTAB
0
TABLE
2
LAYER
5
2
100
AcDbSymbolTable
70
2
0
LAYER
5
50
100
AcDbSymbolTableRecord
100
AcDbLayerTableRecord
2
0
70
0
6
CONTINUOUS
0
ENDTAB
0
TABLE
2
STYLE
5
3
100
AcDbSymbolTable
70
1
0
STYLE
5
11
100
AcDbSymbolTableRecord
100
AcDbTextStyleTableRecord
2
STANDARD
70
0
0
ENDTAB
0
TABLE
2
VIEW
5
6
100
AcDbSymbolTable
70
0
0
ENDTAB
0
TABLE
2
UCS
5
7
100
AcDbSymbolTable
70
0
0
ENDTAB
0
TABLE
2
APPID
5
9
100
AcDbSymbolTable
70
2
0
APPID
5
12
100
AcDbSymbolTableRecord
100
AcDbRegAppTableRecord
2
ACAD
70
0
0
ENDTAB
0
TABLE
2
DIMSTYLE
5
A
100
AcDbSymbolTable
70
1
0
ENDTAB
0
TABLE
2
BLOCK_RECORD
5
1
100
AcDbSymbolTable
70
1
0
BLOCK_RECORD
5
1F
100
AcDbSymbolTableRecord
100
AcDbBlockTableRecord
2
*MODEL_SPACE
0
BLOCK_RECORD
5
1B
100
AcDbSymbolTableRecord
100
AcDbBlockTableRecord
2
*PAPER_SPACE
0
ENDTAB
0
ENDSEC
0
SECTION
2
BLOCKS
0
BLOCK
5
20
100
AcDbEntity
100
AcDbBlockBegin
2
*MODEL_SPACE
0
ENDBLK
5
21
100
AcDbEntity
100
AcDbBlockEnd
0
BLOCK
5
1C
100
AcDbEntity
100
AcDbBlockBegin
2
*PAPER_SPACE
0
ENDBLK
5
1D
100
AcDbEntity
100
AcDbBlockEnd
0
ENDSEC
0
SECTION
2
ENTITIES
0
CIRCLE
5
100
100
AcDbEntity
8
0
100
AcDbCircle
10
-371.51200000000006
20
4.2699699999999785
30
0
40
1.5500000000000114
210
0
220
0
230
1
0
CIRCLE
5
101
100
AcDbEntity
8
0
100
AcDbCircle
10
-371.51200000000006
20
-105.15189999999998
30
0
40
1.5500000000000114
210
0
220
0
230
1
0
CIRCLE
5
102
100
AcDbEntity
8
0
100
AcDbCircle
10
4.6103499999999915
20
4.2699699999999785
30
0
40
1.5500000000000003
210
0
220
0
230
1
0
CIRCLE
5
103
100
AcDbEntity
8
0
100
AcDbCircle
10
4.6103499999999915
20
-105.15189999999998
30
0
40
1.5499999999999934
210
0
220
0
230
1
0
LWPOLYLINE
5
104
100
AcDbEntity
8
0
100
AcDbPolyline
90
12
70
1
43
0.0
10
-169.48844300000002
20
-113.15189999999998
10
-371.51200000000006
20
-113.15189999999996
42
-0.41421356237309503
10
-379.512
20
-105.15189999999998
10
-379.512
20
4.2699699999999794
42
-0.41421356237309498
10
-371.51200000000006
20
12.269969999999951
10
4.6103500000000226
20
12.269969999999972
42
-0.4142135623730937
10
12.610349999999986
20
4.2699699999999829
10
12.610349999999999
20
-105.15189999999998
42
-0.41421356237309515
10
4.6103499999999897
20
-113.1519
10
-154.48844300000002
20
-113.15189999999998
10
-154.48844300000002
20
-108.15189999999998
10
-169.48844300000002
20
-108.15189999999998
0
LWPOLYLINE
5
105
100
AcDbEntity
8
0
100
AcDbPolyline
90
12
70
1
43
0.0
10
-371.51200000000006
20
-113.15189999999996
10
-169.48844300000002
20
-113.15189999999998
10
-169.48844300000002
20
-108.15189999999998
10
-154.48844300000002
20
-108.15189999999998
10
-154.48844300000002
20
-113.15189999999998
10
4.6103499999999915
20
-113.1519
42
0.41421356237309614
10
12.610349999999993
20
-105.15189999999998
10
12.610349999999986
20
4.2699699999999829
42
0.41421356237309365
10
4.6103500000000253
20
12.269969999999972
10
-371.51200000000006
20
12.269969999999951
42
0.41421356237309548
10
-379.512
20
4.2699699999999829
10
-379.512
20
-105.15189999999998
42
0.41421356237309437
0
CIRCLE
5
106
100
AcDbEntity
8
0
100
AcDbCircle
10
4.6103499999999915
20
-105.15189999999998
30
0
40
1.5499999999999934
210
0
220
0
230
1
0
CIRCLE
5
107
100
AcDbEntity
8
0
100
AcDbCircle
10
4.6103499999999915
20
4.2699699999999785
30
0
40
1.5500000000000003
210
0
220
0
230
1
0
CIRCLE
5
108
100
AcDbEntity
8
0
100
AcDbCircle
10
-371.51200000000006
20
4.2699699999999785
30
0
40
1.5500000000000114
210
0
220
0
230
1
0
CIRCLE
5
109
100
AcDbEntity
8
0
100
AcDbCircle
10
-371.51200000000006
20
-105.15189999999998
30
0
40
1.5500000000000114
210
0
220
0
230
1
0
ENDSEC
0
SECTION
2
OBJECTS
0
DICTIONARY
5
C
100
AcDbDictionary
3
ACAD_GROUP
350
D
3
ACAD_MLINESTYLE
350
17
0
DICTIONARY
5
D
100
AcDbDictionary
0
DICTIONARY
5
1A
330
C
100
AcDbDictionary
0
DICTIONARY
5
17
100
AcDbDictionary
0
ENDSEC
0
EOF
