0
SECTION
2
HEADER
9
$INSUNITS
70
4
9
$ACADVER
1
AC1014
9
$HANDSEED
5
FFFF
0
ENDSEC
0
SECTION
2
TABLES
0
TABLE
2
VPORT
5
8
100
AcDbSymbolTable
0
ENDTAB
0
TABLE
2
LTYPE
5
5
100
AcDbSymbolTable
0
LTYPE
5
14
100
AcDbSymbolTableRecord
100
AcDbLinetypeTableRecord
2
BYBLOCK
70
0
0
LTYPE
5
15
100
AcDbSymbolTableRecord
100
AcDbLinetypeTableRecord
2
BYLAYER
70
0
0
ENDTAB
0
TABLE
2
LAYER
5
2
100
AcDbSymbolTable
70
2
0
LAYER
5
50
100
AcDbSymbolTableRecord
100
AcDbLayerTableRecord
2
0
70
0
6
CONTINUOUS
0
ENDTAB
0
TABLE
2
STYLE
5
3
100
AcDbSymbolTable
70
1
0
STYLE
5
11
100
AcDbSymbolTableRecord
100
AcDbTextStyleTableRecord
2
STANDARD
70
0
0
ENDTAB
0
TABLE
2
VIEW
5
6
100
AcDbSymbolTable
70
0
0
ENDTAB
0
TABLE
2
UCS
5
7
100
AcDbSymbolTable
70
0
0
ENDTAB
0
TABLE
2
APPID
5
9
100
AcDbSymbolTable
70
2
0
APPID
5
12
100
AcDbSymbolTableRecord
100
AcDbRegAppTableRecord
2
ACAD
70
0
0
ENDTAB
0
TABLE
2
DIMSTYLE
5
A
100
AcDbSymbolTable
70
1
0
ENDTAB
0
TABLE
2
BLOCK_RECORD
5
1
100
AcDbSymbolTable
70
1
0
BLOCK_RECORD
5
1F
100
AcDbSymbolTableRecord
100
AcDbBlockTableRecord
2
*MODEL_SPACE
0
BLOCK_RECORD
5
1B
100
AcDbSymbolTableRecord
100
AcDbBlockTableRecord
2
*PAPER_SPACE
0
ENDTAB
0
ENDSEC
0
SECTION
2
BLOCKS
0
BLOCK
5
20
100
AcDbEntity
100
AcDbBlockBegin
2
*MODEL_SPACE
0
ENDBLK
5
21
100
AcDbEntity
100
AcDbBlockEnd
0
BLOCK
5
1C
100
AcDbEntity
100
AcDbBlockBegin
2
*PAPER_SPACE
0
ENDBLK
5
1D
100
AcDbEntity
100
AcDbBlockEnd
0
ENDSEC
0
SECTION
2
ENTITIES
0
LWPOLYLINE
5
100
100
AcDbEntity
8
0
100
AcDbPolyline
90
6
70
1
43
0.0
10
2.3103499999999921
20
-103.82399438086384
10
2.3103499999999864
20
-106.47980561913613
10
4.6103499999999924
20
-107.80771123827228
10
6.9103499999999984
20
-106.47980561913613
10
6.9103499999999993
20
-103.82399438086384
10
4.6103499999999951
20
-102.49608876172771
0
LWPOLYLINE
5
101
100
AcDbEntity
8
0
100
AcDbPolyline
90
6
70
1
43
0.0
10
-373.81200000000001
20
-103.82399438086387
10
-373.81200000000001
20
-106.47980561913612
10
-371.51200000000006
20
-107.80771123827223
10
-369.21200000000005
20
-106.47980561913612
10
-369.21200000000005
20
-103.82399438086387
10
-371.51200000000006
20
-102.49608876172773
0
LWPOLYLINE
5
102
100
AcDbEntity
8
0
100
AcDbPolyline
90
6
70
1
43
0.0
10
2.3103499999999921
20
5.5978756191361168
10
2.3103499999999939
20
2.9420643808638367
10
4.6103499999999951
20
1.6141587617277002
10
6.9103499999999931
20
2.9420643808638411
10
6.9103499999999904
20
5.5978756191361185
10
4.6103499999999906
20
6.9257812382722559
0
LWPOLYLINE
5
103
100
AcDbEntity
8
0
100
AcDbPolyline
90
6
70
1
43
0.0
10
-373.81200000000001
20
5.5978756191361034
10
-373.81200000000001
20
2.9420643808638576
10
-371.51200000000006
20
1.6141587617277371
10
-369.21200000000005
20
2.9420643808638585
10
-369.21200000000005
20
5.5978756191361008
10
-371.51200000000006
20
6.925781238272223
0
LWPOLYLINE
5
104
100
AcDbEntity
8
0
100
AcDbPolyline
90
20
70
1
43
0.0
10
-169.48844300000002
20
-103.15189999999998
10
-169.48844300000002
20
-113.15189999999998
10
-371.51200000000006
20
-113.15189999999994
42
-0.41421356237309437
10
-379.512
20
-105.15189999999998
10
-379.512
20
4.2699699999999812
42
-0.41421356237309548
10
-371.51200000000006
20
12.269969999999951
10
4.6103500000000217
20
12.269969999999976
42
-0.41421356237309354
10
12.610349999999993
20
4.2699699999999829
10
12.610349999999993
20
-105.15189999999998
42
-0.4142135623730962
10
4.6103499999999897
20
-113.1519
10
-154.48844300000002
20
-113.15189999999998
10
-154.48844300000002
20
-103.15189999999998
10
-1.3896500000000014
20
-103.1519
42
0.41421356237309437
10
2.6103499999999986
20
-99.151899999999983
10
2.6103499999999964
20
-1.7300300000000668
42
0.4142135623730947
10
-1.3896499999999889
20
2.2699699999999372
10
-365.51200000000006
20
2.2699699999998972
42
0.41421356237307927
10
-369.512
20
-1.7300300000000846
10
-369.512
20
-99.151899999999955
42
0.41421356237309503
10
-365.512
20
-103.15189999999994
0
LWPOLYLINE
5
105
100
AcDbEntity
8
0
100
AcDbPolyline
90
20
70
1
43
0.0
10
-154.48844300000002
20
-103.15189999999998
10
-1.3896500000000012
20
-103.1519
42
0.41421356237309437
10
2.6103499999999933
20
-99.151899999999983
10
2.6103499999999973
20
-1.7300300000000666
42
0.41421356237309576
10
-1.3896499999999889
20
2.2699699999999363
10
-365.51200000000006
20
2.2699699999998972
42
0.41421356237307938
10
-369.512
20
-1.7300300000000846
10
-369.512
20
-99.151899999999955
42
0.41421356237309503
10
-365.512
20
-103.15189999999994
10
-169.48844300000002
20
-103.15189999999998
10
-169.48844300000002
20
-113.15189999999998
10
-371.51200000000006
20
-113.15189999999994
42
-0.41421356237309437
10
-379.512
20
-105.15189999999998
10
-379.512
20
4.2699699999999812
42
-0.41421356237309548
10
-371.51200000000006
20
12.269969999999951
10
4.6103500000000217
20
12.269969999999976
42
-0.41421356237309381
10
12.610349999999993
20
4.2699699999999829
10
12.610349999999993
20
-105.15189999999998
42
-0.41421356237309614
10
4.6103499999999897
20
-113.1519
10
-154.48844300000002
20
-113.15189999999998
0
LWPOLYLINE
5
106
100
AcDbEntity
8
0
100
AcDbPolyline
90
6
70
1
43
0.0
10
2.3103499999999864
20
-106.47980561913613
10
2.3103499999999921
20
-103.82399438086384
10
4.6103499999999951
20
-102.49608876172771
10
6.9103499999999993
20
-103.82399438086384
10
6.9103499999999984
20
-106.47980561913613
10
4.6103499999999924
20
-107.80771123827228
0
LWPOLYLINE
5
107
100
AcDbEntity
8
0
100
AcDbPolyline
90
6
70
1
43
0.0
10
4.6103499999999951
20
1.6141587617277002
10
2.3103499999999939
20
2.9420643808638367
10
2.3103499999999921
20
5.5978756191361168
10
4.6103499999999906
20
6.9257812382722559
10
6.9103499999999904
20
5.5978756191361185
10
6.9103499999999931
20
2.9420643808638411
0
LWPOLYLINE
5
108
100
AcDbEntity
8
0
100
AcDbPolyline
90
6
70
1
43
0.0
10
-369.21200000000005
20
2.9420643808638585
10
-371.51200000000006
20
1.6141587617277371
10
-373.81200000000001
20
2.9420643808638576
10
-373.81200000000001
20
5.5978756191361034
10
-371.51200000000006
20
6.925781238272223
10
-369.21200000000005
20
5.5978756191361008
0
LWPOLYLINE
5
109
100
AcDbEntity
8
0
100
AcDbPolyline
90
6
70
1
43
0.0
10
-371.51200000000006
20
-102.49608876172773
10
-369.21200000000005
20
-103.82399438086387
10
-369.21200000000005
20
-106.47980561913612
10
-371.51200000000006
20
-107.80771123827223
10
-373.81200000000001
20
-106.47980561913612
10
-373.81200000000001
20
-103.82399438086387
0
ENDSEC
0
SECTION
2
OBJECTS
0
DICTIONARY
5
C
100
AcDbDictionary
3
ACAD_GROUP
350
D
3
ACAD_MLINESTYLE
350
17
0
DICTIONARY
5
D
100
AcDbDictionary
0
DICTIONARY
5
1A
330
C
100
AcDbDictionary
0
DICTIONARY
5
17
100
AcDbDictionary
0
ENDSEC
0
EOF
