0
SECTION
2
HEADER
9
$INSUNITS
70
4
9
$ACADVER
1
AC1014
9
$HANDSEED
5
FFFF
0
ENDSEC
0
SECTION
2
TABLES
0
TABLE
2
VPORT
5
8
100
AcDbSymbolTable
0
ENDTAB
0
TABLE
2
LTYPE
5
5
100
AcDbSymbolTable
0
LTYPE
5
14
100
AcDbSymbolTableRecord
100
AcDbLinetypeTableRecord
2
BYBLOCK
70
0
0
LTYPE
5
15
100
AcDbSymbolTableRecord
100
AcDbLinetypeTableRecord
2
BYLAYER
70
0
0
ENDTAB
0
TABLE
2
LAYER
5
2
100
AcDbSymbolTable
70
2
0
LAYER
5
50
100
AcDbSymbolTableRecord
100
AcDbLayerTableRecord
2
0
70
0
6
CONTINUOUS
0
ENDTAB
0
TABLE
2
STYLE
5
3
100
AcDbSymbolTable
70
1
0
STYLE
5
11
100
AcDbSymbolTableRecord
100
AcDbTextStyleTableRecord
2
STANDARD
70
0
0
ENDTAB
0
TABLE
2
VIEW
5
6
100
AcDbSymbolTable
70
0
0
ENDTAB
0
TABLE
2
UCS
5
7
100
AcDbSymbolTable
70
0
0
ENDTAB
0
TABLE
2
APPID
5
9
100
AcDbSymbolTable
70
2
0
APPID
5
12
100
AcDbSymbolTableRecord
100
AcDbRegAppTableRecord
2
ACAD
70
0
0
ENDTAB
0
TABLE
2
DIMSTYLE
5
A
100
AcDbSymbolTable
70
1
0
ENDTAB
0
TABLE
2
BLOCK_RECORD
5
1
100
AcDbSymbolTable
70
1
0
BLOCK_RECORD
5
1F
100
AcDbSymbolTableRecord
100
AcDbBlockTableRecord
2
*MODEL_SPACE
0
BLOCK_RECORD
5
1B
100
AcDbSymbolTableRecord
100
AcDbBlockTableRecord
2
*PAPER_SPACE
0
ENDTAB
0
ENDSEC
0
SECTION
2
BLOCKS
0
BLOCK
5
20
100
AcDbEntity
100
AcDbBlockBegin
2
*MODEL_SPACE
0
ENDBLK
5
21
100
AcDbEntity
100
AcDbBlockEnd
0
BLOCK
5
1C
100
AcDbEntity
100
AcDbBlockBegin
2
*PAPER_SPACE
0
ENDBLK
5
1D
100
AcDbEntity
100
AcDbBlockEnd
0
ENDSEC
0
SECTION
2
ENTITIES
0
LWPOLYLINE
5
100
100
AcDbEntity
8
0
100
AcDbPolyline
90
20
70
1
43
0.0
10
287.56900000000002
20
77.871499999999997
10
288.37
20
77.871499999999997
10
288.37
20
78.871900000000011
10
302.36900000000003
20
78.871900000000011
10
302.36900000000003
20
77.871499999999997
10
303.17000000000002
20
77.871499999999997
10
303.17000000000002
20
74.772300000000001
10
302.36900000000003
20
74.772300000000001
10
302.36900000000003
20
68.972300000000004
10
303.17000000000002
20
68.972300000000004
10
303.17000000000002
20
65.871700000000004
10
302.36900000000003
20
65.871700000000004
10
302.36900000000003
20
64.872699999999995
10
288.37
20
64.872699999999995
10
288.37
20
65.871700000000004
10
287.56900000000002
20
65.871700000000004
10
287.56900000000002
20
68.972300000000004
10
288.37
20
68.972300000000004
10
288.37
20
74.772300000000001
10
287.56900000000002
20
74.772300000000001
0
LWPOLYLINE
5
101
100
AcDbEntity
8
0
100
AcDbPolyline
90
20
70
1
43
0.0
10
326.98100000000005
20
65.871700000000004
10
326.18200000000002
20
65.871700000000004
10
326.18200000000002
20
64.872699999999995
10
312.18200000000002
20
64.872699999999995
10
312.18200000000002
20
65.871700000000004
10
311.38099999999997
20
65.871700000000004
10
311.38099999999997
20
68.972300000000004
10
312.18200000000002
20
68.972300000000004
10
312.18200000000002
20
74.772300000000001
10
311.38099999999997
20
74.772300000000001
10
311.38099999999997
20
77.871499999999997
10
312.18200000000002
20
77.871499999999997
10
312.18200000000002
20
78.871900000000011
10
326.18200000000002
20
78.871900000000011
10
326.18200000000002
20
77.871499999999997
10
326.98100000000005
20
77.871499999999997
10
326.98100000000005
20
74.772300000000001
10
326.18200000000002
20
74.772300000000001
10
326.18200000000002
20
68.972300000000004
10
326.98100000000005
20
68.972300000000004
0
LWPOLYLINE
5
102
100
AcDbEntity
8
0
100
AcDbPolyline
90
20
70
1
43
0.0
10
16.619199999999999
20
49.9223
10
17.419799999999999
20
49.9223
10
17.419799999999999
20
46.8217
10
16.619199999999999
20
46.8217
10
16.619199999999999
20
45.822700000000005
10
2.61965
20
45.822700000000005
10
2.61965
20
46.8217
10
1.8190099999999998
20
46.8217
10
1.8190099999999998
20
49.9223
10
2.61965
20
49.9223
10
2.61965
20
55.722300000000004
10
1.8190099999999998
20
55.722300000000004
10
1.8190099999999998
20
58.8215
10
2.61965
20
58.8215
10
2.61965
20
59.821899999999999
10
16.619199999999999
20
59.821899999999999
10
16.619199999999999
20
58.8215
10
17.419799999999999
20
58.8215
10
17.419799999999999
20
55.722300000000004
10
16.619199999999999
20
55.722300000000004
0
LWPOLYLINE
5
103
100
AcDbEntity
8
0
100
AcDbPolyline
90
20
70
1
43
0.0
10
350.28199999999998
20
77.871499999999997
10
350.28199999999998
20
78.871900000000011
10
364.28199999999998
20
78.871900000000011
10
364.28199999999998
20
77.871499999999997
10
365.08300000000008
20
77.871499999999997
10
365.08300000000008
20
74.772300000000001
10
364.28199999999998
20
74.772300000000001
10
364.28199999999998
20
68.972300000000004
10
365.08300000000008
20
68.972300000000004
10
365.08300000000008
20
65.871700000000004
10
364.28199999999998
20
65.871700000000004
10
364.28199999999998
20
64.872699999999995
10
350.28199999999998
20
64.872699999999995
10
350.28199999999998
20
65.871700000000004
10
349.48100000000005
20
65.871700000000004
10
349.48100000000005
20
68.972300000000004
10
350.28199999999998
20
68.972300000000004
10
350.28199999999998
20
74.772300000000001
10
349.48100000000005
20
74.772300000000001
10
349.48100000000005
20
77.871499999999997
0
LWPOLYLINE
5
104
100
AcDbEntity
8
0
100
AcDbPolyline
90
20
70
1
43
0.0
10
231.22
20
68.972300000000004
10
231.22
20
74.772300000000001
10
230.41900000000001
20
74.772300000000001
10
230.41900000000001
20
77.871499999999997
10
231.22
20
77.871499999999997
10
231.22
20
78.871900000000011
10
245.21900000000002
20
78.871900000000011
10
245.21900000000002
20
77.871499999999997
10
246.02000000000004
20
77.871499999999997
10
246.02000000000004
20
74.772300000000001
10
245.21900000000002
20
74.772300000000001
10
245.21900000000002
20
68.972300000000004
10
246.02000000000004
20
68.972300000000004
10
246.02000000000004
20
65.871700000000004
10
245.21900000000002
20
65.871700000000004
10
245.21900000000002
20
64.872699999999995
10
231.22
20
64.872699999999995
10
231.22
20
65.871700000000004
10
230.41900000000001
20
65.871700000000004
10
230.41900000000001
20
68.972300000000004
0
LWPOLYLINE
5
105
100
AcDbEntity
8
0
100
AcDbPolyline
90
20
70
1
43
0.0
10
250.27000000000001
20
65.871700000000004
10
249.46900000000002
20
65.871700000000004
10
249.46900000000002
20
68.972300000000004
10
250.27000000000001
20
68.972300000000004
10
250.27000000000001
20
74.772300000000001
10
249.46900000000002
20
74.772300000000001
10
249.46900000000002
20
77.871499999999997
10
250.27000000000001
20
77.871499999999997
10
250.27000000000001
20
78.871900000000011
10
264.26900000000001
20
78.871900000000011
10
264.26900000000001
20
77.871499999999997
10
265.06999999999999
20
77.871499999999997
10
265.06999999999999
20
74.772300000000001
10
264.26900000000001
20
74.772300000000001
10
264.26900000000001
20
68.972300000000004
10
265.06999999999999
20
68.972300000000004
10
265.06999999999999
20
65.871700000000004
10
264.26900000000001
20
65.871700000000004
10
264.26900000000001
20
64.872699999999995
10
250.27000000000001
20
64.872699999999995
0
LWPOLYLINE
5
106
100
AcDbEntity
8
0
100
AcDbPolyline
90
20
70
1
43
0.0
10
283.31900000000007
20
74.772300000000001
10
283.31900000000007
20
68.972300000000004
10
284.12
20
68.972300000000004
10
284.12
20
65.871700000000004
10
283.31900000000007
20
65.871700000000004
10
283.31900000000007
20
64.872699999999995
10
269.32000000000005
20
64.872699999999995
10
269.32000000000005
20
65.871700000000004
10
268.51900000000001
20
65.871700000000004
10
268.51900000000001
20
68.972300000000004
10
269.32000000000005
20
68.972300000000004
10
269.32000000000005
20
74.772300000000001
10
268.51900000000001
20
74.772300000000001
10
268.51900000000001
20
77.871499999999997
10
269.32000000000005
20
77.871499999999997
10
269.32000000000005
20
78.871900000000011
10
283.31900000000007
20
78.871900000000011
10
283.31900000000007
20
77.871499999999997
10
284.12
20
77.871499999999997
10
284.12
20
74.772300000000001
0
LWPOLYLINE
5
107
100
AcDbEntity
8
0
100
AcDbPolyline
90
20
70
1
43
0.0
10
212.16999999999999
20
77.871499999999997
10
212.16999999999999
20
78.871900000000011
10
226.16900000000001
20
78.871900000000011
10
226.16900000000001
20
77.871499999999997
10
226.97000000000003
20
77.871499999999997
10
226.97000000000003
20
74.772300000000001
10
226.16900000000001
20
74.772300000000001
10
226.16900000000001
20
68.972300000000004
10
226.97000000000003
20
68.972300000000004
10
226.97000000000003
20
65.871700000000004
10
226.16900000000001
20
65.871700000000004
10
226.16900000000001
20
64.872699999999995
10
212.16999999999999
20
64.872699999999995
10
212.16999999999999
20
65.871700000000004
10
211.36900000000003
20
65.871700000000004
10
211.36900000000003
20
68.972300000000004
10
212.16999999999999
20
68.972300000000004
10
212.16999999999999
20
74.772300000000001
10
211.36900000000003
20
74.772300000000001
10
211.36900000000003
20
77.871499999999997
0
LWPOLYLINE
5
108
100
AcDbEntity
8
0
100
AcDbPolyline
90
20
70
1
43
0.0
10
192.31900000000002
20
68.972300000000004
10
193.12
20
68.972300000000004
10
193.12
20
74.772300000000001
10
192.31900000000002
20
74.772300000000001
10
192.31900000000002
20
77.871499999999997
10
193.12
20
77.871499999999997
10
193.12
20
78.871900000000011
10
207.11900000000003
20
78.871900000000011
10
207.11900000000003
20
77.871499999999997
10
207.92000000000002
20
77.871499999999997
10
207.92000000000002
20
74.772300000000001
10
207.11900000000003
20
74.772300000000001
10
207.11900000000003
20
68.972300000000004
10
207.92000000000002
20
68.972300000000004
10
207.92000000000002
20
65.871700000000004
10
207.11900000000003
20
65.871700000000004
10
207.11900000000003
20
64.872699999999995
10
193.12
20
64.872699999999995
10
193.12
20
65.871700000000004
10
192.31900000000002
20
65.871700000000004
0
LWPOLYLINE
5
109
100
AcDbEntity
8
0
100
AcDbPolyline
90
20
70
1
43
0.0
10
188.06900000000002
20
65.871700000000004
10
188.06900000000002
20
64.872699999999995
10
174.06999999999999
20
64.872699999999995
10
174.06999999999999
20
65.871700000000004
10
173.26900000000001
20
65.871700000000004
10
173.26900000000001
20
68.972300000000004
10
174.06999999999999
20
68.972300000000004
10
174.06999999999999
20
74.772300000000001
10
173.26900000000001
20
74.772300000000001
10
173.26900000000001
20
77.871499999999997
10
174.06999999999999
20
77.871499999999997
10
174.06999999999999
20
78.871900000000011
10
188.06900000000002
20
78.871900000000011
10
188.06900000000002
20
77.871499999999997
10
188.87
20
77.871499999999997
10
188.87
20
74.772300000000001
10
188.06900000000002
20
74.772300000000001
10
188.06900000000002
20
68.972300000000004
10
188.87
20
68.972300000000004
10
188.87
20
65.871700000000004
0
LWPOLYLINE
5
110
100
AcDbEntity
8
0
100
AcDbPolyline
90
20
70
1
43
0.0
10
155.02000000000004
20
77.871499999999997
10
155.02000000000004
20
78.871900000000011
10
169.01900000000001
20
78.871900000000011
10
169.01900000000001
20
77.871499999999997
10
169.81999999999999
20
77.871499999999997
10
169.81999999999999
20
74.772300000000001
10
169.01900000000001
20
74.772300000000001
10
169.01900000000001
20
68.972300000000004
10
169.81999999999999
20
68.972300000000004
10
169.81999999999999
20
65.871700000000004
10
169.01900000000001
20
65.871700000000004
10
169.01900000000001
20
64.872699999999995
10
155.02000000000004
20
64.872699999999995
10
155.02000000000004
20
65.871700000000004
10
154.21899999999999
20
65.871700000000004
10
154.21899999999999
20
68.972300000000004
10
155.02000000000004
20
68.972300000000004
10
155.02000000000004
20
74.772300000000001
10
154.21899999999999
20
74.772300000000001
10
154.21899999999999
20
77.871499999999997
0
LWPOLYLINE
5
111
100
AcDbEntity
8
0
100
AcDbPolyline
90
20
70
1
43
0.0
10
94.687700000000007
20
8.7216199999999997
10
94.687700000000007
20
11.8222
10
95.487099999999998
20
11.8222
10
95.487099999999998
20
17.623699999999999
10
94.687700000000007
20
17.623699999999999
10
94.687700000000007
20
20.721599999999999
10
95.487099999999998
20
20.721599999999999
10
95.487099999999998
20
21.721999999999998
10
109.488
20
21.721999999999998
10
109.488
20
20.721599999999999
10
110.28700000000001
20
20.721599999999999
10
110.28700000000001
20
17.623699999999999
10
109.488
20
17.623699999999999
10
109.488
20
11.8222
10
110.28700000000001
20
11.8222
10
110.28700000000001
20
8.7216199999999997
10
109.488
20
8.7216199999999997
10
109.488
20
7.7225199999999994
10
95.487099999999998
20
7.7225199999999994
10
95.487099999999998
20
8.7216199999999997
0
LWPOLYLINE
5
112
100
AcDbEntity
8
0
100
AcDbPolyline
90
20
70
1
43
0.0
10
17.419799999999999
20
8.7216199999999997
10
16.619199999999999
20
8.7216199999999997
10
16.619199999999999
20
7.7225199999999994
10
2.61965
20
7.7225199999999994
10
2.61965
20
8.7216199999999997
10
1.8190099999999998
20
8.7216199999999997
10
1.8190099999999998
20
11.8222
10
2.61965
20
11.8222
10
2.61965
20
17.623699999999999
10
1.8190099999999998
20
17.623699999999999
10
1.8190099999999998
20
20.721599999999999
10
2.61965
20
20.721599999999999
10
2.61965
20
21.721999999999998
10
16.619199999999999
20
21.721999999999998
10
16.619199999999999
20
20.721599999999999
10
17.419799999999999
20
20.721599999999999
10
17.419799999999999
20
17.623699999999999
10
16.619199999999999
20
17.623699999999999
10
16.619199999999999
20
11.8222
10
17.419799999999999
20
11.8222
0
LWPOLYLINE
5
113
100
AcDbEntity
8
0
100
AcDbPolyline
90
20
70
1
43
0.0
10
326.47000000000003
20
22.010000000000002
10
326.47000000000003
20
23.0105
10
325.66900000000004
20
23.0105
10
325.66900000000004
20
26.1097
10
326.47000000000003
20
26.1097
10
326.47000000000003
20
31.909800000000001
10
325.66900000000004
20
31.909800000000001
10
325.66900000000004
20
35.010399999999997
10
326.47000000000003
20
35.010399999999997
10
326.47000000000003
20
36.009399999999999
10
340.46899999999999
20
36.009399999999999
10
340.46899999999999
20
35.010399999999997
10
341.27000000000004
20
35.010399999999997
10
341.27000000000004
20
31.909800000000001
10
340.46899999999999
20
31.909800000000001
10
340.46899999999999
20
26.1097
10
341.27000000000004
20
26.1097
10
341.27000000000004
20
23.0105
10
340.46899999999999
20
23.0105
10
340.46899999999999
20
22.010000000000002
0
LWPOLYLINE
5
114
100
AcDbEntity
8
0
100
AcDbPolyline
90
20
70
1
43
0.0
10
36.469799999999999
20
20.721599999999999
10
36.469799999999999
20
17.623699999999999
10
35.669000000000004
20
17.623699999999999
10
35.669000000000004
20
11.8222
10
36.469799999999999
20
11.8222
10
36.469799999999999
20
8.7216199999999997
10
35.669000000000004
20
8.7216199999999997
10
35.669000000000004
20
7.7225199999999994
10
21.669699999999999
20
7.7225199999999994
10
21.669699999999999
20
8.7216199999999997
10
20.869
20
8.7216199999999997
10
20.869
20
11.8222
10
21.669699999999999
20
11.8222
10
21.669699999999999
20
17.623699999999999
10
20.869
20
17.623699999999999
10
20.869
20
20.721599999999999
10
21.669699999999999
20
20.721599999999999
10
21.669699999999999
20
21.721999999999998
10
35.669000000000004
20
21.721999999999998
10
35.669000000000004
20
20.721599999999999
0
LWPOLYLINE
5
115
100
AcDbEntity
8
0
100
AcDbPolyline
90
20
70
1
43
0.0
10
238.36200000000002
20
11.8222
10
238.36200000000002
20
17.623699999999999
10
237.56299999999999
20
17.623699999999999
10
237.56299999999999
20
20.721599999999999
10
238.36200000000002
20
20.721599999999999
10
238.36200000000002
20
21.721999999999998
10
252.36099999999999
20
21.721999999999998
10
252.36099999999999
20
20.721599999999999
10
253.16200000000003
20
20.721599999999999
10
253.16200000000003
20
17.623699999999999
10
252.36099999999999
20
17.623699999999999
10
252.36099999999999
20
11.8222
10
253.16200000000003
20
11.8222
10
253.16200000000003
20
8.7216199999999997
10
252.36099999999999
20
8.7216199999999997
10
252.36099999999999
20
7.7225199999999994
10
238.36200000000002
20
7.7225199999999994
10
238.36200000000002
20
8.7216199999999997
10
237.56299999999999
20
8.7216199999999997
10
237.56299999999999
20
11.8222
0
LWPOLYLINE
5
116
100
AcDbEntity
8
0
100
AcDbPolyline
90
20
70
1
43
0.0
10
51.825200000000002
20
17.623699999999999
10
51.825200000000002
20
20.721599999999999
10
52.626000000000005
20
20.721599999999999
10
52.626000000000005
20
21.721999999999998
10
66.62530000000001
20
21.721999999999998
10
66.62530000000001
20
20.721599999999999
10
67.426100000000005
20
20.721599999999999
10
67.426100000000005
20
17.623699999999999
10
66.62530000000001
20
17.623699999999999
10
66.62530000000001
20
11.8222
10
67.426100000000005
20
11.8222
10
67.426100000000005
20
8.7216199999999997
10
66.62530000000001
20
8.7216199999999997
10
66.62530000000001
20
7.7225199999999994
10
52.626000000000005
20
7.7225199999999994
10
52.626000000000005
20
8.7216199999999997
10
51.825200000000002
20
8.7216199999999997
10
51.825200000000002
20
11.8222
10
52.626000000000005
20
11.8222
10
52.626000000000005
20
17.623699999999999
0
LWPOLYLINE
5
117
100
AcDbEntity
8
0
100
AcDbPolyline
90
24
70
1
43
0.0
10
292.33099999999996
20
39.771500000000003
10
293.13200000000001
20
39.771500000000003
10
293.13200000000001
20
40.771900000000009
10
307.13200000000001
20
40.771900000000009
10
307.13200000000001
20
39.771500000000003
10
307.93099999999998
20
39.771500000000003
10
307.93099999999998
20
36.6723
10
307.13200000000001
20
36.6723
10
307.13200000000001
20
36.0715
10
307.13200000000001
20
31.471599999999999
10
307.13200000000001
20
30.872200000000003
10
307.93099999999998
20
30.872200000000003
10
307.93099999999998
20
27.771600000000003
10
307.13200000000001
20
27.771600000000003
10
307.13200000000001
20
26.772500000000004
10
293.13200000000001
20
26.772500000000004
10
293.13200000000001
20
27.771600000000003
10
292.33099999999996
20
27.771600000000003
10
292.33099999999996
20
30.872200000000003
10
293.13200000000001
20
30.872200000000003
10
293.13200000000001
20
31.471599999999999
10
293.13200000000001
20
36.0715
10
293.13200000000001
20
36.6723
10
292.33099999999996
20
36.6723
0
LINE
5
118
100
AcDbEntity
8
0
100
AcDbLine
10
284.03199999999998
20
36.0715
30
0
11
284.03199999999998
21
33.2727
31
0
0
LINE
5
119
100
AcDbEntity
8
0
100
AcDbLine
10
291.60700000000008
20
36.0715
30
0
11
291.60700000000008
21
38.301600000000001
31
0
0
LWPOLYLINE
5
120
100
AcDbEntity
8
0
100
AcDbPolyline
90
24
70
1
43
0.0
10
61.350200000000008
20
36.673699999999997
10
61.350200000000008
20
39.771500000000003
10
62.151000000000003
20
39.771500000000003
10
62.151000000000003
20
40.771900000000009
10
76.150300000000016
20
40.771900000000009
10
76.150300000000016
20
39.771500000000003
10
76.951099999999997
20
39.771500000000003
10
76.951099999999997
20
36.673699999999997
10
76.150300000000016
20
36.673699999999997
10
76.150300000000016
20
36.0715
10
76.150300000000016
20
31.471599999999999
10
76.150300000000016
20
30.872200000000003
10
76.951099999999997
20
30.872200000000003
10
76.951099999999997
20
27.771600000000003
10
76.150300000000016
20
27.771600000000003
10
76.150300000000016
20
26.772500000000004
10
62.151000000000003
20
26.772500000000004
10
62.151000000000003
20
27.771600000000003
10
61.350200000000008
20
27.771600000000003
10
61.350200000000008
20
30.872200000000003
10
62.151000000000003
20
30.872200000000003
10
62.151000000000003
20
31.471599999999999
10
62.151000000000003
20
36.0715
10
62.151000000000003
20
36.673699999999997
0
LINE
5
121
100
AcDbEntity
8
0
100
AcDbLine
10
291.60700000000008
20
27.002700000000001
30
0
11
291.60700000000008
21
31.471599999999999
31
0
0
LINE
5
122
100
AcDbEntity
8
0
100
AcDbLine
10
315.40700000000004
20
39.301600000000001
30
0
11
315.24799718261215
21
39.301600000000001
31
0
0
LINE
5
123
100
AcDbEntity
8
0
100
AcDbLine
10
60.625600000000006
20
36.0715
30
0
11
60.625600000000006
21
39.301600000000001
31
0
0
LINE
5
124
100
AcDbEntity
8
0
100
AcDbLine
10
60.622519107470524
20
27.002700000000001
30
0
11
60.625600000000006
21
27.002700000000001
31
0
0
LINE
5
125
100
AcDbEntity
8
0
100
AcDbLine
10
60.625600000000006
20
39.301600000000001
30
0
11
53.875900000000001
21
39.301600000000001
31
0
0
LINE
5
126
100
AcDbEntity
8
0
100
AcDbLine
10
60.625600000000006
20
27.002700000000001
30
0
11
60.625600000000006
21
31.471599999999999
31
0
0
LINE
5
127
100
AcDbEntity
8
0
100
AcDbLine
10
316.23099999999999
20
33.2727
30
0
11
316.23099999999999
21
36.0715
31
0
0
LWPOLYLINE
5
128
100
AcDbEntity
8
0
100
AcDbPolyline
90
20
70
1
43
0.0
10
365.08300000000008
20
36.673699999999997
10
364.28199999999998
20
36.673699999999997
10
364.28199999999998
20
30.872200000000003
10
365.08300000000008
20
30.872200000000003
10
365.08300000000008
20
27.771600000000003
10
364.28199999999998
20
27.771600000000003
10
364.28199999999998
20
26.772500000000004
10
350.28199999999998
20
26.772500000000004
10
350.28199999999998
20
27.771600000000003
10
349.48100000000005
20
27.771600000000003
10
349.48100000000005
20
30.872200000000003
10
350.28199999999998
20
30.872200000000003
10
350.28199999999998
20
36.673699999999997
10
349.48100000000005
20
36.673699999999997
10
349.48100000000005
20
39.771500000000003
10
350.28199999999998
20
39.771500000000003
10
350.28199999999998
20
40.771900000000009
10
364.28199999999998
20
40.771900000000009
10
364.28199999999998
20
39.771500000000003
10
365.08300000000008
20
39.771500000000003
0
LWPOLYLINE
5
129
100
AcDbEntity
8
0
100
AcDbPolyline
90
20
70
1
43
0.0
10
263.75599999999997
20
30.872200000000003
10
264.55700000000002
20
30.872200000000003
10
264.55700000000002
20
36.673699999999997
10
263.75599999999997
20
36.673699999999997
10
263.75599999999997
20
39.771500000000003
10
264.55700000000002
20
39.771500000000003
10
264.55700000000002
20
40.771900000000009
10
278.55700000000002
20
40.771900000000009
10
278.55700000000002
20
39.771500000000003
10
279.35599999999999
20
39.771500000000003
10
279.35599999999999
20
36.673699999999997
10
278.55700000000002
20
36.673699999999997
10
278.55700000000002
20
30.872200000000003
10
279.35599999999999
20
30.872200000000003
10
279.35599999999999
20
27.771600000000003
10
278.55700000000002
20
27.771600000000003
10
278.55700000000002
20
26.772500000000004
10
264.55700000000002
20
26.772500000000004
10
264.55700000000002
20
27.771600000000003
10
263.75599999999997
20
27.771600000000003
0
LWPOLYLINE
5
130
100
AcDbEntity
8
0
100
AcDbPolyline
90
11
70
1
43
0.0
10
77.676000000000002
20
27.002700000000001
10
77.676000000000002
20
31.471599999999999
10
77.676000000000002
20
36.0715
10
77.676000000000002
20
38.301600000000008
42
-0.4142135623730937
10
78.675999999999988
20
39.301600000000008
10
84.284743344382576
20
39.301600000000001
42
-0.41421356237308982
10
85.284743344382562
20
38.301600000000001
10
85.284743344382562
20
26.802400000000009
42
-0.41421356237309764
10
84.284743344382562
20
25.802399999999999
10
78.676000000000016
20
25.802400000000013
42
-0.41421356237309631
10
77.676000000000016
20
26.802400000000006
0
LWPOLYLINE
5
131
100
AcDbEntity
8
0
100
AcDbPolyline
90
20
70
1
43
0.0
10
126.15700000000002
20
40.771900000000009
10
126.15700000000002
20
39.771500000000003
10
126.956
20
39.771500000000003
10
126.956
20
36.673699999999997
10
126.15700000000002
20
36.673699999999997
10
126.15700000000002
20
30.872200000000003
10
126.956
20
30.872200000000003
10
126.956
20
27.771600000000003
10
126.15700000000002
20
27.771600000000003
10
126.15700000000002
20
26.772500000000004
10
112.15700000000001
20
26.772500000000004
10
112.15700000000001
20
27.771600000000003
10
111.35600000000002
20
27.771600000000003
10
111.35600000000002
20
30.872200000000003
10
112.15700000000001
20
30.872200000000003
10
112.15700000000001
20
36.673699999999997
10
111.35600000000002
20
36.673699999999997
10
111.35600000000002
20
39.771500000000003
10
112.15700000000001
20
39.771500000000003
10
112.15700000000001
20
40.771900000000009
0
LWPOLYLINE
5
132
100
AcDbEntity
8
0
100
AcDbPolyline
90
20
70
1
43
0.0
10
260.30599999999998
20
39.771500000000003
10
260.30599999999998
20
36.673699999999997
10
259.50700000000001
20
36.673699999999997
10
259.50700000000001
20
30.872200000000003
10
260.30599999999998
20
30.872200000000003
10
260.30599999999998
20
27.771600000000003
10
259.50700000000001
20
27.771600000000003
10
259.50700000000001
20
26.772500000000004
10
245.50700000000003
20
26.772500000000004
10
245.50700000000003
20
27.771600000000003
10
244.70600000000002
20
27.771600000000003
10
244.70600000000002
20
30.872200000000003
10
245.50700000000003
20
30.872200000000003
10
245.50700000000003
20
36.673699999999997
10
244.70600000000002
20
36.673699999999997
10
244.70600000000002
20
39.771500000000003
10
245.50700000000003
20
39.771500000000003
10
245.50700000000003
20
40.771900000000009
10
259.50700000000001
20
40.771900000000009
10
259.50700000000001
20
39.771500000000003
0
LWPOLYLINE
5
133
100
AcDbEntity
8
0
100
AcDbPolyline
90
20
70
1
43
0.0
10
240.45699999999999
20
36.673699999999997
10
240.45699999999999
20
30.872200000000003
10
241.25599999999997
20
30.872200000000003
10
241.25599999999997
20
27.771600000000003
10
240.45699999999999
20
27.771600000000003
10
240.45699999999999
20
26.772500000000004
10
226.45700000000002
20
26.772500000000004
10
226.45700000000002
20
27.771600000000003
10
225.65600000000001
20
27.771600000000003
10
225.65600000000001
20
30.872200000000003
10
226.45700000000002
20
30.872200000000003
10
226.45700000000002
20
36.673699999999997
10
225.65600000000001
20
36.673699999999997
10
225.65600000000001
20
39.771500000000003
10
226.45700000000002
20
39.771500000000003
10
226.45700000000002
20
40.771900000000009
10
240.45699999999999
20
40.771900000000009
10
240.45699999999999
20
39.771500000000003
10
241.25599999999997
20
39.771500000000003
10
241.25599999999997
20
36.673699999999997
0
LWPOLYLINE
5
134
100
AcDbEntity
8
0
100
AcDbPolyline
90
20
70
1
43
0.0
10
92.306399999999996
20
30.872200000000003
10
93.10720000000002
20
30.872200000000003
10
93.10720000000002
20
36.673699999999997
10
92.306399999999996
20
36.673699999999997
10
92.306399999999996
20
39.771500000000003
10
93.10720000000002
20
39.771500000000003
10
93.10720000000002
20
40.771900000000009
10
107.10700000000003
20
40.771900000000009
10
107.10700000000003
20
39.771500000000003
10
107.90600000000001
20
39.771500000000003
10
107.90600000000001
20
36.673699999999997
10
107.10700000000003
20
36.673699999999997
10
107.10700000000003
20
30.872200000000003
10
107.90600000000001
20
30.872200000000003
10
107.90600000000001
20
27.771600000000003
10
107.10700000000003
20
27.771600000000003
10
107.10700000000003
20
26.772500000000004
10
93.10720000000002
20
26.772500000000004
10
93.10720000000002
20
27.771600000000003
10
92.306399999999996
20
27.771600000000003
0
LWPOLYLINE
5
135
100
AcDbEntity
8
0
100
AcDbPolyline
90
20
70
1
43
0.0
10
207.40700000000004
20
36.673699999999997
10
206.60600000000002
20
36.673699999999997
10
206.60600000000002
20
39.771500000000003
10
207.40700000000004
20
39.771500000000003
10
207.40700000000004
20
40.771900000000009
10
221.40700000000004
20
40.771900000000009
10
221.40700000000004
20
39.771500000000003
10
222.20600000000002
20
39.771500000000003
10
222.20600000000002
20
36.673699999999997
10
221.40700000000004
20
36.673699999999997
10
221.40700000000004
20
30.872200000000003
10
222.20600000000002
20
30.872200000000003
10
222.20600000000002
20
27.771600000000003
10
221.40700000000004
20
27.771600000000003
10
221.40700000000004
20
26.772500000000004
10
207.40700000000004
20
26.772500000000004
10
207.40700000000004
20
27.771600000000003
10
206.60600000000002
20
27.771600000000003
10
206.60600000000002
20
30.872200000000003
10
207.40700000000004
20
30.872200000000003
0
LWPOLYLINE
5
136
100
AcDbEntity
8
0
100
AcDbPolyline
90
20
70
1
43
0.0
10
131.20699999999999
20
36.673699999999997
10
130.40600000000001
20
36.673699999999997
10
130.40600000000001
20
39.771500000000003
10
131.20699999999999
20
39.771500000000003
10
131.20699999999999
20
40.771900000000009
10
145.20699999999999
20
40.771900000000009
10
145.20699999999999
20
39.771500000000003
10
146.006
20
39.771500000000003
10
146.006
20
36.673699999999997
10
145.20699999999999
20
36.673699999999997
10
145.20699999999999
20
30.872200000000003
10
146.006
20
30.872200000000003
10
146.006
20
27.771600000000003
10
145.20699999999999
20
27.771600000000003
10
145.20699999999999
20
26.772500000000004
10
131.20699999999999
20
26.772500000000004
10
131.20699999999999
20
27.771600000000003
10
130.40600000000001
20
27.771600000000003
10
130.40600000000001
20
30.872200000000003
10
131.20699999999999
20
30.872200000000003
0
LWPOLYLINE
5
137
100
AcDbEntity
8
0
100
AcDbPolyline
90
20
70
1
43
0.0
10
21.669699999999999
20
39.771500000000003
10
21.669699999999999
20
40.771900000000009
10
35.669000000000004
20
40.771900000000009
10
35.669000000000004
20
39.771500000000003
10
36.469799999999999
20
39.771500000000003
10
36.469799999999999
20
36.673699999999997
10
35.669000000000004
20
36.673699999999997
10
35.669000000000004
20
30.872200000000003
10
36.469799999999999
20
30.872200000000003
10
36.469799999999999
20
27.771600000000003
10
35.669000000000004
20
27.771600000000003
10
35.669000000000004
20
26.772500000000004
10
21.669699999999999
20
26.772500000000004
10
21.669699999999999
20
27.771600000000003
10
20.869
20
27.771600000000003
10
20.869
20
30.872200000000003
10
21.669699999999999
20
30.872200000000003
10
21.669699999999999
20
36.673699999999997
10
20.869
20
36.673699999999997
10
20.869
20
39.771500000000003
0
LWPOLYLINE
5
138
100
AcDbEntity
8
0
100
AcDbPolyline
90
20
70
1
43
0.0
10
164.25700000000003
20
40.771900000000009
10
164.25700000000003
20
39.771500000000003
10
165.05599999999998
20
39.771500000000003
10
165.05599999999998
20
36.673699999999997
10
164.25700000000003
20
36.673699999999997
10
164.25700000000003
20
30.872200000000003
10
165.05599999999998
20
30.872200000000003
10
165.05599999999998
20
27.771600000000003
10
164.25700000000003
20
27.771600000000003
10
164.25700000000003
20
26.772500000000004
10
150.25700000000001
20
26.772500000000004
10
150.25700000000001
20
27.771600000000003
10
149.45600000000002
20
27.771600000000003
10
149.45600000000002
20
30.872200000000003
10
150.25700000000001
20
30.872200000000003
10
150.25700000000001
20
36.673699999999997
10
149.45600000000002
20
36.673699999999997
10
149.45600000000002
20
39.771500000000003
10
150.25700000000001
20
39.771500000000003
10
150.25700000000001
20
40.771900000000009
0
LWPOLYLINE
5
139
100
AcDbEntity
8
0
100
AcDbPolyline
90
20
70
1
43
0.0
10
2.61965
20
26.772500000000004
10
2.61965
20
27.771600000000003
10
1.8190099999999998
20
27.771600000000003
10
1.8190099999999998
20
30.872200000000003
10
2.61965
20
30.872200000000003
10
2.61965
20
36.673699999999997
10
1.8190099999999998
20
36.673699999999997
10
1.8190099999999998
20
39.771500000000003
10
2.61965
20
39.771500000000003
10
2.61965
20
40.771900000000009
10
16.619199999999999
20
40.771900000000009
10
16.619199999999999
20
39.771500000000003
10
17.419799999999999
20
39.771500000000003
10
17.419799999999999
20
36.673699999999997
10
16.619199999999999
20
36.673699999999997
10
16.619199999999999
20
30.872200000000003
10
17.419799999999999
20
30.872200000000003
10
17.419799999999999
20
27.771600000000003
10
16.619199999999999
20
27.771600000000003
10
16.619199999999999
20
26.772500000000004
0
LWPOLYLINE
5
140
100
AcDbEntity
8
0
100
AcDbPolyline
90
24
70
1
43
0.0
10
305.03700000000003
20
55.121499999999997
10
305.03700000000003
20
55.722300000000004
10
304.238
20
55.722300000000004
10
304.238
20
58.8215
10
305.03700000000003
20
58.8215
10
305.03700000000003
20
59.821899999999999
10
319.03800000000001
20
59.821899999999999
10
319.03800000000001
20
58.8215
10
319.83699999999999
20
58.8215
10
319.83699999999999
20
55.722300000000004
10
319.03800000000001
20
55.722300000000004
10
319.03800000000001
20
55.121499999999997
10
319.03800000000001
20
50.521700000000003
10
319.03800000000001
20
49.9223
10
319.83699999999999
20
49.9223
10
319.83699999999999
20
46.8217
10
319.03800000000001
20
46.8217
10
319.03800000000001
20
45.822700000000005
10
305.03700000000003
20
45.822700000000005
10
305.03700000000003
20
46.8217
10
304.238
20
46.8217
10
304.238
20
49.9223
10
305.03700000000003
20
49.9223
10
305.03700000000003
20
50.521700000000003
0
LWPOLYLINE
5
141
100
AcDbEntity
8
0
100
AcDbPolyline
90
9
70
1
43
0.0
10
303.51299999999998
20
57.351600000000005
10
303.51299999999998
20
55.121499999999997
10
303.51299999999992
20
45.852500000000006
42
-0.41421356237309764
10
302.51299999999998
20
44.852499999999999
10
296.93800000000005
20
44.852499999999978
42
-0.41421356237309503
10
295.93799999999999
20
45.852499999999992
10
295.93799999999999
20
57.351600000000005
42
-0.41421356237309503
10
296.93800000000005
20
58.351600000000005
10
302.51300000000003
20
58.351600000000005
42
-0.41421356237305862
0
LWPOLYLINE
5
142
100
AcDbEntity
8
0
100
AcDbPolyline
90
20
70
1
43
0.0
10
274.08199999999999
20
58.8215
10
274.08199999999999
20
59.821899999999999
10
288.08199999999999
20
59.821899999999999
10
288.08199999999999
20
58.8215
10
288.88099999999997
20
58.8215
10
288.88099999999997
20
55.722300000000004
10
288.08199999999999
20
55.722300000000004
10
288.08199999999999
20
49.9223
10
288.88099999999997
20
49.9223
10
288.88099999999997
20
46.8217
10
288.08199999999999
20
46.8217
10
288.08199999999999
20
45.822700000000005
10
274.08199999999999
20
45.822700000000005
10
274.08199999999999
20
46.8217
10
273.28100000000001
20
46.8217
10
273.28100000000001
20
49.9223
10
274.08199999999999
20
49.9223
10
274.08199999999999
20
55.722300000000004
10
273.28100000000001
20
55.722300000000004
10
273.28100000000001
20
58.8215
0
LWPOLYLINE
5
143
100
AcDbEntity
8
0
100
AcDbPolyline
90
20
70
1
43
0.0
10
365.08300000000008
20
49.9223
10
365.08300000000008
20
46.8217
10
364.28199999999998
20
46.8217
10
364.28199999999998
20
45.822700000000005
10
350.28199999999998
20
45.822700000000005
10
350.28199999999998
20
46.8217
10
349.48100000000005
20
46.8217
10
349.48100000000005
20
49.9223
10
350.28199999999998
20
49.9223
10
350.28199999999998
20
55.722300000000004
10
349.48100000000005
20
55.722300000000004
10
349.48100000000005
20
58.8215
10
350.28199999999998
20
58.8215
10
350.28199999999998
20
59.821899999999999
10
364.28199999999998
20
59.821899999999999
10
364.28199999999998
20
58.8215
10
365.08300000000008
20
58.8215
10
365.08300000000008
20
55.722300000000004
10
364.28199999999998
20
55.722300000000004
10
364.28199999999998
20
49.9223
0
LWPOLYLINE
5
144
100
AcDbEntity
8
0
100
AcDbPolyline
90
20
70
1
43
0.0
10
249.982
20
49.9223
10
250.78100000000001
20
49.9223
10
250.78100000000001
20
46.8217
10
249.982
20
46.8217
10
249.982
20
45.822700000000005
10
235.98200000000003
20
45.822700000000005
10
235.98200000000003
20
46.8217
10
235.18100000000001
20
46.8217
10
235.18100000000001
20
49.9223
10
235.98200000000003
20
49.9223
10
235.98200000000003
20
55.722300000000004
10
235.18100000000001
20
55.722300000000004
10
235.18100000000001
20
58.8215
10
235.98200000000003
20
58.8215
10
235.98200000000003
20
59.821899999999999
10
249.982
20
59.821899999999999
10
249.982
20
58.8215
10
250.78100000000001
20
58.8215
10
250.78100000000001
20
55.722300000000004
10
249.982
20
55.722300000000004
0
LWPOLYLINE
5
145
100
AcDbEntity
8
0
100
AcDbPolyline
90
20
70
1
43
0.0
10
269.83099999999996
20
49.9223
10
269.83099999999996
20
46.8217
10
269.03199999999998
20
46.8217
10
269.03199999999998
20
45.822700000000005
10
255.03200000000004
20
45.822700000000005
10
255.03200000000004
20
46.8217
10
254.23100000000002
20
46.8217
10
254.23100000000002
20
49.9223
10
255.03200000000004
20
49.9223
10
255.03200000000004
20
55.722300000000004
10
254.23100000000002
20
55.722300000000004
10
254.23100000000002
20
58.8215
10
255.03200000000004
20
58.8215
10
255.03200000000004
20
59.821899999999999
10
269.03199999999998
20
59.821899999999999
10
269.03199999999998
20
58.8215
10
269.83099999999996
20
58.8215
10
269.83099999999996
20
55.722300000000004
10
269.03199999999998
20
55.722300000000004
10
269.03199999999998
20
49.9223
0
LWPOLYLINE
5
146
100
AcDbEntity
8
0
100
AcDbPolyline
90
20
70
1
43
0.0
10
216.93200000000004
20
45.822700000000005
10
216.93200000000004
20
46.8217
10
216.131
20
46.8217
10
216.131
20
49.9223
10
216.93200000000004
20
49.9223
10
216.93200000000004
20
55.722300000000004
10
216.131
20
55.722300000000004
10
216.131
20
58.8215
10
216.93200000000004
20
58.8215
10
216.93200000000004
20
59.821899999999999
10
230.93200000000002
20
59.821899999999999
10
230.93200000000002
20
58.8215
10
231.73100000000002
20
58.8215
10
231.73100000000002
20
55.722300000000004
10
230.93200000000002
20
55.722300000000004
10
230.93200000000002
20
49.9223
10
231.73100000000002
20
49.9223
10
231.73100000000002
20
46.8217
10
230.93200000000002
20
46.8217
10
230.93200000000002
20
45.822700000000005
0
LWPOLYLINE
5
147
100
AcDbEntity
8
0
100
AcDbPolyline
90
20
70
1
43
0.0
10
197.88200000000003
20
58.8215
10
197.88200000000003
20
59.821899999999999
10
211.88200000000001
20
59.821899999999999
10
211.88200000000001
20
58.8215
10
212.68100000000001
20
58.8215
10
212.68100000000001
20
55.722300000000004
10
211.88200000000001
20
55.722300000000004
10
211.88200000000001
20
49.9223
10
212.68100000000001
20
49.9223
10
212.68100000000001
20
46.8217
10
211.88200000000001
20
46.8217
10
211.88200000000001
20
45.822700000000005
10
197.88200000000003
20
45.822700000000005
10
197.88200000000003
20
46.8217
10
197.08100000000002
20
46.8217
10
197.08100000000002
20
49.9223
10
197.88200000000003
20
49.9223
10
197.88200000000003
20
55.722300000000004
10
197.08100000000002
20
55.722300000000004
10
197.08100000000002
20
58.8215
0
LWPOLYLINE
5
148
100
AcDbEntity
8
0
100
AcDbPolyline
90
20
70
1
43
0.0
10
178.83199999999999
20
58.8215
10
178.83199999999999
20
59.821899999999999
10
192.83199999999999
20
59.821899999999999
10
192.83199999999999
20
58.8215
10
193.631
20
58.8215
10
193.631
20
55.722300000000004
10
192.83199999999999
20
55.722300000000004
10
192.83199999999999
20
49.9223
10
193.631
20
49.9223
10
193.631
20
46.8217
10
192.83199999999999
20
46.8217
10
192.83199999999999
20
45.822700000000005
10
178.83199999999999
20
45.822700000000005
10
178.83199999999999
20
46.8217
10
178.03099999999998
20
46.8217
10
178.03099999999998
20
49.9223
10
178.83199999999999
20
49.9223
10
178.83199999999999
20
55.722300000000004
10
178.03099999999998
20
55.722300000000004
10
178.03099999999998
20
58.8215
0
LWPOLYLINE
5
149
100
AcDbEntity
8
0
100
AcDbPolyline
90
20
70
1
43
0.0
10
173.78200000000004
20
55.722300000000004
10
173.78200000000004
20
49.9223
10
174.58099999999999
20
49.9223
10
174.58099999999999
20
46.8217
10
173.78200000000004
20
46.8217
10
173.78200000000004
20
45.822700000000005
10
159.78200000000001
20
45.822700000000005
10
159.78200000000001
20
46.8217
10
158.98099999999999
20
46.8217
10
158.98099999999999
20
49.9223
10
159.78200000000001
20
49.9223
10
159.78200000000001
20
55.722300000000004
10
158.98099999999999
20
55.722300000000004
10
158.98099999999999
20
58.8215
10
159.78200000000001
20
58.8215
10
159.78200000000001
20
59.821899999999999
10
173.78200000000004
20
59.821899999999999
10
173.78200000000004
20
58.8215
10
174.58099999999999
20
58.8215
10
174.58099999999999
20
55.722300000000004
0
LWPOLYLINE
5
150
100
AcDbEntity
8
0
100
AcDbPolyline
90
20
70
1
43
0.0
10
139.93100000000001
20
55.722300000000004
10
139.93100000000001
20
58.8215
10
140.732
20
58.8215
10
140.732
20
59.821899999999999
10
154.732
20
59.821899999999999
10
154.732
20
58.8215
10
155.53100000000001
20
58.8215
10
155.53100000000001
20
55.722300000000004
10
154.732
20
55.722300000000004
10
154.732
20
49.9223
10
155.53100000000001
20
49.9223
10
155.53100000000001
20
46.8217
10
154.732
20
46.8217
10
154.732
20
45.822700000000005
10
140.732
20
45.822700000000005
10
140.732
20
46.8217
10
139.93100000000001
20
46.8217
10
139.93100000000001
20
49.9223
10
140.732
20
49.9223
10
140.732
20
55.722300000000004
0
LWPOLYLINE
5
151
100
AcDbEntity
8
0
100
AcDbPolyline
90
20
70
1
43
0.0
10
136.48099999999999
20
58.8215
10
136.48099999999999
20
55.722300000000004
10
135.68200000000002
20
55.722300000000004
10
135.68200000000002
20
49.9223
10
136.48099999999999
20
49.9223
10
136.48099999999999
20
46.8217
10
135.68200000000002
20
46.8217
10
135.68200000000002
20
45.822700000000005
10
121.682
20
45.822700000000005
10
121.682
20
46.8217
10
120.881
20
46.8217
10
120.881
20
49.9223
10
121.682
20
49.9223
10
121.682
20
55.722300000000004
10
120.881
20
55.722300000000004
10
120.881
20
58.8215
10
121.682
20
58.8215
10
121.682
20
59.821899999999999
10
135.68200000000002
20
59.821899999999999
10
135.68200000000002
20
58.8215
0
LWPOLYLINE
5
152
100
AcDbEntity
8
0
100
AcDbPolyline
90
20
70
1
43
0.0
10
102.63200000000001
20
45.822700000000005
10
102.63200000000001
20
46.8217
10
101.83100000000002
20
46.8217
10
101.83100000000002
20
49.9223
10
102.63200000000001
20
49.9223
10
102.63200000000001
20
55.722300000000004
10
101.83100000000002
20
55.722300000000004
10
101.83100000000002
20
58.8215
10
102.63200000000001
20
58.8215
10
102.63200000000001
20
59.821899999999999
10
116.63200000000002
20
59.821899999999999
10
116.63200000000002
20
58.8215
10
117.431
20
58.8215
10
117.431
20
55.722300000000004
10
116.63200000000002
20
55.722300000000004
10
116.63200000000002
20
49.9223
10
117.431
20
49.9223
10
117.431
20
46.8217
10
116.63200000000002
20
46.8217
10
116.63200000000002
20
45.822700000000005
0
LWPOLYLINE
5
153
100
AcDbEntity
8
0
100
AcDbPolyline
90
20
70
1
43
0.0
10
82.781400000000005
20
58.8215
10
83.582200000000014
20
58.8215
10
83.582200000000014
20
59.821899999999999
10
97.581500000000005
20
59.821899999999999
10
97.581500000000005
20
58.8215
10
98.380900000000011
20
58.8215
10
98.380900000000011
20
55.722300000000004
10
97.581500000000005
20
55.722300000000004
10
97.581500000000005
20
49.9223
10
98.380900000000011
20
49.9223
10
98.380900000000011
20
46.8217
10
97.581500000000005
20
46.8217
10
97.581500000000005
20
45.822700000000005
10
83.582200000000014
20
45.822700000000005
10
83.582200000000014
20
46.8217
10
82.781400000000005
20
46.8217
10
82.781400000000005
20
49.9223
10
83.582200000000014
20
49.9223
10
83.582200000000014
20
55.722300000000004
10
82.781400000000005
20
55.722300000000004
0
LWPOLYLINE
5
154
100
AcDbEntity
8
0
100
AcDbPolyline
90
20
70
1
43
0.0
10
21.669699999999999
20
46.8217
10
20.869
20
46.8217
10
20.869
20
49.9223
10
21.669699999999999
20
49.9223
10
21.669699999999999
20
55.722300000000004
10
20.869
20
55.722300000000004
10
20.869
20
58.8215
10
21.669699999999999
20
58.8215
10
21.669699999999999
20
59.821899999999999
10
35.669000000000004
20
59.821899999999999
10
35.669000000000004
20
58.8215
10
36.469799999999999
20
58.8215
10
36.469799999999999
20
55.722300000000004
10
35.669000000000004
20
55.722300000000004
10
35.669000000000004
20
49.9223
10
36.469799999999999
20
49.9223
10
36.469799999999999
20
46.8217
10
35.669000000000004
20
46.8217
10
35.669000000000004
20
45.822700000000005
10
21.669699999999999
20
45.822700000000005
0
LWPOLYLINE
5
155
100
AcDbEntity
8
0
100
AcDbPolyline
90
20
70
1
43
0.0
10
71.387799999999999
20
58.8215
10
72.187200000000018
20
58.8215
10
72.187200000000018
20
55.722300000000004
10
71.387799999999999
20
55.722300000000004
10
71.387799999999999
20
49.9223
10
72.187200000000018
20
49.9223
10
72.187200000000018
20
46.8217
10
71.387799999999999
20
46.8217
10
71.387799999999999
20
45.822700000000005
10
52.626000000000005
20
45.822700000000005
10
52.626000000000005
20
46.8217
10
51.825200000000002
20
46.8217
10
51.825200000000002
20
49.9223
10
52.626000000000005
20
49.9223
10
52.626000000000005
20
55.722300000000004
10
51.825200000000002
20
55.722300000000004
10
51.825200000000002
20
58.8215
10
52.626000000000005
20
58.8215
10
52.626000000000005
20
59.821899999999999
10
71.387799999999999
20
59.821899999999999
0
LWPOLYLINE
5
156
100
AcDbEntity
8
0
100
AcDbPolyline
90
20
70
1
43
0.0
10
69.294700000000006
20
83.92270000000002
10
69.294700000000006
20
84.921700000000001
10
68.493899999999996
20
84.921700000000001
10
68.493899999999996
20
88.022300000000001
10
69.294700000000006
20
88.022300000000001
10
69.294700000000006
20
93.822299999999998
10
68.493899999999996
20
93.822299999999998
10
68.493899999999996
20
96.921499999999995
10
69.294700000000006
20
96.921499999999995
10
69.294700000000006
20
97.921899999999994
10
83.293999999999997
20
97.921899999999994
10
83.293999999999997
20
96.921499999999995
10
84.094800000000006
20
96.921499999999995
10
84.094800000000006
20
93.822299999999998
10
83.293999999999997
20
93.822299999999998
10
83.293999999999997
20
88.022300000000001
10
84.094800000000006
20
88.022300000000001
10
84.094800000000006
20
84.921700000000001
10
83.293999999999997
20
84.921700000000001
10
83.293999999999997
20
83.92270000000002
0
LWPOLYLINE
5
157
100
AcDbEntity
8
0
100
AcDbPolyline
90
20
70
1
43
0.0
10
107.395
20
93.822299999999998
10
106.59399999999999
20
93.822299999999998
10
106.59399999999999
20
96.921499999999995
10
107.395
20
96.921499999999995
10
107.395
20
97.921899999999994
10
121.39400000000001
20
97.921899999999994
10
121.39400000000001
20
96.921499999999995
10
122.19499999999999
20
96.921499999999995
10
122.19499999999999
20
93.822299999999998
10
121.39400000000001
20
93.822299999999998
10
121.39400000000001
20
88.022300000000001
10
122.19499999999999
20
88.022300000000001
10
122.19499999999999
20
84.921700000000001
10
121.39400000000001
20
84.921700000000001
10
121.39400000000001
20
83.92270000000002
10
107.395
20
83.92270000000002
10
107.395
20
84.921700000000001
10
106.59399999999999
20
84.921700000000001
10
106.59399999999999
20
88.022300000000001
10
107.395
20
88.022300000000001
0
LWPOLYLINE
5
158
100
AcDbEntity
8
0
100
AcDbPolyline
90
20
70
1
43
0.0
10
145.495
20
84.921700000000001
10
144.69400000000002
20
84.921700000000001
10
144.69400000000002
20
88.022300000000001
10
145.495
20
88.022300000000001
10
145.495
20
93.822299999999998
10
144.69400000000002
20
93.822299999999998
10
144.69400000000002
20
96.921499999999995
10
145.495
20
96.921499999999995
10
145.495
20
97.921899999999994
10
159.494
20
97.921899999999994
10
159.494
20
96.921499999999995
10
160.29499999999999
20
96.921499999999995
10
160.29499999999999
20
93.822299999999998
10
159.494
20
93.822299999999998
10
159.494
20
88.022300000000001
10
160.29499999999999
20
88.022300000000001
10
160.29499999999999
20
84.921700000000001
10
159.494
20
84.921700000000001
10
159.494
20
83.92270000000002
10
145.495
20
83.92270000000002
0
LWPOLYLINE
5
159
100
AcDbEntity
8
0
100
AcDbPolyline
90
20
70
1
43
0.0
10
179.345
20
96.921499999999995
10
179.345
20
93.822299999999998
10
178.54400000000001
20
93.822299999999998
10
178.54400000000001
20
88.022300000000001
10
179.345
20
88.022300000000001
10
179.345
20
84.921700000000001
10
178.54400000000001
20
84.921700000000001
10
178.54400000000001
20
83.92270000000002
10
164.54499999999999
20
83.92270000000002
10
164.54499999999999
20
84.921700000000001
10
163.74400000000003
20
84.921700000000001
10
163.74400000000003
20
88.022300000000001
10
164.54499999999999
20
88.022300000000001
10
164.54499999999999
20
93.822299999999998
10
163.74400000000003
20
93.822299999999998
10
163.74400000000003
20
96.921499999999995
10
164.54499999999999
20
96.921499999999995
10
164.54499999999999
20
97.921899999999994
10
178.54400000000001
20
97.921899999999994
10
178.54400000000001
20
96.921499999999995
0
LWPOLYLINE
5
160
100
AcDbEntity
8
0
100
AcDbPolyline
90
20
70
1
43
0.0
10
140.44399999999999
20
83.92270000000002
10
126.44500000000001
20
83.92270000000002
10
126.44500000000001
20
84.921700000000001
10
125.64399999999999
20
84.921700000000001
10
125.64399999999999
20
88.022300000000001
10
126.44500000000001
20
88.022300000000001
10
126.44500000000001
20
93.822299999999998
10
125.64399999999999
20
93.822299999999998
10
125.64399999999999
20
96.921499999999995
10
126.44500000000001
20
96.921499999999995
10
126.44500000000001
20
97.921899999999994
10
140.44399999999999
20
97.921899999999994
10
140.44399999999999
20
96.921499999999995
10
141.245
20
96.921499999999995
10
141.245
20
93.822299999999998
10
140.44399999999999
20
93.822299999999998
10
140.44399999999999
20
88.022300000000001
10
141.245
20
88.022300000000001
10
141.245
20
84.921700000000001
10
140.44399999999999
20
84.921700000000001
0
LWPOLYLINE
5
161
100
AcDbEntity
8
0
100
AcDbPolyline
90
20
70
1
43
0.0
10
197.59400000000002
20
97.921899999999994
10
197.59400000000002
20
96.921499999999995
10
198.39500000000001
20
96.921499999999995
10
198.39500000000001
20
93.822299999999998
10
197.59400000000002
20
93.822299999999998
10
197.59400000000002
20
88.022300000000001
10
198.39500000000001
20
88.022300000000001
10
198.39500000000001
20
84.921700000000001
10
197.59400000000002
20
84.921700000000001
10
197.59400000000002
20
83.92270000000002
10
183.595
20
83.92270000000002
10
183.595
20
84.921700000000001
10
182.79400000000004
20
84.921700000000001
10
182.79400000000004
20
88.022300000000001
10
183.595
20
88.022300000000001
10
183.595
20
93.822299999999998
10
182.79400000000004
20
93.822299999999998
10
182.79400000000004
20
96.921499999999995
10
183.595
20
96.921499999999995
10
183.595
20
97.921899999999994
0
LWPOLYLINE
5
162
100
AcDbEntity
8
0
100
AcDbPolyline
90
20
70
1
43
0.0
10
88.344700000000017
20
88.022300000000001
10
88.344700000000017
20
93.822299999999998
10
87.543899999999994
20
93.822299999999998
10
87.543899999999994
20
96.921499999999995
10
88.344700000000017
20
96.921499999999995
10
88.344700000000017
20
97.921899999999994
10
102.34400000000001
20
97.921899999999994
10
102.34400000000001
20
96.921499999999995
10
103.14500000000001
20
96.921499999999995
10
103.14500000000001
20
93.822299999999998
10
102.34400000000001
20
93.822299999999998
10
102.34400000000001
20
88.022300000000001
10
103.14500000000001
20
88.022300000000001
10
103.14500000000001
20
84.921700000000001
10
102.34400000000001
20
84.921700000000001
10
102.34400000000001
20
83.92270000000002
10
88.344700000000017
20
83.92270000000002
10
88.344700000000017
20
84.921700000000001
10
87.543899999999994
20
84.921700000000001
10
87.543899999999994
20
88.022300000000001
0
LWPOLYLINE
5
163
100
AcDbEntity
8
0
100
AcDbPolyline
90
20
70
1
43
0.0
10
16.619199999999999
20
97.921899999999994
10
16.619199999999999
20
96.921499999999995
10
17.419799999999999
20
96.921499999999995
10
17.419799999999999
20
93.822299999999998
10
16.619199999999999
20
93.822299999999998
10
16.619199999999999
20
88.022300000000001
10
17.419799999999999
20
88.022300000000001
10
17.419799999999999
20
84.921700000000001
10
16.619199999999999
20
84.921700000000001
10
16.619199999999999
20
83.92270000000002
10
2.61965
20
83.92270000000002
10
2.61965
20
84.921700000000001
10
1.8190099999999998
20
84.921700000000001
10
1.8190099999999998
20
88.022300000000001
10
2.61965
20
88.022300000000001
10
2.61965
20
93.822299999999998
10
1.8190099999999998
20
93.822299999999998
10
1.8190099999999998
20
96.921499999999995
10
2.61965
20
96.921499999999995
10
2.61965
20
97.921899999999994
0
LWPOLYLINE
5
164
100
AcDbEntity
8
0
100
AcDbPolyline
90
20
70
1
43
0.0
10
65.044799999999995
20
84.921700000000001
10
64.244
20
84.921700000000001
10
64.244
20
83.92270000000002
10
50.244700000000009
20
83.92270000000002
10
50.244700000000009
20
84.921700000000001
10
49.443899999999999
20
84.921700000000001
10
49.443899999999999
20
88.022300000000001
10
50.244700000000009
20
88.022300000000001
10
50.244700000000009
20
93.822299999999998
10
49.443899999999999
20
93.822299999999998
10
49.443899999999999
20
96.921499999999995
10
50.244700000000009
20
96.921499999999995
10
50.244700000000009
20
97.921899999999994
10
64.244
20
97.921899999999994
10
64.244
20
96.921499999999995
10
65.044799999999995
20
96.921499999999995
10
65.044799999999995
20
93.822299999999998
10
64.244
20
93.822299999999998
10
64.244
20
88.022300000000001
10
65.044799999999995
20
88.022300000000001
0
LWPOLYLINE
5
165
100
AcDbEntity
8
0
100
AcDbPolyline
90
20
70
1
43
0.0
10
35.669000000000004
20
84.921700000000001
10
35.669000000000004
20
83.92270000000002
10
21.669699999999999
20
83.92270000000002
10
21.669699999999999
20
84.921700000000001
10
20.869
20
84.921700000000001
10
20.869
20
88.022300000000001
10
21.669699999999999
20
88.022300000000001
10
21.669699999999999
20
93.822299999999998
10
20.869
20
93.822299999999998
10
20.869
20
96.921499999999995
10
21.669699999999999
20
96.921499999999995
10
21.669699999999999
20
97.921899999999994
10
35.669000000000004
20
97.921899999999994
10
35.669000000000004
20
96.921499999999995
10
36.469799999999999
20
96.921499999999995
10
36.469799999999999
20
93.822299999999998
10
35.669000000000004
20
93.822299999999998
10
35.669000000000004
20
88.022300000000001
10
36.469799999999999
20
88.022300000000001
10
36.469799999999999
20
84.921700000000001
0
LWPOLYLINE
5
166
100
AcDbEntity
8
0
100
AcDbPolyline
90
20
70
1
43
0.0
10
345.51999999999998
20
12.859800000000002
10
344.71899999999999
20
12.859800000000002
10
344.71899999999999
20
15.960400000000002
10
345.51999999999998
20
15.960400000000002
10
345.51999999999998
20
16.959499999999998
10
359.51900000000001
20
16.959499999999998
10
359.51900000000001
20
15.960400000000002
10
360.32000000000005
20
15.960400000000002
10
360.32000000000005
20
12.859800000000002
10
359.51900000000001
20
12.859800000000002
10
359.51900000000001
20
7.0596800000000002
10
360.32000000000005
20
7.0596800000000002
10
360.32000000000005
20
3.9604900000000005
10
359.51900000000001
20
3.9604900000000005
10
359.51900000000001
20
2.9600299999999997
10
345.51999999999998
20
2.9600299999999997
10
345.51999999999998
20
3.9604900000000005
10
344.71899999999999
20
3.9604900000000005
10
344.71899999999999
20
7.0596800000000002
10
345.51999999999998
20
7.0596800000000002
0
LWPOLYLINE
5
167
100
AcDbEntity
8
0
100
AcDbPolyline
90
20
70
1
43
0.0
10
326.47000000000003
20
15.960400000000002
10
326.47000000000003
20
16.959499999999998
10
340.46899999999999
20
16.959499999999998
10
340.46899999999999
20
15.960400000000002
10
341.27000000000004
20
15.960400000000002
10
341.27000000000004
20
12.859800000000002
10
340.46899999999999
20
12.859800000000002
10
340.46899999999999
20
7.0596800000000002
10
341.27000000000004
20
7.0596800000000002
10
341.27000000000004
20
3.9604900000000005
10
340.46899999999999
20
3.9604900000000005
10
340.46899999999999
20
2.9600299999999997
10
326.47000000000003
20
2.9600299999999997
10
326.47000000000003
20
3.9604900000000005
10
325.66900000000004
20
3.9604900000000005
10
325.66900000000004
20
7.0596800000000002
10
326.47000000000003
20
7.0596800000000002
10
326.47000000000003
20
12.859800000000002
10
325.66900000000004
20
12.859800000000002
10
325.66900000000004
20
15.960400000000002
0
LWPOLYLINE
5
168
100
AcDbEntity
8
0
100
AcDbPolyline
90
20
70
1
43
0.0
10
321.4190000000001
20
12.859800000000002
10
321.4190000000001
20
7.0596800000000002
10
322.22000000000003
20
7.0596800000000002
10
322.22000000000003
20
3.9604900000000005
10
321.4190000000001
20
3.9604900000000005
10
321.4190000000001
20
2.9600299999999997
10
307.42000000000007
20
2.9600299999999997
10
307.42000000000007
20
3.9604900000000005
10
306.61900000000003
20
3.9604900000000005
10
306.61900000000003
20
7.0596800000000002
10
307.42000000000007
20
7.0596800000000002
10
307.42000000000007
20
12.859800000000002
10
306.61900000000003
20
12.859800000000002
10
306.61900000000003
20
15.960400000000002
10
307.42000000000007
20
15.960400000000002
10
307.42000000000007
20
16.959499999999998
10
321.4190000000001
20
16.959499999999998
10
321.4190000000001
20
15.960400000000002
10
322.22000000000003
20
15.960400000000002
10
322.22000000000003
20
12.859800000000002
0
LWPOLYLINE
5
169
100
AcDbEntity
8
0
100
AcDbPolyline
90
24
70
1
43
0.0
10
133.58700000000002
20
17.0215
10
133.58700000000002
20
17.623699999999999
10
132.78799999999998
20
17.623699999999999
10
132.78799999999998
20
20.721599999999999
10
133.58700000000002
20
20.721599999999999
10
133.58700000000002
20
21.721999999999998
10
147.58800000000002
20
21.721999999999998
10
147.58800000000002
20
20.721599999999999
10
148.387
20
20.721599999999999
10
148.387
20
17.623699999999999
10
147.58800000000002
20
17.623699999999999
10
147.58800000000002
20
17.0215
10
147.58800000000002
20
12.423000000000002
10
147.58800000000002
20
11.8222
10
148.387
20
11.8222
10
148.387
20
8.7216199999999997
10
147.58800000000002
20
8.7216199999999997
10
147.58800000000002
20
7.7225199999999994
10
133.58700000000002
20
7.7225199999999994
10
133.58700000000002
20
8.7216199999999997
10
132.78799999999998
20
8.7216199999999997
10
132.78799999999998
20
11.8222
10
133.58700000000002
20
11.8222
10
133.58700000000002
20
12.423000000000002
0
LINE
5
170
100
AcDbEntity
8
0
100
AcDbLine
10
132.06299999999999
20
7.9526699999999995
30
0
11
132.06299999999999
21
12.423000000000002
31
0
0
LWPOLYLINE
5
171
100
AcDbEntity
8
0
100
AcDbPolyline
90
24
70
1
43
0.0
10
166.92599999999999
20
11.8222
10
166.92599999999999
20
12.423000000000002
10
166.92599999999999
20
17.0215
10
166.92599999999999
20
17.623699999999999
10
166.125
20
17.623699999999999
10
166.125
20
20.721599999999999
10
166.92599999999999
20
20.721599999999999
10
166.92599999999999
20
21.721999999999998
10
185.68799999999999
20
21.721999999999998
10
185.68799999999999
20
20.721599999999999
10
186.48700000000002
20
20.721599999999999
10
186.48700000000002
20
17.623699999999999
10
185.68799999999999
20
17.623699999999999
10
185.68799999999999
20
17.0215
10
185.68799999999999
20
12.423000000000002
10
185.68799999999999
20
11.8222
10
186.48700000000002
20
11.8222
10
186.48700000000002
20
8.7216199999999997
10
185.68799999999999
20
8.7216199999999997
10
185.68799999999999
20
7.7225199999999994
10
166.92599999999999
20
7.7225199999999994
10
166.92599999999999
20
8.7216199999999997
10
166.125
20
8.7216199999999997
10
166.125
20
11.8222
0
LWPOLYLINE
5
172
100
AcDbEntity
8
0
100
AcDbPolyline
90
13
70
1
43
0.0
10
125.57500000000002
20
6.7523800000000014
10
122.27600000000002
20
6.7523800000000014
10
120.72499999999999
20
6.752380000000004
42
-0.41421356237309537
10
119.72499999999999
20
7.7523800000000023
10
119.72499999999999
20
17.0215
10
119.72499999999999
20
19.2517
42
-0.41421356237309437
10
120.72499999999999
20
20.251699999999992
10
131.06299999999999
20
20.251699999999992
42
-0.41421356237309437
10
132.06299999999999
20
19.2517
10
132.06299999999999
20
17.0215
10
132.06299999999999
20
12.423000000000002
10
132.06299999999999
20
7.7523800000000005
42
-0.41421356237309537
10
131.06299999999999
20
6.7523800000000032
0
LWPOLYLINE
5
173
100
AcDbEntity
8
0
100
AcDbPolyline
90
24
70
1
43
0.0
10
219.82600000000002
20
11.8222
10
219.82600000000002
20
8.7216199999999997
10
219.02500000000003
20
8.7216199999999997
10
219.02500000000003
20
7.7225199999999994
10
205.02600000000001
20
7.7225199999999994
10
205.02600000000001
20
8.7216199999999997
10
204.22499999999999
20
8.7216199999999997
10
204.22499999999999
20
11.8222
10
205.02600000000001
20
11.8222
10
205.02600000000001
20
12.423000000000002
10
205.02600000000001
20
17.0215
10
205.02600000000001
20
17.623699999999999
10
204.22499999999999
20
17.623699999999999
10
204.22499999999999
20
20.721599999999999
10
205.02600000000001
20
20.721599999999999
10
205.02600000000001
20
21.721999999999998
10
219.02500000000003
20
21.721999999999998
10
219.02500000000003
20
20.721599999999999
10
219.82600000000002
20
20.721599999999999
10
219.82600000000002
20
17.623699999999999
10
219.02500000000003
20
17.623699999999999
10
219.02500000000003
20
17.0215
10
219.02500000000003
20
12.423000000000002
10
219.02500000000003
20
11.8222
0
LWPOLYLINE
5
174
100
AcDbEntity
8
0
100
AcDbPolyline
90
9
70
1
43
0.0
10
203.50099999999998
20
19.251699999999985
10
203.50099999999998
20
17.0215
10
203.50099999999998
20
7.7523800000000005
42
-0.41421356237309503
10
202.50099999999998
20
6.7523800000000014
10
197.75100000000003
20
6.752380000000004
42
-0.41421356237308982
10
196.751
20
7.7523800000000005
10
196.751
20
19.251699999999985
42
-0.4142135623730957
10
197.75100000000003
20
20.251699999999989
10
202.501
20
20.2517
42
-0.4142135623730846
0
LWPOLYLINE
5
175
100
AcDbEntity
8
0
100
AcDbPolyline
90
20
70
1
43
0.0
10
281.226
20
11.8222
10
281.226
20
17.623699999999999
10
280.42500000000007
20
17.623699999999999
10
280.42500000000007
20
20.721599999999999
10
281.226
20
20.721599999999999
10
281.226
20
21.721999999999998
10
295.22500000000002
20
21.721999999999998
10
295.22500000000002
20
20.721599999999999
10
296.02600000000001
20
20.721599999999999
10
296.02600000000001
20
17.623699999999999
10
295.22500000000002
20
17.623699999999999
10
295.22500000000002
20
11.8222
10
296.02600000000001
20
11.8222
10
296.02600000000001
20
8.7216199999999997
10
295.22500000000002
20
8.7216199999999997
10
295.22500000000002
20
7.7225199999999994
10
281.226
20
7.7225199999999994
10
281.226
20
8.7216199999999997
10
280.42500000000007
20
8.7216199999999997
10
280.42500000000007
20
11.8222
0
LWPOLYLINE
5
176
100
AcDbEntity
8
0
100
AcDbPolyline
90
8
70
1
43
0.0
10
150.11199999999999
20
20.251699999999992
10
154.86300000000003
20
20.251699999999992
42
-0.41421356237309437
10
155.863
20
19.2517
10
155.863
20
7.7523800000000032
42
-0.4142135623730957
10
154.86300000000003
20
6.7523800000000014
10
150.11199999999999
20
6.7523800000000032
42
-0.41421356237309537
10
149.11200000000002
20
7.7523800000000005
10
149.11200000000002
20
19.2517
42
-0.41421356237309437
0
LWPOLYLINE
5
177
100
AcDbEntity
8
0
100
AcDbPolyline
90
20
70
1
43
0.0
10
203.15600000000001
20
36.673699999999997
10
202.35700000000003
20
36.673699999999997
10
202.35700000000003
20
30.872200000000003
10
203.15600000000001
20
30.872200000000003
10
203.15600000000001
20
27.771600000000003
10
202.35700000000003
20
27.771600000000003
10
202.35700000000003
20
26.772500000000004
10
188.357
20
26.772500000000004
10
188.357
20
27.771600000000003
10
187.55599999999998
20
27.771600000000003
10
187.55599999999998
20
30.872200000000003
10
188.357
20
30.872200000000003
10
188.357
20
36.673699999999997
10
187.55599999999998
20
36.673699999999997
10
187.55599999999998
20
39.771500000000003
10
188.357
20
39.771500000000003
10
188.357
20
40.771900000000009
10
202.35700000000003
20
40.771900000000009
10
202.35700000000003
20
39.771500000000003
10
203.15600000000001
20
39.771500000000003
0
LWPOLYLINE
5
178
100
AcDbEntity
8
0
100
AcDbPolyline
90
20
70
1
43
0.0
10
168.50599999999997
20
27.771600000000003
10
168.50599999999997
20
30.872200000000003
10
169.30700000000002
20
30.872200000000003
10
169.30700000000002
20
36.673699999999997
10
168.50599999999997
20
36.673699999999997
10
168.50599999999997
20
39.771500000000003
10
169.30700000000002
20
39.771500000000003
10
169.30700000000002
20
40.771900000000009
10
183.30700000000004
20
40.771900000000009
10
183.30700000000004
20
39.771500000000003
10
184.10599999999999
20
39.771500000000003
10
184.10599999999999
20
36.673699999999997
10
183.30700000000004
20
36.673699999999997
10
183.30700000000004
20
30.872200000000003
10
184.10599999999999
20
30.872200000000003
10
184.10599999999999
20
27.771600000000003
10
183.30700000000004
20
27.771600000000003
10
183.30700000000004
20
26.772500000000004
10
169.30700000000002
20
26.772500000000004
10
169.30700000000002
20
27.771600000000003
0
LWPOLYLINE
5
179
100
AcDbEntity
8
0
100
AcDbPolyline
90
20
70
1
43
0.0
10
135.97000000000003
20
74.772300000000001
10
135.16899999999998
20
74.772300000000001
10
135.16899999999998
20
77.871499999999997
10
135.97000000000003
20
77.871499999999997
10
135.97000000000003
20
78.871900000000011
10
149.96899999999999
20
78.871900000000011
10
149.96899999999999
20
77.871499999999997
10
150.77000000000001
20
77.871499999999997
10
150.77000000000001
20
74.772300000000001
10
149.96899999999999
20
74.772300000000001
10
149.96899999999999
20
68.972300000000004
10
150.77000000000001
20
68.972300000000004
10
150.77000000000001
20
65.871700000000004
10
149.96899999999999
20
65.871700000000004
10
149.96899999999999
20
64.872699999999995
10
135.97000000000003
20
64.872699999999995
10
135.97000000000003
20
65.871700000000004
10
135.16899999999998
20
65.871700000000004
10
135.16899999999998
20
68.972300000000004
10
135.97000000000003
20
68.972300000000004
0
LWPOLYLINE
5
180
100
AcDbEntity
8
0
100
AcDbPolyline
90
20
70
1
43
0.0
10
97.068900000000014
20
77.871499999999997
10
97.869699999999995
20
77.871499999999997
10
97.869699999999995
20
78.871900000000011
10
111.86900000000001
20
78.871900000000011
10
111.86900000000001
20
77.871499999999997
10
112.67000000000002
20
77.871499999999997
10
112.67000000000002
20
74.772300000000001
10
111.86900000000001
20
74.772300000000001
10
111.86900000000001
20
68.972300000000004
10
112.67000000000002
20
68.972300000000004
10
112.67000000000002
20
65.871700000000004
10
111.86900000000001
20
65.871700000000004
10
111.86900000000001
20
64.872699999999995
10
97.869699999999995
20
64.872699999999995
10
97.869699999999995
20
65.871700000000004
10
97.068900000000014
20
65.871700000000004
10
97.068900000000014
20
68.972300000000004
10
97.869699999999995
20
68.972300000000004
10
97.869699999999995
20
74.772300000000001
10
97.068900000000014
20
74.772300000000001
0
LWPOLYLINE
5
181
100
AcDbEntity
8
0
100
AcDbPolyline
90
20
70
1
43
0.0
10
131.72
20
68.972300000000004
10
131.72
20
65.871700000000004
10
130.91899999999998
20
65.871700000000004
10
130.91899999999998
20
64.872699999999995
10
116.92
20
64.872699999999995
10
116.92
20
65.871700000000004
10
116.119
20
65.871700000000004
10
116.119
20
68.972300000000004
10
116.92
20
68.972300000000004
10
116.92
20
74.772300000000001
10
116.119
20
74.772300000000001
10
116.119
20
77.871499999999997
10
116.92
20
77.871499999999997
10
116.92
20
78.871900000000011
10
130.91899999999998
20
78.871900000000011
10
130.91899999999998
20
77.871499999999997
10
131.72
20
77.871499999999997
10
131.72
20
74.772300000000001
10
130.91899999999998
20
74.772300000000001
10
130.91899999999998
20
68.972300000000004
0
LWPOLYLINE
5
182
100
AcDbEntity
8
0
100
AcDbPolyline
90
20
70
1
43
0.0
10
78.819699999999997
20
78.871900000000011
10
92.819000000000003
20
78.871900000000011
10
92.819000000000003
20
77.871499999999997
10
93.619800000000012
20
77.871499999999997
10
93.619800000000012
20
74.772300000000001
10
92.819000000000003
20
74.772300000000001
10
92.819000000000003
20
68.972300000000004
10
93.619800000000012
20
68.972300000000004
10
93.619800000000012
20
65.871700000000004
10
92.819000000000003
20
65.871700000000004
10
92.819000000000003
20
64.872699999999995
10
78.819699999999997
20
64.872699999999995
10
78.819699999999997
20
65.871700000000004
10
78.018900000000002
20
65.871700000000004
10
78.018900000000002
20
68.972300000000004
10
78.819699999999997
20
68.972300000000004
10
78.819699999999997
20
74.772300000000001
10
78.018900000000002
20
74.772300000000001
10
78.018900000000002
20
77.871499999999997
10
78.819699999999997
20
77.871499999999997
0
LWPOLYLINE
5
183
100
AcDbEntity
8
0
100
AcDbPolyline
90
20
70
1
43
0.0
10
69.805899999999994
20
68.972300000000004
10
69.805899999999994
20
65.871700000000004
10
69.006500000000003
20
65.871700000000004
10
69.006500000000003
20
64.872699999999995
10
55.007200000000005
20
64.872699999999995
10
55.007200000000005
20
65.871700000000004
10
54.206400000000002
20
65.871700000000004
10
54.206400000000002
20
68.972300000000004
10
55.007200000000005
20
68.972300000000004
10
55.007200000000005
20
74.772300000000001
10
54.206400000000002
20
74.772300000000001
10
54.206400000000002
20
77.871499999999997
10
55.007200000000005
20
77.871499999999997
10
55.007200000000005
20
78.871900000000011
10
69.006500000000003
20
78.871900000000011
10
69.006500000000003
20
77.871499999999997
10
69.805899999999994
20
77.871499999999997
10
69.805899999999994
20
74.772300000000001
10
69.006500000000003
20
74.772300000000001
10
69.006500000000003
20
68.972300000000004
0
LWPOLYLINE
5
184
100
AcDbEntity
8
0
100
AcDbPolyline
90
20
70
1
43
0.0
10
21.669699999999999
20
77.871499999999997
10
21.669699999999999
20
78.871900000000011
10
35.669000000000004
20
78.871900000000011
10
35.669000000000004
20
77.871499999999997
10
36.469799999999999
20
77.871499999999997
10
36.469799999999999
20
74.772300000000001
10
35.669000000000004
20
74.772300000000001
10
35.669000000000004
20
68.972300000000004
10
36.469799999999999
20
68.972300000000004
10
36.469799999999999
20
65.871700000000004
10
35.669000000000004
20
65.871700000000004
10
35.669000000000004
20
64.872699999999995
10
21.669699999999999
20
64.872699999999995
10
21.669699999999999
20
65.871700000000004
10
20.869
20
65.871700000000004
10
20.869
20
68.972300000000004
10
21.669699999999999
20
68.972300000000004
10
21.669699999999999
20
74.772300000000001
10
20.869
20
74.772300000000001
10
20.869
20
77.871499999999997
0
LWPOLYLINE
5
185
100
AcDbEntity
8
0
100
AcDbPolyline
90
28
70
1
43
0.0
10
297.09400000000005
20
93.822299999999998
10
297.09400000000005
20
96.921499999999995
10
297.89499999999998
20
96.921499999999995
10
297.89499999999998
20
97.921899999999994
10
330.94400000000002
20
97.921899999999994
10
330.94400000000002
20
96.921499999999995
10
331.745
20
96.921499999999995
10
331.745
20
93.822299999999998
10
330.94400000000002
20
93.822299999999998
10
330.94400000000002
20
88.022300000000001
10
331.745
20
88.022300000000001
10
331.745
20
84.921700000000001
10
330.94400000000002
20
84.921700000000001
10
330.94400000000002
20
83.92270000000002
10
327.96899999999999
20
83.92270000000002
10
327.96899999999999
20
82.952500000000015
10
324.67000000000007
20
82.952500000000015
10
324.67000000000007
20
83.92270000000002
10
304.16900000000004
20
83.92270000000002
10
304.16900000000004
20
82.952500000000015
10
300.87
20
82.952500000000015
10
300.87
20
83.92270000000002
10
297.89499999999998
20
83.92270000000002
10
297.89499999999998
20
84.921700000000001
10
297.09400000000005
20
84.921700000000001
10
297.09400000000005
20
88.022300000000001
10
297.89499999999998
20
88.022300000000001
10
297.89499999999998
20
93.822299999999998
0
LWPOLYLINE
5
186
100
AcDbEntity
8
0
100
AcDbPolyline
90
20
70
1
43
0.0
10
2.61965
20
78.871900000000011
10
16.619199999999999
20
78.871900000000011
10
16.619199999999999
20
77.871499999999997
10
17.419799999999999
20
77.871499999999997
10
17.419799999999999
20
74.772300000000001
10
16.619199999999999
20
74.772300000000001
10
16.619199999999999
20
68.972300000000004
10
17.419799999999999
20
68.972300000000004
10
17.419799999999999
20
65.871700000000004
10
16.619199999999999
20
65.871700000000004
10
16.619199999999999
20
64.872699999999995
10
2.61965
20
64.872699999999995
10
2.61965
20
65.871700000000004
10
1.8190099999999998
20
65.871700000000004
10
1.8190099999999998
20
68.972300000000004
10
2.61965
20
68.972300000000004
10
2.61965
20
74.772300000000001
10
1.8190099999999998
20
74.772300000000001
10
1.8190099999999998
20
77.871499999999997
10
2.61965
20
77.871499999999997
0
LWPOLYLINE
5
187
100
AcDbEntity
8
0
100
AcDbPolyline
90
20
70
1
43
0.0
10
349.48100000000005
20
93.822299999999998
10
349.48100000000005
20
96.921499999999995
10
350.28199999999998
20
96.921499999999995
10
350.28199999999998
20
97.921899999999994
10
364.28199999999998
20
97.921899999999994
10
364.28199999999998
20
96.921499999999995
10
365.08300000000008
20
96.921499999999995
10
365.08300000000008
20
93.822299999999998
10
364.28199999999998
20
93.822299999999998
10
364.28199999999998
20
88.022300000000001
10
365.08300000000008
20
88.022300000000001
10
365.08300000000008
20
84.921700000000001
10
364.28199999999998
20
84.921700000000001
10
364.28199999999998
20
83.92270000000002
10
350.28199999999998
20
83.92270000000002
10
350.28199999999998
20
84.921700000000001
10
349.48100000000005
20
84.921700000000001
10
349.48100000000005
20
88.022300000000001
10
350.28199999999998
20
88.022300000000001
10
350.28199999999998
20
93.822299999999998
0
LWPOLYLINE
5
188
100
AcDbEntity
8
0
100
AcDbPolyline
90
20
70
1
43
0.0
10
278.84500000000003
20
84.921700000000001
10
278.04400000000004
20
84.921700000000001
10
278.04400000000004
20
88.022300000000001
10
278.84500000000003
20
88.022300000000001
10
278.84500000000003
20
93.822299999999998
10
278.04400000000004
20
93.822299999999998
10
278.04400000000004
20
96.921499999999995
10
278.84500000000003
20
96.921499999999995
10
278.84500000000003
20
97.921899999999994
10
292.84399999999999
20
97.921899999999994
10
292.84399999999999
20
96.921499999999995
10
293.64499999999998
20
96.921499999999995
10
293.64499999999998
20
93.822299999999998
10
292.84399999999999
20
93.822299999999998
10
292.84399999999999
20
88.022300000000001
10
293.64499999999998
20
88.022300000000001
10
293.64499999999998
20
84.921700000000001
10
292.84399999999999
20
84.921700000000001
10
292.84399999999999
20
83.92270000000002
10
278.84500000000003
20
83.92270000000002
0
LWPOLYLINE
5
189
100
AcDbEntity
8
0
100
AcDbPolyline
90
20
70
1
43
0.0
10
273.79400000000004
20
88.022300000000001
10
274.59500000000003
20
88.022300000000001
10
274.59500000000003
20
84.921700000000001
10
273.79400000000004
20
84.921700000000001
10
273.79400000000004
20
83.92270000000002
10
259.79500000000002
20
83.92270000000002
10
259.79500000000002
20
84.921700000000001
10
258.99400000000003
20
84.921700000000001
10
258.99400000000003
20
88.022300000000001
10
259.79500000000002
20
88.022300000000001
10
259.79500000000002
20
93.822299999999998
10
258.99400000000003
20
93.822299999999998
10
258.99400000000003
20
96.921499999999995
10
259.79500000000002
20
96.921499999999995
10
259.79500000000002
20
97.921899999999994
10
273.79400000000004
20
97.921899999999994
10
273.79400000000004
20
96.921499999999995
10
274.59500000000003
20
96.921499999999995
10
274.59500000000003
20
93.822299999999998
10
273.79400000000004
20
93.822299999999998
0
LWPOLYLINE
5
190
100
AcDbEntity
8
0
100
AcDbPolyline
90
20
70
1
43
0.0
10
240.745
20
96.921499999999995
10
240.745
20
97.921899999999994
10
254.74400000000003
20
97.921899999999994
10
254.74400000000003
20
96.921499999999995
10
255.54500000000002
20
96.921499999999995
10
255.54500000000002
20
93.822299999999998
10
254.74400000000003
20
93.822299999999998
10
254.74400000000003
20
88.022300000000001
10
255.54500000000002
20
88.022300000000001
10
255.54500000000002
20
84.921700000000001
10
254.74400000000003
20
84.921700000000001
10
254.74400000000003
20
83.92270000000002
10
240.745
20
83.92270000000002
10
240.745
20
84.921700000000001
10
239.94400000000002
20
84.921700000000001
10
239.94400000000002
20
88.022300000000001
10
240.745
20
88.022300000000001
10
240.745
20
93.822299999999998
10
239.94400000000002
20
93.822299999999998
10
239.94400000000002
20
96.921499999999995
0
LWPOLYLINE
5
191
100
AcDbEntity
8
0
100
AcDbPolyline
90
20
70
1
43
0.0
10
221.69499999999999
20
97.921899999999994
10
235.69400000000002
20
97.921899999999994
10
235.69400000000002
20
96.921499999999995
10
236.49500000000003
20
96.921499999999995
10
236.49500000000003
20
93.822299999999998
10
235.69400000000002
20
93.822299999999998
10
235.69400000000002
20
88.022300000000001
10
236.49500000000003
20
88.022300000000001
10
236.49500000000003
20
84.921700000000001
10
235.69400000000002
20
84.921700000000001
10
235.69400000000002
20
83.92270000000002
10
221.69499999999999
20
83.92270000000002
10
221.69499999999999
20
84.921700000000001
10
220.89400000000001
20
84.921700000000001
10
220.89400000000001
20
88.022300000000001
10
221.69499999999999
20
88.022300000000001
10
221.69499999999999
20
93.822299999999998
10
220.89400000000001
20
93.822299999999998
10
220.89400000000001
20
96.921499999999995
10
221.69499999999999
20
96.921499999999995
0
LWPOLYLINE
5
192
100
AcDbEntity
8
0
100
AcDbPolyline
90
20
70
1
43
0.0
10
202.64500000000001
20
96.921499999999995
10
202.64500000000001
20
97.921899999999994
10
216.64400000000001
20
97.921899999999994
10
216.64400000000001
20
96.921499999999995
10
217.44500000000002
20
96.921499999999995
10
217.44500000000002
20
93.822299999999998
10
216.64400000000001
20
93.822299999999998
10
216.64400000000001
20
88.022300000000001
10
217.44500000000002
20
88.022300000000001
10
217.44500000000002
20
84.921700000000001
10
216.64400000000001
20
84.921700000000001
10
216.64400000000001
20
83.92270000000002
10
202.64500000000001
20
83.92270000000002
10
202.64500000000001
20
84.921700000000001
10
201.84400000000005
20
84.921700000000001
10
201.84400000000005
20
88.022300000000001
10
202.64500000000001
20
88.022300000000001
10
202.64500000000001
20
93.822299999999998
10
201.84400000000005
20
93.822299999999998
10
201.84400000000005
20
96.921499999999995
0
LWPOLYLINE
5
193
100
AcDbEntity
8
0
100
AcDbPolyline
90
8
70
1
43
0.0
10
59.622519107470531
20
39.301600000000001
10
54.050400000000003
20
39.301600000000001
42
0.41421356237309503
10
53.05040000000001
20
38.301600000000001
10
53.050400000000018
20
26.802399999999999
42
0.41421356237309503
10
54.050400000000003
20
25.802399999999999
10
59.622519107470538
20
25.802399999999999
42
0.41421356237309243
10
60.622519107470524
20
26.802399999999999
10
60.622519107470524
20
38.301600000000008
42
0.4142135623730937
0
LWPOLYLINE
5
194
100
AcDbEntity
8
0
100
AcDbPolyline
90
8
70
1
43
0.0
10
221.55100000000002
20
6.7523800000000014
10
227.12599999999998
20
6.7523800000000014
42
0.4142135623730957
10
228.12600000000003
20
7.7523800000000032
10
228.126
20
19.25170000000001
42
0.41421356237309503
10
227.12599999999998
20
20.25170000000001
10
221.55100000000004
20
20.251700000000014
42
0.41421356237310542
10
220.55099999999999
20
19.25170000000001
10
220.55099999999999
20
7.7523800000000005
42
0.414213562373069
0
LWPOLYLINE
5
195
100
AcDbEntity
8
0
100
AcDbPolyline
90
8
70
1
43
0.0
10
290.60700000000003
20
25.802399999999999
10
285.03199999999998
20
25.802399999999913
42
-0.4142135623730937
10
284.03199999999993
20
26.802399999999995
10
284.03199999999998
20
38.301600000000008
42
-0.41421356237309243
10
285.03199999999998
20
39.301600000000001
10
290.60700000000003
20
39.301600000000001
42
-0.41421356237308982
10
291.60700000000008
20
38.301600000000001
10
291.60700000000008
20
26.802399999999999
42
-0.41421356237309503
0
LWPOLYLINE
5
196
100
AcDbEntity
8
0
100
AcDbPolyline
90
8
70
1
43
0.0
10
309.65700000000004
20
25.802399999999999
10
315.24799718261215
20
25.802399999999999
42
0.41421356237309892
10
316.24799718261221
20
26.802400000000052
10
316.24799718261221
20
38.301599999999951
42
0.41421356237309764
10
315.24799718261215
20
39.301600000000001
10
309.65700000000004
20
39.301600000000001
42
0.414213562373069
10
308.65699999999998
20
38.301600000000001
10
308.65699999999998
20
26.802400000000052
42
0.4142135623730937
0
LWPOLYLINE
5
197
100
AcDbEntity
8
0
100
AcDbPolyline
90
8
70
1
43
0.0
10
321.56200000000007
20
44.852499999999999
10
327.13699999999994
20
44.852499999999999
42
0.41421356237309503
10
328.13699999999994
20
45.852499999999992
10
328.13700000000006
20
57.351600000000012
42
0.41421356237309243
10
327.13699999999994
20
58.351600000000005
10
321.56200000000007
20
58.351600000000005
42
0.41421356237309503
10
320.56200000000013
20
57.351600000000005
10
320.56200000000001
20
45.852499999999992
42
0.41421356237312362
0
LWPOLYLINE
5
198
100
AcDbEntity
8
0
100
AcDbPolyline
90
8
70
1
43
0.0
10
371.51200000000006
20
113.1519
10
-4.6103499999999915
20
113.1519
42
0.41421356237309503
10
-12.610349999999993
20
105.15189999999998
10
-12.610349999999993
20
-4.2699699999999794
42
0.41421356237309503
10
-4.6103500000000253
20
-12.269969999999979
10
371.51200000000006
20
-12.269969999999979
42
0.41421356237309509
10
379.512
20
-4.2699699999999829
10
379.512
20
105.15189999999998
42
0.41421356237309503
0
CIRCLE
5
199
100
AcDbEntity
8
0
100
AcDbCircle
10
-4.6103499999999915
20
105.15189999999998
30
0
40
1.5499999999999936
210
0
220
0
230
1
0
CIRCLE
5
200
100
AcDbEntity
8
0
100
AcDbCircle
10
-4.6103499999999915
20
-4.2699699999999785
30
0
40
1.5500000000000003
210
0
220
0
230
1
0
CIRCLE
5
201
100
AcDbEntity
8
0
100
AcDbCircle
10
371.51200000000006
20
-4.2699699999999785
30
0
40
1.5500000000000003
210
0
220
0
230
1
0
CIRCLE
5
202
100
AcDbEntity
8
0
100
AcDbCircle
10
371.51200000000006
20
105.15189999999998
30
0
40
1.5500000000000089
210
0
220
0
230
1
0
ENDSEC
0
SECTION
2
OBJECTS
0
DICTIONARY
5
C
100
AcDbDictionary
3
ACAD_GROUP
350
D
3
ACAD_MLINESTYLE
350
17
0
DICTIONARY
5
D
100
AcDbDictionary
0
DICTIONARY
5
1A
330
C
100
AcDbDictionary
0
DICTIONARY
5
17
100
AcDbDictionary
0
ENDSEC
0
EOF
