G04 #@! TF.GenerationSoftware,KiCad,Pcbnew,(5.1.4)-1*
G04 #@! TF.CreationDate,2020-03-06T17:06:41-08:00*
G04 #@! TF.ProjectId,keyboard,6b657962-6f61-4726-942e-6b696361645f,rev?*
G04 #@! TF.SameCoordinates,Original*
G04 #@! TF.FileFunction,Soldermask,Top*
G04 #@! TF.FilePolarity,Negative*
%FSLAX46Y46*%
G04 Gerber Fmt 4.6, Leading zero omitted, Abs format (unit mm)*
G04 Created by KiCad (PCBNEW (5.1.4)-1) date 2020-03-06 17:06:41*
%MOMM*%
%LPD*%
G04 APERTURE LIST*
%ADD10C,3.987800*%
%ADD11C,1.750000*%
%ADD12C,3.048000*%
%ADD13C,0.650000*%
%ADD14O,1.000000X2.100000*%
%ADD15O,1.000000X1.600000*%
%ADD16R,2.000000X2.000000*%
%ADD17C,2.000000*%
%ADD18R,2.000000X3.200000*%
G04 APERTURE END LIST*
D10*
X423703750Y-210007000D03*
D11*
X418623750Y-210007000D03*
X428783750Y-210007000D03*
D12*
X411797500Y-203022000D03*
X435610000Y-203022000D03*
D10*
X411797500Y-218262000D03*
X435610000Y-218262000D03*
D13*
X276690000Y-160150000D03*
X270910000Y-160150000D03*
D14*
X269480000Y-160680000D03*
X278120000Y-160680000D03*
D15*
X269480000Y-156500000D03*
X278120000Y-156500000D03*
D16*
X471520000Y-164472000D03*
D17*
X469020000Y-164472000D03*
X466520000Y-164472000D03*
D18*
X474620000Y-171972000D03*
X463420000Y-171972000D03*
D17*
X471520000Y-178972000D03*
X466520000Y-178972000D03*
D10*
X426085000Y-171958000D03*
D11*
X421005000Y-171958000D03*
X431165000Y-171958000D03*
D12*
X414178750Y-164973000D03*
X437991250Y-164973000D03*
D10*
X414178750Y-180213000D03*
X437991250Y-180213000D03*
X285623000Y-248158000D03*
D11*
X280543000Y-248158000D03*
X290703000Y-248158000D03*
D12*
X235623100Y-241173000D03*
X335622900Y-241173000D03*
D10*
X235623100Y-256413000D03*
X335622900Y-256413000D03*
X176070000Y-210002000D03*
D11*
X170990000Y-210002000D03*
X181150000Y-210002000D03*
D10*
X411797500Y-229057000D03*
D11*
X406717500Y-229057000D03*
X416877500Y-229057000D03*
D12*
X399891250Y-222072000D03*
X423703750Y-222072000D03*
D10*
X399891250Y-237312000D03*
X423703750Y-237312000D03*
X464185000Y-252869500D03*
D11*
X459105000Y-252869500D03*
X469265000Y-252869500D03*
D10*
X445135000Y-252869500D03*
D11*
X440055000Y-252869500D03*
X450215000Y-252869500D03*
D10*
X426085000Y-252869500D03*
D11*
X421005000Y-252869500D03*
X431165000Y-252869500D03*
D10*
X399891250Y-248107000D03*
D11*
X394811250Y-248107000D03*
X404971250Y-248107000D03*
D10*
X357028750Y-248107000D03*
D11*
X351948750Y-248107000D03*
X362108750Y-248107000D03*
D10*
X323691250Y-248107000D03*
D11*
X318611250Y-248107000D03*
X328771250Y-248107000D03*
D12*
X311785000Y-241122000D03*
X335597500Y-241122000D03*
D10*
X311785000Y-256362000D03*
X335597500Y-256362000D03*
X290353750Y-248107000D03*
D11*
X285273750Y-248107000D03*
X295433750Y-248107000D03*
D10*
X252253750Y-248107000D03*
D11*
X247173750Y-248107000D03*
X257333750Y-248107000D03*
D12*
X240347500Y-241122000D03*
X264160000Y-241122000D03*
D10*
X240347500Y-256362000D03*
X264160000Y-256362000D03*
X214153750Y-248107000D03*
D11*
X209073750Y-248107000D03*
X219233750Y-248107000D03*
D10*
X171291250Y-248107000D03*
D11*
X166211250Y-248107000D03*
X176371250Y-248107000D03*
D10*
X140335000Y-248107000D03*
D11*
X135255000Y-248107000D03*
X145415000Y-248107000D03*
D10*
X121285000Y-248107000D03*
D11*
X116205000Y-248107000D03*
X126365000Y-248107000D03*
D10*
X445135000Y-233819500D03*
D11*
X440055000Y-233819500D03*
X450215000Y-233819500D03*
D10*
X468947500Y-229057000D03*
D11*
X463867500Y-229057000D03*
X474027500Y-229057000D03*
D10*
X383222500Y-229057000D03*
D11*
X378142500Y-229057000D03*
X388302500Y-229057000D03*
D10*
X364172500Y-229057000D03*
D11*
X359092500Y-229057000D03*
X369252500Y-229057000D03*
D10*
X345122500Y-229057000D03*
D11*
X340042500Y-229057000D03*
X350202500Y-229057000D03*
D10*
X326072500Y-229057000D03*
D11*
X320992500Y-229057000D03*
X331152500Y-229057000D03*
D10*
X307022500Y-229057000D03*
D11*
X301942500Y-229057000D03*
X312102500Y-229057000D03*
D10*
X287972500Y-229057000D03*
D11*
X282892500Y-229057000D03*
X293052500Y-229057000D03*
D10*
X268922500Y-229057000D03*
D11*
X263842500Y-229057000D03*
X274002500Y-229057000D03*
D10*
X249872500Y-229057000D03*
D11*
X244792500Y-229057000D03*
X254952500Y-229057000D03*
D10*
X230822500Y-229057000D03*
D11*
X225742500Y-229057000D03*
X235902500Y-229057000D03*
D10*
X211772500Y-229057000D03*
D11*
X206692500Y-229057000D03*
X216852500Y-229057000D03*
D10*
X180816250Y-229057000D03*
D11*
X175736250Y-229057000D03*
X185896250Y-229057000D03*
D12*
X168910000Y-222072000D03*
X192722500Y-222072000D03*
D10*
X168910000Y-237312000D03*
X192722500Y-237312000D03*
X140335000Y-229057000D03*
D11*
X135255000Y-229057000D03*
X145415000Y-229057000D03*
D10*
X121285000Y-229057000D03*
D11*
X116205000Y-229057000D03*
X126365000Y-229057000D03*
D10*
X468947500Y-210007000D03*
D11*
X463867500Y-210007000D03*
X474027500Y-210007000D03*
D10*
X392747500Y-210007000D03*
D11*
X387667500Y-210007000D03*
X397827500Y-210007000D03*
D10*
X373697500Y-210007000D03*
D11*
X368617500Y-210007000D03*
X378777500Y-210007000D03*
D10*
X354647500Y-210007000D03*
D11*
X349567500Y-210007000D03*
X359727500Y-210007000D03*
D10*
X335597500Y-210007000D03*
D11*
X330517500Y-210007000D03*
X340677500Y-210007000D03*
D10*
X316547500Y-210007000D03*
D11*
X311467500Y-210007000D03*
X321627500Y-210007000D03*
D10*
X297497500Y-210007000D03*
D11*
X292417500Y-210007000D03*
X302577500Y-210007000D03*
D10*
X278447500Y-210007000D03*
D11*
X273367500Y-210007000D03*
X283527500Y-210007000D03*
D10*
X259397500Y-210007000D03*
D11*
X254317500Y-210007000D03*
X264477500Y-210007000D03*
D10*
X240347500Y-210007000D03*
D11*
X235267500Y-210007000D03*
X245427500Y-210007000D03*
D10*
X221297500Y-210007000D03*
D11*
X216217500Y-210007000D03*
X226377500Y-210007000D03*
D10*
X202247500Y-210007000D03*
D11*
X197167500Y-210007000D03*
X207327500Y-210007000D03*
D10*
X171291250Y-210007000D03*
D11*
X166211250Y-210007000D03*
X176371250Y-210007000D03*
D10*
X140335000Y-210007000D03*
D11*
X135255000Y-210007000D03*
X145415000Y-210007000D03*
D10*
X121285000Y-210007000D03*
D11*
X116205000Y-210007000D03*
X126365000Y-210007000D03*
D10*
X468947500Y-190957000D03*
D11*
X463867500Y-190957000D03*
X474027500Y-190957000D03*
D10*
X430847500Y-190957000D03*
D11*
X425767500Y-190957000D03*
X435927500Y-190957000D03*
D10*
X407035000Y-190957000D03*
D11*
X401955000Y-190957000D03*
X412115000Y-190957000D03*
D10*
X387985000Y-190957000D03*
D11*
X382905000Y-190957000D03*
X393065000Y-190957000D03*
D10*
X368935000Y-190957000D03*
D11*
X363855000Y-190957000D03*
X374015000Y-190957000D03*
D10*
X349885000Y-190957000D03*
D11*
X344805000Y-190957000D03*
X354965000Y-190957000D03*
D10*
X330835000Y-190957000D03*
D11*
X325755000Y-190957000D03*
X335915000Y-190957000D03*
D10*
X311785000Y-190957000D03*
D11*
X306705000Y-190957000D03*
X316865000Y-190957000D03*
D10*
X292735000Y-190957000D03*
D11*
X287655000Y-190957000D03*
X297815000Y-190957000D03*
D10*
X272935000Y-190957000D03*
D11*
X267855000Y-190957000D03*
X278015000Y-190957000D03*
D10*
X254635000Y-190957000D03*
D11*
X249555000Y-190957000D03*
X259715000Y-190957000D03*
D10*
X235585000Y-190957000D03*
D11*
X230505000Y-190957000D03*
X240665000Y-190957000D03*
D10*
X216535000Y-190957000D03*
D11*
X211455000Y-190957000D03*
X221615000Y-190957000D03*
D10*
X197485000Y-190957000D03*
D11*
X192405000Y-190957000D03*
X202565000Y-190957000D03*
D10*
X173672500Y-190957000D03*
D11*
X168592500Y-190957000D03*
X178752500Y-190957000D03*
D10*
X140335000Y-190957000D03*
D11*
X135255000Y-190957000D03*
X145415000Y-190957000D03*
D10*
X121285000Y-190957000D03*
D11*
X116205000Y-190957000D03*
X126365000Y-190957000D03*
D10*
X435610000Y-171907000D03*
D11*
X430530000Y-171907000D03*
X440690000Y-171907000D03*
D10*
X416560000Y-171907000D03*
D11*
X411480000Y-171907000D03*
X421640000Y-171907000D03*
D10*
X397510000Y-171907000D03*
D11*
X392430000Y-171907000D03*
X402590000Y-171907000D03*
D10*
X378460000Y-171907000D03*
D11*
X373380000Y-171907000D03*
X383540000Y-171907000D03*
D10*
X359410000Y-171907000D03*
D11*
X354330000Y-171907000D03*
X364490000Y-171907000D03*
D10*
X340360000Y-171907000D03*
D11*
X335280000Y-171907000D03*
X345440000Y-171907000D03*
D10*
X321310000Y-171907000D03*
D11*
X316230000Y-171907000D03*
X326390000Y-171907000D03*
D10*
X302260000Y-171907000D03*
D11*
X297180000Y-171907000D03*
X307340000Y-171907000D03*
D10*
X283210000Y-171907000D03*
D11*
X278130000Y-171907000D03*
X288290000Y-171907000D03*
D10*
X264160000Y-171907000D03*
D11*
X259080000Y-171907000D03*
X269240000Y-171907000D03*
D10*
X245110000Y-171907000D03*
D11*
X240030000Y-171907000D03*
X250190000Y-171907000D03*
D10*
X226060000Y-171907000D03*
D11*
X220980000Y-171907000D03*
X231140000Y-171907000D03*
D10*
X207010000Y-171907000D03*
D11*
X201930000Y-171907000D03*
X212090000Y-171907000D03*
D10*
X187960000Y-171907000D03*
D11*
X182880000Y-171907000D03*
X193040000Y-171907000D03*
D10*
X168910000Y-171907000D03*
D11*
X163830000Y-171907000D03*
X173990000Y-171907000D03*
D10*
X140335000Y-171907000D03*
D11*
X135255000Y-171907000D03*
X145415000Y-171907000D03*
D10*
X121285000Y-171907000D03*
D11*
X116205000Y-171907000D03*
X126365000Y-171907000D03*
M02*
