G04 #@! TF.GenerationSoftware,KiCad,Pcbnew,(5.1.4)-1*
G04 #@! TF.CreationDate,2020-03-16T10:49:11-07:00*
G04 #@! TF.ProjectId,frogdor,66726f67-646f-4722-9e6b-696361645f70,rev?*
G04 #@! TF.SameCoordinates,Original*
G04 #@! TF.FileFunction,Soldermask,Bot*
G04 #@! TF.FilePolarity,Negative*
%FSLAX46Y46*%
G04 Gerber Fmt 4.6, Leading zero omitted, Abs format (unit mm)*
G04 Created by KiCad (PCBNEW (5.1.4)-1) date 2020-03-16 10:49:11*
%MOMM*%
%LPD*%
G04 APERTURE LIST*
%ADD10C,0.010000*%
%ADD11C,2.250000*%
%ADD12C,3.987800*%
%ADD13C,1.750000*%
%ADD14C,3.048000*%
%ADD15R,1.200000X0.900000*%
%ADD16R,1.060000X0.650000*%
%ADD17C,1.200000*%
%ADD18C,0.100000*%
%ADD19R,0.600000X2.450000*%
%ADD20R,0.300000X2.450000*%
%ADD21C,0.650000*%
%ADD22C,0.550000*%
%ADD23R,1.100000X1.800000*%
%ADD24C,0.975000*%
%ADD25C,1.250000*%
%ADD26R,2.000000X2.000000*%
%ADD27C,2.000000*%
%ADD28R,2.000000X3.200000*%
G04 APERTURE END LIST*
D10*
G36*
X454361667Y-161800972D02*
G01*
X454241956Y-161875880D01*
X454197468Y-161913378D01*
X454108097Y-161987022D01*
X453982742Y-162082781D01*
X453838490Y-162187904D01*
X453701618Y-162283397D01*
X453482817Y-162442935D01*
X453321348Y-162585000D01*
X453235096Y-162682924D01*
X453157665Y-162805106D01*
X453085820Y-162952475D01*
X453028143Y-163103671D01*
X452993217Y-163237331D01*
X452986750Y-163301078D01*
X453001264Y-163353743D01*
X453036222Y-163358000D01*
X453078749Y-163319499D01*
X453115787Y-163244455D01*
X453184577Y-163112356D01*
X453297698Y-162976757D01*
X453439050Y-162853662D01*
X453592532Y-162759074D01*
X453614311Y-162748910D01*
X453858594Y-162663696D01*
X454142701Y-162604800D01*
X454447350Y-162575332D01*
X454692919Y-162575035D01*
X454852848Y-162584356D01*
X454969276Y-162598614D01*
X455062200Y-162622039D01*
X455151615Y-162658860D01*
X455197800Y-162681834D01*
X455368097Y-162792386D01*
X455500995Y-162934511D01*
X455608142Y-163121672D01*
X455637601Y-163190079D01*
X455694950Y-163311308D01*
X455744380Y-163377256D01*
X455782585Y-163386653D01*
X455806254Y-163338229D01*
X455812500Y-163257218D01*
X455792397Y-163130219D01*
X455737642Y-162974291D01*
X455656571Y-162807246D01*
X455605172Y-162724037D01*
X455492269Y-162724037D01*
X455486979Y-162726750D01*
X455450193Y-162710391D01*
X455382033Y-162669175D01*
X455349180Y-162647425D01*
X455273971Y-162601564D01*
X455192098Y-162565344D01*
X455085607Y-162532296D01*
X454936541Y-162495953D01*
X454915563Y-162491204D01*
X454852394Y-162468037D01*
X454841703Y-162456875D01*
X454734590Y-162456875D01*
X454471858Y-162474772D01*
X454344721Y-162483772D01*
X454239461Y-162491846D01*
X454174243Y-162497579D01*
X454165550Y-162498584D01*
X454138143Y-162495728D01*
X454155337Y-162464524D01*
X454165550Y-162451956D01*
X454253590Y-162380778D01*
X454367383Y-162335004D01*
X454488135Y-162317042D01*
X454597048Y-162329303D01*
X454675328Y-162374198D01*
X454684370Y-162385437D01*
X454734590Y-162456875D01*
X454841703Y-162456875D01*
X454828250Y-162442831D01*
X454809417Y-162402213D01*
X454762557Y-162336634D01*
X454746053Y-162316436D01*
X454680069Y-162251972D01*
X454608233Y-162223991D01*
X454522783Y-162218750D01*
X454323392Y-162248671D01*
X454147755Y-162337026D01*
X454051849Y-162421381D01*
X453914326Y-162524013D01*
X453778428Y-162578754D01*
X453652417Y-162625491D01*
X453513090Y-162691687D01*
X453431250Y-162738232D01*
X453339994Y-162794615D01*
X453272538Y-162835154D01*
X453244619Y-162850519D01*
X453254107Y-162830423D01*
X453292253Y-162776148D01*
X453311518Y-162750562D01*
X453380379Y-162675665D01*
X453485805Y-162579535D01*
X453618064Y-162469310D01*
X453767423Y-162352131D01*
X453924148Y-162235134D01*
X454078507Y-162125460D01*
X454220768Y-162030247D01*
X454341197Y-161956634D01*
X454430063Y-161911759D01*
X454469441Y-161901250D01*
X454540304Y-161927150D01*
X454647834Y-162004856D01*
X454777210Y-162120266D01*
X454891242Y-162222759D01*
X455003916Y-162314825D01*
X455097892Y-162382660D01*
X455132741Y-162403326D01*
X455197036Y-162444204D01*
X455275500Y-162504645D01*
X455356194Y-162573749D01*
X455427180Y-162640616D01*
X455476518Y-162694346D01*
X455492269Y-162724037D01*
X455605172Y-162724037D01*
X455557520Y-162646894D01*
X455479102Y-162544827D01*
X455386505Y-162456014D01*
X455266214Y-162365519D01*
X455176024Y-162310651D01*
X455014255Y-162203000D01*
X454865084Y-162065949D01*
X454841118Y-162038963D01*
X454704814Y-161895632D01*
X454584921Y-161809253D01*
X454473264Y-161778231D01*
X454361667Y-161800972D01*
X454361667Y-161800972D01*
G37*
X454361667Y-161800972D02*
X454241956Y-161875880D01*
X454197468Y-161913378D01*
X454108097Y-161987022D01*
X453982742Y-162082781D01*
X453838490Y-162187904D01*
X453701618Y-162283397D01*
X453482817Y-162442935D01*
X453321348Y-162585000D01*
X453235096Y-162682924D01*
X453157665Y-162805106D01*
X453085820Y-162952475D01*
X453028143Y-163103671D01*
X452993217Y-163237331D01*
X452986750Y-163301078D01*
X453001264Y-163353743D01*
X453036222Y-163358000D01*
X453078749Y-163319499D01*
X453115787Y-163244455D01*
X453184577Y-163112356D01*
X453297698Y-162976757D01*
X453439050Y-162853662D01*
X453592532Y-162759074D01*
X453614311Y-162748910D01*
X453858594Y-162663696D01*
X454142701Y-162604800D01*
X454447350Y-162575332D01*
X454692919Y-162575035D01*
X454852848Y-162584356D01*
X454969276Y-162598614D01*
X455062200Y-162622039D01*
X455151615Y-162658860D01*
X455197800Y-162681834D01*
X455368097Y-162792386D01*
X455500995Y-162934511D01*
X455608142Y-163121672D01*
X455637601Y-163190079D01*
X455694950Y-163311308D01*
X455744380Y-163377256D01*
X455782585Y-163386653D01*
X455806254Y-163338229D01*
X455812500Y-163257218D01*
X455792397Y-163130219D01*
X455737642Y-162974291D01*
X455656571Y-162807246D01*
X455605172Y-162724037D01*
X455492269Y-162724037D01*
X455486979Y-162726750D01*
X455450193Y-162710391D01*
X455382033Y-162669175D01*
X455349180Y-162647425D01*
X455273971Y-162601564D01*
X455192098Y-162565344D01*
X455085607Y-162532296D01*
X454936541Y-162495953D01*
X454915563Y-162491204D01*
X454852394Y-162468037D01*
X454841703Y-162456875D01*
X454734590Y-162456875D01*
X454471858Y-162474772D01*
X454344721Y-162483772D01*
X454239461Y-162491846D01*
X454174243Y-162497579D01*
X454165550Y-162498584D01*
X454138143Y-162495728D01*
X454155337Y-162464524D01*
X454165550Y-162451956D01*
X454253590Y-162380778D01*
X454367383Y-162335004D01*
X454488135Y-162317042D01*
X454597048Y-162329303D01*
X454675328Y-162374198D01*
X454684370Y-162385437D01*
X454734590Y-162456875D01*
X454841703Y-162456875D01*
X454828250Y-162442831D01*
X454809417Y-162402213D01*
X454762557Y-162336634D01*
X454746053Y-162316436D01*
X454680069Y-162251972D01*
X454608233Y-162223991D01*
X454522783Y-162218750D01*
X454323392Y-162248671D01*
X454147755Y-162337026D01*
X454051849Y-162421381D01*
X453914326Y-162524013D01*
X453778428Y-162578754D01*
X453652417Y-162625491D01*
X453513090Y-162691687D01*
X453431250Y-162738232D01*
X453339994Y-162794615D01*
X453272538Y-162835154D01*
X453244619Y-162850519D01*
X453254107Y-162830423D01*
X453292253Y-162776148D01*
X453311518Y-162750562D01*
X453380379Y-162675665D01*
X453485805Y-162579535D01*
X453618064Y-162469310D01*
X453767423Y-162352131D01*
X453924148Y-162235134D01*
X454078507Y-162125460D01*
X454220768Y-162030247D01*
X454341197Y-161956634D01*
X454430063Y-161911759D01*
X454469441Y-161901250D01*
X454540304Y-161927150D01*
X454647834Y-162004856D01*
X454777210Y-162120266D01*
X454891242Y-162222759D01*
X455003916Y-162314825D01*
X455097892Y-162382660D01*
X455132741Y-162403326D01*
X455197036Y-162444204D01*
X455275500Y-162504645D01*
X455356194Y-162573749D01*
X455427180Y-162640616D01*
X455476518Y-162694346D01*
X455492269Y-162724037D01*
X455605172Y-162724037D01*
X455557520Y-162646894D01*
X455479102Y-162544827D01*
X455386505Y-162456014D01*
X455266214Y-162365519D01*
X455176024Y-162310651D01*
X455014255Y-162203000D01*
X454865084Y-162065949D01*
X454841118Y-162038963D01*
X454704814Y-161895632D01*
X454584921Y-161809253D01*
X454473264Y-161778231D01*
X454361667Y-161800972D01*
G36*
X451437769Y-163009015D02*
G01*
X451398737Y-163080565D01*
X451374329Y-163175532D01*
X451368544Y-163274045D01*
X451385384Y-163356238D01*
X451405600Y-163387150D01*
X451463929Y-163419976D01*
X451522675Y-163420208D01*
X451556437Y-163389430D01*
X451558000Y-163377625D01*
X451532322Y-163336353D01*
X451506902Y-163330000D01*
X451474373Y-163302779D01*
X451470429Y-163225544D01*
X451494976Y-163104939D01*
X451510768Y-163052187D01*
X451517518Y-162995903D01*
X451487425Y-162980750D01*
X451437769Y-163009015D01*
X451437769Y-163009015D01*
G37*
X451437769Y-163009015D02*
X451398737Y-163080565D01*
X451374329Y-163175532D01*
X451368544Y-163274045D01*
X451385384Y-163356238D01*
X451405600Y-163387150D01*
X451463929Y-163419976D01*
X451522675Y-163420208D01*
X451556437Y-163389430D01*
X451558000Y-163377625D01*
X451532322Y-163336353D01*
X451506902Y-163330000D01*
X451474373Y-163302779D01*
X451470429Y-163225544D01*
X451494976Y-163104939D01*
X451510768Y-163052187D01*
X451517518Y-162995903D01*
X451487425Y-162980750D01*
X451437769Y-163009015D01*
G36*
X452402965Y-163943408D02*
G01*
X452382030Y-163957474D01*
X452375710Y-163988290D01*
X452385325Y-164048410D01*
X452412193Y-164150386D01*
X452431929Y-164219000D01*
X452459340Y-164353908D01*
X452478335Y-164533491D01*
X452486969Y-164739253D01*
X452487015Y-164742875D01*
X452485241Y-164929624D01*
X452470488Y-165078615D01*
X452436309Y-165204321D01*
X452376257Y-165321212D01*
X452283884Y-165443763D01*
X452152743Y-165586445D01*
X452076827Y-165663625D01*
X451914118Y-165835188D01*
X451795685Y-165982501D01*
X451714509Y-166118745D01*
X451663570Y-166257099D01*
X451635849Y-166410743D01*
X451627963Y-166506430D01*
X451624438Y-166655802D01*
X451634451Y-166745751D01*
X451649641Y-166772644D01*
X451688954Y-166769380D01*
X451698687Y-166753074D01*
X451707129Y-166702031D01*
X451716703Y-166607662D01*
X451725381Y-166490062D01*
X451725632Y-166485963D01*
X451747583Y-166316137D01*
X451795864Y-166165405D01*
X451877587Y-166021475D01*
X451999863Y-165872059D01*
X452169802Y-165704865D01*
X452186332Y-165689751D01*
X452334507Y-165549544D01*
X452440712Y-165430492D01*
X452511703Y-165316831D01*
X452554238Y-165192800D01*
X452575071Y-165042637D01*
X452580959Y-164850579D01*
X452580732Y-164769617D01*
X452573324Y-164557792D01*
X452555599Y-164364273D01*
X452529373Y-164197499D01*
X452496462Y-164065909D01*
X452458682Y-163977943D01*
X452417849Y-163942040D01*
X452402965Y-163943408D01*
X452402965Y-163943408D01*
G37*
X452402965Y-163943408D02*
X452382030Y-163957474D01*
X452375710Y-163988290D01*
X452385325Y-164048410D01*
X452412193Y-164150386D01*
X452431929Y-164219000D01*
X452459340Y-164353908D01*
X452478335Y-164533491D01*
X452486969Y-164739253D01*
X452487015Y-164742875D01*
X452485241Y-164929624D01*
X452470488Y-165078615D01*
X452436309Y-165204321D01*
X452376257Y-165321212D01*
X452283884Y-165443763D01*
X452152743Y-165586445D01*
X452076827Y-165663625D01*
X451914118Y-165835188D01*
X451795685Y-165982501D01*
X451714509Y-166118745D01*
X451663570Y-166257099D01*
X451635849Y-166410743D01*
X451627963Y-166506430D01*
X451624438Y-166655802D01*
X451634451Y-166745751D01*
X451649641Y-166772644D01*
X451688954Y-166769380D01*
X451698687Y-166753074D01*
X451707129Y-166702031D01*
X451716703Y-166607662D01*
X451725381Y-166490062D01*
X451725632Y-166485963D01*
X451747583Y-166316137D01*
X451795864Y-166165405D01*
X451877587Y-166021475D01*
X451999863Y-165872059D01*
X452169802Y-165704865D01*
X452186332Y-165689751D01*
X452334507Y-165549544D01*
X452440712Y-165430492D01*
X452511703Y-165316831D01*
X452554238Y-165192800D01*
X452575071Y-165042637D01*
X452580959Y-164850579D01*
X452580732Y-164769617D01*
X452573324Y-164557792D01*
X452555599Y-164364273D01*
X452529373Y-164197499D01*
X452496462Y-164065909D01*
X452458682Y-163977943D01*
X452417849Y-163942040D01*
X452402965Y-163943408D01*
G36*
X457202263Y-164943787D02*
G01*
X457204234Y-164986373D01*
X457254066Y-165069402D01*
X457332036Y-165169174D01*
X457489383Y-165391083D01*
X457627679Y-165648587D01*
X457732839Y-165913977D01*
X457762335Y-166015609D01*
X457808128Y-166247837D01*
X457840131Y-166522900D01*
X457857188Y-166821402D01*
X457858140Y-167123944D01*
X457844111Y-167385530D01*
X457829540Y-167545649D01*
X457814973Y-167687949D01*
X457802032Y-167797642D01*
X457792340Y-167859941D01*
X457791785Y-167862312D01*
X457790930Y-167919678D01*
X457821742Y-167933750D01*
X457864191Y-167906635D01*
X457889466Y-167853666D01*
X457911231Y-167730612D01*
X457928970Y-167559669D01*
X457942081Y-167356354D01*
X457949964Y-167136187D01*
X457952017Y-166914686D01*
X457947638Y-166707369D01*
X457939396Y-166565812D01*
X457910591Y-166280540D01*
X457871510Y-166042967D01*
X457817318Y-165837524D01*
X457743179Y-165648644D01*
X457644258Y-165460759D01*
X457548602Y-165307645D01*
X457429619Y-165136338D01*
X457332298Y-165016513D01*
X457258373Y-164949990D01*
X457209578Y-164938592D01*
X457202263Y-164943787D01*
X457202263Y-164943787D01*
G37*
X457202263Y-164943787D02*
X457204234Y-164986373D01*
X457254066Y-165069402D01*
X457332036Y-165169174D01*
X457489383Y-165391083D01*
X457627679Y-165648587D01*
X457732839Y-165913977D01*
X457762335Y-166015609D01*
X457808128Y-166247837D01*
X457840131Y-166522900D01*
X457857188Y-166821402D01*
X457858140Y-167123944D01*
X457844111Y-167385530D01*
X457829540Y-167545649D01*
X457814973Y-167687949D01*
X457802032Y-167797642D01*
X457792340Y-167859941D01*
X457791785Y-167862312D01*
X457790930Y-167919678D01*
X457821742Y-167933750D01*
X457864191Y-167906635D01*
X457889466Y-167853666D01*
X457911231Y-167730612D01*
X457928970Y-167559669D01*
X457942081Y-167356354D01*
X457949964Y-167136187D01*
X457952017Y-166914686D01*
X457947638Y-166707369D01*
X457939396Y-166565812D01*
X457910591Y-166280540D01*
X457871510Y-166042967D01*
X457817318Y-165837524D01*
X457743179Y-165648644D01*
X457644258Y-165460759D01*
X457548602Y-165307645D01*
X457429619Y-165136338D01*
X457332298Y-165016513D01*
X457258373Y-164949990D01*
X457209578Y-164938592D01*
X457202263Y-164943787D01*
G36*
X450264775Y-166753601D02*
G01*
X450085862Y-166792837D01*
X449937994Y-166860227D01*
X449891481Y-166895024D01*
X449856970Y-166943539D01*
X449804534Y-167039337D01*
X449739409Y-167170577D01*
X449666830Y-167325416D01*
X449592031Y-167492013D01*
X449520246Y-167658524D01*
X449456711Y-167813107D01*
X449406660Y-167943921D01*
X449375328Y-168039122D01*
X449367250Y-168080982D01*
X449377062Y-168126128D01*
X449406329Y-168111329D01*
X449454803Y-168037004D01*
X449522236Y-167903575D01*
X449608377Y-167711460D01*
X449663210Y-167581964D01*
X449737621Y-167407995D01*
X449808484Y-167250687D01*
X449870531Y-167121117D01*
X449918493Y-167030360D01*
X449943532Y-166992760D01*
X450028013Y-166934297D01*
X450153445Y-166884480D01*
X450297334Y-166849270D01*
X450437188Y-166834626D01*
X450520742Y-166839820D01*
X450659210Y-166874305D01*
X450789049Y-166934092D01*
X450922318Y-167027001D01*
X451071077Y-167160852D01*
X451169063Y-167260174D01*
X451431000Y-167533817D01*
X451431000Y-167733783D01*
X451428920Y-167837052D01*
X451423492Y-167909277D01*
X451416619Y-167933750D01*
X451380209Y-167922003D01*
X451323711Y-167897970D01*
X451212668Y-167870576D01*
X451126718Y-167898267D01*
X451066861Y-167977378D01*
X451034099Y-168104241D01*
X451029432Y-168275190D01*
X451053861Y-168486559D01*
X451102030Y-168710198D01*
X451128777Y-168854735D01*
X451143317Y-169013375D01*
X451144155Y-169091198D01*
X451140697Y-169216774D01*
X451142023Y-169289353D01*
X451150584Y-169319397D01*
X451168834Y-169317366D01*
X451192875Y-169299000D01*
X451223823Y-169237842D01*
X451237914Y-169128263D01*
X451235147Y-168983061D01*
X451215523Y-168815036D01*
X451192875Y-168695750D01*
X451169098Y-168552781D01*
X451152254Y-168385338D01*
X451146366Y-168247015D01*
X451147622Y-168122324D01*
X451154963Y-168047207D01*
X451171616Y-168007803D01*
X451200810Y-167990251D01*
X451206549Y-167988626D01*
X451282484Y-167998115D01*
X451347361Y-168062954D01*
X451395653Y-168175234D01*
X451418388Y-168291803D01*
X451439727Y-168411068D01*
X451468503Y-168467996D01*
X451482997Y-168473500D01*
X451499308Y-168462030D01*
X451511137Y-168422456D01*
X451519109Y-168347030D01*
X451523845Y-168228005D01*
X451525970Y-168057632D01*
X451526250Y-167935550D01*
X451526598Y-167738789D01*
X451528422Y-167595775D01*
X451532890Y-167496754D01*
X451541172Y-167431974D01*
X451554437Y-167391680D01*
X451573856Y-167366121D01*
X451596662Y-167348282D01*
X451656120Y-167317460D01*
X451696504Y-167331317D01*
X451703729Y-167338545D01*
X451747239Y-167412354D01*
X451790537Y-167531099D01*
X451828414Y-167676410D01*
X451855663Y-167829919D01*
X451863509Y-167902000D01*
X451877529Y-168021201D01*
X451896870Y-168123260D01*
X451914089Y-168177898D01*
X451926745Y-168221571D01*
X451926922Y-168283401D01*
X451912956Y-168373470D01*
X451883179Y-168501858D01*
X451835925Y-168678644D01*
X451824547Y-168719562D01*
X451820731Y-168775705D01*
X451855036Y-168791000D01*
X451895532Y-168761256D01*
X451937317Y-168671442D01*
X451980647Y-168520685D01*
X452025779Y-168308111D01*
X452067118Y-168069660D01*
X452099028Y-167889394D01*
X452129045Y-167762879D01*
X452159896Y-167680531D01*
X452190317Y-167636572D01*
X452238705Y-167593714D01*
X452274487Y-167594787D01*
X452322946Y-167634127D01*
X452353431Y-167665615D01*
X452372210Y-167702985D01*
X452380984Y-167759724D01*
X452381451Y-167849314D01*
X452375310Y-167985242D01*
X452372830Y-168030035D01*
X452360432Y-168199736D01*
X452342405Y-168327862D01*
X452314134Y-168436327D01*
X452271002Y-168547047D01*
X452257639Y-168577025D01*
X452200959Y-168706320D01*
X452171048Y-168788796D01*
X452165932Y-168834257D01*
X452183639Y-168852507D01*
X452201810Y-168854500D01*
X452233742Y-168827448D01*
X452279233Y-168756354D01*
X452328698Y-168656309D01*
X452330994Y-168651069D01*
X452385695Y-168538693D01*
X452442108Y-168443669D01*
X452485632Y-168389132D01*
X452525584Y-168356172D01*
X452541762Y-168358951D01*
X452539386Y-168407491D01*
X452529566Y-168473500D01*
X452494292Y-168607794D01*
X452428611Y-168775997D01*
X452340870Y-168961715D01*
X452239414Y-169148550D01*
X452132590Y-169320110D01*
X452028744Y-169459998D01*
X452025295Y-169464085D01*
X451932624Y-169578428D01*
X451882839Y-169654069D01*
X451873305Y-169696582D01*
X451901387Y-169711538D01*
X451908197Y-169711750D01*
X451939637Y-169690261D01*
X452000136Y-169634110D01*
X452071430Y-169560882D01*
X452196633Y-169411010D01*
X452311371Y-169243618D01*
X452412944Y-169066588D01*
X452498652Y-168887800D01*
X452565795Y-168715138D01*
X452611673Y-168556482D01*
X452633587Y-168419715D01*
X452628835Y-168312719D01*
X452594719Y-168243374D01*
X452530916Y-168219540D01*
X452500257Y-168216158D01*
X452480529Y-168198341D01*
X452469329Y-168154654D01*
X452464258Y-168073661D01*
X452462912Y-167943926D01*
X452462875Y-167895522D01*
X452462151Y-167748940D01*
X452458042Y-167652686D01*
X452447645Y-167593590D01*
X452428057Y-167558482D01*
X452396375Y-167534191D01*
X452381300Y-167525474D01*
X452270321Y-167491735D01*
X452170507Y-167516971D01*
X452087484Y-167596900D01*
X452026883Y-167727238D01*
X452006639Y-167810568D01*
X451980932Y-167949625D01*
X451955340Y-167790875D01*
X451923868Y-167641300D01*
X451879748Y-167490043D01*
X451829509Y-167355780D01*
X451779676Y-167257193D01*
X451759195Y-167229526D01*
X451677496Y-167178099D01*
X451587821Y-167180126D01*
X451506345Y-167230332D01*
X451449245Y-167323444D01*
X451446576Y-167331444D01*
X451431471Y-167359336D01*
X451406369Y-167355680D01*
X451361986Y-167314257D01*
X451289038Y-167228846D01*
X451283632Y-167222288D01*
X451139425Y-167062739D01*
X450995365Y-166941083D01*
X450826596Y-166836846D01*
X450796000Y-166820605D01*
X450639023Y-166765907D01*
X450455555Y-166744099D01*
X450264775Y-166753601D01*
X450264775Y-166753601D01*
G37*
X450264775Y-166753601D02*
X450085862Y-166792837D01*
X449937994Y-166860227D01*
X449891481Y-166895024D01*
X449856970Y-166943539D01*
X449804534Y-167039337D01*
X449739409Y-167170577D01*
X449666830Y-167325416D01*
X449592031Y-167492013D01*
X449520246Y-167658524D01*
X449456711Y-167813107D01*
X449406660Y-167943921D01*
X449375328Y-168039122D01*
X449367250Y-168080982D01*
X449377062Y-168126128D01*
X449406329Y-168111329D01*
X449454803Y-168037004D01*
X449522236Y-167903575D01*
X449608377Y-167711460D01*
X449663210Y-167581964D01*
X449737621Y-167407995D01*
X449808484Y-167250687D01*
X449870531Y-167121117D01*
X449918493Y-167030360D01*
X449943532Y-166992760D01*
X450028013Y-166934297D01*
X450153445Y-166884480D01*
X450297334Y-166849270D01*
X450437188Y-166834626D01*
X450520742Y-166839820D01*
X450659210Y-166874305D01*
X450789049Y-166934092D01*
X450922318Y-167027001D01*
X451071077Y-167160852D01*
X451169063Y-167260174D01*
X451431000Y-167533817D01*
X451431000Y-167733783D01*
X451428920Y-167837052D01*
X451423492Y-167909277D01*
X451416619Y-167933750D01*
X451380209Y-167922003D01*
X451323711Y-167897970D01*
X451212668Y-167870576D01*
X451126718Y-167898267D01*
X451066861Y-167977378D01*
X451034099Y-168104241D01*
X451029432Y-168275190D01*
X451053861Y-168486559D01*
X451102030Y-168710198D01*
X451128777Y-168854735D01*
X451143317Y-169013375D01*
X451144155Y-169091198D01*
X451140697Y-169216774D01*
X451142023Y-169289353D01*
X451150584Y-169319397D01*
X451168834Y-169317366D01*
X451192875Y-169299000D01*
X451223823Y-169237842D01*
X451237914Y-169128263D01*
X451235147Y-168983061D01*
X451215523Y-168815036D01*
X451192875Y-168695750D01*
X451169098Y-168552781D01*
X451152254Y-168385338D01*
X451146366Y-168247015D01*
X451147622Y-168122324D01*
X451154963Y-168047207D01*
X451171616Y-168007803D01*
X451200810Y-167990251D01*
X451206549Y-167988626D01*
X451282484Y-167998115D01*
X451347361Y-168062954D01*
X451395653Y-168175234D01*
X451418388Y-168291803D01*
X451439727Y-168411068D01*
X451468503Y-168467996D01*
X451482997Y-168473500D01*
X451499308Y-168462030D01*
X451511137Y-168422456D01*
X451519109Y-168347030D01*
X451523845Y-168228005D01*
X451525970Y-168057632D01*
X451526250Y-167935550D01*
X451526598Y-167738789D01*
X451528422Y-167595775D01*
X451532890Y-167496754D01*
X451541172Y-167431974D01*
X451554437Y-167391680D01*
X451573856Y-167366121D01*
X451596662Y-167348282D01*
X451656120Y-167317460D01*
X451696504Y-167331317D01*
X451703729Y-167338545D01*
X451747239Y-167412354D01*
X451790537Y-167531099D01*
X451828414Y-167676410D01*
X451855663Y-167829919D01*
X451863509Y-167902000D01*
X451877529Y-168021201D01*
X451896870Y-168123260D01*
X451914089Y-168177898D01*
X451926745Y-168221571D01*
X451926922Y-168283401D01*
X451912956Y-168373470D01*
X451883179Y-168501858D01*
X451835925Y-168678644D01*
X451824547Y-168719562D01*
X451820731Y-168775705D01*
X451855036Y-168791000D01*
X451895532Y-168761256D01*
X451937317Y-168671442D01*
X451980647Y-168520685D01*
X452025779Y-168308111D01*
X452067118Y-168069660D01*
X452099028Y-167889394D01*
X452129045Y-167762879D01*
X452159896Y-167680531D01*
X452190317Y-167636572D01*
X452238705Y-167593714D01*
X452274487Y-167594787D01*
X452322946Y-167634127D01*
X452353431Y-167665615D01*
X452372210Y-167702985D01*
X452380984Y-167759724D01*
X452381451Y-167849314D01*
X452375310Y-167985242D01*
X452372830Y-168030035D01*
X452360432Y-168199736D01*
X452342405Y-168327862D01*
X452314134Y-168436327D01*
X452271002Y-168547047D01*
X452257639Y-168577025D01*
X452200959Y-168706320D01*
X452171048Y-168788796D01*
X452165932Y-168834257D01*
X452183639Y-168852507D01*
X452201810Y-168854500D01*
X452233742Y-168827448D01*
X452279233Y-168756354D01*
X452328698Y-168656309D01*
X452330994Y-168651069D01*
X452385695Y-168538693D01*
X452442108Y-168443669D01*
X452485632Y-168389132D01*
X452525584Y-168356172D01*
X452541762Y-168358951D01*
X452539386Y-168407491D01*
X452529566Y-168473500D01*
X452494292Y-168607794D01*
X452428611Y-168775997D01*
X452340870Y-168961715D01*
X452239414Y-169148550D01*
X452132590Y-169320110D01*
X452028744Y-169459998D01*
X452025295Y-169464085D01*
X451932624Y-169578428D01*
X451882839Y-169654069D01*
X451873305Y-169696582D01*
X451901387Y-169711538D01*
X451908197Y-169711750D01*
X451939637Y-169690261D01*
X452000136Y-169634110D01*
X452071430Y-169560882D01*
X452196633Y-169411010D01*
X452311371Y-169243618D01*
X452412944Y-169066588D01*
X452498652Y-168887800D01*
X452565795Y-168715138D01*
X452611673Y-168556482D01*
X452633587Y-168419715D01*
X452628835Y-168312719D01*
X452594719Y-168243374D01*
X452530916Y-168219540D01*
X452500257Y-168216158D01*
X452480529Y-168198341D01*
X452469329Y-168154654D01*
X452464258Y-168073661D01*
X452462912Y-167943926D01*
X452462875Y-167895522D01*
X452462151Y-167748940D01*
X452458042Y-167652686D01*
X452447645Y-167593590D01*
X452428057Y-167558482D01*
X452396375Y-167534191D01*
X452381300Y-167525474D01*
X452270321Y-167491735D01*
X452170507Y-167516971D01*
X452087484Y-167596900D01*
X452026883Y-167727238D01*
X452006639Y-167810568D01*
X451980932Y-167949625D01*
X451955340Y-167790875D01*
X451923868Y-167641300D01*
X451879748Y-167490043D01*
X451829509Y-167355780D01*
X451779676Y-167257193D01*
X451759195Y-167229526D01*
X451677496Y-167178099D01*
X451587821Y-167180126D01*
X451506345Y-167230332D01*
X451449245Y-167323444D01*
X451446576Y-167331444D01*
X451431471Y-167359336D01*
X451406369Y-167355680D01*
X451361986Y-167314257D01*
X451289038Y-167228846D01*
X451283632Y-167222288D01*
X451139425Y-167062739D01*
X450995365Y-166941083D01*
X450826596Y-166836846D01*
X450796000Y-166820605D01*
X450639023Y-166765907D01*
X450455555Y-166744099D01*
X450264775Y-166753601D01*
G36*
X465687673Y-152717910D02*
G01*
X465686750Y-152725500D01*
X465710911Y-152756327D01*
X465718500Y-152757250D01*
X465749328Y-152733089D01*
X465750250Y-152725500D01*
X465726090Y-152694672D01*
X465718500Y-152693750D01*
X465687673Y-152717910D01*
X465687673Y-152717910D01*
G37*
X465687673Y-152717910D02*
X465686750Y-152725500D01*
X465710911Y-152756327D01*
X465718500Y-152757250D01*
X465749328Y-152733089D01*
X465750250Y-152725500D01*
X465726090Y-152694672D01*
X465718500Y-152693750D01*
X465687673Y-152717910D01*
G36*
X455506975Y-161307610D02*
G01*
X455280564Y-161387293D01*
X455223757Y-161413968D01*
X455056147Y-161496038D01*
X454947340Y-161413047D01*
X454791949Y-161331614D01*
X454596445Y-161289317D01*
X454372257Y-161288200D01*
X454297197Y-161296751D01*
X454162978Y-161323218D01*
X454046899Y-161367028D01*
X453920862Y-161439651D01*
X453878601Y-161467628D01*
X453746137Y-161556662D01*
X453653475Y-161613777D01*
X453587152Y-161641623D01*
X453533704Y-161642850D01*
X453479666Y-161620107D01*
X453411575Y-161576042D01*
X453392636Y-161563255D01*
X453310949Y-161511173D01*
X453242375Y-161479576D01*
X453166262Y-161463389D01*
X453061953Y-161457535D01*
X452959747Y-161456868D01*
X452780342Y-161464321D01*
X452646254Y-161492290D01*
X452540412Y-161549461D01*
X452445746Y-161644520D01*
X452361566Y-161761219D01*
X452292473Y-161874754D01*
X452254066Y-161971420D01*
X452235827Y-162082667D01*
X452231106Y-162151270D01*
X452239424Y-162373114D01*
X452284160Y-162565315D01*
X452319201Y-162689391D01*
X452326326Y-162776993D01*
X452299652Y-162848895D01*
X452233295Y-162925872D01*
X452163716Y-162990620D01*
X452066486Y-163065997D01*
X451973680Y-163116963D01*
X451898851Y-163138052D01*
X451855551Y-163123795D01*
X451851929Y-163116409D01*
X451833771Y-163075639D01*
X451793468Y-162991730D01*
X451737576Y-162878186D01*
X451691507Y-162785957D01*
X451620521Y-162648991D01*
X451567484Y-162559880D01*
X451524647Y-162508412D01*
X451484259Y-162484377D01*
X451458497Y-162478934D01*
X451375757Y-162492588D01*
X451309115Y-162552834D01*
X451265961Y-162600515D01*
X451220320Y-162622179D01*
X451150234Y-162623504D01*
X451069816Y-162614743D01*
X450896270Y-162593060D01*
X450811580Y-162727218D01*
X450757920Y-162806629D01*
X450713301Y-162843973D01*
X450654183Y-162851689D01*
X450587457Y-162845659D01*
X450469739Y-162845067D01*
X450392174Y-162870782D01*
X450373362Y-162889698D01*
X450366711Y-162917319D01*
X450375202Y-162962385D01*
X450401812Y-163033633D01*
X450449522Y-163139802D01*
X450521311Y-163289630D01*
X450566726Y-163382747D01*
X450643643Y-163541412D01*
X450709596Y-163680098D01*
X450759941Y-163788828D01*
X450790034Y-163857623D01*
X450796564Y-163876691D01*
X450772552Y-163887542D01*
X450749932Y-163881828D01*
X450707645Y-163896037D01*
X450633261Y-163951296D01*
X450534788Y-164039425D01*
X450420235Y-164152246D01*
X450297613Y-164281578D01*
X450174929Y-164419240D01*
X450060194Y-164557054D01*
X449961416Y-164686839D01*
X449960603Y-164687974D01*
X449821637Y-164898239D01*
X449677483Y-165144001D01*
X449540207Y-165402781D01*
X449421874Y-165652100D01*
X449351677Y-165822375D01*
X449257425Y-166104122D01*
X449178698Y-166402386D01*
X449117261Y-166704825D01*
X449074881Y-166999103D01*
X449053325Y-167272879D01*
X449054360Y-167513815D01*
X449079752Y-167709572D01*
X449080805Y-167714174D01*
X449131575Y-167879720D01*
X449211483Y-168077246D01*
X449311685Y-168287842D01*
X449423338Y-168492601D01*
X449510425Y-168632699D01*
X449728460Y-168904787D01*
X450003266Y-169151925D01*
X450332873Y-169373291D01*
X450715316Y-169568064D01*
X451148626Y-169735424D01*
X451630836Y-169874548D01*
X452159979Y-169984615D01*
X452734087Y-170064804D01*
X453002625Y-170090593D01*
X453140675Y-170100107D01*
X453328651Y-170110161D01*
X453552987Y-170120185D01*
X453800120Y-170129611D01*
X454056485Y-170137869D01*
X454256750Y-170143196D01*
X454690904Y-170149864D01*
X455071994Y-170147397D01*
X455409869Y-170135295D01*
X455714377Y-170113052D01*
X455995365Y-170080168D01*
X456228254Y-170042529D01*
X456501132Y-169992716D01*
X456621622Y-170074483D01*
X456769738Y-170138528D01*
X456943522Y-170153767D01*
X457127530Y-170119786D01*
X457205621Y-170090085D01*
X457285216Y-170048194D01*
X457401316Y-169978748D01*
X457538786Y-169891144D01*
X457682489Y-169794778D01*
X457692928Y-169787575D01*
X457845674Y-169685627D01*
X458002585Y-169587106D01*
X458145005Y-169503379D01*
X458252432Y-169446684D01*
X458332857Y-169409457D01*
X458400746Y-169382787D01*
X458469011Y-169364849D01*
X458550562Y-169353821D01*
X458658312Y-169347880D01*
X458805170Y-169345203D01*
X458979030Y-169344090D01*
X459174544Y-169342407D01*
X459316797Y-169338851D01*
X459416024Y-169332333D01*
X459482459Y-169321762D01*
X459526337Y-169306049D01*
X459557892Y-169284105D01*
X459559971Y-169282247D01*
X459616964Y-169200542D01*
X459612647Y-169116949D01*
X459549062Y-169033945D01*
X459428248Y-168954006D01*
X459252246Y-168879608D01*
X459218870Y-168868308D01*
X459109544Y-168831175D01*
X459053097Y-168806772D01*
X459041706Y-168789197D01*
X459067545Y-168772547D01*
X459083360Y-168766072D01*
X459148010Y-168748283D01*
X459258009Y-168725576D01*
X459395755Y-168701381D01*
X459492554Y-168686374D01*
X459709134Y-168644561D01*
X459866558Y-168591700D01*
X459963993Y-168528502D01*
X460000609Y-168455677D01*
X459996318Y-168441666D01*
X459876500Y-168441666D01*
X459845225Y-168485014D01*
X459753295Y-168527966D01*
X459603550Y-168569556D01*
X459398832Y-168608823D01*
X459370045Y-168613437D01*
X459157464Y-168654391D01*
X458996990Y-168701630D01*
X458892136Y-168753754D01*
X458846411Y-168809364D01*
X458844625Y-168822941D01*
X458874980Y-168855406D01*
X458962444Y-168896559D01*
X459101622Y-168943908D01*
X459115742Y-168948162D01*
X459275625Y-168997588D01*
X459382972Y-169036502D01*
X459446724Y-169070295D01*
X459475820Y-169104358D01*
X459479202Y-169144084D01*
X459474852Y-169164725D01*
X459455906Y-169205952D01*
X459415457Y-169228595D01*
X459336734Y-169239230D01*
X459277485Y-169242110D01*
X459150179Y-169244237D01*
X458995131Y-169243242D01*
X458860500Y-169239810D01*
X458672394Y-169240223D01*
X458503353Y-169259606D01*
X458340985Y-169302520D01*
X458172898Y-169373530D01*
X457986700Y-169477196D01*
X457769998Y-169618084D01*
X457697615Y-169667992D01*
X457467963Y-169822858D01*
X457278282Y-169937536D01*
X457120985Y-170013914D01*
X456988484Y-170053883D01*
X456873193Y-170059332D01*
X456767524Y-170032149D01*
X456663891Y-169974225D01*
X456614672Y-169937665D01*
X456508476Y-169845144D01*
X456405333Y-169741630D01*
X456355153Y-169683665D01*
X456280125Y-169602655D01*
X456216537Y-169558555D01*
X456174056Y-169556104D01*
X456161750Y-169588839D01*
X456181628Y-169630992D01*
X456232614Y-169700428D01*
X456275846Y-169750968D01*
X456334518Y-169825079D01*
X456364339Y-169881679D01*
X456363159Y-169902026D01*
X456302783Y-169929113D01*
X456186635Y-169954716D01*
X456022436Y-169978339D01*
X455817905Y-169999486D01*
X455580763Y-170017661D01*
X455318731Y-170032370D01*
X455039527Y-170043117D01*
X454750874Y-170049406D01*
X454460490Y-170050741D01*
X454176097Y-170046628D01*
X454129750Y-170045376D01*
X453572670Y-170023607D01*
X453071619Y-169991557D01*
X452619790Y-169948100D01*
X452210376Y-169892114D01*
X451836569Y-169822472D01*
X451491563Y-169738050D01*
X451168550Y-169637723D01*
X450860724Y-169520367D01*
X450802440Y-169495642D01*
X450459255Y-169331827D01*
X450169690Y-169156227D01*
X449923926Y-168959835D01*
X449712144Y-168733645D01*
X449524526Y-168468649D01*
X449359256Y-168171822D01*
X449246673Y-167915935D01*
X449176132Y-167670989D01*
X449145160Y-167419614D01*
X449151284Y-167144440D01*
X449179340Y-166907956D01*
X449290719Y-166365283D01*
X449457024Y-165845658D01*
X449675812Y-165353966D01*
X449944638Y-164895091D01*
X450261059Y-164473914D01*
X450554698Y-164159744D01*
X450796000Y-163925864D01*
X450796381Y-164048619D01*
X450788792Y-164130392D01*
X450767992Y-164254605D01*
X450737434Y-164402429D01*
X450710878Y-164514716D01*
X450672987Y-164672017D01*
X450650765Y-164785346D01*
X450642563Y-164871825D01*
X450646734Y-164948574D01*
X450661205Y-165030700D01*
X450722896Y-165211734D01*
X450825198Y-165391852D01*
X450953640Y-165549495D01*
X451079946Y-165654544D01*
X451161313Y-165702801D01*
X451231790Y-165729555D01*
X451314504Y-165739795D01*
X451432583Y-165738509D01*
X451463440Y-165737267D01*
X451619593Y-165723975D01*
X451748341Y-165693501D01*
X451885253Y-165636802D01*
X451914747Y-165622504D01*
X452078600Y-165524442D01*
X452213156Y-165409840D01*
X452306414Y-165290328D01*
X452340763Y-165209708D01*
X452346280Y-165139986D01*
X452325456Y-165111871D01*
X452289131Y-165134851D01*
X452276589Y-165153540D01*
X452129507Y-165343795D01*
X451939643Y-165492242D01*
X451716506Y-165593097D01*
X451476611Y-165640039D01*
X451310610Y-165639106D01*
X451178877Y-165600014D01*
X451060243Y-165514129D01*
X450991409Y-165442114D01*
X450871201Y-165283761D01*
X450795441Y-165126268D01*
X450761882Y-164956760D01*
X450768277Y-164762363D01*
X450812378Y-164530203D01*
X450824102Y-164483585D01*
X450873856Y-164254070D01*
X450891950Y-164054693D01*
X450875869Y-163869162D01*
X450823097Y-163681186D01*
X450731120Y-163474473D01*
X450643230Y-163311954D01*
X450564456Y-163169957D01*
X450519026Y-163072921D01*
X450507490Y-163011432D01*
X450530398Y-162976074D01*
X450588301Y-162957433D01*
X450664504Y-162947794D01*
X450794898Y-162919470D01*
X450884202Y-162868258D01*
X450922321Y-162800348D01*
X450923000Y-162789277D01*
X450950242Y-162756462D01*
X451013930Y-162731414D01*
X451087013Y-162722027D01*
X451129375Y-162729043D01*
X451218435Y-162753038D01*
X451285999Y-162734772D01*
X451353285Y-162674333D01*
X451407435Y-162620732D01*
X451443283Y-162610257D01*
X451484277Y-162638190D01*
X451493188Y-162646187D01*
X451540192Y-162710151D01*
X451600389Y-162824097D01*
X451669518Y-162976953D01*
X451743320Y-163157646D01*
X451817532Y-163355105D01*
X451887893Y-163558258D01*
X451950144Y-163756031D01*
X452000023Y-163937354D01*
X452015979Y-164004687D01*
X452046305Y-164069667D01*
X452085003Y-164092000D01*
X452108180Y-164085879D01*
X452118918Y-164061831D01*
X452115893Y-164011329D01*
X452097777Y-163925844D01*
X452063246Y-163796847D01*
X452010973Y-163615813D01*
X452010955Y-163615750D01*
X451973532Y-163488133D01*
X451941860Y-163379993D01*
X451921027Y-163308712D01*
X451916978Y-163294787D01*
X451926054Y-163252944D01*
X451988858Y-163226524D01*
X452000865Y-163223964D01*
X452111367Y-163173704D01*
X452233298Y-163068124D01*
X452361465Y-162913193D01*
X452490678Y-162714877D01*
X452571497Y-162568000D01*
X452647660Y-162424590D01*
X452721952Y-162291830D01*
X452785051Y-162185988D01*
X452822528Y-162129864D01*
X452959268Y-161999763D01*
X453153606Y-161895918D01*
X453379029Y-161824671D01*
X453543669Y-161771670D01*
X453707122Y-161689967D01*
X453475772Y-161689967D01*
X453286035Y-161743472D01*
X453094039Y-161808906D01*
X452938490Y-161891432D01*
X452807776Y-162001499D01*
X452690280Y-162149555D01*
X452574389Y-162346051D01*
X452537945Y-162416509D01*
X452405249Y-162679125D01*
X452358778Y-162568000D01*
X452330339Y-162473644D01*
X452306487Y-162348786D01*
X452296207Y-162261873D01*
X452280108Y-162066872D01*
X452450867Y-162016555D01*
X452535324Y-161981231D01*
X452643930Y-161921329D01*
X452764155Y-161845660D01*
X452883470Y-161763035D01*
X452989347Y-161682266D01*
X453069255Y-161612164D01*
X453110666Y-161561540D01*
X453113750Y-161550374D01*
X453137276Y-161522069D01*
X453199565Y-161528465D01*
X453288190Y-161566693D01*
X453350891Y-161605108D01*
X453475772Y-161689967D01*
X453707122Y-161689967D01*
X453709629Y-161688714D01*
X453848356Y-161600471D01*
X454086457Y-161463938D01*
X454311758Y-161386324D01*
X454521939Y-161367662D01*
X454714685Y-161407985D01*
X454887679Y-161507325D01*
X454971125Y-161584514D01*
X455065611Y-161673610D01*
X455178636Y-161755201D01*
X455322048Y-161836306D01*
X455507698Y-161923945D01*
X455640198Y-161980871D01*
X455878090Y-162087995D01*
X456064116Y-162189869D01*
X456208763Y-162293239D01*
X456322522Y-162404853D01*
X456348802Y-162436645D01*
X456424995Y-162546869D01*
X456497731Y-162675831D01*
X456557946Y-162804678D01*
X456596577Y-162914557D01*
X456605940Y-162971560D01*
X456624206Y-163045942D01*
X456648189Y-163080923D01*
X456668759Y-163115354D01*
X456659444Y-163166155D01*
X456616949Y-163251029D01*
X456616337Y-163252125D01*
X456560462Y-163364494D01*
X456508087Y-163491025D01*
X456464868Y-163615047D01*
X456436460Y-163719887D01*
X456428517Y-163788872D01*
X456430697Y-163799404D01*
X456454714Y-163829454D01*
X456485705Y-163807155D01*
X456525644Y-163729477D01*
X456576504Y-163593390D01*
X456588990Y-163556409D01*
X456643267Y-163415974D01*
X456701441Y-163302420D01*
X456757662Y-163223566D01*
X456806077Y-163187231D01*
X456840836Y-163201236D01*
X456846330Y-163212518D01*
X456838919Y-163271213D01*
X456790114Y-163356394D01*
X456769143Y-163383961D01*
X456707840Y-163474427D01*
X456650222Y-163583682D01*
X456599814Y-163700570D01*
X456560139Y-163813930D01*
X456534721Y-163912604D01*
X456527084Y-163985434D01*
X456540753Y-164021259D01*
X456569668Y-164015611D01*
X456592835Y-163979563D01*
X456629587Y-163899261D01*
X456672836Y-163790493D01*
X456682639Y-163763986D01*
X456746130Y-163616057D01*
X456816091Y-163495653D01*
X456863932Y-163437574D01*
X456910738Y-163395935D01*
X456956583Y-163368987D01*
X457016614Y-163353215D01*
X457105979Y-163345106D01*
X457239823Y-163341148D01*
X457282998Y-163340378D01*
X457516331Y-163327426D01*
X457702232Y-163295007D01*
X457854779Y-163239431D01*
X457988047Y-163157006D01*
X457991014Y-163154752D01*
X458076923Y-163095814D01*
X458129550Y-163081679D01*
X458160853Y-163112585D01*
X458175815Y-163158470D01*
X458201550Y-163217142D01*
X458249194Y-163226757D01*
X458272211Y-163221941D01*
X458360340Y-163227539D01*
X458398313Y-163253348D01*
X458424494Y-163287619D01*
X458426043Y-163327556D01*
X458399979Y-163391351D01*
X458364781Y-163457974D01*
X458321211Y-163551975D01*
X458298808Y-163629000D01*
X458299280Y-163660242D01*
X458335815Y-163705022D01*
X458407019Y-163762995D01*
X458446234Y-163789417D01*
X458521405Y-163840437D01*
X458567680Y-163878715D01*
X458574750Y-163889299D01*
X458545600Y-163896797D01*
X458468297Y-163899867D01*
X458358067Y-163898043D01*
X458328688Y-163896838D01*
X458082625Y-163885625D01*
X458063117Y-164203125D01*
X458017089Y-164571338D01*
X457927753Y-164928368D01*
X457832370Y-165181954D01*
X457787674Y-165293241D01*
X457774493Y-165359148D01*
X457792268Y-165389099D01*
X457819789Y-165393750D01*
X457848688Y-165365707D01*
X457890921Y-165290446D01*
X457940599Y-165181272D01*
X457991833Y-165051487D01*
X458038733Y-164914393D01*
X458053250Y-164866405D01*
X458106891Y-164681888D01*
X458269383Y-165156881D01*
X458431875Y-165631875D01*
X458431552Y-166441500D01*
X458428243Y-166792418D01*
X458417144Y-167090377D01*
X458396040Y-167345672D01*
X458362718Y-167568596D01*
X458314961Y-167769446D01*
X458250555Y-167958515D01*
X458167285Y-168146100D01*
X458062937Y-168342496D01*
X457998869Y-168452769D01*
X457863913Y-168679875D01*
X457804635Y-168473500D01*
X457757799Y-168344095D01*
X457703136Y-168244487D01*
X457647752Y-168184040D01*
X457598756Y-168172119D01*
X457583460Y-168182090D01*
X457562127Y-168226304D01*
X457533020Y-168317214D01*
X457499138Y-168441560D01*
X457463477Y-168586084D01*
X457429035Y-168737528D01*
X457398811Y-168882632D01*
X457375802Y-169008139D01*
X457363005Y-169100788D01*
X457363420Y-169147321D01*
X457364742Y-169149441D01*
X457389209Y-169158931D01*
X457414493Y-169133583D01*
X457442971Y-169067219D01*
X457477016Y-168953659D01*
X457519005Y-168786726D01*
X457542211Y-168687851D01*
X457577348Y-168545796D01*
X457610066Y-168431378D01*
X457636806Y-168355911D01*
X457654007Y-168330704D01*
X457654516Y-168330943D01*
X457672675Y-168368111D01*
X457700328Y-168457221D01*
X457734795Y-168587891D01*
X457773397Y-168749740D01*
X457813455Y-168932386D01*
X457828548Y-169005312D01*
X457850519Y-169075337D01*
X457876022Y-169108157D01*
X457878447Y-169108500D01*
X457905427Y-169082020D01*
X457949758Y-169012187D01*
X458002416Y-168913409D01*
X458008765Y-168900501D01*
X458146434Y-168677700D01*
X458323929Y-168482335D01*
X458526746Y-168329170D01*
X458618452Y-168279809D01*
X458716779Y-168235955D01*
X458790137Y-168208200D01*
X458822370Y-168202535D01*
X458814038Y-168234198D01*
X458780593Y-168307441D01*
X458728419Y-168408709D01*
X458705066Y-168451619D01*
X458625920Y-168600103D01*
X458582961Y-168697703D01*
X458578364Y-168747156D01*
X458614304Y-168751203D01*
X458692956Y-168712581D01*
X458816496Y-168634029D01*
X458838347Y-168619432D01*
X459040626Y-168498819D01*
X459240906Y-168406965D01*
X459429255Y-168346568D01*
X459595743Y-168320327D01*
X459730439Y-168330937D01*
X459796609Y-168359117D01*
X459853516Y-168405459D01*
X459876500Y-168441666D01*
X459996318Y-168441666D01*
X459975572Y-168373937D01*
X459925690Y-168316219D01*
X459807791Y-168247682D01*
X459651185Y-168222147D01*
X459463214Y-168238898D01*
X459251225Y-168297218D01*
X459022560Y-168396390D01*
X459003375Y-168406270D01*
X458911624Y-168453742D01*
X458842731Y-168488750D01*
X458818409Y-168500577D01*
X458815601Y-168482804D01*
X458837982Y-168424593D01*
X458858097Y-168382961D01*
X458890830Y-168300966D01*
X458914950Y-168208797D01*
X458927143Y-168125855D01*
X458924099Y-168071540D01*
X458913096Y-168060750D01*
X458852490Y-168074282D01*
X458755000Y-168109384D01*
X458639807Y-168157808D01*
X458526090Y-168211307D01*
X458433033Y-168261638D01*
X458406784Y-168278418D01*
X458266479Y-168390916D01*
X458133345Y-168525495D01*
X458026751Y-168661454D01*
X457988356Y-168725603D01*
X457940145Y-168797935D01*
X457900719Y-168820433D01*
X457878465Y-168790303D01*
X457876250Y-168762953D01*
X457901742Y-168705759D01*
X457931813Y-168687952D01*
X457989046Y-168645852D01*
X458059267Y-168553484D01*
X458137450Y-168421470D01*
X458218569Y-168260433D01*
X458297598Y-168080995D01*
X458369510Y-167893780D01*
X458429280Y-167709411D01*
X458468946Y-167552750D01*
X458487316Y-167453996D01*
X458501466Y-167347301D01*
X458511897Y-167222964D01*
X458519112Y-167071282D01*
X458523613Y-166882555D01*
X458525901Y-166647081D01*
X458526462Y-166441500D01*
X458527125Y-165600125D01*
X458376313Y-165162584D01*
X458322606Y-165003798D01*
X458277336Y-164864295D01*
X458244244Y-164756048D01*
X458227074Y-164691033D01*
X458225500Y-164679974D01*
X458200874Y-164626332D01*
X458179448Y-164609132D01*
X458157748Y-164584811D01*
X458146490Y-164534412D01*
X458144667Y-164446022D01*
X458151271Y-164307731D01*
X458152423Y-164289655D01*
X458171452Y-163995949D01*
X458365164Y-164013727D01*
X458513060Y-164015297D01*
X458626577Y-163993649D01*
X458700001Y-163954180D01*
X458727616Y-163902283D01*
X458703708Y-163843355D01*
X458622564Y-163782789D01*
X458614321Y-163778489D01*
X458506815Y-163717830D01*
X458451507Y-163663103D01*
X458441442Y-163597152D01*
X458469663Y-163502821D01*
X458486206Y-163462507D01*
X458532427Y-163315965D01*
X458529892Y-163209568D01*
X458478346Y-163142470D01*
X458380076Y-163114029D01*
X458288646Y-163092374D01*
X458236628Y-163039075D01*
X458230522Y-163026717D01*
X458175881Y-162962782D01*
X458100270Y-162956760D01*
X458009298Y-163008892D01*
X458000171Y-163016779D01*
X457928671Y-163067866D01*
X457825491Y-163127524D01*
X457749250Y-163165639D01*
X457653501Y-163205669D01*
X457563553Y-163229930D01*
X457458086Y-163241991D01*
X457315783Y-163245420D01*
X457273000Y-163245351D01*
X457131672Y-163243489D01*
X457041694Y-163237863D01*
X456990933Y-163226087D01*
X456967252Y-163205775D01*
X456960021Y-163183804D01*
X456922053Y-163092470D01*
X456855528Y-163054727D01*
X456808343Y-163058362D01*
X456761029Y-163062146D01*
X456731272Y-163033797D01*
X456706220Y-162959221D01*
X456701608Y-162941341D01*
X456601568Y-162657903D01*
X456460124Y-162423354D01*
X456404293Y-162339911D01*
X456371048Y-162256390D01*
X456352421Y-162148045D01*
X456347691Y-162093594D01*
X456288750Y-162093594D01*
X456288750Y-162214455D01*
X456134965Y-162110965D01*
X456039727Y-162055232D01*
X455905418Y-161987390D01*
X455752505Y-161917416D01*
X455647766Y-161873474D01*
X455500432Y-161809680D01*
X455364231Y-161742562D01*
X455256852Y-161681276D01*
X455206239Y-161644966D01*
X455098125Y-161550458D01*
X455225125Y-161633745D01*
X455300771Y-161678348D01*
X455370036Y-161701553D01*
X455456554Y-161708059D01*
X455574375Y-161703166D01*
X455733748Y-161682927D01*
X455883272Y-161646281D01*
X455947777Y-161622284D01*
X456098929Y-161555270D01*
X456145006Y-161625592D01*
X456209343Y-161753192D01*
X456260055Y-161906992D01*
X456286884Y-162053595D01*
X456288750Y-162093594D01*
X456347691Y-162093594D01*
X456345388Y-162067092D01*
X456309907Y-161852770D01*
X456239328Y-161657602D01*
X456140480Y-161496821D01*
X456048892Y-161405650D01*
X455887674Y-161316824D01*
X455708190Y-161284132D01*
X455506975Y-161307610D01*
X455506975Y-161307610D01*
G37*
X455506975Y-161307610D02*
X455280564Y-161387293D01*
X455223757Y-161413968D01*
X455056147Y-161496038D01*
X454947340Y-161413047D01*
X454791949Y-161331614D01*
X454596445Y-161289317D01*
X454372257Y-161288200D01*
X454297197Y-161296751D01*
X454162978Y-161323218D01*
X454046899Y-161367028D01*
X453920862Y-161439651D01*
X453878601Y-161467628D01*
X453746137Y-161556662D01*
X453653475Y-161613777D01*
X453587152Y-161641623D01*
X453533704Y-161642850D01*
X453479666Y-161620107D01*
X453411575Y-161576042D01*
X453392636Y-161563255D01*
X453310949Y-161511173D01*
X453242375Y-161479576D01*
X453166262Y-161463389D01*
X453061953Y-161457535D01*
X452959747Y-161456868D01*
X452780342Y-161464321D01*
X452646254Y-161492290D01*
X452540412Y-161549461D01*
X452445746Y-161644520D01*
X452361566Y-161761219D01*
X452292473Y-161874754D01*
X452254066Y-161971420D01*
X452235827Y-162082667D01*
X452231106Y-162151270D01*
X452239424Y-162373114D01*
X452284160Y-162565315D01*
X452319201Y-162689391D01*
X452326326Y-162776993D01*
X452299652Y-162848895D01*
X452233295Y-162925872D01*
X452163716Y-162990620D01*
X452066486Y-163065997D01*
X451973680Y-163116963D01*
X451898851Y-163138052D01*
X451855551Y-163123795D01*
X451851929Y-163116409D01*
X451833771Y-163075639D01*
X451793468Y-162991730D01*
X451737576Y-162878186D01*
X451691507Y-162785957D01*
X451620521Y-162648991D01*
X451567484Y-162559880D01*
X451524647Y-162508412D01*
X451484259Y-162484377D01*
X451458497Y-162478934D01*
X451375757Y-162492588D01*
X451309115Y-162552834D01*
X451265961Y-162600515D01*
X451220320Y-162622179D01*
X451150234Y-162623504D01*
X451069816Y-162614743D01*
X450896270Y-162593060D01*
X450811580Y-162727218D01*
X450757920Y-162806629D01*
X450713301Y-162843973D01*
X450654183Y-162851689D01*
X450587457Y-162845659D01*
X450469739Y-162845067D01*
X450392174Y-162870782D01*
X450373362Y-162889698D01*
X450366711Y-162917319D01*
X450375202Y-162962385D01*
X450401812Y-163033633D01*
X450449522Y-163139802D01*
X450521311Y-163289630D01*
X450566726Y-163382747D01*
X450643643Y-163541412D01*
X450709596Y-163680098D01*
X450759941Y-163788828D01*
X450790034Y-163857623D01*
X450796564Y-163876691D01*
X450772552Y-163887542D01*
X450749932Y-163881828D01*
X450707645Y-163896037D01*
X450633261Y-163951296D01*
X450534788Y-164039425D01*
X450420235Y-164152246D01*
X450297613Y-164281578D01*
X450174929Y-164419240D01*
X450060194Y-164557054D01*
X449961416Y-164686839D01*
X449960603Y-164687974D01*
X449821637Y-164898239D01*
X449677483Y-165144001D01*
X449540207Y-165402781D01*
X449421874Y-165652100D01*
X449351677Y-165822375D01*
X449257425Y-166104122D01*
X449178698Y-166402386D01*
X449117261Y-166704825D01*
X449074881Y-166999103D01*
X449053325Y-167272879D01*
X449054360Y-167513815D01*
X449079752Y-167709572D01*
X449080805Y-167714174D01*
X449131575Y-167879720D01*
X449211483Y-168077246D01*
X449311685Y-168287842D01*
X449423338Y-168492601D01*
X449510425Y-168632699D01*
X449728460Y-168904787D01*
X450003266Y-169151925D01*
X450332873Y-169373291D01*
X450715316Y-169568064D01*
X451148626Y-169735424D01*
X451630836Y-169874548D01*
X452159979Y-169984615D01*
X452734087Y-170064804D01*
X453002625Y-170090593D01*
X453140675Y-170100107D01*
X453328651Y-170110161D01*
X453552987Y-170120185D01*
X453800120Y-170129611D01*
X454056485Y-170137869D01*
X454256750Y-170143196D01*
X454690904Y-170149864D01*
X455071994Y-170147397D01*
X455409869Y-170135295D01*
X455714377Y-170113052D01*
X455995365Y-170080168D01*
X456228254Y-170042529D01*
X456501132Y-169992716D01*
X456621622Y-170074483D01*
X456769738Y-170138528D01*
X456943522Y-170153767D01*
X457127530Y-170119786D01*
X457205621Y-170090085D01*
X457285216Y-170048194D01*
X457401316Y-169978748D01*
X457538786Y-169891144D01*
X457682489Y-169794778D01*
X457692928Y-169787575D01*
X457845674Y-169685627D01*
X458002585Y-169587106D01*
X458145005Y-169503379D01*
X458252432Y-169446684D01*
X458332857Y-169409457D01*
X458400746Y-169382787D01*
X458469011Y-169364849D01*
X458550562Y-169353821D01*
X458658312Y-169347880D01*
X458805170Y-169345203D01*
X458979030Y-169344090D01*
X459174544Y-169342407D01*
X459316797Y-169338851D01*
X459416024Y-169332333D01*
X459482459Y-169321762D01*
X459526337Y-169306049D01*
X459557892Y-169284105D01*
X459559971Y-169282247D01*
X459616964Y-169200542D01*
X459612647Y-169116949D01*
X459549062Y-169033945D01*
X459428248Y-168954006D01*
X459252246Y-168879608D01*
X459218870Y-168868308D01*
X459109544Y-168831175D01*
X459053097Y-168806772D01*
X459041706Y-168789197D01*
X459067545Y-168772547D01*
X459083360Y-168766072D01*
X459148010Y-168748283D01*
X459258009Y-168725576D01*
X459395755Y-168701381D01*
X459492554Y-168686374D01*
X459709134Y-168644561D01*
X459866558Y-168591700D01*
X459963993Y-168528502D01*
X460000609Y-168455677D01*
X459996318Y-168441666D01*
X459876500Y-168441666D01*
X459845225Y-168485014D01*
X459753295Y-168527966D01*
X459603550Y-168569556D01*
X459398832Y-168608823D01*
X459370045Y-168613437D01*
X459157464Y-168654391D01*
X458996990Y-168701630D01*
X458892136Y-168753754D01*
X458846411Y-168809364D01*
X458844625Y-168822941D01*
X458874980Y-168855406D01*
X458962444Y-168896559D01*
X459101622Y-168943908D01*
X459115742Y-168948162D01*
X459275625Y-168997588D01*
X459382972Y-169036502D01*
X459446724Y-169070295D01*
X459475820Y-169104358D01*
X459479202Y-169144084D01*
X459474852Y-169164725D01*
X459455906Y-169205952D01*
X459415457Y-169228595D01*
X459336734Y-169239230D01*
X459277485Y-169242110D01*
X459150179Y-169244237D01*
X458995131Y-169243242D01*
X458860500Y-169239810D01*
X458672394Y-169240223D01*
X458503353Y-169259606D01*
X458340985Y-169302520D01*
X458172898Y-169373530D01*
X457986700Y-169477196D01*
X457769998Y-169618084D01*
X457697615Y-169667992D01*
X457467963Y-169822858D01*
X457278282Y-169937536D01*
X457120985Y-170013914D01*
X456988484Y-170053883D01*
X456873193Y-170059332D01*
X456767524Y-170032149D01*
X456663891Y-169974225D01*
X456614672Y-169937665D01*
X456508476Y-169845144D01*
X456405333Y-169741630D01*
X456355153Y-169683665D01*
X456280125Y-169602655D01*
X456216537Y-169558555D01*
X456174056Y-169556104D01*
X456161750Y-169588839D01*
X456181628Y-169630992D01*
X456232614Y-169700428D01*
X456275846Y-169750968D01*
X456334518Y-169825079D01*
X456364339Y-169881679D01*
X456363159Y-169902026D01*
X456302783Y-169929113D01*
X456186635Y-169954716D01*
X456022436Y-169978339D01*
X455817905Y-169999486D01*
X455580763Y-170017661D01*
X455318731Y-170032370D01*
X455039527Y-170043117D01*
X454750874Y-170049406D01*
X454460490Y-170050741D01*
X454176097Y-170046628D01*
X454129750Y-170045376D01*
X453572670Y-170023607D01*
X453071619Y-169991557D01*
X452619790Y-169948100D01*
X452210376Y-169892114D01*
X451836569Y-169822472D01*
X451491563Y-169738050D01*
X451168550Y-169637723D01*
X450860724Y-169520367D01*
X450802440Y-169495642D01*
X450459255Y-169331827D01*
X450169690Y-169156227D01*
X449923926Y-168959835D01*
X449712144Y-168733645D01*
X449524526Y-168468649D01*
X449359256Y-168171822D01*
X449246673Y-167915935D01*
X449176132Y-167670989D01*
X449145160Y-167419614D01*
X449151284Y-167144440D01*
X449179340Y-166907956D01*
X449290719Y-166365283D01*
X449457024Y-165845658D01*
X449675812Y-165353966D01*
X449944638Y-164895091D01*
X450261059Y-164473914D01*
X450554698Y-164159744D01*
X450796000Y-163925864D01*
X450796381Y-164048619D01*
X450788792Y-164130392D01*
X450767992Y-164254605D01*
X450737434Y-164402429D01*
X450710878Y-164514716D01*
X450672987Y-164672017D01*
X450650765Y-164785346D01*
X450642563Y-164871825D01*
X450646734Y-164948574D01*
X450661205Y-165030700D01*
X450722896Y-165211734D01*
X450825198Y-165391852D01*
X450953640Y-165549495D01*
X451079946Y-165654544D01*
X451161313Y-165702801D01*
X451231790Y-165729555D01*
X451314504Y-165739795D01*
X451432583Y-165738509D01*
X451463440Y-165737267D01*
X451619593Y-165723975D01*
X451748341Y-165693501D01*
X451885253Y-165636802D01*
X451914747Y-165622504D01*
X452078600Y-165524442D01*
X452213156Y-165409840D01*
X452306414Y-165290328D01*
X452340763Y-165209708D01*
X452346280Y-165139986D01*
X452325456Y-165111871D01*
X452289131Y-165134851D01*
X452276589Y-165153540D01*
X452129507Y-165343795D01*
X451939643Y-165492242D01*
X451716506Y-165593097D01*
X451476611Y-165640039D01*
X451310610Y-165639106D01*
X451178877Y-165600014D01*
X451060243Y-165514129D01*
X450991409Y-165442114D01*
X450871201Y-165283761D01*
X450795441Y-165126268D01*
X450761882Y-164956760D01*
X450768277Y-164762363D01*
X450812378Y-164530203D01*
X450824102Y-164483585D01*
X450873856Y-164254070D01*
X450891950Y-164054693D01*
X450875869Y-163869162D01*
X450823097Y-163681186D01*
X450731120Y-163474473D01*
X450643230Y-163311954D01*
X450564456Y-163169957D01*
X450519026Y-163072921D01*
X450507490Y-163011432D01*
X450530398Y-162976074D01*
X450588301Y-162957433D01*
X450664504Y-162947794D01*
X450794898Y-162919470D01*
X450884202Y-162868258D01*
X450922321Y-162800348D01*
X450923000Y-162789277D01*
X450950242Y-162756462D01*
X451013930Y-162731414D01*
X451087013Y-162722027D01*
X451129375Y-162729043D01*
X451218435Y-162753038D01*
X451285999Y-162734772D01*
X451353285Y-162674333D01*
X451407435Y-162620732D01*
X451443283Y-162610257D01*
X451484277Y-162638190D01*
X451493188Y-162646187D01*
X451540192Y-162710151D01*
X451600389Y-162824097D01*
X451669518Y-162976953D01*
X451743320Y-163157646D01*
X451817532Y-163355105D01*
X451887893Y-163558258D01*
X451950144Y-163756031D01*
X452000023Y-163937354D01*
X452015979Y-164004687D01*
X452046305Y-164069667D01*
X452085003Y-164092000D01*
X452108180Y-164085879D01*
X452118918Y-164061831D01*
X452115893Y-164011329D01*
X452097777Y-163925844D01*
X452063246Y-163796847D01*
X452010973Y-163615813D01*
X452010955Y-163615750D01*
X451973532Y-163488133D01*
X451941860Y-163379993D01*
X451921027Y-163308712D01*
X451916978Y-163294787D01*
X451926054Y-163252944D01*
X451988858Y-163226524D01*
X452000865Y-163223964D01*
X452111367Y-163173704D01*
X452233298Y-163068124D01*
X452361465Y-162913193D01*
X452490678Y-162714877D01*
X452571497Y-162568000D01*
X452647660Y-162424590D01*
X452721952Y-162291830D01*
X452785051Y-162185988D01*
X452822528Y-162129864D01*
X452959268Y-161999763D01*
X453153606Y-161895918D01*
X453379029Y-161824671D01*
X453543669Y-161771670D01*
X453707122Y-161689967D01*
X453475772Y-161689967D01*
X453286035Y-161743472D01*
X453094039Y-161808906D01*
X452938490Y-161891432D01*
X452807776Y-162001499D01*
X452690280Y-162149555D01*
X452574389Y-162346051D01*
X452537945Y-162416509D01*
X452405249Y-162679125D01*
X452358778Y-162568000D01*
X452330339Y-162473644D01*
X452306487Y-162348786D01*
X452296207Y-162261873D01*
X452280108Y-162066872D01*
X452450867Y-162016555D01*
X452535324Y-161981231D01*
X452643930Y-161921329D01*
X452764155Y-161845660D01*
X452883470Y-161763035D01*
X452989347Y-161682266D01*
X453069255Y-161612164D01*
X453110666Y-161561540D01*
X453113750Y-161550374D01*
X453137276Y-161522069D01*
X453199565Y-161528465D01*
X453288190Y-161566693D01*
X453350891Y-161605108D01*
X453475772Y-161689967D01*
X453707122Y-161689967D01*
X453709629Y-161688714D01*
X453848356Y-161600471D01*
X454086457Y-161463938D01*
X454311758Y-161386324D01*
X454521939Y-161367662D01*
X454714685Y-161407985D01*
X454887679Y-161507325D01*
X454971125Y-161584514D01*
X455065611Y-161673610D01*
X455178636Y-161755201D01*
X455322048Y-161836306D01*
X455507698Y-161923945D01*
X455640198Y-161980871D01*
X455878090Y-162087995D01*
X456064116Y-162189869D01*
X456208763Y-162293239D01*
X456322522Y-162404853D01*
X456348802Y-162436645D01*
X456424995Y-162546869D01*
X456497731Y-162675831D01*
X456557946Y-162804678D01*
X456596577Y-162914557D01*
X456605940Y-162971560D01*
X456624206Y-163045942D01*
X456648189Y-163080923D01*
X456668759Y-163115354D01*
X456659444Y-163166155D01*
X456616949Y-163251029D01*
X456616337Y-163252125D01*
X456560462Y-163364494D01*
X456508087Y-163491025D01*
X456464868Y-163615047D01*
X456436460Y-163719887D01*
X456428517Y-163788872D01*
X456430697Y-163799404D01*
X456454714Y-163829454D01*
X456485705Y-163807155D01*
X456525644Y-163729477D01*
X456576504Y-163593390D01*
X456588990Y-163556409D01*
X456643267Y-163415974D01*
X456701441Y-163302420D01*
X456757662Y-163223566D01*
X456806077Y-163187231D01*
X456840836Y-163201236D01*
X456846330Y-163212518D01*
X456838919Y-163271213D01*
X456790114Y-163356394D01*
X456769143Y-163383961D01*
X456707840Y-163474427D01*
X456650222Y-163583682D01*
X456599814Y-163700570D01*
X456560139Y-163813930D01*
X456534721Y-163912604D01*
X456527084Y-163985434D01*
X456540753Y-164021259D01*
X456569668Y-164015611D01*
X456592835Y-163979563D01*
X456629587Y-163899261D01*
X456672836Y-163790493D01*
X456682639Y-163763986D01*
X456746130Y-163616057D01*
X456816091Y-163495653D01*
X456863932Y-163437574D01*
X456910738Y-163395935D01*
X456956583Y-163368987D01*
X457016614Y-163353215D01*
X457105979Y-163345106D01*
X457239823Y-163341148D01*
X457282998Y-163340378D01*
X457516331Y-163327426D01*
X457702232Y-163295007D01*
X457854779Y-163239431D01*
X457988047Y-163157006D01*
X457991014Y-163154752D01*
X458076923Y-163095814D01*
X458129550Y-163081679D01*
X458160853Y-163112585D01*
X458175815Y-163158470D01*
X458201550Y-163217142D01*
X458249194Y-163226757D01*
X458272211Y-163221941D01*
X458360340Y-163227539D01*
X458398313Y-163253348D01*
X458424494Y-163287619D01*
X458426043Y-163327556D01*
X458399979Y-163391351D01*
X458364781Y-163457974D01*
X458321211Y-163551975D01*
X458298808Y-163629000D01*
X458299280Y-163660242D01*
X458335815Y-163705022D01*
X458407019Y-163762995D01*
X458446234Y-163789417D01*
X458521405Y-163840437D01*
X458567680Y-163878715D01*
X458574750Y-163889299D01*
X458545600Y-163896797D01*
X458468297Y-163899867D01*
X458358067Y-163898043D01*
X458328688Y-163896838D01*
X458082625Y-163885625D01*
X458063117Y-164203125D01*
X458017089Y-164571338D01*
X457927753Y-164928368D01*
X457832370Y-165181954D01*
X457787674Y-165293241D01*
X457774493Y-165359148D01*
X457792268Y-165389099D01*
X457819789Y-165393750D01*
X457848688Y-165365707D01*
X457890921Y-165290446D01*
X457940599Y-165181272D01*
X457991833Y-165051487D01*
X458038733Y-164914393D01*
X458053250Y-164866405D01*
X458106891Y-164681888D01*
X458269383Y-165156881D01*
X458431875Y-165631875D01*
X458431552Y-166441500D01*
X458428243Y-166792418D01*
X458417144Y-167090377D01*
X458396040Y-167345672D01*
X458362718Y-167568596D01*
X458314961Y-167769446D01*
X458250555Y-167958515D01*
X458167285Y-168146100D01*
X458062937Y-168342496D01*
X457998869Y-168452769D01*
X457863913Y-168679875D01*
X457804635Y-168473500D01*
X457757799Y-168344095D01*
X457703136Y-168244487D01*
X457647752Y-168184040D01*
X457598756Y-168172119D01*
X457583460Y-168182090D01*
X457562127Y-168226304D01*
X457533020Y-168317214D01*
X457499138Y-168441560D01*
X457463477Y-168586084D01*
X457429035Y-168737528D01*
X457398811Y-168882632D01*
X457375802Y-169008139D01*
X457363005Y-169100788D01*
X457363420Y-169147321D01*
X457364742Y-169149441D01*
X457389209Y-169158931D01*
X457414493Y-169133583D01*
X457442971Y-169067219D01*
X457477016Y-168953659D01*
X457519005Y-168786726D01*
X457542211Y-168687851D01*
X457577348Y-168545796D01*
X457610066Y-168431378D01*
X457636806Y-168355911D01*
X457654007Y-168330704D01*
X457654516Y-168330943D01*
X457672675Y-168368111D01*
X457700328Y-168457221D01*
X457734795Y-168587891D01*
X457773397Y-168749740D01*
X457813455Y-168932386D01*
X457828548Y-169005312D01*
X457850519Y-169075337D01*
X457876022Y-169108157D01*
X457878447Y-169108500D01*
X457905427Y-169082020D01*
X457949758Y-169012187D01*
X458002416Y-168913409D01*
X458008765Y-168900501D01*
X458146434Y-168677700D01*
X458323929Y-168482335D01*
X458526746Y-168329170D01*
X458618452Y-168279809D01*
X458716779Y-168235955D01*
X458790137Y-168208200D01*
X458822370Y-168202535D01*
X458814038Y-168234198D01*
X458780593Y-168307441D01*
X458728419Y-168408709D01*
X458705066Y-168451619D01*
X458625920Y-168600103D01*
X458582961Y-168697703D01*
X458578364Y-168747156D01*
X458614304Y-168751203D01*
X458692956Y-168712581D01*
X458816496Y-168634029D01*
X458838347Y-168619432D01*
X459040626Y-168498819D01*
X459240906Y-168406965D01*
X459429255Y-168346568D01*
X459595743Y-168320327D01*
X459730439Y-168330937D01*
X459796609Y-168359117D01*
X459853516Y-168405459D01*
X459876500Y-168441666D01*
X459996318Y-168441666D01*
X459975572Y-168373937D01*
X459925690Y-168316219D01*
X459807791Y-168247682D01*
X459651185Y-168222147D01*
X459463214Y-168238898D01*
X459251225Y-168297218D01*
X459022560Y-168396390D01*
X459003375Y-168406270D01*
X458911624Y-168453742D01*
X458842731Y-168488750D01*
X458818409Y-168500577D01*
X458815601Y-168482804D01*
X458837982Y-168424593D01*
X458858097Y-168382961D01*
X458890830Y-168300966D01*
X458914950Y-168208797D01*
X458927143Y-168125855D01*
X458924099Y-168071540D01*
X458913096Y-168060750D01*
X458852490Y-168074282D01*
X458755000Y-168109384D01*
X458639807Y-168157808D01*
X458526090Y-168211307D01*
X458433033Y-168261638D01*
X458406784Y-168278418D01*
X458266479Y-168390916D01*
X458133345Y-168525495D01*
X458026751Y-168661454D01*
X457988356Y-168725603D01*
X457940145Y-168797935D01*
X457900719Y-168820433D01*
X457878465Y-168790303D01*
X457876250Y-168762953D01*
X457901742Y-168705759D01*
X457931813Y-168687952D01*
X457989046Y-168645852D01*
X458059267Y-168553484D01*
X458137450Y-168421470D01*
X458218569Y-168260433D01*
X458297598Y-168080995D01*
X458369510Y-167893780D01*
X458429280Y-167709411D01*
X458468946Y-167552750D01*
X458487316Y-167453996D01*
X458501466Y-167347301D01*
X458511897Y-167222964D01*
X458519112Y-167071282D01*
X458523613Y-166882555D01*
X458525901Y-166647081D01*
X458526462Y-166441500D01*
X458527125Y-165600125D01*
X458376313Y-165162584D01*
X458322606Y-165003798D01*
X458277336Y-164864295D01*
X458244244Y-164756048D01*
X458227074Y-164691033D01*
X458225500Y-164679974D01*
X458200874Y-164626332D01*
X458179448Y-164609132D01*
X458157748Y-164584811D01*
X458146490Y-164534412D01*
X458144667Y-164446022D01*
X458151271Y-164307731D01*
X458152423Y-164289655D01*
X458171452Y-163995949D01*
X458365164Y-164013727D01*
X458513060Y-164015297D01*
X458626577Y-163993649D01*
X458700001Y-163954180D01*
X458727616Y-163902283D01*
X458703708Y-163843355D01*
X458622564Y-163782789D01*
X458614321Y-163778489D01*
X458506815Y-163717830D01*
X458451507Y-163663103D01*
X458441442Y-163597152D01*
X458469663Y-163502821D01*
X458486206Y-163462507D01*
X458532427Y-163315965D01*
X458529892Y-163209568D01*
X458478346Y-163142470D01*
X458380076Y-163114029D01*
X458288646Y-163092374D01*
X458236628Y-163039075D01*
X458230522Y-163026717D01*
X458175881Y-162962782D01*
X458100270Y-162956760D01*
X458009298Y-163008892D01*
X458000171Y-163016779D01*
X457928671Y-163067866D01*
X457825491Y-163127524D01*
X457749250Y-163165639D01*
X457653501Y-163205669D01*
X457563553Y-163229930D01*
X457458086Y-163241991D01*
X457315783Y-163245420D01*
X457273000Y-163245351D01*
X457131672Y-163243489D01*
X457041694Y-163237863D01*
X456990933Y-163226087D01*
X456967252Y-163205775D01*
X456960021Y-163183804D01*
X456922053Y-163092470D01*
X456855528Y-163054727D01*
X456808343Y-163058362D01*
X456761029Y-163062146D01*
X456731272Y-163033797D01*
X456706220Y-162959221D01*
X456701608Y-162941341D01*
X456601568Y-162657903D01*
X456460124Y-162423354D01*
X456404293Y-162339911D01*
X456371048Y-162256390D01*
X456352421Y-162148045D01*
X456347691Y-162093594D01*
X456288750Y-162093594D01*
X456288750Y-162214455D01*
X456134965Y-162110965D01*
X456039727Y-162055232D01*
X455905418Y-161987390D01*
X455752505Y-161917416D01*
X455647766Y-161873474D01*
X455500432Y-161809680D01*
X455364231Y-161742562D01*
X455256852Y-161681276D01*
X455206239Y-161644966D01*
X455098125Y-161550458D01*
X455225125Y-161633745D01*
X455300771Y-161678348D01*
X455370036Y-161701553D01*
X455456554Y-161708059D01*
X455574375Y-161703166D01*
X455733748Y-161682927D01*
X455883272Y-161646281D01*
X455947777Y-161622284D01*
X456098929Y-161555270D01*
X456145006Y-161625592D01*
X456209343Y-161753192D01*
X456260055Y-161906992D01*
X456286884Y-162053595D01*
X456288750Y-162093594D01*
X456347691Y-162093594D01*
X456345388Y-162067092D01*
X456309907Y-161852770D01*
X456239328Y-161657602D01*
X456140480Y-161496821D01*
X456048892Y-161405650D01*
X455887674Y-161316824D01*
X455708190Y-161284132D01*
X455506975Y-161307610D01*
D11*
X426243750Y-204927000D03*
D12*
X423703750Y-210007000D03*
D11*
X419893750Y-207467000D03*
D13*
X418623750Y-210007000D03*
X428783750Y-210007000D03*
D14*
X411797500Y-203022000D03*
X435610000Y-203022000D03*
D12*
X411797500Y-218262000D03*
X435610000Y-218262000D03*
D15*
X395525000Y-227925000D03*
X395525000Y-231225000D03*
X456275000Y-251725000D03*
X456275000Y-255025000D03*
X453000000Y-251719500D03*
X453000000Y-255019500D03*
X413550000Y-246900000D03*
X413550000Y-250200000D03*
X410025000Y-246900000D03*
X410025000Y-250200000D03*
X347000000Y-246950000D03*
X347000000Y-250250000D03*
X343275000Y-246957000D03*
X343275000Y-250257000D03*
X276225000Y-246957000D03*
X276225000Y-250257000D03*
X273050000Y-246957000D03*
X273050000Y-250257000D03*
X197332600Y-246889000D03*
X197332600Y-250189000D03*
X194081400Y-246889000D03*
X194081400Y-250189000D03*
X132451600Y-246957000D03*
X132451600Y-250257000D03*
X129149600Y-246957000D03*
X129149600Y-250257000D03*
X453025000Y-232650000D03*
X453025000Y-235950000D03*
X456500000Y-232650000D03*
X456500000Y-235950000D03*
X392325000Y-227900000D03*
X392325000Y-231200000D03*
X356447500Y-227907000D03*
X356447500Y-231207000D03*
X352897500Y-227907000D03*
X352897500Y-231207000D03*
X318347500Y-227907000D03*
X318347500Y-231207000D03*
X314797500Y-227907000D03*
X314797500Y-231207000D03*
X280247500Y-227907000D03*
X280247500Y-231207000D03*
X276697500Y-227907000D03*
X276697500Y-231207000D03*
X242147500Y-227907000D03*
X242147500Y-231207000D03*
X238597500Y-227907000D03*
X238597500Y-231207000D03*
X200436600Y-227915200D03*
X200436600Y-231215200D03*
X196956800Y-227907000D03*
X196956800Y-231207000D03*
X132451600Y-227907000D03*
X132451600Y-231207000D03*
X129149600Y-227907000D03*
X129149600Y-231207000D03*
X438275000Y-211200000D03*
X438275000Y-214500000D03*
X434860000Y-211182000D03*
X434860000Y-214482000D03*
X384975000Y-208857000D03*
X384975000Y-212157000D03*
X381500000Y-208850000D03*
X381500000Y-212150000D03*
X346922500Y-208857000D03*
X346922500Y-212157000D03*
X343372500Y-208857000D03*
X343372500Y-212157000D03*
X308822500Y-208857000D03*
X308822500Y-212157000D03*
X305272500Y-208857000D03*
X305272500Y-212157000D03*
X270722500Y-208857000D03*
X270722500Y-212157000D03*
X267172500Y-208857000D03*
X267172500Y-212157000D03*
X232622500Y-208857000D03*
X232622500Y-212157000D03*
X229072500Y-208857000D03*
X229072500Y-212157000D03*
X194487800Y-208839800D03*
X194487800Y-212139800D03*
X190830200Y-208839800D03*
X190830200Y-212139800D03*
X132451600Y-208857000D03*
X132451600Y-212157000D03*
X129149600Y-208857000D03*
X129149600Y-212157000D03*
X443225000Y-189775000D03*
X443225000Y-193075000D03*
X439775000Y-189750000D03*
X439775000Y-193050000D03*
X415560000Y-189807000D03*
X415560000Y-193107000D03*
X380250000Y-189807000D03*
X380250000Y-193107000D03*
X376750000Y-189800000D03*
X376750000Y-193100000D03*
X342160000Y-189807000D03*
X342160000Y-193107000D03*
X338610000Y-189807000D03*
X338610000Y-193107000D03*
X304060000Y-189807000D03*
X304060000Y-193107000D03*
X300510000Y-189807000D03*
X300510000Y-193107000D03*
X265960000Y-189807000D03*
X265960000Y-193107000D03*
X262410000Y-189807000D03*
X262410000Y-193107000D03*
X227860000Y-189807000D03*
X227860000Y-193107000D03*
X224310000Y-189807000D03*
X224310000Y-193107000D03*
X189941200Y-189840600D03*
X189941200Y-193140600D03*
X185775600Y-189807000D03*
X185775600Y-193107000D03*
X132451600Y-189807000D03*
X132451600Y-193107000D03*
X129149600Y-189807000D03*
X129149600Y-193107000D03*
X441375000Y-211225000D03*
X441375000Y-214525000D03*
X443525000Y-170757000D03*
X443525000Y-174057000D03*
X408750000Y-170757000D03*
X408750000Y-174057000D03*
X405250000Y-170750000D03*
X405250000Y-174050000D03*
X370800000Y-170750000D03*
X370800000Y-174050000D03*
X367275000Y-170750000D03*
X367275000Y-174050000D03*
X332635000Y-170757000D03*
X332635000Y-174057000D03*
X329085000Y-170757000D03*
X329085000Y-174057000D03*
X294535000Y-170757000D03*
X294535000Y-174057000D03*
X290985000Y-170757000D03*
X290985000Y-174057000D03*
X256435000Y-170757000D03*
X256435000Y-174057000D03*
X252885000Y-170757000D03*
X252885000Y-174057000D03*
X218335000Y-170757000D03*
X218335000Y-174057000D03*
X214785000Y-170757000D03*
X214785000Y-174057000D03*
X180213000Y-170739800D03*
X180213000Y-174039800D03*
X176657000Y-170739800D03*
X176657000Y-174039800D03*
X132451600Y-170757000D03*
X132451600Y-174057000D03*
X129149600Y-170757000D03*
X129149600Y-174057000D03*
D16*
X272650000Y-167800000D03*
X272650000Y-166850000D03*
X272650000Y-168750000D03*
X274850000Y-168750000D03*
X274850000Y-167800000D03*
X274850000Y-166850000D03*
D17*
X453302723Y-214010858D03*
D18*
G36*
X453232012Y-214930097D02*
G01*
X452383484Y-214081569D01*
X453373434Y-213091619D01*
X454221962Y-213940147D01*
X453232012Y-214930097D01*
X453232012Y-214930097D01*
G37*
D17*
X454858358Y-212455223D03*
D18*
G36*
X454787647Y-213374462D02*
G01*
X453939119Y-212525934D01*
X454929069Y-211535984D01*
X455777597Y-212384512D01*
X454787647Y-213374462D01*
X454787647Y-213374462D01*
G37*
D17*
X453656277Y-211253142D03*
D18*
G36*
X453585566Y-212172381D02*
G01*
X452737038Y-211323853D01*
X453726988Y-210333903D01*
X454575516Y-211182431D01*
X453585566Y-212172381D01*
X453585566Y-212172381D01*
G37*
D17*
X452100642Y-212808777D03*
D18*
G36*
X452029931Y-213728016D02*
G01*
X451181403Y-212879488D01*
X452171353Y-211889538D01*
X453019881Y-212738066D01*
X452029931Y-213728016D01*
X452029931Y-213728016D01*
G37*
D19*
X277025000Y-162095000D03*
X270575000Y-162095000D03*
X276250000Y-162095000D03*
X271350000Y-162095000D03*
D20*
X272050000Y-162095000D03*
X275550000Y-162095000D03*
X272550000Y-162095000D03*
X275050000Y-162095000D03*
X273050000Y-162095000D03*
X274550000Y-162095000D03*
X274050000Y-162095000D03*
X273550000Y-162095000D03*
D21*
X276690000Y-160150000D03*
X270910000Y-160150000D03*
D22*
X448672918Y-195016064D03*
D18*
G36*
X449397702Y-195351940D02*
G01*
X449008794Y-195740848D01*
X447948134Y-194680188D01*
X448337042Y-194291280D01*
X449397702Y-195351940D01*
X449397702Y-195351940D01*
G37*
D22*
X448107233Y-195581750D03*
D18*
G36*
X448832017Y-195917626D02*
G01*
X448443109Y-196306534D01*
X447382449Y-195245874D01*
X447771357Y-194856966D01*
X448832017Y-195917626D01*
X448832017Y-195917626D01*
G37*
D22*
X447541548Y-196147435D03*
D18*
G36*
X448266332Y-196483311D02*
G01*
X447877424Y-196872219D01*
X446816764Y-195811559D01*
X447205672Y-195422651D01*
X448266332Y-196483311D01*
X448266332Y-196483311D01*
G37*
D22*
X446975862Y-196713120D03*
D18*
G36*
X447700646Y-197048996D02*
G01*
X447311738Y-197437904D01*
X446251078Y-196377244D01*
X446639986Y-195988336D01*
X447700646Y-197048996D01*
X447700646Y-197048996D01*
G37*
D22*
X446410177Y-197278806D03*
D18*
G36*
X447134961Y-197614682D02*
G01*
X446746053Y-198003590D01*
X445685393Y-196942930D01*
X446074301Y-196554022D01*
X447134961Y-197614682D01*
X447134961Y-197614682D01*
G37*
D22*
X445844491Y-197844491D03*
D18*
G36*
X446569275Y-198180367D02*
G01*
X446180367Y-198569275D01*
X445119707Y-197508615D01*
X445508615Y-197119707D01*
X446569275Y-198180367D01*
X446569275Y-198180367D01*
G37*
D22*
X445278806Y-198410177D03*
D18*
G36*
X446003590Y-198746053D02*
G01*
X445614682Y-199134961D01*
X444554022Y-198074301D01*
X444942930Y-197685393D01*
X446003590Y-198746053D01*
X446003590Y-198746053D01*
G37*
D22*
X444713120Y-198975862D03*
D18*
G36*
X445437904Y-199311738D02*
G01*
X445048996Y-199700646D01*
X443988336Y-198639986D01*
X444377244Y-198251078D01*
X445437904Y-199311738D01*
X445437904Y-199311738D01*
G37*
D22*
X444147435Y-199541548D03*
D18*
G36*
X444872219Y-199877424D02*
G01*
X444483311Y-200266332D01*
X443422651Y-199205672D01*
X443811559Y-198816764D01*
X444872219Y-199877424D01*
X444872219Y-199877424D01*
G37*
D22*
X443581750Y-200107233D03*
D18*
G36*
X444306534Y-200443109D02*
G01*
X443917626Y-200832017D01*
X442856966Y-199771357D01*
X443245874Y-199382449D01*
X444306534Y-200443109D01*
X444306534Y-200443109D01*
G37*
D22*
X443016064Y-200672918D03*
D18*
G36*
X443740848Y-201008794D02*
G01*
X443351940Y-201397702D01*
X442291280Y-200337042D01*
X442680188Y-199948134D01*
X443740848Y-201008794D01*
X443740848Y-201008794D01*
G37*
D22*
X443016064Y-203077082D03*
D18*
G36*
X443351940Y-202352298D02*
G01*
X443740848Y-202741206D01*
X442680188Y-203801866D01*
X442291280Y-203412958D01*
X443351940Y-202352298D01*
X443351940Y-202352298D01*
G37*
D22*
X443581750Y-203642767D03*
D18*
G36*
X443917626Y-202917983D02*
G01*
X444306534Y-203306891D01*
X443245874Y-204367551D01*
X442856966Y-203978643D01*
X443917626Y-202917983D01*
X443917626Y-202917983D01*
G37*
D22*
X444147435Y-204208452D03*
D18*
G36*
X444483311Y-203483668D02*
G01*
X444872219Y-203872576D01*
X443811559Y-204933236D01*
X443422651Y-204544328D01*
X444483311Y-203483668D01*
X444483311Y-203483668D01*
G37*
D22*
X444713120Y-204774138D03*
D18*
G36*
X445048996Y-204049354D02*
G01*
X445437904Y-204438262D01*
X444377244Y-205498922D01*
X443988336Y-205110014D01*
X445048996Y-204049354D01*
X445048996Y-204049354D01*
G37*
D22*
X445278806Y-205339823D03*
D18*
G36*
X445614682Y-204615039D02*
G01*
X446003590Y-205003947D01*
X444942930Y-206064607D01*
X444554022Y-205675699D01*
X445614682Y-204615039D01*
X445614682Y-204615039D01*
G37*
D22*
X445844491Y-205905509D03*
D18*
G36*
X446180367Y-205180725D02*
G01*
X446569275Y-205569633D01*
X445508615Y-206630293D01*
X445119707Y-206241385D01*
X446180367Y-205180725D01*
X446180367Y-205180725D01*
G37*
D22*
X446410177Y-206471194D03*
D18*
G36*
X446746053Y-205746410D02*
G01*
X447134961Y-206135318D01*
X446074301Y-207195978D01*
X445685393Y-206807070D01*
X446746053Y-205746410D01*
X446746053Y-205746410D01*
G37*
D22*
X446975862Y-207036880D03*
D18*
G36*
X447311738Y-206312096D02*
G01*
X447700646Y-206701004D01*
X446639986Y-207761664D01*
X446251078Y-207372756D01*
X447311738Y-206312096D01*
X447311738Y-206312096D01*
G37*
D22*
X447541548Y-207602565D03*
D18*
G36*
X447877424Y-206877781D02*
G01*
X448266332Y-207266689D01*
X447205672Y-208327349D01*
X446816764Y-207938441D01*
X447877424Y-206877781D01*
X447877424Y-206877781D01*
G37*
D22*
X448107233Y-208168250D03*
D18*
G36*
X448443109Y-207443466D02*
G01*
X448832017Y-207832374D01*
X447771357Y-208893034D01*
X447382449Y-208504126D01*
X448443109Y-207443466D01*
X448443109Y-207443466D01*
G37*
D22*
X448672918Y-208733936D03*
D18*
G36*
X449008794Y-208009152D02*
G01*
X449397702Y-208398060D01*
X448337042Y-209458720D01*
X447948134Y-209069812D01*
X449008794Y-208009152D01*
X449008794Y-208009152D01*
G37*
D22*
X451077082Y-208733936D03*
D18*
G36*
X451801866Y-209069812D02*
G01*
X451412958Y-209458720D01*
X450352298Y-208398060D01*
X450741206Y-208009152D01*
X451801866Y-209069812D01*
X451801866Y-209069812D01*
G37*
D22*
X451642767Y-208168250D03*
D18*
G36*
X452367551Y-208504126D02*
G01*
X451978643Y-208893034D01*
X450917983Y-207832374D01*
X451306891Y-207443466D01*
X452367551Y-208504126D01*
X452367551Y-208504126D01*
G37*
D22*
X452208452Y-207602565D03*
D18*
G36*
X452933236Y-207938441D02*
G01*
X452544328Y-208327349D01*
X451483668Y-207266689D01*
X451872576Y-206877781D01*
X452933236Y-207938441D01*
X452933236Y-207938441D01*
G37*
D22*
X452774138Y-207036880D03*
D18*
G36*
X453498922Y-207372756D02*
G01*
X453110014Y-207761664D01*
X452049354Y-206701004D01*
X452438262Y-206312096D01*
X453498922Y-207372756D01*
X453498922Y-207372756D01*
G37*
D22*
X453339823Y-206471194D03*
D18*
G36*
X454064607Y-206807070D02*
G01*
X453675699Y-207195978D01*
X452615039Y-206135318D01*
X453003947Y-205746410D01*
X454064607Y-206807070D01*
X454064607Y-206807070D01*
G37*
D22*
X453905509Y-205905509D03*
D18*
G36*
X454630293Y-206241385D02*
G01*
X454241385Y-206630293D01*
X453180725Y-205569633D01*
X453569633Y-205180725D01*
X454630293Y-206241385D01*
X454630293Y-206241385D01*
G37*
D22*
X454471194Y-205339823D03*
D18*
G36*
X455195978Y-205675699D02*
G01*
X454807070Y-206064607D01*
X453746410Y-205003947D01*
X454135318Y-204615039D01*
X455195978Y-205675699D01*
X455195978Y-205675699D01*
G37*
D22*
X455036880Y-204774138D03*
D18*
G36*
X455761664Y-205110014D02*
G01*
X455372756Y-205498922D01*
X454312096Y-204438262D01*
X454701004Y-204049354D01*
X455761664Y-205110014D01*
X455761664Y-205110014D01*
G37*
D22*
X455602565Y-204208452D03*
D18*
G36*
X456327349Y-204544328D02*
G01*
X455938441Y-204933236D01*
X454877781Y-203872576D01*
X455266689Y-203483668D01*
X456327349Y-204544328D01*
X456327349Y-204544328D01*
G37*
D22*
X456168250Y-203642767D03*
D18*
G36*
X456893034Y-203978643D02*
G01*
X456504126Y-204367551D01*
X455443466Y-203306891D01*
X455832374Y-202917983D01*
X456893034Y-203978643D01*
X456893034Y-203978643D01*
G37*
D22*
X456733936Y-203077082D03*
D18*
G36*
X457458720Y-203412958D02*
G01*
X457069812Y-203801866D01*
X456009152Y-202741206D01*
X456398060Y-202352298D01*
X457458720Y-203412958D01*
X457458720Y-203412958D01*
G37*
D22*
X456733936Y-200672918D03*
D18*
G36*
X457069812Y-199948134D02*
G01*
X457458720Y-200337042D01*
X456398060Y-201397702D01*
X456009152Y-201008794D01*
X457069812Y-199948134D01*
X457069812Y-199948134D01*
G37*
D22*
X456168250Y-200107233D03*
D18*
G36*
X456504126Y-199382449D02*
G01*
X456893034Y-199771357D01*
X455832374Y-200832017D01*
X455443466Y-200443109D01*
X456504126Y-199382449D01*
X456504126Y-199382449D01*
G37*
D22*
X455602565Y-199541548D03*
D18*
G36*
X455938441Y-198816764D02*
G01*
X456327349Y-199205672D01*
X455266689Y-200266332D01*
X454877781Y-199877424D01*
X455938441Y-198816764D01*
X455938441Y-198816764D01*
G37*
D22*
X455036880Y-198975862D03*
D18*
G36*
X455372756Y-198251078D02*
G01*
X455761664Y-198639986D01*
X454701004Y-199700646D01*
X454312096Y-199311738D01*
X455372756Y-198251078D01*
X455372756Y-198251078D01*
G37*
D22*
X454471194Y-198410177D03*
D18*
G36*
X454807070Y-197685393D02*
G01*
X455195978Y-198074301D01*
X454135318Y-199134961D01*
X453746410Y-198746053D01*
X454807070Y-197685393D01*
X454807070Y-197685393D01*
G37*
D22*
X453905509Y-197844491D03*
D18*
G36*
X454241385Y-197119707D02*
G01*
X454630293Y-197508615D01*
X453569633Y-198569275D01*
X453180725Y-198180367D01*
X454241385Y-197119707D01*
X454241385Y-197119707D01*
G37*
D22*
X453339823Y-197278806D03*
D18*
G36*
X453675699Y-196554022D02*
G01*
X454064607Y-196942930D01*
X453003947Y-198003590D01*
X452615039Y-197614682D01*
X453675699Y-196554022D01*
X453675699Y-196554022D01*
G37*
D22*
X452774138Y-196713120D03*
D18*
G36*
X453110014Y-195988336D02*
G01*
X453498922Y-196377244D01*
X452438262Y-197437904D01*
X452049354Y-197048996D01*
X453110014Y-195988336D01*
X453110014Y-195988336D01*
G37*
D22*
X452208452Y-196147435D03*
D18*
G36*
X452544328Y-195422651D02*
G01*
X452933236Y-195811559D01*
X451872576Y-196872219D01*
X451483668Y-196483311D01*
X452544328Y-195422651D01*
X452544328Y-195422651D01*
G37*
D22*
X451642767Y-195581750D03*
D18*
G36*
X451978643Y-194856966D02*
G01*
X452367551Y-195245874D01*
X451306891Y-196306534D01*
X450917983Y-195917626D01*
X451978643Y-194856966D01*
X451978643Y-194856966D01*
G37*
D22*
X451077082Y-195016064D03*
D18*
G36*
X451412958Y-194291280D02*
G01*
X451801866Y-194680188D01*
X450741206Y-195740848D01*
X450352298Y-195351940D01*
X451412958Y-194291280D01*
X451412958Y-194291280D01*
G37*
D23*
X454550000Y-179625000D03*
X458250000Y-173425000D03*
X458250000Y-179625000D03*
X454550000Y-173425000D03*
D18*
G36*
X279805142Y-163326174D02*
G01*
X279828803Y-163329684D01*
X279852007Y-163335496D01*
X279874529Y-163343554D01*
X279896153Y-163353782D01*
X279916670Y-163366079D01*
X279935883Y-163380329D01*
X279953607Y-163396393D01*
X279969671Y-163414117D01*
X279983921Y-163433330D01*
X279996218Y-163453847D01*
X280006446Y-163475471D01*
X280014504Y-163497993D01*
X280020316Y-163521197D01*
X280023826Y-163544858D01*
X280025000Y-163568750D01*
X280025000Y-164481250D01*
X280023826Y-164505142D01*
X280020316Y-164528803D01*
X280014504Y-164552007D01*
X280006446Y-164574529D01*
X279996218Y-164596153D01*
X279983921Y-164616670D01*
X279969671Y-164635883D01*
X279953607Y-164653607D01*
X279935883Y-164669671D01*
X279916670Y-164683921D01*
X279896153Y-164696218D01*
X279874529Y-164706446D01*
X279852007Y-164714504D01*
X279828803Y-164720316D01*
X279805142Y-164723826D01*
X279781250Y-164725000D01*
X279293750Y-164725000D01*
X279269858Y-164723826D01*
X279246197Y-164720316D01*
X279222993Y-164714504D01*
X279200471Y-164706446D01*
X279178847Y-164696218D01*
X279158330Y-164683921D01*
X279139117Y-164669671D01*
X279121393Y-164653607D01*
X279105329Y-164635883D01*
X279091079Y-164616670D01*
X279078782Y-164596153D01*
X279068554Y-164574529D01*
X279060496Y-164552007D01*
X279054684Y-164528803D01*
X279051174Y-164505142D01*
X279050000Y-164481250D01*
X279050000Y-163568750D01*
X279051174Y-163544858D01*
X279054684Y-163521197D01*
X279060496Y-163497993D01*
X279068554Y-163475471D01*
X279078782Y-163453847D01*
X279091079Y-163433330D01*
X279105329Y-163414117D01*
X279121393Y-163396393D01*
X279139117Y-163380329D01*
X279158330Y-163366079D01*
X279178847Y-163353782D01*
X279200471Y-163343554D01*
X279222993Y-163335496D01*
X279246197Y-163329684D01*
X279269858Y-163326174D01*
X279293750Y-163325000D01*
X279781250Y-163325000D01*
X279805142Y-163326174D01*
X279805142Y-163326174D01*
G37*
D24*
X279537500Y-164025000D03*
D18*
G36*
X281680142Y-163326174D02*
G01*
X281703803Y-163329684D01*
X281727007Y-163335496D01*
X281749529Y-163343554D01*
X281771153Y-163353782D01*
X281791670Y-163366079D01*
X281810883Y-163380329D01*
X281828607Y-163396393D01*
X281844671Y-163414117D01*
X281858921Y-163433330D01*
X281871218Y-163453847D01*
X281881446Y-163475471D01*
X281889504Y-163497993D01*
X281895316Y-163521197D01*
X281898826Y-163544858D01*
X281900000Y-163568750D01*
X281900000Y-164481250D01*
X281898826Y-164505142D01*
X281895316Y-164528803D01*
X281889504Y-164552007D01*
X281881446Y-164574529D01*
X281871218Y-164596153D01*
X281858921Y-164616670D01*
X281844671Y-164635883D01*
X281828607Y-164653607D01*
X281810883Y-164669671D01*
X281791670Y-164683921D01*
X281771153Y-164696218D01*
X281749529Y-164706446D01*
X281727007Y-164714504D01*
X281703803Y-164720316D01*
X281680142Y-164723826D01*
X281656250Y-164725000D01*
X281168750Y-164725000D01*
X281144858Y-164723826D01*
X281121197Y-164720316D01*
X281097993Y-164714504D01*
X281075471Y-164706446D01*
X281053847Y-164696218D01*
X281033330Y-164683921D01*
X281014117Y-164669671D01*
X280996393Y-164653607D01*
X280980329Y-164635883D01*
X280966079Y-164616670D01*
X280953782Y-164596153D01*
X280943554Y-164574529D01*
X280935496Y-164552007D01*
X280929684Y-164528803D01*
X280926174Y-164505142D01*
X280925000Y-164481250D01*
X280925000Y-163568750D01*
X280926174Y-163544858D01*
X280929684Y-163521197D01*
X280935496Y-163497993D01*
X280943554Y-163475471D01*
X280953782Y-163453847D01*
X280966079Y-163433330D01*
X280980329Y-163414117D01*
X280996393Y-163396393D01*
X281014117Y-163380329D01*
X281033330Y-163366079D01*
X281053847Y-163353782D01*
X281075471Y-163343554D01*
X281097993Y-163335496D01*
X281121197Y-163329684D01*
X281144858Y-163326174D01*
X281168750Y-163325000D01*
X281656250Y-163325000D01*
X281680142Y-163326174D01*
X281680142Y-163326174D01*
G37*
D24*
X281412500Y-164025000D03*
D18*
G36*
X268005142Y-163326174D02*
G01*
X268028803Y-163329684D01*
X268052007Y-163335496D01*
X268074529Y-163343554D01*
X268096153Y-163353782D01*
X268116670Y-163366079D01*
X268135883Y-163380329D01*
X268153607Y-163396393D01*
X268169671Y-163414117D01*
X268183921Y-163433330D01*
X268196218Y-163453847D01*
X268206446Y-163475471D01*
X268214504Y-163497993D01*
X268220316Y-163521197D01*
X268223826Y-163544858D01*
X268225000Y-163568750D01*
X268225000Y-164481250D01*
X268223826Y-164505142D01*
X268220316Y-164528803D01*
X268214504Y-164552007D01*
X268206446Y-164574529D01*
X268196218Y-164596153D01*
X268183921Y-164616670D01*
X268169671Y-164635883D01*
X268153607Y-164653607D01*
X268135883Y-164669671D01*
X268116670Y-164683921D01*
X268096153Y-164696218D01*
X268074529Y-164706446D01*
X268052007Y-164714504D01*
X268028803Y-164720316D01*
X268005142Y-164723826D01*
X267981250Y-164725000D01*
X267493750Y-164725000D01*
X267469858Y-164723826D01*
X267446197Y-164720316D01*
X267422993Y-164714504D01*
X267400471Y-164706446D01*
X267378847Y-164696218D01*
X267358330Y-164683921D01*
X267339117Y-164669671D01*
X267321393Y-164653607D01*
X267305329Y-164635883D01*
X267291079Y-164616670D01*
X267278782Y-164596153D01*
X267268554Y-164574529D01*
X267260496Y-164552007D01*
X267254684Y-164528803D01*
X267251174Y-164505142D01*
X267250000Y-164481250D01*
X267250000Y-163568750D01*
X267251174Y-163544858D01*
X267254684Y-163521197D01*
X267260496Y-163497993D01*
X267268554Y-163475471D01*
X267278782Y-163453847D01*
X267291079Y-163433330D01*
X267305329Y-163414117D01*
X267321393Y-163396393D01*
X267339117Y-163380329D01*
X267358330Y-163366079D01*
X267378847Y-163353782D01*
X267400471Y-163343554D01*
X267422993Y-163335496D01*
X267446197Y-163329684D01*
X267469858Y-163326174D01*
X267493750Y-163325000D01*
X267981250Y-163325000D01*
X268005142Y-163326174D01*
X268005142Y-163326174D01*
G37*
D24*
X267737500Y-164025000D03*
D18*
G36*
X266130142Y-163326174D02*
G01*
X266153803Y-163329684D01*
X266177007Y-163335496D01*
X266199529Y-163343554D01*
X266221153Y-163353782D01*
X266241670Y-163366079D01*
X266260883Y-163380329D01*
X266278607Y-163396393D01*
X266294671Y-163414117D01*
X266308921Y-163433330D01*
X266321218Y-163453847D01*
X266331446Y-163475471D01*
X266339504Y-163497993D01*
X266345316Y-163521197D01*
X266348826Y-163544858D01*
X266350000Y-163568750D01*
X266350000Y-164481250D01*
X266348826Y-164505142D01*
X266345316Y-164528803D01*
X266339504Y-164552007D01*
X266331446Y-164574529D01*
X266321218Y-164596153D01*
X266308921Y-164616670D01*
X266294671Y-164635883D01*
X266278607Y-164653607D01*
X266260883Y-164669671D01*
X266241670Y-164683921D01*
X266221153Y-164696218D01*
X266199529Y-164706446D01*
X266177007Y-164714504D01*
X266153803Y-164720316D01*
X266130142Y-164723826D01*
X266106250Y-164725000D01*
X265618750Y-164725000D01*
X265594858Y-164723826D01*
X265571197Y-164720316D01*
X265547993Y-164714504D01*
X265525471Y-164706446D01*
X265503847Y-164696218D01*
X265483330Y-164683921D01*
X265464117Y-164669671D01*
X265446393Y-164653607D01*
X265430329Y-164635883D01*
X265416079Y-164616670D01*
X265403782Y-164596153D01*
X265393554Y-164574529D01*
X265385496Y-164552007D01*
X265379684Y-164528803D01*
X265376174Y-164505142D01*
X265375000Y-164481250D01*
X265375000Y-163568750D01*
X265376174Y-163544858D01*
X265379684Y-163521197D01*
X265385496Y-163497993D01*
X265393554Y-163475471D01*
X265403782Y-163453847D01*
X265416079Y-163433330D01*
X265430329Y-163414117D01*
X265446393Y-163396393D01*
X265464117Y-163380329D01*
X265483330Y-163366079D01*
X265503847Y-163353782D01*
X265525471Y-163343554D01*
X265547993Y-163335496D01*
X265571197Y-163329684D01*
X265594858Y-163326174D01*
X265618750Y-163325000D01*
X266106250Y-163325000D01*
X266130142Y-163326174D01*
X266130142Y-163326174D01*
G37*
D24*
X265862500Y-164025000D03*
D18*
G36*
X440617065Y-202825362D02*
G01*
X440640726Y-202828872D01*
X440663930Y-202834684D01*
X440686452Y-202842742D01*
X440708076Y-202852970D01*
X440728593Y-202865267D01*
X440747806Y-202879517D01*
X440765530Y-202895581D01*
X441110245Y-203240296D01*
X441126309Y-203258020D01*
X441140559Y-203277233D01*
X441152856Y-203297750D01*
X441163084Y-203319374D01*
X441171142Y-203341896D01*
X441176954Y-203365100D01*
X441180464Y-203388761D01*
X441181638Y-203412653D01*
X441180464Y-203436545D01*
X441176954Y-203460206D01*
X441171142Y-203483410D01*
X441163084Y-203505932D01*
X441152856Y-203527556D01*
X441140559Y-203548073D01*
X441126309Y-203567286D01*
X441110245Y-203585010D01*
X440465010Y-204230245D01*
X440447286Y-204246309D01*
X440428073Y-204260559D01*
X440407556Y-204272856D01*
X440385932Y-204283084D01*
X440363410Y-204291142D01*
X440340206Y-204296954D01*
X440316545Y-204300464D01*
X440292653Y-204301638D01*
X440268761Y-204300464D01*
X440245100Y-204296954D01*
X440221896Y-204291142D01*
X440199374Y-204283084D01*
X440177750Y-204272856D01*
X440157233Y-204260559D01*
X440138020Y-204246309D01*
X440120296Y-204230245D01*
X439775581Y-203885530D01*
X439759517Y-203867806D01*
X439745267Y-203848593D01*
X439732970Y-203828076D01*
X439722742Y-203806452D01*
X439714684Y-203783930D01*
X439708872Y-203760726D01*
X439705362Y-203737065D01*
X439704188Y-203713173D01*
X439705362Y-203689281D01*
X439708872Y-203665620D01*
X439714684Y-203642416D01*
X439722742Y-203619894D01*
X439732970Y-203598270D01*
X439745267Y-203577753D01*
X439759517Y-203558540D01*
X439775581Y-203540816D01*
X440420816Y-202895581D01*
X440438540Y-202879517D01*
X440457753Y-202865267D01*
X440478270Y-202852970D01*
X440499894Y-202842742D01*
X440522416Y-202834684D01*
X440545620Y-202828872D01*
X440569281Y-202825362D01*
X440593173Y-202824188D01*
X440617065Y-202825362D01*
X440617065Y-202825362D01*
G37*
D24*
X440442913Y-203562913D03*
D18*
G36*
X439291239Y-201499536D02*
G01*
X439314900Y-201503046D01*
X439338104Y-201508858D01*
X439360626Y-201516916D01*
X439382250Y-201527144D01*
X439402767Y-201539441D01*
X439421980Y-201553691D01*
X439439704Y-201569755D01*
X439784419Y-201914470D01*
X439800483Y-201932194D01*
X439814733Y-201951407D01*
X439827030Y-201971924D01*
X439837258Y-201993548D01*
X439845316Y-202016070D01*
X439851128Y-202039274D01*
X439854638Y-202062935D01*
X439855812Y-202086827D01*
X439854638Y-202110719D01*
X439851128Y-202134380D01*
X439845316Y-202157584D01*
X439837258Y-202180106D01*
X439827030Y-202201730D01*
X439814733Y-202222247D01*
X439800483Y-202241460D01*
X439784419Y-202259184D01*
X439139184Y-202904419D01*
X439121460Y-202920483D01*
X439102247Y-202934733D01*
X439081730Y-202947030D01*
X439060106Y-202957258D01*
X439037584Y-202965316D01*
X439014380Y-202971128D01*
X438990719Y-202974638D01*
X438966827Y-202975812D01*
X438942935Y-202974638D01*
X438919274Y-202971128D01*
X438896070Y-202965316D01*
X438873548Y-202957258D01*
X438851924Y-202947030D01*
X438831407Y-202934733D01*
X438812194Y-202920483D01*
X438794470Y-202904419D01*
X438449755Y-202559704D01*
X438433691Y-202541980D01*
X438419441Y-202522767D01*
X438407144Y-202502250D01*
X438396916Y-202480626D01*
X438388858Y-202458104D01*
X438383046Y-202434900D01*
X438379536Y-202411239D01*
X438378362Y-202387347D01*
X438379536Y-202363455D01*
X438383046Y-202339794D01*
X438388858Y-202316590D01*
X438396916Y-202294068D01*
X438407144Y-202272444D01*
X438419441Y-202251927D01*
X438433691Y-202232714D01*
X438449755Y-202214990D01*
X439094990Y-201569755D01*
X439112714Y-201553691D01*
X439131927Y-201539441D01*
X439152444Y-201527144D01*
X439174068Y-201516916D01*
X439196590Y-201508858D01*
X439219794Y-201503046D01*
X439243455Y-201499536D01*
X439267347Y-201498362D01*
X439291239Y-201499536D01*
X439291239Y-201499536D01*
G37*
D24*
X439117087Y-202237087D03*
D18*
G36*
X458730142Y-181701174D02*
G01*
X458753803Y-181704684D01*
X458777007Y-181710496D01*
X458799529Y-181718554D01*
X458821153Y-181728782D01*
X458841670Y-181741079D01*
X458860883Y-181755329D01*
X458878607Y-181771393D01*
X458894671Y-181789117D01*
X458908921Y-181808330D01*
X458921218Y-181828847D01*
X458931446Y-181850471D01*
X458939504Y-181872993D01*
X458945316Y-181896197D01*
X458948826Y-181919858D01*
X458950000Y-181943750D01*
X458950000Y-182431250D01*
X458948826Y-182455142D01*
X458945316Y-182478803D01*
X458939504Y-182502007D01*
X458931446Y-182524529D01*
X458921218Y-182546153D01*
X458908921Y-182566670D01*
X458894671Y-182585883D01*
X458878607Y-182603607D01*
X458860883Y-182619671D01*
X458841670Y-182633921D01*
X458821153Y-182646218D01*
X458799529Y-182656446D01*
X458777007Y-182664504D01*
X458753803Y-182670316D01*
X458730142Y-182673826D01*
X458706250Y-182675000D01*
X457793750Y-182675000D01*
X457769858Y-182673826D01*
X457746197Y-182670316D01*
X457722993Y-182664504D01*
X457700471Y-182656446D01*
X457678847Y-182646218D01*
X457658330Y-182633921D01*
X457639117Y-182619671D01*
X457621393Y-182603607D01*
X457605329Y-182585883D01*
X457591079Y-182566670D01*
X457578782Y-182546153D01*
X457568554Y-182524529D01*
X457560496Y-182502007D01*
X457554684Y-182478803D01*
X457551174Y-182455142D01*
X457550000Y-182431250D01*
X457550000Y-181943750D01*
X457551174Y-181919858D01*
X457554684Y-181896197D01*
X457560496Y-181872993D01*
X457568554Y-181850471D01*
X457578782Y-181828847D01*
X457591079Y-181808330D01*
X457605329Y-181789117D01*
X457621393Y-181771393D01*
X457639117Y-181755329D01*
X457658330Y-181741079D01*
X457678847Y-181728782D01*
X457700471Y-181718554D01*
X457722993Y-181710496D01*
X457746197Y-181704684D01*
X457769858Y-181701174D01*
X457793750Y-181700000D01*
X458706250Y-181700000D01*
X458730142Y-181701174D01*
X458730142Y-181701174D01*
G37*
D24*
X458250000Y-182187500D03*
D18*
G36*
X458730142Y-183576174D02*
G01*
X458753803Y-183579684D01*
X458777007Y-183585496D01*
X458799529Y-183593554D01*
X458821153Y-183603782D01*
X458841670Y-183616079D01*
X458860883Y-183630329D01*
X458878607Y-183646393D01*
X458894671Y-183664117D01*
X458908921Y-183683330D01*
X458921218Y-183703847D01*
X458931446Y-183725471D01*
X458939504Y-183747993D01*
X458945316Y-183771197D01*
X458948826Y-183794858D01*
X458950000Y-183818750D01*
X458950000Y-184306250D01*
X458948826Y-184330142D01*
X458945316Y-184353803D01*
X458939504Y-184377007D01*
X458931446Y-184399529D01*
X458921218Y-184421153D01*
X458908921Y-184441670D01*
X458894671Y-184460883D01*
X458878607Y-184478607D01*
X458860883Y-184494671D01*
X458841670Y-184508921D01*
X458821153Y-184521218D01*
X458799529Y-184531446D01*
X458777007Y-184539504D01*
X458753803Y-184545316D01*
X458730142Y-184548826D01*
X458706250Y-184550000D01*
X457793750Y-184550000D01*
X457769858Y-184548826D01*
X457746197Y-184545316D01*
X457722993Y-184539504D01*
X457700471Y-184531446D01*
X457678847Y-184521218D01*
X457658330Y-184508921D01*
X457639117Y-184494671D01*
X457621393Y-184478607D01*
X457605329Y-184460883D01*
X457591079Y-184441670D01*
X457578782Y-184421153D01*
X457568554Y-184399529D01*
X457560496Y-184377007D01*
X457554684Y-184353803D01*
X457551174Y-184330142D01*
X457550000Y-184306250D01*
X457550000Y-183818750D01*
X457551174Y-183794858D01*
X457554684Y-183771197D01*
X457560496Y-183747993D01*
X457568554Y-183725471D01*
X457578782Y-183703847D01*
X457591079Y-183683330D01*
X457605329Y-183664117D01*
X457621393Y-183646393D01*
X457639117Y-183630329D01*
X457658330Y-183616079D01*
X457678847Y-183603782D01*
X457700471Y-183593554D01*
X457722993Y-183585496D01*
X457746197Y-183579684D01*
X457769858Y-183576174D01*
X457793750Y-183575000D01*
X458706250Y-183575000D01*
X458730142Y-183576174D01*
X458730142Y-183576174D01*
G37*
D24*
X458250000Y-184062500D03*
D18*
G36*
X275255742Y-172725174D02*
G01*
X275279403Y-172728684D01*
X275302607Y-172734496D01*
X275325129Y-172742554D01*
X275346753Y-172752782D01*
X275367270Y-172765079D01*
X275386483Y-172779329D01*
X275404207Y-172795393D01*
X275420271Y-172813117D01*
X275434521Y-172832330D01*
X275446818Y-172852847D01*
X275457046Y-172874471D01*
X275465104Y-172896993D01*
X275470916Y-172920197D01*
X275474426Y-172943858D01*
X275475600Y-172967750D01*
X275475600Y-173455250D01*
X275474426Y-173479142D01*
X275470916Y-173502803D01*
X275465104Y-173526007D01*
X275457046Y-173548529D01*
X275446818Y-173570153D01*
X275434521Y-173590670D01*
X275420271Y-173609883D01*
X275404207Y-173627607D01*
X275386483Y-173643671D01*
X275367270Y-173657921D01*
X275346753Y-173670218D01*
X275325129Y-173680446D01*
X275302607Y-173688504D01*
X275279403Y-173694316D01*
X275255742Y-173697826D01*
X275231850Y-173699000D01*
X274319350Y-173699000D01*
X274295458Y-173697826D01*
X274271797Y-173694316D01*
X274248593Y-173688504D01*
X274226071Y-173680446D01*
X274204447Y-173670218D01*
X274183930Y-173657921D01*
X274164717Y-173643671D01*
X274146993Y-173627607D01*
X274130929Y-173609883D01*
X274116679Y-173590670D01*
X274104382Y-173570153D01*
X274094154Y-173548529D01*
X274086096Y-173526007D01*
X274080284Y-173502803D01*
X274076774Y-173479142D01*
X274075600Y-173455250D01*
X274075600Y-172967750D01*
X274076774Y-172943858D01*
X274080284Y-172920197D01*
X274086096Y-172896993D01*
X274094154Y-172874471D01*
X274104382Y-172852847D01*
X274116679Y-172832330D01*
X274130929Y-172813117D01*
X274146993Y-172795393D01*
X274164717Y-172779329D01*
X274183930Y-172765079D01*
X274204447Y-172752782D01*
X274226071Y-172742554D01*
X274248593Y-172734496D01*
X274271797Y-172728684D01*
X274295458Y-172725174D01*
X274319350Y-172724000D01*
X275231850Y-172724000D01*
X275255742Y-172725174D01*
X275255742Y-172725174D01*
G37*
D24*
X274775600Y-173211500D03*
D18*
G36*
X275255742Y-174600174D02*
G01*
X275279403Y-174603684D01*
X275302607Y-174609496D01*
X275325129Y-174617554D01*
X275346753Y-174627782D01*
X275367270Y-174640079D01*
X275386483Y-174654329D01*
X275404207Y-174670393D01*
X275420271Y-174688117D01*
X275434521Y-174707330D01*
X275446818Y-174727847D01*
X275457046Y-174749471D01*
X275465104Y-174771993D01*
X275470916Y-174795197D01*
X275474426Y-174818858D01*
X275475600Y-174842750D01*
X275475600Y-175330250D01*
X275474426Y-175354142D01*
X275470916Y-175377803D01*
X275465104Y-175401007D01*
X275457046Y-175423529D01*
X275446818Y-175445153D01*
X275434521Y-175465670D01*
X275420271Y-175484883D01*
X275404207Y-175502607D01*
X275386483Y-175518671D01*
X275367270Y-175532921D01*
X275346753Y-175545218D01*
X275325129Y-175555446D01*
X275302607Y-175563504D01*
X275279403Y-175569316D01*
X275255742Y-175572826D01*
X275231850Y-175574000D01*
X274319350Y-175574000D01*
X274295458Y-175572826D01*
X274271797Y-175569316D01*
X274248593Y-175563504D01*
X274226071Y-175555446D01*
X274204447Y-175545218D01*
X274183930Y-175532921D01*
X274164717Y-175518671D01*
X274146993Y-175502607D01*
X274130929Y-175484883D01*
X274116679Y-175465670D01*
X274104382Y-175445153D01*
X274094154Y-175423529D01*
X274086096Y-175401007D01*
X274080284Y-175377803D01*
X274076774Y-175354142D01*
X274075600Y-175330250D01*
X274075600Y-174842750D01*
X274076774Y-174818858D01*
X274080284Y-174795197D01*
X274086096Y-174771993D01*
X274094154Y-174749471D01*
X274104382Y-174727847D01*
X274116679Y-174707330D01*
X274130929Y-174688117D01*
X274146993Y-174670393D01*
X274164717Y-174654329D01*
X274183930Y-174640079D01*
X274204447Y-174627782D01*
X274226071Y-174617554D01*
X274248593Y-174609496D01*
X274271797Y-174603684D01*
X274295458Y-174600174D01*
X274319350Y-174599000D01*
X275231850Y-174599000D01*
X275255742Y-174600174D01*
X275255742Y-174600174D01*
G37*
D24*
X274775600Y-175086500D03*
D18*
G36*
X273080142Y-172725174D02*
G01*
X273103803Y-172728684D01*
X273127007Y-172734496D01*
X273149529Y-172742554D01*
X273171153Y-172752782D01*
X273191670Y-172765079D01*
X273210883Y-172779329D01*
X273228607Y-172795393D01*
X273244671Y-172813117D01*
X273258921Y-172832330D01*
X273271218Y-172852847D01*
X273281446Y-172874471D01*
X273289504Y-172896993D01*
X273295316Y-172920197D01*
X273298826Y-172943858D01*
X273300000Y-172967750D01*
X273300000Y-173455250D01*
X273298826Y-173479142D01*
X273295316Y-173502803D01*
X273289504Y-173526007D01*
X273281446Y-173548529D01*
X273271218Y-173570153D01*
X273258921Y-173590670D01*
X273244671Y-173609883D01*
X273228607Y-173627607D01*
X273210883Y-173643671D01*
X273191670Y-173657921D01*
X273171153Y-173670218D01*
X273149529Y-173680446D01*
X273127007Y-173688504D01*
X273103803Y-173694316D01*
X273080142Y-173697826D01*
X273056250Y-173699000D01*
X272143750Y-173699000D01*
X272119858Y-173697826D01*
X272096197Y-173694316D01*
X272072993Y-173688504D01*
X272050471Y-173680446D01*
X272028847Y-173670218D01*
X272008330Y-173657921D01*
X271989117Y-173643671D01*
X271971393Y-173627607D01*
X271955329Y-173609883D01*
X271941079Y-173590670D01*
X271928782Y-173570153D01*
X271918554Y-173548529D01*
X271910496Y-173526007D01*
X271904684Y-173502803D01*
X271901174Y-173479142D01*
X271900000Y-173455250D01*
X271900000Y-172967750D01*
X271901174Y-172943858D01*
X271904684Y-172920197D01*
X271910496Y-172896993D01*
X271918554Y-172874471D01*
X271928782Y-172852847D01*
X271941079Y-172832330D01*
X271955329Y-172813117D01*
X271971393Y-172795393D01*
X271989117Y-172779329D01*
X272008330Y-172765079D01*
X272028847Y-172752782D01*
X272050471Y-172742554D01*
X272072993Y-172734496D01*
X272096197Y-172728684D01*
X272119858Y-172725174D01*
X272143750Y-172724000D01*
X273056250Y-172724000D01*
X273080142Y-172725174D01*
X273080142Y-172725174D01*
G37*
D24*
X272600000Y-173211500D03*
D18*
G36*
X273080142Y-174600174D02*
G01*
X273103803Y-174603684D01*
X273127007Y-174609496D01*
X273149529Y-174617554D01*
X273171153Y-174627782D01*
X273191670Y-174640079D01*
X273210883Y-174654329D01*
X273228607Y-174670393D01*
X273244671Y-174688117D01*
X273258921Y-174707330D01*
X273271218Y-174727847D01*
X273281446Y-174749471D01*
X273289504Y-174771993D01*
X273295316Y-174795197D01*
X273298826Y-174818858D01*
X273300000Y-174842750D01*
X273300000Y-175330250D01*
X273298826Y-175354142D01*
X273295316Y-175377803D01*
X273289504Y-175401007D01*
X273281446Y-175423529D01*
X273271218Y-175445153D01*
X273258921Y-175465670D01*
X273244671Y-175484883D01*
X273228607Y-175502607D01*
X273210883Y-175518671D01*
X273191670Y-175532921D01*
X273171153Y-175545218D01*
X273149529Y-175555446D01*
X273127007Y-175563504D01*
X273103803Y-175569316D01*
X273080142Y-175572826D01*
X273056250Y-175574000D01*
X272143750Y-175574000D01*
X272119858Y-175572826D01*
X272096197Y-175569316D01*
X272072993Y-175563504D01*
X272050471Y-175555446D01*
X272028847Y-175545218D01*
X272008330Y-175532921D01*
X271989117Y-175518671D01*
X271971393Y-175502607D01*
X271955329Y-175484883D01*
X271941079Y-175465670D01*
X271928782Y-175445153D01*
X271918554Y-175423529D01*
X271910496Y-175401007D01*
X271904684Y-175377803D01*
X271901174Y-175354142D01*
X271900000Y-175330250D01*
X271900000Y-174842750D01*
X271901174Y-174818858D01*
X271904684Y-174795197D01*
X271910496Y-174771993D01*
X271918554Y-174749471D01*
X271928782Y-174727847D01*
X271941079Y-174707330D01*
X271955329Y-174688117D01*
X271971393Y-174670393D01*
X271989117Y-174654329D01*
X272008330Y-174640079D01*
X272028847Y-174627782D01*
X272050471Y-174617554D01*
X272072993Y-174609496D01*
X272096197Y-174603684D01*
X272119858Y-174600174D01*
X272143750Y-174599000D01*
X273056250Y-174599000D01*
X273080142Y-174600174D01*
X273080142Y-174600174D01*
G37*
D24*
X272600000Y-175086500D03*
D18*
G36*
X272599504Y-179176204D02*
G01*
X272623773Y-179179804D01*
X272647571Y-179185765D01*
X272670671Y-179194030D01*
X272692849Y-179204520D01*
X272713893Y-179217133D01*
X272733598Y-179231747D01*
X272751777Y-179248223D01*
X272768253Y-179266402D01*
X272782867Y-179286107D01*
X272795480Y-179307151D01*
X272805970Y-179329329D01*
X272814235Y-179352429D01*
X272820196Y-179376227D01*
X272823796Y-179400496D01*
X272825000Y-179425000D01*
X272825000Y-180675000D01*
X272823796Y-180699504D01*
X272820196Y-180723773D01*
X272814235Y-180747571D01*
X272805970Y-180770671D01*
X272795480Y-180792849D01*
X272782867Y-180813893D01*
X272768253Y-180833598D01*
X272751777Y-180851777D01*
X272733598Y-180868253D01*
X272713893Y-180882867D01*
X272692849Y-180895480D01*
X272670671Y-180905970D01*
X272647571Y-180914235D01*
X272623773Y-180920196D01*
X272599504Y-180923796D01*
X272575000Y-180925000D01*
X271825000Y-180925000D01*
X271800496Y-180923796D01*
X271776227Y-180920196D01*
X271752429Y-180914235D01*
X271729329Y-180905970D01*
X271707151Y-180895480D01*
X271686107Y-180882867D01*
X271666402Y-180868253D01*
X271648223Y-180851777D01*
X271631747Y-180833598D01*
X271617133Y-180813893D01*
X271604520Y-180792849D01*
X271594030Y-180770671D01*
X271585765Y-180747571D01*
X271579804Y-180723773D01*
X271576204Y-180699504D01*
X271575000Y-180675000D01*
X271575000Y-179425000D01*
X271576204Y-179400496D01*
X271579804Y-179376227D01*
X271585765Y-179352429D01*
X271594030Y-179329329D01*
X271604520Y-179307151D01*
X271617133Y-179286107D01*
X271631747Y-179266402D01*
X271648223Y-179248223D01*
X271666402Y-179231747D01*
X271686107Y-179217133D01*
X271707151Y-179204520D01*
X271729329Y-179194030D01*
X271752429Y-179185765D01*
X271776227Y-179179804D01*
X271800496Y-179176204D01*
X271825000Y-179175000D01*
X272575000Y-179175000D01*
X272599504Y-179176204D01*
X272599504Y-179176204D01*
G37*
D25*
X272200000Y-180050000D03*
D18*
G36*
X275399504Y-179176204D02*
G01*
X275423773Y-179179804D01*
X275447571Y-179185765D01*
X275470671Y-179194030D01*
X275492849Y-179204520D01*
X275513893Y-179217133D01*
X275533598Y-179231747D01*
X275551777Y-179248223D01*
X275568253Y-179266402D01*
X275582867Y-179286107D01*
X275595480Y-179307151D01*
X275605970Y-179329329D01*
X275614235Y-179352429D01*
X275620196Y-179376227D01*
X275623796Y-179400496D01*
X275625000Y-179425000D01*
X275625000Y-180675000D01*
X275623796Y-180699504D01*
X275620196Y-180723773D01*
X275614235Y-180747571D01*
X275605970Y-180770671D01*
X275595480Y-180792849D01*
X275582867Y-180813893D01*
X275568253Y-180833598D01*
X275551777Y-180851777D01*
X275533598Y-180868253D01*
X275513893Y-180882867D01*
X275492849Y-180895480D01*
X275470671Y-180905970D01*
X275447571Y-180914235D01*
X275423773Y-180920196D01*
X275399504Y-180923796D01*
X275375000Y-180925000D01*
X274625000Y-180925000D01*
X274600496Y-180923796D01*
X274576227Y-180920196D01*
X274552429Y-180914235D01*
X274529329Y-180905970D01*
X274507151Y-180895480D01*
X274486107Y-180882867D01*
X274466402Y-180868253D01*
X274448223Y-180851777D01*
X274431747Y-180833598D01*
X274417133Y-180813893D01*
X274404520Y-180792849D01*
X274394030Y-180770671D01*
X274385765Y-180747571D01*
X274379804Y-180723773D01*
X274376204Y-180699504D01*
X274375000Y-180675000D01*
X274375000Y-179425000D01*
X274376204Y-179400496D01*
X274379804Y-179376227D01*
X274385765Y-179352429D01*
X274394030Y-179329329D01*
X274404520Y-179307151D01*
X274417133Y-179286107D01*
X274431747Y-179266402D01*
X274448223Y-179248223D01*
X274466402Y-179231747D01*
X274486107Y-179217133D01*
X274507151Y-179204520D01*
X274529329Y-179194030D01*
X274552429Y-179185765D01*
X274576227Y-179179804D01*
X274600496Y-179176204D01*
X274625000Y-179175000D01*
X275375000Y-179175000D01*
X275399504Y-179176204D01*
X275399504Y-179176204D01*
G37*
D25*
X275000000Y-180050000D03*
D18*
G36*
X445736239Y-210174536D02*
G01*
X445759900Y-210178046D01*
X445783104Y-210183858D01*
X445805626Y-210191916D01*
X445827250Y-210202144D01*
X445847767Y-210214441D01*
X445866980Y-210228691D01*
X445884704Y-210244755D01*
X446229419Y-210589470D01*
X446245483Y-210607194D01*
X446259733Y-210626407D01*
X446272030Y-210646924D01*
X446282258Y-210668548D01*
X446290316Y-210691070D01*
X446296128Y-210714274D01*
X446299638Y-210737935D01*
X446300812Y-210761827D01*
X446299638Y-210785719D01*
X446296128Y-210809380D01*
X446290316Y-210832584D01*
X446282258Y-210855106D01*
X446272030Y-210876730D01*
X446259733Y-210897247D01*
X446245483Y-210916460D01*
X446229419Y-210934184D01*
X445584184Y-211579419D01*
X445566460Y-211595483D01*
X445547247Y-211609733D01*
X445526730Y-211622030D01*
X445505106Y-211632258D01*
X445482584Y-211640316D01*
X445459380Y-211646128D01*
X445435719Y-211649638D01*
X445411827Y-211650812D01*
X445387935Y-211649638D01*
X445364274Y-211646128D01*
X445341070Y-211640316D01*
X445318548Y-211632258D01*
X445296924Y-211622030D01*
X445276407Y-211609733D01*
X445257194Y-211595483D01*
X445239470Y-211579419D01*
X444894755Y-211234704D01*
X444878691Y-211216980D01*
X444864441Y-211197767D01*
X444852144Y-211177250D01*
X444841916Y-211155626D01*
X444833858Y-211133104D01*
X444828046Y-211109900D01*
X444824536Y-211086239D01*
X444823362Y-211062347D01*
X444824536Y-211038455D01*
X444828046Y-211014794D01*
X444833858Y-210991590D01*
X444841916Y-210969068D01*
X444852144Y-210947444D01*
X444864441Y-210926927D01*
X444878691Y-210907714D01*
X444894755Y-210889990D01*
X445539990Y-210244755D01*
X445557714Y-210228691D01*
X445576927Y-210214441D01*
X445597444Y-210202144D01*
X445619068Y-210191916D01*
X445641590Y-210183858D01*
X445664794Y-210178046D01*
X445688455Y-210174536D01*
X445712347Y-210173362D01*
X445736239Y-210174536D01*
X445736239Y-210174536D01*
G37*
D24*
X445562087Y-210912087D03*
D18*
G36*
X447062065Y-211500362D02*
G01*
X447085726Y-211503872D01*
X447108930Y-211509684D01*
X447131452Y-211517742D01*
X447153076Y-211527970D01*
X447173593Y-211540267D01*
X447192806Y-211554517D01*
X447210530Y-211570581D01*
X447555245Y-211915296D01*
X447571309Y-211933020D01*
X447585559Y-211952233D01*
X447597856Y-211972750D01*
X447608084Y-211994374D01*
X447616142Y-212016896D01*
X447621954Y-212040100D01*
X447625464Y-212063761D01*
X447626638Y-212087653D01*
X447625464Y-212111545D01*
X447621954Y-212135206D01*
X447616142Y-212158410D01*
X447608084Y-212180932D01*
X447597856Y-212202556D01*
X447585559Y-212223073D01*
X447571309Y-212242286D01*
X447555245Y-212260010D01*
X446910010Y-212905245D01*
X446892286Y-212921309D01*
X446873073Y-212935559D01*
X446852556Y-212947856D01*
X446830932Y-212958084D01*
X446808410Y-212966142D01*
X446785206Y-212971954D01*
X446761545Y-212975464D01*
X446737653Y-212976638D01*
X446713761Y-212975464D01*
X446690100Y-212971954D01*
X446666896Y-212966142D01*
X446644374Y-212958084D01*
X446622750Y-212947856D01*
X446602233Y-212935559D01*
X446583020Y-212921309D01*
X446565296Y-212905245D01*
X446220581Y-212560530D01*
X446204517Y-212542806D01*
X446190267Y-212523593D01*
X446177970Y-212503076D01*
X446167742Y-212481452D01*
X446159684Y-212458930D01*
X446153872Y-212435726D01*
X446150362Y-212412065D01*
X446149188Y-212388173D01*
X446150362Y-212364281D01*
X446153872Y-212340620D01*
X446159684Y-212317416D01*
X446167742Y-212294894D01*
X446177970Y-212273270D01*
X446190267Y-212252753D01*
X446204517Y-212233540D01*
X446220581Y-212215816D01*
X446865816Y-211570581D01*
X446883540Y-211554517D01*
X446902753Y-211540267D01*
X446923270Y-211527970D01*
X446944894Y-211517742D01*
X446967416Y-211509684D01*
X446990620Y-211503872D01*
X447014281Y-211500362D01*
X447038173Y-211499188D01*
X447062065Y-211500362D01*
X447062065Y-211500362D01*
G37*
D24*
X446887913Y-212237913D03*
D18*
G36*
X450636239Y-189499536D02*
G01*
X450659900Y-189503046D01*
X450683104Y-189508858D01*
X450705626Y-189516916D01*
X450727250Y-189527144D01*
X450747767Y-189539441D01*
X450766980Y-189553691D01*
X450784704Y-189569755D01*
X451129419Y-189914470D01*
X451145483Y-189932194D01*
X451159733Y-189951407D01*
X451172030Y-189971924D01*
X451182258Y-189993548D01*
X451190316Y-190016070D01*
X451196128Y-190039274D01*
X451199638Y-190062935D01*
X451200812Y-190086827D01*
X451199638Y-190110719D01*
X451196128Y-190134380D01*
X451190316Y-190157584D01*
X451182258Y-190180106D01*
X451172030Y-190201730D01*
X451159733Y-190222247D01*
X451145483Y-190241460D01*
X451129419Y-190259184D01*
X450484184Y-190904419D01*
X450466460Y-190920483D01*
X450447247Y-190934733D01*
X450426730Y-190947030D01*
X450405106Y-190957258D01*
X450382584Y-190965316D01*
X450359380Y-190971128D01*
X450335719Y-190974638D01*
X450311827Y-190975812D01*
X450287935Y-190974638D01*
X450264274Y-190971128D01*
X450241070Y-190965316D01*
X450218548Y-190957258D01*
X450196924Y-190947030D01*
X450176407Y-190934733D01*
X450157194Y-190920483D01*
X450139470Y-190904419D01*
X449794755Y-190559704D01*
X449778691Y-190541980D01*
X449764441Y-190522767D01*
X449752144Y-190502250D01*
X449741916Y-190480626D01*
X449733858Y-190458104D01*
X449728046Y-190434900D01*
X449724536Y-190411239D01*
X449723362Y-190387347D01*
X449724536Y-190363455D01*
X449728046Y-190339794D01*
X449733858Y-190316590D01*
X449741916Y-190294068D01*
X449752144Y-190272444D01*
X449764441Y-190251927D01*
X449778691Y-190232714D01*
X449794755Y-190214990D01*
X450439990Y-189569755D01*
X450457714Y-189553691D01*
X450476927Y-189539441D01*
X450497444Y-189527144D01*
X450519068Y-189516916D01*
X450541590Y-189508858D01*
X450564794Y-189503046D01*
X450588455Y-189499536D01*
X450612347Y-189498362D01*
X450636239Y-189499536D01*
X450636239Y-189499536D01*
G37*
D24*
X450462087Y-190237087D03*
D18*
G36*
X451962065Y-190825362D02*
G01*
X451985726Y-190828872D01*
X452008930Y-190834684D01*
X452031452Y-190842742D01*
X452053076Y-190852970D01*
X452073593Y-190865267D01*
X452092806Y-190879517D01*
X452110530Y-190895581D01*
X452455245Y-191240296D01*
X452471309Y-191258020D01*
X452485559Y-191277233D01*
X452497856Y-191297750D01*
X452508084Y-191319374D01*
X452516142Y-191341896D01*
X452521954Y-191365100D01*
X452525464Y-191388761D01*
X452526638Y-191412653D01*
X452525464Y-191436545D01*
X452521954Y-191460206D01*
X452516142Y-191483410D01*
X452508084Y-191505932D01*
X452497856Y-191527556D01*
X452485559Y-191548073D01*
X452471309Y-191567286D01*
X452455245Y-191585010D01*
X451810010Y-192230245D01*
X451792286Y-192246309D01*
X451773073Y-192260559D01*
X451752556Y-192272856D01*
X451730932Y-192283084D01*
X451708410Y-192291142D01*
X451685206Y-192296954D01*
X451661545Y-192300464D01*
X451637653Y-192301638D01*
X451613761Y-192300464D01*
X451590100Y-192296954D01*
X451566896Y-192291142D01*
X451544374Y-192283084D01*
X451522750Y-192272856D01*
X451502233Y-192260559D01*
X451483020Y-192246309D01*
X451465296Y-192230245D01*
X451120581Y-191885530D01*
X451104517Y-191867806D01*
X451090267Y-191848593D01*
X451077970Y-191828076D01*
X451067742Y-191806452D01*
X451059684Y-191783930D01*
X451053872Y-191760726D01*
X451050362Y-191737065D01*
X451049188Y-191713173D01*
X451050362Y-191689281D01*
X451053872Y-191665620D01*
X451059684Y-191642416D01*
X451067742Y-191619894D01*
X451077970Y-191598270D01*
X451090267Y-191577753D01*
X451104517Y-191558540D01*
X451120581Y-191540816D01*
X451765816Y-190895581D01*
X451783540Y-190879517D01*
X451802753Y-190865267D01*
X451823270Y-190852970D01*
X451844894Y-190842742D01*
X451867416Y-190834684D01*
X451890620Y-190828872D01*
X451914281Y-190825362D01*
X451938173Y-190824188D01*
X451962065Y-190825362D01*
X451962065Y-190825362D01*
G37*
D24*
X451787913Y-191562913D03*
D18*
G36*
X460117642Y-207901174D02*
G01*
X460141303Y-207904684D01*
X460164507Y-207910496D01*
X460187029Y-207918554D01*
X460208653Y-207928782D01*
X460229170Y-207941079D01*
X460248383Y-207955329D01*
X460266107Y-207971393D01*
X460282171Y-207989117D01*
X460296421Y-208008330D01*
X460308718Y-208028847D01*
X460318946Y-208050471D01*
X460327004Y-208072993D01*
X460332816Y-208096197D01*
X460336326Y-208119858D01*
X460337500Y-208143750D01*
X460337500Y-209056250D01*
X460336326Y-209080142D01*
X460332816Y-209103803D01*
X460327004Y-209127007D01*
X460318946Y-209149529D01*
X460308718Y-209171153D01*
X460296421Y-209191670D01*
X460282171Y-209210883D01*
X460266107Y-209228607D01*
X460248383Y-209244671D01*
X460229170Y-209258921D01*
X460208653Y-209271218D01*
X460187029Y-209281446D01*
X460164507Y-209289504D01*
X460141303Y-209295316D01*
X460117642Y-209298826D01*
X460093750Y-209300000D01*
X459606250Y-209300000D01*
X459582358Y-209298826D01*
X459558697Y-209295316D01*
X459535493Y-209289504D01*
X459512971Y-209281446D01*
X459491347Y-209271218D01*
X459470830Y-209258921D01*
X459451617Y-209244671D01*
X459433893Y-209228607D01*
X459417829Y-209210883D01*
X459403579Y-209191670D01*
X459391282Y-209171153D01*
X459381054Y-209149529D01*
X459372996Y-209127007D01*
X459367184Y-209103803D01*
X459363674Y-209080142D01*
X459362500Y-209056250D01*
X459362500Y-208143750D01*
X459363674Y-208119858D01*
X459367184Y-208096197D01*
X459372996Y-208072993D01*
X459381054Y-208050471D01*
X459391282Y-208028847D01*
X459403579Y-208008330D01*
X459417829Y-207989117D01*
X459433893Y-207971393D01*
X459451617Y-207955329D01*
X459470830Y-207941079D01*
X459491347Y-207928782D01*
X459512971Y-207918554D01*
X459535493Y-207910496D01*
X459558697Y-207904684D01*
X459582358Y-207901174D01*
X459606250Y-207900000D01*
X460093750Y-207900000D01*
X460117642Y-207901174D01*
X460117642Y-207901174D01*
G37*
D24*
X459850000Y-208600000D03*
D18*
G36*
X458242642Y-207901174D02*
G01*
X458266303Y-207904684D01*
X458289507Y-207910496D01*
X458312029Y-207918554D01*
X458333653Y-207928782D01*
X458354170Y-207941079D01*
X458373383Y-207955329D01*
X458391107Y-207971393D01*
X458407171Y-207989117D01*
X458421421Y-208008330D01*
X458433718Y-208028847D01*
X458443946Y-208050471D01*
X458452004Y-208072993D01*
X458457816Y-208096197D01*
X458461326Y-208119858D01*
X458462500Y-208143750D01*
X458462500Y-209056250D01*
X458461326Y-209080142D01*
X458457816Y-209103803D01*
X458452004Y-209127007D01*
X458443946Y-209149529D01*
X458433718Y-209171153D01*
X458421421Y-209191670D01*
X458407171Y-209210883D01*
X458391107Y-209228607D01*
X458373383Y-209244671D01*
X458354170Y-209258921D01*
X458333653Y-209271218D01*
X458312029Y-209281446D01*
X458289507Y-209289504D01*
X458266303Y-209295316D01*
X458242642Y-209298826D01*
X458218750Y-209300000D01*
X457731250Y-209300000D01*
X457707358Y-209298826D01*
X457683697Y-209295316D01*
X457660493Y-209289504D01*
X457637971Y-209281446D01*
X457616347Y-209271218D01*
X457595830Y-209258921D01*
X457576617Y-209244671D01*
X457558893Y-209228607D01*
X457542829Y-209210883D01*
X457528579Y-209191670D01*
X457516282Y-209171153D01*
X457506054Y-209149529D01*
X457497996Y-209127007D01*
X457492184Y-209103803D01*
X457488674Y-209080142D01*
X457487500Y-209056250D01*
X457487500Y-208143750D01*
X457488674Y-208119858D01*
X457492184Y-208096197D01*
X457497996Y-208072993D01*
X457506054Y-208050471D01*
X457516282Y-208028847D01*
X457528579Y-208008330D01*
X457542829Y-207989117D01*
X457558893Y-207971393D01*
X457576617Y-207955329D01*
X457595830Y-207941079D01*
X457616347Y-207928782D01*
X457637971Y-207918554D01*
X457660493Y-207910496D01*
X457683697Y-207904684D01*
X457707358Y-207901174D01*
X457731250Y-207900000D01*
X458218750Y-207900000D01*
X458242642Y-207901174D01*
X458242642Y-207901174D01*
G37*
D24*
X457975000Y-208600000D03*
D18*
G36*
X440586545Y-197649536D02*
G01*
X440610206Y-197653046D01*
X440633410Y-197658858D01*
X440655932Y-197666916D01*
X440677556Y-197677144D01*
X440698073Y-197689441D01*
X440717286Y-197703691D01*
X440735010Y-197719755D01*
X441380245Y-198364990D01*
X441396309Y-198382714D01*
X441410559Y-198401927D01*
X441422856Y-198422444D01*
X441433084Y-198444068D01*
X441441142Y-198466590D01*
X441446954Y-198489794D01*
X441450464Y-198513455D01*
X441451638Y-198537347D01*
X441450464Y-198561239D01*
X441446954Y-198584900D01*
X441441142Y-198608104D01*
X441433084Y-198630626D01*
X441422856Y-198652250D01*
X441410559Y-198672767D01*
X441396309Y-198691980D01*
X441380245Y-198709704D01*
X441035530Y-199054419D01*
X441017806Y-199070483D01*
X440998593Y-199084733D01*
X440978076Y-199097030D01*
X440956452Y-199107258D01*
X440933930Y-199115316D01*
X440910726Y-199121128D01*
X440887065Y-199124638D01*
X440863173Y-199125812D01*
X440839281Y-199124638D01*
X440815620Y-199121128D01*
X440792416Y-199115316D01*
X440769894Y-199107258D01*
X440748270Y-199097030D01*
X440727753Y-199084733D01*
X440708540Y-199070483D01*
X440690816Y-199054419D01*
X440045581Y-198409184D01*
X440029517Y-198391460D01*
X440015267Y-198372247D01*
X440002970Y-198351730D01*
X439992742Y-198330106D01*
X439984684Y-198307584D01*
X439978872Y-198284380D01*
X439975362Y-198260719D01*
X439974188Y-198236827D01*
X439975362Y-198212935D01*
X439978872Y-198189274D01*
X439984684Y-198166070D01*
X439992742Y-198143548D01*
X440002970Y-198121924D01*
X440015267Y-198101407D01*
X440029517Y-198082194D01*
X440045581Y-198064470D01*
X440390296Y-197719755D01*
X440408020Y-197703691D01*
X440427233Y-197689441D01*
X440447750Y-197677144D01*
X440469374Y-197666916D01*
X440491896Y-197658858D01*
X440515100Y-197653046D01*
X440538761Y-197649536D01*
X440562653Y-197648362D01*
X440586545Y-197649536D01*
X440586545Y-197649536D01*
G37*
D24*
X440712913Y-198387087D03*
D18*
G36*
X439260719Y-198975362D02*
G01*
X439284380Y-198978872D01*
X439307584Y-198984684D01*
X439330106Y-198992742D01*
X439351730Y-199002970D01*
X439372247Y-199015267D01*
X439391460Y-199029517D01*
X439409184Y-199045581D01*
X440054419Y-199690816D01*
X440070483Y-199708540D01*
X440084733Y-199727753D01*
X440097030Y-199748270D01*
X440107258Y-199769894D01*
X440115316Y-199792416D01*
X440121128Y-199815620D01*
X440124638Y-199839281D01*
X440125812Y-199863173D01*
X440124638Y-199887065D01*
X440121128Y-199910726D01*
X440115316Y-199933930D01*
X440107258Y-199956452D01*
X440097030Y-199978076D01*
X440084733Y-199998593D01*
X440070483Y-200017806D01*
X440054419Y-200035530D01*
X439709704Y-200380245D01*
X439691980Y-200396309D01*
X439672767Y-200410559D01*
X439652250Y-200422856D01*
X439630626Y-200433084D01*
X439608104Y-200441142D01*
X439584900Y-200446954D01*
X439561239Y-200450464D01*
X439537347Y-200451638D01*
X439513455Y-200450464D01*
X439489794Y-200446954D01*
X439466590Y-200441142D01*
X439444068Y-200433084D01*
X439422444Y-200422856D01*
X439401927Y-200410559D01*
X439382714Y-200396309D01*
X439364990Y-200380245D01*
X438719755Y-199735010D01*
X438703691Y-199717286D01*
X438689441Y-199698073D01*
X438677144Y-199677556D01*
X438666916Y-199655932D01*
X438658858Y-199633410D01*
X438653046Y-199610206D01*
X438649536Y-199586545D01*
X438648362Y-199562653D01*
X438649536Y-199538761D01*
X438653046Y-199515100D01*
X438658858Y-199491896D01*
X438666916Y-199469374D01*
X438677144Y-199447750D01*
X438689441Y-199427233D01*
X438703691Y-199408020D01*
X438719755Y-199390296D01*
X439064470Y-199045581D01*
X439082194Y-199029517D01*
X439101407Y-199015267D01*
X439121924Y-199002970D01*
X439143548Y-198992742D01*
X439166070Y-198984684D01*
X439189274Y-198978872D01*
X439212935Y-198975362D01*
X439236827Y-198974188D01*
X439260719Y-198975362D01*
X439260719Y-198975362D01*
G37*
D24*
X439387087Y-199712913D03*
D18*
G36*
X457837065Y-196025362D02*
G01*
X457860726Y-196028872D01*
X457883930Y-196034684D01*
X457906452Y-196042742D01*
X457928076Y-196052970D01*
X457948593Y-196065267D01*
X457967806Y-196079517D01*
X457985530Y-196095581D01*
X458330245Y-196440296D01*
X458346309Y-196458020D01*
X458360559Y-196477233D01*
X458372856Y-196497750D01*
X458383084Y-196519374D01*
X458391142Y-196541896D01*
X458396954Y-196565100D01*
X458400464Y-196588761D01*
X458401638Y-196612653D01*
X458400464Y-196636545D01*
X458396954Y-196660206D01*
X458391142Y-196683410D01*
X458383084Y-196705932D01*
X458372856Y-196727556D01*
X458360559Y-196748073D01*
X458346309Y-196767286D01*
X458330245Y-196785010D01*
X457685010Y-197430245D01*
X457667286Y-197446309D01*
X457648073Y-197460559D01*
X457627556Y-197472856D01*
X457605932Y-197483084D01*
X457583410Y-197491142D01*
X457560206Y-197496954D01*
X457536545Y-197500464D01*
X457512653Y-197501638D01*
X457488761Y-197500464D01*
X457465100Y-197496954D01*
X457441896Y-197491142D01*
X457419374Y-197483084D01*
X457397750Y-197472856D01*
X457377233Y-197460559D01*
X457358020Y-197446309D01*
X457340296Y-197430245D01*
X456995581Y-197085530D01*
X456979517Y-197067806D01*
X456965267Y-197048593D01*
X456952970Y-197028076D01*
X456942742Y-197006452D01*
X456934684Y-196983930D01*
X456928872Y-196960726D01*
X456925362Y-196937065D01*
X456924188Y-196913173D01*
X456925362Y-196889281D01*
X456928872Y-196865620D01*
X456934684Y-196842416D01*
X456942742Y-196819894D01*
X456952970Y-196798270D01*
X456965267Y-196777753D01*
X456979517Y-196758540D01*
X456995581Y-196740816D01*
X457640816Y-196095581D01*
X457658540Y-196079517D01*
X457677753Y-196065267D01*
X457698270Y-196052970D01*
X457719894Y-196042742D01*
X457742416Y-196034684D01*
X457765620Y-196028872D01*
X457789281Y-196025362D01*
X457813173Y-196024188D01*
X457837065Y-196025362D01*
X457837065Y-196025362D01*
G37*
D24*
X457662913Y-196762913D03*
D18*
G36*
X456511239Y-194699536D02*
G01*
X456534900Y-194703046D01*
X456558104Y-194708858D01*
X456580626Y-194716916D01*
X456602250Y-194727144D01*
X456622767Y-194739441D01*
X456641980Y-194753691D01*
X456659704Y-194769755D01*
X457004419Y-195114470D01*
X457020483Y-195132194D01*
X457034733Y-195151407D01*
X457047030Y-195171924D01*
X457057258Y-195193548D01*
X457065316Y-195216070D01*
X457071128Y-195239274D01*
X457074638Y-195262935D01*
X457075812Y-195286827D01*
X457074638Y-195310719D01*
X457071128Y-195334380D01*
X457065316Y-195357584D01*
X457057258Y-195380106D01*
X457047030Y-195401730D01*
X457034733Y-195422247D01*
X457020483Y-195441460D01*
X457004419Y-195459184D01*
X456359184Y-196104419D01*
X456341460Y-196120483D01*
X456322247Y-196134733D01*
X456301730Y-196147030D01*
X456280106Y-196157258D01*
X456257584Y-196165316D01*
X456234380Y-196171128D01*
X456210719Y-196174638D01*
X456186827Y-196175812D01*
X456162935Y-196174638D01*
X456139274Y-196171128D01*
X456116070Y-196165316D01*
X456093548Y-196157258D01*
X456071924Y-196147030D01*
X456051407Y-196134733D01*
X456032194Y-196120483D01*
X456014470Y-196104419D01*
X455669755Y-195759704D01*
X455653691Y-195741980D01*
X455639441Y-195722767D01*
X455627144Y-195702250D01*
X455616916Y-195680626D01*
X455608858Y-195658104D01*
X455603046Y-195634900D01*
X455599536Y-195611239D01*
X455598362Y-195587347D01*
X455599536Y-195563455D01*
X455603046Y-195539794D01*
X455608858Y-195516590D01*
X455616916Y-195494068D01*
X455627144Y-195472444D01*
X455639441Y-195451927D01*
X455653691Y-195432714D01*
X455669755Y-195414990D01*
X456314990Y-194769755D01*
X456332714Y-194753691D01*
X456351927Y-194739441D01*
X456372444Y-194727144D01*
X456394068Y-194716916D01*
X456416590Y-194708858D01*
X456439794Y-194703046D01*
X456463455Y-194699536D01*
X456487347Y-194698362D01*
X456511239Y-194699536D01*
X456511239Y-194699536D01*
G37*
D24*
X456337087Y-195437087D03*
D18*
G36*
X455198739Y-209024536D02*
G01*
X455222400Y-209028046D01*
X455245604Y-209033858D01*
X455268126Y-209041916D01*
X455289750Y-209052144D01*
X455310267Y-209064441D01*
X455329480Y-209078691D01*
X455347204Y-209094755D01*
X455691919Y-209439470D01*
X455707983Y-209457194D01*
X455722233Y-209476407D01*
X455734530Y-209496924D01*
X455744758Y-209518548D01*
X455752816Y-209541070D01*
X455758628Y-209564274D01*
X455762138Y-209587935D01*
X455763312Y-209611827D01*
X455762138Y-209635719D01*
X455758628Y-209659380D01*
X455752816Y-209682584D01*
X455744758Y-209705106D01*
X455734530Y-209726730D01*
X455722233Y-209747247D01*
X455707983Y-209766460D01*
X455691919Y-209784184D01*
X455046684Y-210429419D01*
X455028960Y-210445483D01*
X455009747Y-210459733D01*
X454989230Y-210472030D01*
X454967606Y-210482258D01*
X454945084Y-210490316D01*
X454921880Y-210496128D01*
X454898219Y-210499638D01*
X454874327Y-210500812D01*
X454850435Y-210499638D01*
X454826774Y-210496128D01*
X454803570Y-210490316D01*
X454781048Y-210482258D01*
X454759424Y-210472030D01*
X454738907Y-210459733D01*
X454719694Y-210445483D01*
X454701970Y-210429419D01*
X454357255Y-210084704D01*
X454341191Y-210066980D01*
X454326941Y-210047767D01*
X454314644Y-210027250D01*
X454304416Y-210005626D01*
X454296358Y-209983104D01*
X454290546Y-209959900D01*
X454287036Y-209936239D01*
X454285862Y-209912347D01*
X454287036Y-209888455D01*
X454290546Y-209864794D01*
X454296358Y-209841590D01*
X454304416Y-209819068D01*
X454314644Y-209797444D01*
X454326941Y-209776927D01*
X454341191Y-209757714D01*
X454357255Y-209739990D01*
X455002490Y-209094755D01*
X455020214Y-209078691D01*
X455039427Y-209064441D01*
X455059944Y-209052144D01*
X455081568Y-209041916D01*
X455104090Y-209033858D01*
X455127294Y-209028046D01*
X455150955Y-209024536D01*
X455174847Y-209023362D01*
X455198739Y-209024536D01*
X455198739Y-209024536D01*
G37*
D24*
X455024587Y-209762087D03*
D18*
G36*
X456524565Y-210350362D02*
G01*
X456548226Y-210353872D01*
X456571430Y-210359684D01*
X456593952Y-210367742D01*
X456615576Y-210377970D01*
X456636093Y-210390267D01*
X456655306Y-210404517D01*
X456673030Y-210420581D01*
X457017745Y-210765296D01*
X457033809Y-210783020D01*
X457048059Y-210802233D01*
X457060356Y-210822750D01*
X457070584Y-210844374D01*
X457078642Y-210866896D01*
X457084454Y-210890100D01*
X457087964Y-210913761D01*
X457089138Y-210937653D01*
X457087964Y-210961545D01*
X457084454Y-210985206D01*
X457078642Y-211008410D01*
X457070584Y-211030932D01*
X457060356Y-211052556D01*
X457048059Y-211073073D01*
X457033809Y-211092286D01*
X457017745Y-211110010D01*
X456372510Y-211755245D01*
X456354786Y-211771309D01*
X456335573Y-211785559D01*
X456315056Y-211797856D01*
X456293432Y-211808084D01*
X456270910Y-211816142D01*
X456247706Y-211821954D01*
X456224045Y-211825464D01*
X456200153Y-211826638D01*
X456176261Y-211825464D01*
X456152600Y-211821954D01*
X456129396Y-211816142D01*
X456106874Y-211808084D01*
X456085250Y-211797856D01*
X456064733Y-211785559D01*
X456045520Y-211771309D01*
X456027796Y-211755245D01*
X455683081Y-211410530D01*
X455667017Y-211392806D01*
X455652767Y-211373593D01*
X455640470Y-211353076D01*
X455630242Y-211331452D01*
X455622184Y-211308930D01*
X455616372Y-211285726D01*
X455612862Y-211262065D01*
X455611688Y-211238173D01*
X455612862Y-211214281D01*
X455616372Y-211190620D01*
X455622184Y-211167416D01*
X455630242Y-211144894D01*
X455640470Y-211123270D01*
X455652767Y-211102753D01*
X455667017Y-211083540D01*
X455683081Y-211065816D01*
X456328316Y-210420581D01*
X456346040Y-210404517D01*
X456365253Y-210390267D01*
X456385770Y-210377970D01*
X456407394Y-210367742D01*
X456429916Y-210359684D01*
X456453120Y-210353872D01*
X456476781Y-210350362D01*
X456500673Y-210349188D01*
X456524565Y-210350362D01*
X456524565Y-210350362D01*
G37*
D24*
X456350413Y-211087913D03*
D18*
G36*
X452112478Y-214788275D02*
G01*
X452136139Y-214791785D01*
X452159343Y-214797597D01*
X452181865Y-214805655D01*
X452203489Y-214815883D01*
X452224006Y-214828180D01*
X452243219Y-214842430D01*
X452260943Y-214858494D01*
X452605658Y-215203209D01*
X452621722Y-215220933D01*
X452635972Y-215240146D01*
X452648269Y-215260663D01*
X452658497Y-215282287D01*
X452666555Y-215304809D01*
X452672367Y-215328013D01*
X452675877Y-215351674D01*
X452677051Y-215375566D01*
X452675877Y-215399458D01*
X452672367Y-215423119D01*
X452666555Y-215446323D01*
X452658497Y-215468845D01*
X452648269Y-215490469D01*
X452635972Y-215510986D01*
X452621722Y-215530199D01*
X452605658Y-215547923D01*
X451960423Y-216193158D01*
X451942699Y-216209222D01*
X451923486Y-216223472D01*
X451902969Y-216235769D01*
X451881345Y-216245997D01*
X451858823Y-216254055D01*
X451835619Y-216259867D01*
X451811958Y-216263377D01*
X451788066Y-216264551D01*
X451764174Y-216263377D01*
X451740513Y-216259867D01*
X451717309Y-216254055D01*
X451694787Y-216245997D01*
X451673163Y-216235769D01*
X451652646Y-216223472D01*
X451633433Y-216209222D01*
X451615709Y-216193158D01*
X451270994Y-215848443D01*
X451254930Y-215830719D01*
X451240680Y-215811506D01*
X451228383Y-215790989D01*
X451218155Y-215769365D01*
X451210097Y-215746843D01*
X451204285Y-215723639D01*
X451200775Y-215699978D01*
X451199601Y-215676086D01*
X451200775Y-215652194D01*
X451204285Y-215628533D01*
X451210097Y-215605329D01*
X451218155Y-215582807D01*
X451228383Y-215561183D01*
X451240680Y-215540666D01*
X451254930Y-215521453D01*
X451270994Y-215503729D01*
X451916229Y-214858494D01*
X451933953Y-214842430D01*
X451953166Y-214828180D01*
X451973683Y-214815883D01*
X451995307Y-214805655D01*
X452017829Y-214797597D01*
X452041033Y-214791785D01*
X452064694Y-214788275D01*
X452088586Y-214787101D01*
X452112478Y-214788275D01*
X452112478Y-214788275D01*
G37*
D24*
X451938326Y-215525826D03*
D18*
G36*
X450786652Y-213462449D02*
G01*
X450810313Y-213465959D01*
X450833517Y-213471771D01*
X450856039Y-213479829D01*
X450877663Y-213490057D01*
X450898180Y-213502354D01*
X450917393Y-213516604D01*
X450935117Y-213532668D01*
X451279832Y-213877383D01*
X451295896Y-213895107D01*
X451310146Y-213914320D01*
X451322443Y-213934837D01*
X451332671Y-213956461D01*
X451340729Y-213978983D01*
X451346541Y-214002187D01*
X451350051Y-214025848D01*
X451351225Y-214049740D01*
X451350051Y-214073632D01*
X451346541Y-214097293D01*
X451340729Y-214120497D01*
X451332671Y-214143019D01*
X451322443Y-214164643D01*
X451310146Y-214185160D01*
X451295896Y-214204373D01*
X451279832Y-214222097D01*
X450634597Y-214867332D01*
X450616873Y-214883396D01*
X450597660Y-214897646D01*
X450577143Y-214909943D01*
X450555519Y-214920171D01*
X450532997Y-214928229D01*
X450509793Y-214934041D01*
X450486132Y-214937551D01*
X450462240Y-214938725D01*
X450438348Y-214937551D01*
X450414687Y-214934041D01*
X450391483Y-214928229D01*
X450368961Y-214920171D01*
X450347337Y-214909943D01*
X450326820Y-214897646D01*
X450307607Y-214883396D01*
X450289883Y-214867332D01*
X449945168Y-214522617D01*
X449929104Y-214504893D01*
X449914854Y-214485680D01*
X449902557Y-214465163D01*
X449892329Y-214443539D01*
X449884271Y-214421017D01*
X449878459Y-214397813D01*
X449874949Y-214374152D01*
X449873775Y-214350260D01*
X449874949Y-214326368D01*
X449878459Y-214302707D01*
X449884271Y-214279503D01*
X449892329Y-214256981D01*
X449902557Y-214235357D01*
X449914854Y-214214840D01*
X449929104Y-214195627D01*
X449945168Y-214177903D01*
X450590403Y-213532668D01*
X450608127Y-213516604D01*
X450627340Y-213502354D01*
X450647857Y-213490057D01*
X450669481Y-213479829D01*
X450692003Y-213471771D01*
X450715207Y-213465959D01*
X450738868Y-213462449D01*
X450762760Y-213461275D01*
X450786652Y-213462449D01*
X450786652Y-213462449D01*
G37*
D24*
X450612500Y-214200000D03*
D26*
X471520000Y-164472000D03*
D27*
X469020000Y-164472000D03*
X466520000Y-164472000D03*
D28*
X474620000Y-171972000D03*
X463420000Y-171972000D03*
D27*
X471520000Y-178972000D03*
X466520000Y-178972000D03*
D11*
X428625000Y-166878000D03*
D12*
X426085000Y-171958000D03*
D11*
X422275000Y-169418000D03*
D13*
X421005000Y-171958000D03*
X431165000Y-171958000D03*
D14*
X414178750Y-164973000D03*
X437991250Y-164973000D03*
D12*
X414178750Y-180213000D03*
X437991250Y-180213000D03*
D11*
X288163000Y-243078000D03*
D12*
X285623000Y-248158000D03*
D11*
X281813000Y-245618000D03*
D13*
X280543000Y-248158000D03*
X290703000Y-248158000D03*
D14*
X235623100Y-241173000D03*
X335622900Y-241173000D03*
D12*
X235623100Y-256413000D03*
X335622900Y-256413000D03*
D11*
X178610000Y-204922000D03*
D12*
X176070000Y-210002000D03*
D11*
X172260000Y-207462000D03*
D13*
X170990000Y-210002000D03*
X181150000Y-210002000D03*
D11*
X414337500Y-223977000D03*
D12*
X411797500Y-229057000D03*
D11*
X407987500Y-226517000D03*
D13*
X406717500Y-229057000D03*
X416877500Y-229057000D03*
D14*
X399891250Y-222072000D03*
X423703750Y-222072000D03*
D12*
X399891250Y-237312000D03*
X423703750Y-237312000D03*
D11*
X466725000Y-247789500D03*
D12*
X464185000Y-252869500D03*
D11*
X460375000Y-250329500D03*
D13*
X459105000Y-252869500D03*
X469265000Y-252869500D03*
D11*
X447675000Y-247789500D03*
D12*
X445135000Y-252869500D03*
D11*
X441325000Y-250329500D03*
D13*
X440055000Y-252869500D03*
X450215000Y-252869500D03*
D11*
X428625000Y-247789500D03*
D12*
X426085000Y-252869500D03*
D11*
X422275000Y-250329500D03*
D13*
X421005000Y-252869500D03*
X431165000Y-252869500D03*
D11*
X402431250Y-243027000D03*
D12*
X399891250Y-248107000D03*
D11*
X396081250Y-245567000D03*
D13*
X394811250Y-248107000D03*
X404971250Y-248107000D03*
D11*
X359568750Y-243027000D03*
D12*
X357028750Y-248107000D03*
D11*
X353218750Y-245567000D03*
D13*
X351948750Y-248107000D03*
X362108750Y-248107000D03*
D11*
X326231250Y-243027000D03*
D12*
X323691250Y-248107000D03*
D11*
X319881250Y-245567000D03*
D13*
X318611250Y-248107000D03*
X328771250Y-248107000D03*
D14*
X311785000Y-241122000D03*
X335597500Y-241122000D03*
D12*
X311785000Y-256362000D03*
X335597500Y-256362000D03*
D11*
X292893750Y-243027000D03*
D12*
X290353750Y-248107000D03*
D11*
X286543750Y-245567000D03*
D13*
X285273750Y-248107000D03*
X295433750Y-248107000D03*
D11*
X254793750Y-243027000D03*
D12*
X252253750Y-248107000D03*
D11*
X248443750Y-245567000D03*
D13*
X247173750Y-248107000D03*
X257333750Y-248107000D03*
D14*
X240347500Y-241122000D03*
X264160000Y-241122000D03*
D12*
X240347500Y-256362000D03*
X264160000Y-256362000D03*
D11*
X216693750Y-243027000D03*
D12*
X214153750Y-248107000D03*
D11*
X210343750Y-245567000D03*
D13*
X209073750Y-248107000D03*
X219233750Y-248107000D03*
D11*
X173831250Y-243027000D03*
D12*
X171291250Y-248107000D03*
D11*
X167481250Y-245567000D03*
D13*
X166211250Y-248107000D03*
X176371250Y-248107000D03*
D11*
X142875000Y-243027000D03*
D12*
X140335000Y-248107000D03*
D11*
X136525000Y-245567000D03*
D13*
X135255000Y-248107000D03*
X145415000Y-248107000D03*
D11*
X123825000Y-243027000D03*
D12*
X121285000Y-248107000D03*
D11*
X117475000Y-245567000D03*
D13*
X116205000Y-248107000D03*
X126365000Y-248107000D03*
D11*
X447675000Y-228739500D03*
D12*
X445135000Y-233819500D03*
D11*
X441325000Y-231279500D03*
D13*
X440055000Y-233819500D03*
X450215000Y-233819500D03*
D11*
X471487500Y-223977000D03*
D12*
X468947500Y-229057000D03*
D11*
X465137500Y-226517000D03*
D13*
X463867500Y-229057000D03*
X474027500Y-229057000D03*
D11*
X385762500Y-223977000D03*
D12*
X383222500Y-229057000D03*
D11*
X379412500Y-226517000D03*
D13*
X378142500Y-229057000D03*
X388302500Y-229057000D03*
D11*
X366712500Y-223977000D03*
D12*
X364172500Y-229057000D03*
D11*
X360362500Y-226517000D03*
D13*
X359092500Y-229057000D03*
X369252500Y-229057000D03*
D11*
X347662500Y-223977000D03*
D12*
X345122500Y-229057000D03*
D11*
X341312500Y-226517000D03*
D13*
X340042500Y-229057000D03*
X350202500Y-229057000D03*
D11*
X328612500Y-223977000D03*
D12*
X326072500Y-229057000D03*
D11*
X322262500Y-226517000D03*
D13*
X320992500Y-229057000D03*
X331152500Y-229057000D03*
D11*
X309562500Y-223977000D03*
D12*
X307022500Y-229057000D03*
D11*
X303212500Y-226517000D03*
D13*
X301942500Y-229057000D03*
X312102500Y-229057000D03*
D11*
X290512500Y-223977000D03*
D12*
X287972500Y-229057000D03*
D11*
X284162500Y-226517000D03*
D13*
X282892500Y-229057000D03*
X293052500Y-229057000D03*
D11*
X271462500Y-223977000D03*
D12*
X268922500Y-229057000D03*
D11*
X265112500Y-226517000D03*
D13*
X263842500Y-229057000D03*
X274002500Y-229057000D03*
D11*
X252412500Y-223977000D03*
D12*
X249872500Y-229057000D03*
D11*
X246062500Y-226517000D03*
D13*
X244792500Y-229057000D03*
X254952500Y-229057000D03*
D11*
X233362500Y-223977000D03*
D12*
X230822500Y-229057000D03*
D11*
X227012500Y-226517000D03*
D13*
X225742500Y-229057000D03*
X235902500Y-229057000D03*
D11*
X214312500Y-223977000D03*
D12*
X211772500Y-229057000D03*
D11*
X207962500Y-226517000D03*
D13*
X206692500Y-229057000D03*
X216852500Y-229057000D03*
D11*
X183356250Y-223977000D03*
D12*
X180816250Y-229057000D03*
D11*
X177006250Y-226517000D03*
D13*
X175736250Y-229057000D03*
X185896250Y-229057000D03*
D14*
X168910000Y-222072000D03*
X192722500Y-222072000D03*
D12*
X168910000Y-237312000D03*
X192722500Y-237312000D03*
D11*
X142875000Y-223977000D03*
D12*
X140335000Y-229057000D03*
D11*
X136525000Y-226517000D03*
D13*
X135255000Y-229057000D03*
X145415000Y-229057000D03*
D11*
X123825000Y-223977000D03*
D12*
X121285000Y-229057000D03*
D11*
X117475000Y-226517000D03*
D13*
X116205000Y-229057000D03*
X126365000Y-229057000D03*
D11*
X471487500Y-204927000D03*
D12*
X468947500Y-210007000D03*
D11*
X465137500Y-207467000D03*
D13*
X463867500Y-210007000D03*
X474027500Y-210007000D03*
D11*
X395287500Y-204927000D03*
D12*
X392747500Y-210007000D03*
D11*
X388937500Y-207467000D03*
D13*
X387667500Y-210007000D03*
X397827500Y-210007000D03*
D11*
X376237500Y-204927000D03*
D12*
X373697500Y-210007000D03*
D11*
X369887500Y-207467000D03*
D13*
X368617500Y-210007000D03*
X378777500Y-210007000D03*
D11*
X357187500Y-204927000D03*
D12*
X354647500Y-210007000D03*
D11*
X350837500Y-207467000D03*
D13*
X349567500Y-210007000D03*
X359727500Y-210007000D03*
D11*
X338137500Y-204927000D03*
D12*
X335597500Y-210007000D03*
D11*
X331787500Y-207467000D03*
D13*
X330517500Y-210007000D03*
X340677500Y-210007000D03*
D11*
X319087500Y-204927000D03*
D12*
X316547500Y-210007000D03*
D11*
X312737500Y-207467000D03*
D13*
X311467500Y-210007000D03*
X321627500Y-210007000D03*
D11*
X300037500Y-204927000D03*
D12*
X297497500Y-210007000D03*
D11*
X293687500Y-207467000D03*
D13*
X292417500Y-210007000D03*
X302577500Y-210007000D03*
D11*
X280987500Y-204927000D03*
D12*
X278447500Y-210007000D03*
D11*
X274637500Y-207467000D03*
D13*
X273367500Y-210007000D03*
X283527500Y-210007000D03*
D11*
X261937500Y-204927000D03*
D12*
X259397500Y-210007000D03*
D11*
X255587500Y-207467000D03*
D13*
X254317500Y-210007000D03*
X264477500Y-210007000D03*
D11*
X242887500Y-204927000D03*
D12*
X240347500Y-210007000D03*
D11*
X236537500Y-207467000D03*
D13*
X235267500Y-210007000D03*
X245427500Y-210007000D03*
D11*
X223837500Y-204927000D03*
D12*
X221297500Y-210007000D03*
D11*
X217487500Y-207467000D03*
D13*
X216217500Y-210007000D03*
X226377500Y-210007000D03*
D11*
X204787500Y-204927000D03*
D12*
X202247500Y-210007000D03*
D11*
X198437500Y-207467000D03*
D13*
X197167500Y-210007000D03*
X207327500Y-210007000D03*
D11*
X173831250Y-204927000D03*
D12*
X171291250Y-210007000D03*
D11*
X167481250Y-207467000D03*
D13*
X166211250Y-210007000D03*
X176371250Y-210007000D03*
D11*
X142875000Y-204927000D03*
D12*
X140335000Y-210007000D03*
D11*
X136525000Y-207467000D03*
D13*
X135255000Y-210007000D03*
X145415000Y-210007000D03*
D11*
X123825000Y-204927000D03*
D12*
X121285000Y-210007000D03*
D11*
X117475000Y-207467000D03*
D13*
X116205000Y-210007000D03*
X126365000Y-210007000D03*
D11*
X471487500Y-185877000D03*
D12*
X468947500Y-190957000D03*
D11*
X465137500Y-188417000D03*
D13*
X463867500Y-190957000D03*
X474027500Y-190957000D03*
D11*
X433387500Y-185877000D03*
D12*
X430847500Y-190957000D03*
D11*
X427037500Y-188417000D03*
D13*
X425767500Y-190957000D03*
X435927500Y-190957000D03*
D11*
X409575000Y-185877000D03*
D12*
X407035000Y-190957000D03*
D11*
X403225000Y-188417000D03*
D13*
X401955000Y-190957000D03*
X412115000Y-190957000D03*
D11*
X390525000Y-185877000D03*
D12*
X387985000Y-190957000D03*
D11*
X384175000Y-188417000D03*
D13*
X382905000Y-190957000D03*
X393065000Y-190957000D03*
D11*
X371475000Y-185877000D03*
D12*
X368935000Y-190957000D03*
D11*
X365125000Y-188417000D03*
D13*
X363855000Y-190957000D03*
X374015000Y-190957000D03*
D11*
X352425000Y-185877000D03*
D12*
X349885000Y-190957000D03*
D11*
X346075000Y-188417000D03*
D13*
X344805000Y-190957000D03*
X354965000Y-190957000D03*
D11*
X333375000Y-185877000D03*
D12*
X330835000Y-190957000D03*
D11*
X327025000Y-188417000D03*
D13*
X325755000Y-190957000D03*
X335915000Y-190957000D03*
D11*
X314325000Y-185877000D03*
D12*
X311785000Y-190957000D03*
D11*
X307975000Y-188417000D03*
D13*
X306705000Y-190957000D03*
X316865000Y-190957000D03*
D11*
X295275000Y-185877000D03*
D12*
X292735000Y-190957000D03*
D11*
X288925000Y-188417000D03*
D13*
X287655000Y-190957000D03*
X297815000Y-190957000D03*
D11*
X275475000Y-185877000D03*
D12*
X272935000Y-190957000D03*
D11*
X269125000Y-188417000D03*
D13*
X267855000Y-190957000D03*
X278015000Y-190957000D03*
D11*
X257175000Y-185877000D03*
D12*
X254635000Y-190957000D03*
D11*
X250825000Y-188417000D03*
D13*
X249555000Y-190957000D03*
X259715000Y-190957000D03*
D11*
X238125000Y-185877000D03*
D12*
X235585000Y-190957000D03*
D11*
X231775000Y-188417000D03*
D13*
X230505000Y-190957000D03*
X240665000Y-190957000D03*
D11*
X219075000Y-185877000D03*
D12*
X216535000Y-190957000D03*
D11*
X212725000Y-188417000D03*
D13*
X211455000Y-190957000D03*
X221615000Y-190957000D03*
D11*
X200025000Y-185877000D03*
D12*
X197485000Y-190957000D03*
D11*
X193675000Y-188417000D03*
D13*
X192405000Y-190957000D03*
X202565000Y-190957000D03*
D11*
X176212500Y-185877000D03*
D12*
X173672500Y-190957000D03*
D11*
X169862500Y-188417000D03*
D13*
X168592500Y-190957000D03*
X178752500Y-190957000D03*
D11*
X142875000Y-185877000D03*
D12*
X140335000Y-190957000D03*
D11*
X136525000Y-188417000D03*
D13*
X135255000Y-190957000D03*
X145415000Y-190957000D03*
D11*
X123825000Y-185877000D03*
D12*
X121285000Y-190957000D03*
D11*
X117475000Y-188417000D03*
D13*
X116205000Y-190957000D03*
X126365000Y-190957000D03*
D11*
X438150000Y-166827000D03*
D12*
X435610000Y-171907000D03*
D11*
X431800000Y-169367000D03*
D13*
X430530000Y-171907000D03*
X440690000Y-171907000D03*
D11*
X419100000Y-166827000D03*
D12*
X416560000Y-171907000D03*
D11*
X412750000Y-169367000D03*
D13*
X411480000Y-171907000D03*
X421640000Y-171907000D03*
D11*
X400050000Y-166827000D03*
D12*
X397510000Y-171907000D03*
D11*
X393700000Y-169367000D03*
D13*
X392430000Y-171907000D03*
X402590000Y-171907000D03*
D11*
X381000000Y-166827000D03*
D12*
X378460000Y-171907000D03*
D11*
X374650000Y-169367000D03*
D13*
X373380000Y-171907000D03*
X383540000Y-171907000D03*
D11*
X361950000Y-166827000D03*
D12*
X359410000Y-171907000D03*
D11*
X355600000Y-169367000D03*
D13*
X354330000Y-171907000D03*
X364490000Y-171907000D03*
D11*
X342900000Y-166827000D03*
D12*
X340360000Y-171907000D03*
D11*
X336550000Y-169367000D03*
D13*
X335280000Y-171907000D03*
X345440000Y-171907000D03*
D11*
X323850000Y-166827000D03*
D12*
X321310000Y-171907000D03*
D11*
X317500000Y-169367000D03*
D13*
X316230000Y-171907000D03*
X326390000Y-171907000D03*
D11*
X304800000Y-166827000D03*
D12*
X302260000Y-171907000D03*
D11*
X298450000Y-169367000D03*
D13*
X297180000Y-171907000D03*
X307340000Y-171907000D03*
D11*
X285750000Y-166827000D03*
D12*
X283210000Y-171907000D03*
D11*
X279400000Y-169367000D03*
D13*
X278130000Y-171907000D03*
X288290000Y-171907000D03*
D11*
X266700000Y-166827000D03*
D12*
X264160000Y-171907000D03*
D11*
X260350000Y-169367000D03*
D13*
X259080000Y-171907000D03*
X269240000Y-171907000D03*
D11*
X247650000Y-166827000D03*
D12*
X245110000Y-171907000D03*
D11*
X241300000Y-169367000D03*
D13*
X240030000Y-171907000D03*
X250190000Y-171907000D03*
D11*
X228600000Y-166827000D03*
D12*
X226060000Y-171907000D03*
D11*
X222250000Y-169367000D03*
D13*
X220980000Y-171907000D03*
X231140000Y-171907000D03*
D11*
X209550000Y-166827000D03*
D12*
X207010000Y-171907000D03*
D11*
X203200000Y-169367000D03*
D13*
X201930000Y-171907000D03*
X212090000Y-171907000D03*
D11*
X190500000Y-166827000D03*
D12*
X187960000Y-171907000D03*
D11*
X184150000Y-169367000D03*
D13*
X182880000Y-171907000D03*
X193040000Y-171907000D03*
D11*
X171450000Y-166827000D03*
D12*
X168910000Y-171907000D03*
D11*
X165100000Y-169367000D03*
D13*
X163830000Y-171907000D03*
X173990000Y-171907000D03*
D11*
X142875000Y-166827000D03*
D12*
X140335000Y-171907000D03*
D11*
X136525000Y-169367000D03*
D13*
X135255000Y-171907000D03*
X145415000Y-171907000D03*
D11*
X123825000Y-166827000D03*
D12*
X121285000Y-171907000D03*
D11*
X117475000Y-169367000D03*
D13*
X116205000Y-171907000D03*
X126365000Y-171907000D03*
M02*
