G04 #@! TF.GenerationSoftware,KiCad,Pcbnew,(5.1.4)-1*
G04 #@! TF.CreationDate,2020-03-16T10:49:11-07:00*
G04 #@! TF.ProjectId,frogdor,66726f67-646f-4722-9e6b-696361645f70,rev?*
G04 #@! TF.SameCoordinates,Original*
G04 #@! TF.FileFunction,Legend,Bot*
G04 #@! TF.FilePolarity,Positive*
%FSLAX46Y46*%
G04 Gerber Fmt 4.6, Leading zero omitted, Abs format (unit mm)*
G04 Created by KiCad (PCBNEW (5.1.4)-1) date 2020-03-16 10:49:11*
%MOMM*%
%LPD*%
G04 APERTURE LIST*
%ADD10C,0.300000*%
%ADD11C,0.120000*%
%ADD12C,0.150000*%
G04 APERTURE END LIST*
D10*
X324162952Y-202667904D02*
X324162952Y-197667904D01*
X323210571Y-197667904D01*
X322639142Y-197906000D01*
X322258190Y-198382190D01*
X322067714Y-198858380D01*
X321877238Y-199810761D01*
X321877238Y-200525047D01*
X322067714Y-201477428D01*
X322258190Y-201953619D01*
X322639142Y-202429809D01*
X323210571Y-202667904D01*
X324162952Y-202667904D01*
X319591523Y-202667904D02*
X319972476Y-202429809D01*
X320162952Y-202191714D01*
X320353428Y-201715523D01*
X320353428Y-200286952D01*
X320162952Y-199810761D01*
X319972476Y-199572666D01*
X319591523Y-199334571D01*
X319020095Y-199334571D01*
X318639142Y-199572666D01*
X318448666Y-199810761D01*
X318258190Y-200286952D01*
X318258190Y-201715523D01*
X318448666Y-202191714D01*
X318639142Y-202429809D01*
X319020095Y-202667904D01*
X319591523Y-202667904D01*
X316543904Y-199334571D02*
X316543904Y-202667904D01*
X316543904Y-199810761D02*
X316353428Y-199572666D01*
X315972476Y-199334571D01*
X315401047Y-199334571D01*
X315020095Y-199572666D01*
X314829619Y-200048857D01*
X314829619Y-202667904D01*
X312734380Y-197667904D02*
X313115333Y-198620285D01*
X311591523Y-199334571D02*
X310067714Y-199334571D01*
X311020095Y-197667904D02*
X311020095Y-201953619D01*
X310829619Y-202429809D01*
X310448666Y-202667904D01*
X310067714Y-202667904D01*
X305686761Y-202667904D02*
X305686761Y-199334571D01*
X305686761Y-199810761D02*
X305496285Y-199572666D01*
X305115333Y-199334571D01*
X304543904Y-199334571D01*
X304162952Y-199572666D01*
X303972476Y-200048857D01*
X303972476Y-202667904D01*
X303972476Y-200048857D02*
X303782000Y-199572666D01*
X303401047Y-199334571D01*
X302829619Y-199334571D01*
X302448666Y-199572666D01*
X302258190Y-200048857D01*
X302258190Y-202667904D01*
X298829619Y-202429809D02*
X299210571Y-202667904D01*
X299972476Y-202667904D01*
X300353428Y-202429809D01*
X300543904Y-201953619D01*
X300543904Y-200048857D01*
X300353428Y-199572666D01*
X299972476Y-199334571D01*
X299210571Y-199334571D01*
X298829619Y-199572666D01*
X298639142Y-200048857D01*
X298639142Y-200525047D01*
X300543904Y-201001238D01*
X297115333Y-202429809D02*
X296734380Y-202667904D01*
X295972476Y-202667904D01*
X295591523Y-202429809D01*
X295401047Y-201953619D01*
X295401047Y-201715523D01*
X295591523Y-201239333D01*
X295972476Y-201001238D01*
X296543904Y-201001238D01*
X296924857Y-200763142D01*
X297115333Y-200286952D01*
X297115333Y-200048857D01*
X296924857Y-199572666D01*
X296543904Y-199334571D01*
X295972476Y-199334571D01*
X295591523Y-199572666D01*
X293877238Y-202429809D02*
X293496285Y-202667904D01*
X292734380Y-202667904D01*
X292353428Y-202429809D01*
X292162952Y-201953619D01*
X292162952Y-201715523D01*
X292353428Y-201239333D01*
X292734380Y-201001238D01*
X293305809Y-201001238D01*
X293686761Y-200763142D01*
X293877238Y-200286952D01*
X293877238Y-200048857D01*
X293686761Y-199572666D01*
X293305809Y-199334571D01*
X292734380Y-199334571D01*
X292353428Y-199572666D01*
X287782000Y-199334571D02*
X287020095Y-202667904D01*
X286258190Y-200286952D01*
X285496285Y-202667904D01*
X284734380Y-199334571D01*
X283210571Y-202667904D02*
X283210571Y-199334571D01*
X283210571Y-197667904D02*
X283401047Y-197906000D01*
X283210571Y-198144095D01*
X283020095Y-197906000D01*
X283210571Y-197667904D01*
X283210571Y-198144095D01*
X281877238Y-199334571D02*
X280353428Y-199334571D01*
X281305809Y-197667904D02*
X281305809Y-201953619D01*
X281115333Y-202429809D01*
X280734380Y-202667904D01*
X280353428Y-202667904D01*
X279020095Y-202667904D02*
X279020095Y-197667904D01*
X277305809Y-202667904D02*
X277305809Y-200048857D01*
X277496285Y-199572666D01*
X277877238Y-199334571D01*
X278448666Y-199334571D01*
X278829619Y-199572666D01*
X279020095Y-199810761D01*
X271020095Y-200048857D02*
X272353428Y-200048857D01*
X272353428Y-202667904D02*
X272353428Y-197667904D01*
X270448666Y-197667904D01*
X268924857Y-202667904D02*
X268924857Y-199334571D01*
X268924857Y-200286952D02*
X268734380Y-199810761D01*
X268543904Y-199572666D01*
X268162952Y-199334571D01*
X267782000Y-199334571D01*
X265877238Y-202667904D02*
X266258190Y-202429809D01*
X266448666Y-202191714D01*
X266639142Y-201715523D01*
X266639142Y-200286952D01*
X266448666Y-199810761D01*
X266258190Y-199572666D01*
X265877238Y-199334571D01*
X265305809Y-199334571D01*
X264924857Y-199572666D01*
X264734380Y-199810761D01*
X264543904Y-200286952D01*
X264543904Y-201715523D01*
X264734380Y-202191714D01*
X264924857Y-202429809D01*
X265305809Y-202667904D01*
X265877238Y-202667904D01*
X261115333Y-199334571D02*
X261115333Y-203382190D01*
X261305809Y-203858380D01*
X261496285Y-204096476D01*
X261877238Y-204334571D01*
X262448666Y-204334571D01*
X262829619Y-204096476D01*
X261115333Y-202429809D02*
X261496285Y-202667904D01*
X262258190Y-202667904D01*
X262639142Y-202429809D01*
X262829619Y-202191714D01*
X263020095Y-201715523D01*
X263020095Y-200286952D01*
X262829619Y-199810761D01*
X262639142Y-199572666D01*
X262258190Y-199334571D01*
X261496285Y-199334571D01*
X261115333Y-199572666D01*
X257496285Y-202667904D02*
X257496285Y-197667904D01*
X257496285Y-202429809D02*
X257877238Y-202667904D01*
X258639142Y-202667904D01*
X259020095Y-202429809D01*
X259210571Y-202191714D01*
X259401047Y-201715523D01*
X259401047Y-200286952D01*
X259210571Y-199810761D01*
X259020095Y-199572666D01*
X258639142Y-199334571D01*
X257877238Y-199334571D01*
X257496285Y-199572666D01*
X255020095Y-202667904D02*
X255401047Y-202429809D01*
X255591523Y-202191714D01*
X255782000Y-201715523D01*
X255782000Y-200286952D01*
X255591523Y-199810761D01*
X255401047Y-199572666D01*
X255020095Y-199334571D01*
X254448666Y-199334571D01*
X254067714Y-199572666D01*
X253877238Y-199810761D01*
X253686761Y-200286952D01*
X253686761Y-201715523D01*
X253877238Y-202191714D01*
X254067714Y-202429809D01*
X254448666Y-202667904D01*
X255020095Y-202667904D01*
X251972476Y-202667904D02*
X251972476Y-199334571D01*
X251972476Y-200286952D02*
X251782000Y-199810761D01*
X251591523Y-199572666D01*
X251210571Y-199334571D01*
X250829619Y-199334571D01*
X145460904Y-258310142D02*
X145460904Y-260738714D01*
X145556142Y-261024428D01*
X145651380Y-261167285D01*
X145841857Y-261310142D01*
X146127571Y-261310142D01*
X146318047Y-261167285D01*
X145460904Y-260167285D02*
X145651380Y-260310142D01*
X146032333Y-260310142D01*
X146222809Y-260167285D01*
X146318047Y-260024428D01*
X146413285Y-259738714D01*
X146413285Y-258881571D01*
X146318047Y-258595857D01*
X146222809Y-258453000D01*
X146032333Y-258310142D01*
X145651380Y-258310142D01*
X145460904Y-258453000D01*
X144508523Y-260310142D02*
X144508523Y-258310142D01*
X144508523Y-257310142D02*
X144603761Y-257453000D01*
X144508523Y-257595857D01*
X144413285Y-257453000D01*
X144508523Y-257310142D01*
X144508523Y-257595857D01*
X143841857Y-258310142D02*
X143079952Y-258310142D01*
X143556142Y-257310142D02*
X143556142Y-259881571D01*
X143460904Y-260167285D01*
X143270428Y-260310142D01*
X143079952Y-260310142D01*
X142413285Y-260310142D02*
X142413285Y-257310142D01*
X141556142Y-260310142D02*
X141556142Y-258738714D01*
X141651380Y-258453000D01*
X141841857Y-258310142D01*
X142127571Y-258310142D01*
X142318047Y-258453000D01*
X142413285Y-258595857D01*
X139746619Y-258310142D02*
X139746619Y-260310142D01*
X140603761Y-258310142D02*
X140603761Y-259881571D01*
X140508523Y-260167285D01*
X140318047Y-260310142D01*
X140032333Y-260310142D01*
X139841857Y-260167285D01*
X139746619Y-260024428D01*
X138794238Y-260310142D02*
X138794238Y-257310142D01*
X138794238Y-258453000D02*
X138603761Y-258310142D01*
X138222809Y-258310142D01*
X138032333Y-258453000D01*
X137937095Y-258595857D01*
X137841857Y-258881571D01*
X137841857Y-259738714D01*
X137937095Y-260024428D01*
X138032333Y-260167285D01*
X138222809Y-260310142D01*
X138603761Y-260310142D01*
X138794238Y-260167285D01*
X136984714Y-260024428D02*
X136889476Y-260167285D01*
X136984714Y-260310142D01*
X137079952Y-260167285D01*
X136984714Y-260024428D01*
X136984714Y-260310142D01*
X135175190Y-260167285D02*
X135365666Y-260310142D01*
X135746619Y-260310142D01*
X135937095Y-260167285D01*
X136032333Y-260024428D01*
X136127571Y-259738714D01*
X136127571Y-258881571D01*
X136032333Y-258595857D01*
X135937095Y-258453000D01*
X135746619Y-258310142D01*
X135365666Y-258310142D01*
X135175190Y-258453000D01*
X134032333Y-260310142D02*
X134222809Y-260167285D01*
X134318047Y-260024428D01*
X134413285Y-259738714D01*
X134413285Y-258881571D01*
X134318047Y-258595857D01*
X134222809Y-258453000D01*
X134032333Y-258310142D01*
X133746619Y-258310142D01*
X133556142Y-258453000D01*
X133460904Y-258595857D01*
X133365666Y-258881571D01*
X133365666Y-259738714D01*
X133460904Y-260024428D01*
X133556142Y-260167285D01*
X133746619Y-260310142D01*
X134032333Y-260310142D01*
X132508523Y-260310142D02*
X132508523Y-258310142D01*
X132508523Y-258595857D02*
X132413285Y-258453000D01*
X132222809Y-258310142D01*
X131937095Y-258310142D01*
X131746619Y-258453000D01*
X131651380Y-258738714D01*
X131651380Y-260310142D01*
X131651380Y-258738714D02*
X131556142Y-258453000D01*
X131365666Y-258310142D01*
X131079952Y-258310142D01*
X130889476Y-258453000D01*
X130794238Y-258738714D01*
X130794238Y-260310142D01*
X128413285Y-257167285D02*
X130127571Y-261024428D01*
X127841857Y-260167285D02*
X127651380Y-260310142D01*
X127270428Y-260310142D01*
X127079952Y-260167285D01*
X126984714Y-259881571D01*
X126984714Y-259738714D01*
X127079952Y-259453000D01*
X127270428Y-259310142D01*
X127556142Y-259310142D01*
X127746619Y-259167285D01*
X127841857Y-258881571D01*
X127841857Y-258738714D01*
X127746619Y-258453000D01*
X127556142Y-258310142D01*
X127270428Y-258310142D01*
X127079952Y-258453000D01*
X126318047Y-258310142D02*
X125937095Y-260310142D01*
X125556142Y-258881571D01*
X125175190Y-260310142D01*
X124794238Y-258310142D01*
X124032333Y-260310142D02*
X124032333Y-258310142D01*
X124032333Y-257310142D02*
X124127571Y-257453000D01*
X124032333Y-257595857D01*
X123937095Y-257453000D01*
X124032333Y-257310142D01*
X124032333Y-257595857D01*
X123365666Y-258310142D02*
X122603761Y-258310142D01*
X123079952Y-260310142D02*
X123079952Y-257738714D01*
X122984714Y-257453000D01*
X122794238Y-257310142D01*
X122603761Y-257310142D01*
X122222809Y-258310142D02*
X121460904Y-258310142D01*
X121937095Y-257310142D02*
X121937095Y-259881571D01*
X121841857Y-260167285D01*
X121651380Y-260310142D01*
X121460904Y-260310142D01*
X120794238Y-260310142D02*
X120794238Y-258310142D01*
X120794238Y-258881571D02*
X120699000Y-258595857D01*
X120603761Y-258453000D01*
X120413285Y-258310142D01*
X120222809Y-258310142D01*
X118699000Y-260310142D02*
X118699000Y-258738714D01*
X118794238Y-258453000D01*
X118984714Y-258310142D01*
X119365666Y-258310142D01*
X119556142Y-258453000D01*
X118699000Y-260167285D02*
X118889476Y-260310142D01*
X119365666Y-260310142D01*
X119556142Y-260167285D01*
X119651380Y-259881571D01*
X119651380Y-259595857D01*
X119556142Y-259310142D01*
X119365666Y-259167285D01*
X118889476Y-259167285D01*
X118699000Y-259024428D01*
X117937095Y-260310142D02*
X116889476Y-258310142D01*
X117937095Y-258310142D02*
X116889476Y-260310142D01*
X167956142Y-163599857D02*
X168956142Y-163599857D01*
X168956142Y-166218904D02*
X168956142Y-161218904D01*
X167527571Y-161218904D01*
X166384714Y-166218904D02*
X166384714Y-162885571D01*
X166384714Y-163837952D02*
X166241857Y-163361761D01*
X166099000Y-163123666D01*
X165813285Y-162885571D01*
X165527571Y-162885571D01*
X164099000Y-166218904D02*
X164384714Y-165980809D01*
X164527571Y-165742714D01*
X164670428Y-165266523D01*
X164670428Y-163837952D01*
X164527571Y-163361761D01*
X164384714Y-163123666D01*
X164099000Y-162885571D01*
X163670428Y-162885571D01*
X163384714Y-163123666D01*
X163241857Y-163361761D01*
X163099000Y-163837952D01*
X163099000Y-165266523D01*
X163241857Y-165742714D01*
X163384714Y-165980809D01*
X163670428Y-166218904D01*
X164099000Y-166218904D01*
X160527571Y-162885571D02*
X160527571Y-166933190D01*
X160670428Y-167409380D01*
X160813285Y-167647476D01*
X161099000Y-167885571D01*
X161527571Y-167885571D01*
X161813285Y-167647476D01*
X160527571Y-165980809D02*
X160813285Y-166218904D01*
X161384714Y-166218904D01*
X161670428Y-165980809D01*
X161813285Y-165742714D01*
X161956142Y-165266523D01*
X161956142Y-163837952D01*
X161813285Y-163361761D01*
X161670428Y-163123666D01*
X161384714Y-162885571D01*
X160813285Y-162885571D01*
X160527571Y-163123666D01*
X157813285Y-166218904D02*
X157813285Y-161218904D01*
X157813285Y-165980809D02*
X158099000Y-166218904D01*
X158670428Y-166218904D01*
X158956142Y-165980809D01*
X159099000Y-165742714D01*
X159241857Y-165266523D01*
X159241857Y-163837952D01*
X159099000Y-163361761D01*
X158956142Y-163123666D01*
X158670428Y-162885571D01*
X158099000Y-162885571D01*
X157813285Y-163123666D01*
X155956142Y-166218904D02*
X156241857Y-165980809D01*
X156384714Y-165742714D01*
X156527571Y-165266523D01*
X156527571Y-163837952D01*
X156384714Y-163361761D01*
X156241857Y-163123666D01*
X155956142Y-162885571D01*
X155527571Y-162885571D01*
X155241857Y-163123666D01*
X155099000Y-163361761D01*
X154956142Y-163837952D01*
X154956142Y-165266523D01*
X155099000Y-165742714D01*
X155241857Y-165980809D01*
X155527571Y-166218904D01*
X155956142Y-166218904D01*
X153670428Y-166218904D02*
X153670428Y-162885571D01*
X153670428Y-163837952D02*
X153527571Y-163361761D01*
X153384714Y-163123666D01*
X153099000Y-162885571D01*
X152813285Y-162885571D01*
X149813285Y-161218904D02*
X147813285Y-161218904D01*
X149099000Y-166218904D01*
X146527571Y-166218904D02*
X145956142Y-166218904D01*
X145670428Y-165980809D01*
X145527571Y-165742714D01*
X145241857Y-165028428D01*
X145099000Y-164076047D01*
X145099000Y-162171285D01*
X145241857Y-161695095D01*
X145384714Y-161457000D01*
X145670428Y-161218904D01*
X146241857Y-161218904D01*
X146527571Y-161457000D01*
X146670428Y-161695095D01*
X146813285Y-162171285D01*
X146813285Y-163361761D01*
X146670428Y-163837952D01*
X146527571Y-164076047D01*
X146241857Y-164314142D01*
X145670428Y-164314142D01*
X145384714Y-164076047D01*
X145241857Y-163837952D01*
X145099000Y-163361761D01*
D11*
X396525000Y-231825000D02*
X396525000Y-227925000D01*
X394525000Y-231825000D02*
X394525000Y-227925000D01*
X396525000Y-231825000D02*
X394525000Y-231825000D01*
X457275000Y-255625000D02*
X457275000Y-251725000D01*
X455275000Y-255625000D02*
X455275000Y-251725000D01*
X457275000Y-255625000D02*
X455275000Y-255625000D01*
X454000000Y-255619500D02*
X454000000Y-251719500D01*
X452000000Y-255619500D02*
X452000000Y-251719500D01*
X454000000Y-255619500D02*
X452000000Y-255619500D01*
X414550000Y-250800000D02*
X414550000Y-246900000D01*
X412550000Y-250800000D02*
X412550000Y-246900000D01*
X414550000Y-250800000D02*
X412550000Y-250800000D01*
X411025000Y-250800000D02*
X411025000Y-246900000D01*
X409025000Y-250800000D02*
X409025000Y-246900000D01*
X411025000Y-250800000D02*
X409025000Y-250800000D01*
X348000000Y-250850000D02*
X348000000Y-246950000D01*
X346000000Y-250850000D02*
X346000000Y-246950000D01*
X348000000Y-250850000D02*
X346000000Y-250850000D01*
X344275000Y-250857000D02*
X344275000Y-246957000D01*
X342275000Y-250857000D02*
X342275000Y-246957000D01*
X344275000Y-250857000D02*
X342275000Y-250857000D01*
X277225000Y-250857000D02*
X277225000Y-246957000D01*
X275225000Y-250857000D02*
X275225000Y-246957000D01*
X277225000Y-250857000D02*
X275225000Y-250857000D01*
X274050000Y-250857000D02*
X274050000Y-246957000D01*
X272050000Y-250857000D02*
X272050000Y-246957000D01*
X274050000Y-250857000D02*
X272050000Y-250857000D01*
X198332600Y-250789000D02*
X198332600Y-246889000D01*
X196332600Y-250789000D02*
X196332600Y-246889000D01*
X198332600Y-250789000D02*
X196332600Y-250789000D01*
X195081400Y-250789000D02*
X195081400Y-246889000D01*
X193081400Y-250789000D02*
X193081400Y-246889000D01*
X195081400Y-250789000D02*
X193081400Y-250789000D01*
X133451600Y-250857000D02*
X133451600Y-246957000D01*
X131451600Y-250857000D02*
X131451600Y-246957000D01*
X133451600Y-250857000D02*
X131451600Y-250857000D01*
X130149600Y-250857000D02*
X130149600Y-246957000D01*
X128149600Y-250857000D02*
X128149600Y-246957000D01*
X130149600Y-250857000D02*
X128149600Y-250857000D01*
X454025000Y-236550000D02*
X454025000Y-232650000D01*
X452025000Y-236550000D02*
X452025000Y-232650000D01*
X454025000Y-236550000D02*
X452025000Y-236550000D01*
X457500000Y-236550000D02*
X457500000Y-232650000D01*
X455500000Y-236550000D02*
X455500000Y-232650000D01*
X457500000Y-236550000D02*
X455500000Y-236550000D01*
X393325000Y-231800000D02*
X393325000Y-227900000D01*
X391325000Y-231800000D02*
X391325000Y-227900000D01*
X393325000Y-231800000D02*
X391325000Y-231800000D01*
X357447500Y-231807000D02*
X357447500Y-227907000D01*
X355447500Y-231807000D02*
X355447500Y-227907000D01*
X357447500Y-231807000D02*
X355447500Y-231807000D01*
X353897500Y-231807000D02*
X353897500Y-227907000D01*
X351897500Y-231807000D02*
X351897500Y-227907000D01*
X353897500Y-231807000D02*
X351897500Y-231807000D01*
X319347500Y-231807000D02*
X319347500Y-227907000D01*
X317347500Y-231807000D02*
X317347500Y-227907000D01*
X319347500Y-231807000D02*
X317347500Y-231807000D01*
X315797500Y-231807000D02*
X315797500Y-227907000D01*
X313797500Y-231807000D02*
X313797500Y-227907000D01*
X315797500Y-231807000D02*
X313797500Y-231807000D01*
X281247500Y-231807000D02*
X281247500Y-227907000D01*
X279247500Y-231807000D02*
X279247500Y-227907000D01*
X281247500Y-231807000D02*
X279247500Y-231807000D01*
X277697500Y-231807000D02*
X277697500Y-227907000D01*
X275697500Y-231807000D02*
X275697500Y-227907000D01*
X277697500Y-231807000D02*
X275697500Y-231807000D01*
X243147500Y-231807000D02*
X243147500Y-227907000D01*
X241147500Y-231807000D02*
X241147500Y-227907000D01*
X243147500Y-231807000D02*
X241147500Y-231807000D01*
X239597500Y-231807000D02*
X239597500Y-227907000D01*
X237597500Y-231807000D02*
X237597500Y-227907000D01*
X239597500Y-231807000D02*
X237597500Y-231807000D01*
X201436600Y-231815200D02*
X201436600Y-227915200D01*
X199436600Y-231815200D02*
X199436600Y-227915200D01*
X201436600Y-231815200D02*
X199436600Y-231815200D01*
X197956800Y-231807000D02*
X197956800Y-227907000D01*
X195956800Y-231807000D02*
X195956800Y-227907000D01*
X197956800Y-231807000D02*
X195956800Y-231807000D01*
X133451600Y-231807000D02*
X133451600Y-227907000D01*
X131451600Y-231807000D02*
X131451600Y-227907000D01*
X133451600Y-231807000D02*
X131451600Y-231807000D01*
X130149600Y-231807000D02*
X130149600Y-227907000D01*
X128149600Y-231807000D02*
X128149600Y-227907000D01*
X130149600Y-231807000D02*
X128149600Y-231807000D01*
X439275000Y-215100000D02*
X439275000Y-211200000D01*
X437275000Y-215100000D02*
X437275000Y-211200000D01*
X439275000Y-215100000D02*
X437275000Y-215100000D01*
X435860000Y-215082000D02*
X435860000Y-211182000D01*
X433860000Y-215082000D02*
X433860000Y-211182000D01*
X435860000Y-215082000D02*
X433860000Y-215082000D01*
X385975000Y-212757000D02*
X385975000Y-208857000D01*
X383975000Y-212757000D02*
X383975000Y-208857000D01*
X385975000Y-212757000D02*
X383975000Y-212757000D01*
X382500000Y-212750000D02*
X382500000Y-208850000D01*
X380500000Y-212750000D02*
X380500000Y-208850000D01*
X382500000Y-212750000D02*
X380500000Y-212750000D01*
X347922500Y-212757000D02*
X347922500Y-208857000D01*
X345922500Y-212757000D02*
X345922500Y-208857000D01*
X347922500Y-212757000D02*
X345922500Y-212757000D01*
X344372500Y-212757000D02*
X344372500Y-208857000D01*
X342372500Y-212757000D02*
X342372500Y-208857000D01*
X344372500Y-212757000D02*
X342372500Y-212757000D01*
X309822500Y-212757000D02*
X309822500Y-208857000D01*
X307822500Y-212757000D02*
X307822500Y-208857000D01*
X309822500Y-212757000D02*
X307822500Y-212757000D01*
X306272500Y-212757000D02*
X306272500Y-208857000D01*
X304272500Y-212757000D02*
X304272500Y-208857000D01*
X306272500Y-212757000D02*
X304272500Y-212757000D01*
X271722500Y-212757000D02*
X271722500Y-208857000D01*
X269722500Y-212757000D02*
X269722500Y-208857000D01*
X271722500Y-212757000D02*
X269722500Y-212757000D01*
X268172500Y-212757000D02*
X268172500Y-208857000D01*
X266172500Y-212757000D02*
X266172500Y-208857000D01*
X268172500Y-212757000D02*
X266172500Y-212757000D01*
X233622500Y-212757000D02*
X233622500Y-208857000D01*
X231622500Y-212757000D02*
X231622500Y-208857000D01*
X233622500Y-212757000D02*
X231622500Y-212757000D01*
X230072500Y-212757000D02*
X230072500Y-208857000D01*
X228072500Y-212757000D02*
X228072500Y-208857000D01*
X230072500Y-212757000D02*
X228072500Y-212757000D01*
X195487800Y-212739800D02*
X195487800Y-208839800D01*
X193487800Y-212739800D02*
X193487800Y-208839800D01*
X195487800Y-212739800D02*
X193487800Y-212739800D01*
X191830200Y-212739800D02*
X191830200Y-208839800D01*
X189830200Y-212739800D02*
X189830200Y-208839800D01*
X191830200Y-212739800D02*
X189830200Y-212739800D01*
X133451600Y-212757000D02*
X133451600Y-208857000D01*
X131451600Y-212757000D02*
X131451600Y-208857000D01*
X133451600Y-212757000D02*
X131451600Y-212757000D01*
X130149600Y-212757000D02*
X130149600Y-208857000D01*
X128149600Y-212757000D02*
X128149600Y-208857000D01*
X130149600Y-212757000D02*
X128149600Y-212757000D01*
X444225000Y-193675000D02*
X444225000Y-189775000D01*
X442225000Y-193675000D02*
X442225000Y-189775000D01*
X444225000Y-193675000D02*
X442225000Y-193675000D01*
X440775000Y-193650000D02*
X440775000Y-189750000D01*
X438775000Y-193650000D02*
X438775000Y-189750000D01*
X440775000Y-193650000D02*
X438775000Y-193650000D01*
X416560000Y-193707000D02*
X416560000Y-189807000D01*
X414560000Y-193707000D02*
X414560000Y-189807000D01*
X416560000Y-193707000D02*
X414560000Y-193707000D01*
X381250000Y-193707000D02*
X381250000Y-189807000D01*
X379250000Y-193707000D02*
X379250000Y-189807000D01*
X381250000Y-193707000D02*
X379250000Y-193707000D01*
X377750000Y-193700000D02*
X377750000Y-189800000D01*
X375750000Y-193700000D02*
X375750000Y-189800000D01*
X377750000Y-193700000D02*
X375750000Y-193700000D01*
X343160000Y-193707000D02*
X343160000Y-189807000D01*
X341160000Y-193707000D02*
X341160000Y-189807000D01*
X343160000Y-193707000D02*
X341160000Y-193707000D01*
X339610000Y-193707000D02*
X339610000Y-189807000D01*
X337610000Y-193707000D02*
X337610000Y-189807000D01*
X339610000Y-193707000D02*
X337610000Y-193707000D01*
X305060000Y-193707000D02*
X305060000Y-189807000D01*
X303060000Y-193707000D02*
X303060000Y-189807000D01*
X305060000Y-193707000D02*
X303060000Y-193707000D01*
X301510000Y-193707000D02*
X301510000Y-189807000D01*
X299510000Y-193707000D02*
X299510000Y-189807000D01*
X301510000Y-193707000D02*
X299510000Y-193707000D01*
X266960000Y-193707000D02*
X266960000Y-189807000D01*
X264960000Y-193707000D02*
X264960000Y-189807000D01*
X266960000Y-193707000D02*
X264960000Y-193707000D01*
X263410000Y-193707000D02*
X263410000Y-189807000D01*
X261410000Y-193707000D02*
X261410000Y-189807000D01*
X263410000Y-193707000D02*
X261410000Y-193707000D01*
X228860000Y-193707000D02*
X228860000Y-189807000D01*
X226860000Y-193707000D02*
X226860000Y-189807000D01*
X228860000Y-193707000D02*
X226860000Y-193707000D01*
X225310000Y-193707000D02*
X225310000Y-189807000D01*
X223310000Y-193707000D02*
X223310000Y-189807000D01*
X225310000Y-193707000D02*
X223310000Y-193707000D01*
X190941200Y-193740600D02*
X190941200Y-189840600D01*
X188941200Y-193740600D02*
X188941200Y-189840600D01*
X190941200Y-193740600D02*
X188941200Y-193740600D01*
X186775600Y-193707000D02*
X186775600Y-189807000D01*
X184775600Y-193707000D02*
X184775600Y-189807000D01*
X186775600Y-193707000D02*
X184775600Y-193707000D01*
X133451600Y-193707000D02*
X133451600Y-189807000D01*
X131451600Y-193707000D02*
X131451600Y-189807000D01*
X133451600Y-193707000D02*
X131451600Y-193707000D01*
X130149600Y-193707000D02*
X130149600Y-189807000D01*
X128149600Y-193707000D02*
X128149600Y-189807000D01*
X130149600Y-193707000D02*
X128149600Y-193707000D01*
X442375000Y-215125000D02*
X442375000Y-211225000D01*
X440375000Y-215125000D02*
X440375000Y-211225000D01*
X442375000Y-215125000D02*
X440375000Y-215125000D01*
X444525000Y-174657000D02*
X444525000Y-170757000D01*
X442525000Y-174657000D02*
X442525000Y-170757000D01*
X444525000Y-174657000D02*
X442525000Y-174657000D01*
X409750000Y-174657000D02*
X409750000Y-170757000D01*
X407750000Y-174657000D02*
X407750000Y-170757000D01*
X409750000Y-174657000D02*
X407750000Y-174657000D01*
X406250000Y-174650000D02*
X406250000Y-170750000D01*
X404250000Y-174650000D02*
X404250000Y-170750000D01*
X406250000Y-174650000D02*
X404250000Y-174650000D01*
X371800000Y-174650000D02*
X371800000Y-170750000D01*
X369800000Y-174650000D02*
X369800000Y-170750000D01*
X371800000Y-174650000D02*
X369800000Y-174650000D01*
X368275000Y-174650000D02*
X368275000Y-170750000D01*
X366275000Y-174650000D02*
X366275000Y-170750000D01*
X368275000Y-174650000D02*
X366275000Y-174650000D01*
X333635000Y-174657000D02*
X333635000Y-170757000D01*
X331635000Y-174657000D02*
X331635000Y-170757000D01*
X333635000Y-174657000D02*
X331635000Y-174657000D01*
X330085000Y-174657000D02*
X330085000Y-170757000D01*
X328085000Y-174657000D02*
X328085000Y-170757000D01*
X330085000Y-174657000D02*
X328085000Y-174657000D01*
X295535000Y-174657000D02*
X295535000Y-170757000D01*
X293535000Y-174657000D02*
X293535000Y-170757000D01*
X295535000Y-174657000D02*
X293535000Y-174657000D01*
X291985000Y-174657000D02*
X291985000Y-170757000D01*
X289985000Y-174657000D02*
X289985000Y-170757000D01*
X291985000Y-174657000D02*
X289985000Y-174657000D01*
X257435000Y-174657000D02*
X257435000Y-170757000D01*
X255435000Y-174657000D02*
X255435000Y-170757000D01*
X257435000Y-174657000D02*
X255435000Y-174657000D01*
X253885000Y-174657000D02*
X253885000Y-170757000D01*
X251885000Y-174657000D02*
X251885000Y-170757000D01*
X253885000Y-174657000D02*
X251885000Y-174657000D01*
X219335000Y-174657000D02*
X219335000Y-170757000D01*
X217335000Y-174657000D02*
X217335000Y-170757000D01*
X219335000Y-174657000D02*
X217335000Y-174657000D01*
X215785000Y-174657000D02*
X215785000Y-170757000D01*
X213785000Y-174657000D02*
X213785000Y-170757000D01*
X215785000Y-174657000D02*
X213785000Y-174657000D01*
X181213000Y-174639800D02*
X181213000Y-170739800D01*
X179213000Y-174639800D02*
X179213000Y-170739800D01*
X181213000Y-174639800D02*
X179213000Y-174639800D01*
X177657000Y-174639800D02*
X177657000Y-170739800D01*
X175657000Y-174639800D02*
X175657000Y-170739800D01*
X177657000Y-174639800D02*
X175657000Y-174639800D01*
X133451600Y-174657000D02*
X133451600Y-170757000D01*
X131451600Y-174657000D02*
X131451600Y-170757000D01*
X133451600Y-174657000D02*
X131451600Y-174657000D01*
X130149600Y-174657000D02*
X130149600Y-170757000D01*
X128149600Y-174657000D02*
X128149600Y-170757000D01*
X130149600Y-174657000D02*
X128149600Y-174657000D01*
X272850000Y-166190000D02*
X275300000Y-166190000D01*
X274650000Y-169410000D02*
X272850000Y-169410000D01*
X450898560Y-212879487D02*
X453726987Y-210051060D01*
X453232013Y-215212940D02*
X450898560Y-212879487D01*
D12*
X450281586Y-194963031D02*
X451183148Y-194061470D01*
X442556445Y-201875000D02*
X443033742Y-201397703D01*
X449875000Y-209193555D02*
X450352297Y-208716258D01*
X457193555Y-201875000D02*
X456716258Y-202352297D01*
X449875000Y-194556445D02*
X449397703Y-195033742D01*
X457193555Y-201875000D02*
X456716258Y-201397703D01*
X449875000Y-209193555D02*
X449397703Y-208716258D01*
X442556445Y-201875000D02*
X443033742Y-202352297D01*
X449875000Y-194556445D02*
X450281586Y-194963031D01*
X459000000Y-179125000D02*
X459000000Y-173925000D01*
X459000000Y-173925000D02*
X453800000Y-173925000D01*
X453800000Y-173925000D02*
X453800000Y-179125000D01*
X453800000Y-179125000D02*
X459000000Y-179125000D01*
X457400000Y-176525000D02*
G75*
G03X457400000Y-176525000I-1000000J0D01*
G01*
D11*
X280733578Y-164735000D02*
X280216422Y-164735000D01*
X280733578Y-163315000D02*
X280216422Y-163315000D01*
X266541422Y-163315000D02*
X267058578Y-163315000D01*
X266541422Y-164735000D02*
X267058578Y-164735000D01*
X440099204Y-202215112D02*
X440464888Y-202580796D01*
X439095112Y-203219204D02*
X439460796Y-203584888D01*
X457540000Y-183383578D02*
X457540000Y-182866422D01*
X458960000Y-183383578D02*
X458960000Y-182866422D01*
X274065600Y-174407578D02*
X274065600Y-173890422D01*
X275485600Y-174407578D02*
X275485600Y-173890422D01*
X271890000Y-174407578D02*
X271890000Y-173890422D01*
X273310000Y-174407578D02*
X273310000Y-173890422D01*
X274202064Y-180960000D02*
X272997936Y-180960000D01*
X274202064Y-179140000D02*
X272997936Y-179140000D01*
X445905796Y-212259888D02*
X445540112Y-211894204D01*
X446909888Y-211255796D02*
X446544204Y-210890112D01*
X450805796Y-191584888D02*
X450440112Y-191219204D01*
X451809888Y-190580796D02*
X451444204Y-190215112D01*
X458653922Y-207890000D02*
X459171078Y-207890000D01*
X458653922Y-209310000D02*
X459171078Y-209310000D01*
X439365112Y-198730796D02*
X439730796Y-198365112D01*
X440369204Y-199734888D02*
X440734888Y-199369204D01*
X457319204Y-195415112D02*
X457684888Y-195780796D01*
X456315112Y-196419204D02*
X456680796Y-196784888D01*
X455368296Y-211109888D02*
X455002612Y-210744204D01*
X456372388Y-210105796D02*
X456006704Y-209740112D01*
X451594617Y-214178025D02*
X451960301Y-214543709D01*
X450590525Y-215182117D02*
X450956209Y-215547801D01*
D12*
X395977380Y-233059761D02*
X394977380Y-233059761D01*
X394977380Y-233297857D01*
X395025000Y-233440714D01*
X395120238Y-233535952D01*
X395215476Y-233583571D01*
X395405952Y-233631190D01*
X395548809Y-233631190D01*
X395739285Y-233583571D01*
X395834523Y-233535952D01*
X395929761Y-233440714D01*
X395977380Y-233297857D01*
X395977380Y-233059761D01*
X396072619Y-233821666D02*
X396072619Y-234583571D01*
X394977380Y-235250238D02*
X394977380Y-235059761D01*
X395025000Y-234964523D01*
X395072619Y-234916904D01*
X395215476Y-234821666D01*
X395405952Y-234774047D01*
X395786904Y-234774047D01*
X395882142Y-234821666D01*
X395929761Y-234869285D01*
X395977380Y-234964523D01*
X395977380Y-235155000D01*
X395929761Y-235250238D01*
X395882142Y-235297857D01*
X395786904Y-235345476D01*
X395548809Y-235345476D01*
X395453571Y-235297857D01*
X395405952Y-235250238D01*
X395358333Y-235155000D01*
X395358333Y-234964523D01*
X395405952Y-234869285D01*
X395453571Y-234821666D01*
X395548809Y-234774047D01*
X394977380Y-236250238D02*
X394977380Y-235774047D01*
X395453571Y-235726428D01*
X395405952Y-235774047D01*
X395358333Y-235869285D01*
X395358333Y-236107380D01*
X395405952Y-236202619D01*
X395453571Y-236250238D01*
X395548809Y-236297857D01*
X395786904Y-236297857D01*
X395882142Y-236250238D01*
X395929761Y-236202619D01*
X395977380Y-236107380D01*
X395977380Y-235869285D01*
X395929761Y-235774047D01*
X395882142Y-235726428D01*
X456727380Y-256859761D02*
X455727380Y-256859761D01*
X455727380Y-257097857D01*
X455775000Y-257240714D01*
X455870238Y-257335952D01*
X455965476Y-257383571D01*
X456155952Y-257431190D01*
X456298809Y-257431190D01*
X456489285Y-257383571D01*
X456584523Y-257335952D01*
X456679761Y-257240714D01*
X456727380Y-257097857D01*
X456727380Y-256859761D01*
X456822619Y-257621666D02*
X456822619Y-258383571D01*
X455727380Y-258526428D02*
X455727380Y-259193095D01*
X456727380Y-258764523D01*
X455727380Y-260002619D02*
X455727380Y-259812142D01*
X455775000Y-259716904D01*
X455822619Y-259669285D01*
X455965476Y-259574047D01*
X456155952Y-259526428D01*
X456536904Y-259526428D01*
X456632142Y-259574047D01*
X456679761Y-259621666D01*
X456727380Y-259716904D01*
X456727380Y-259907380D01*
X456679761Y-260002619D01*
X456632142Y-260050238D01*
X456536904Y-260097857D01*
X456298809Y-260097857D01*
X456203571Y-260050238D01*
X456155952Y-260002619D01*
X456108333Y-259907380D01*
X456108333Y-259716904D01*
X456155952Y-259621666D01*
X456203571Y-259574047D01*
X456298809Y-259526428D01*
X453452380Y-256854261D02*
X452452380Y-256854261D01*
X452452380Y-257092357D01*
X452500000Y-257235214D01*
X452595238Y-257330452D01*
X452690476Y-257378071D01*
X452880952Y-257425690D01*
X453023809Y-257425690D01*
X453214285Y-257378071D01*
X453309523Y-257330452D01*
X453404761Y-257235214D01*
X453452380Y-257092357D01*
X453452380Y-256854261D01*
X453547619Y-257616166D02*
X453547619Y-258378071D01*
X452452380Y-258520928D02*
X452452380Y-259187595D01*
X453452380Y-258759023D01*
X453452380Y-260092357D02*
X453452380Y-259520928D01*
X453452380Y-259806642D02*
X452452380Y-259806642D01*
X452595238Y-259711404D01*
X452690476Y-259616166D01*
X452738095Y-259520928D01*
X414002380Y-252034761D02*
X413002380Y-252034761D01*
X413002380Y-252272857D01*
X413050000Y-252415714D01*
X413145238Y-252510952D01*
X413240476Y-252558571D01*
X413430952Y-252606190D01*
X413573809Y-252606190D01*
X413764285Y-252558571D01*
X413859523Y-252510952D01*
X413954761Y-252415714D01*
X414002380Y-252272857D01*
X414002380Y-252034761D01*
X414097619Y-252796666D02*
X414097619Y-253558571D01*
X413002380Y-254225238D02*
X413002380Y-254034761D01*
X413050000Y-253939523D01*
X413097619Y-253891904D01*
X413240476Y-253796666D01*
X413430952Y-253749047D01*
X413811904Y-253749047D01*
X413907142Y-253796666D01*
X413954761Y-253844285D01*
X414002380Y-253939523D01*
X414002380Y-254130000D01*
X413954761Y-254225238D01*
X413907142Y-254272857D01*
X413811904Y-254320476D01*
X413573809Y-254320476D01*
X413478571Y-254272857D01*
X413430952Y-254225238D01*
X413383333Y-254130000D01*
X413383333Y-253939523D01*
X413430952Y-253844285D01*
X413478571Y-253796666D01*
X413573809Y-253749047D01*
X413002380Y-255177619D02*
X413002380Y-254987142D01*
X413050000Y-254891904D01*
X413097619Y-254844285D01*
X413240476Y-254749047D01*
X413430952Y-254701428D01*
X413811904Y-254701428D01*
X413907142Y-254749047D01*
X413954761Y-254796666D01*
X414002380Y-254891904D01*
X414002380Y-255082380D01*
X413954761Y-255177619D01*
X413907142Y-255225238D01*
X413811904Y-255272857D01*
X413573809Y-255272857D01*
X413478571Y-255225238D01*
X413430952Y-255177619D01*
X413383333Y-255082380D01*
X413383333Y-254891904D01*
X413430952Y-254796666D01*
X413478571Y-254749047D01*
X413573809Y-254701428D01*
X410477380Y-252034761D02*
X409477380Y-252034761D01*
X409477380Y-252272857D01*
X409525000Y-252415714D01*
X409620238Y-252510952D01*
X409715476Y-252558571D01*
X409905952Y-252606190D01*
X410048809Y-252606190D01*
X410239285Y-252558571D01*
X410334523Y-252510952D01*
X410429761Y-252415714D01*
X410477380Y-252272857D01*
X410477380Y-252034761D01*
X410572619Y-252796666D02*
X410572619Y-253558571D01*
X409477380Y-254225238D02*
X409477380Y-254034761D01*
X409525000Y-253939523D01*
X409572619Y-253891904D01*
X409715476Y-253796666D01*
X409905952Y-253749047D01*
X410286904Y-253749047D01*
X410382142Y-253796666D01*
X410429761Y-253844285D01*
X410477380Y-253939523D01*
X410477380Y-254130000D01*
X410429761Y-254225238D01*
X410382142Y-254272857D01*
X410286904Y-254320476D01*
X410048809Y-254320476D01*
X409953571Y-254272857D01*
X409905952Y-254225238D01*
X409858333Y-254130000D01*
X409858333Y-253939523D01*
X409905952Y-253844285D01*
X409953571Y-253796666D01*
X410048809Y-253749047D01*
X410477380Y-255272857D02*
X410477380Y-254701428D01*
X410477380Y-254987142D02*
X409477380Y-254987142D01*
X409620238Y-254891904D01*
X409715476Y-254796666D01*
X409763095Y-254701428D01*
X347452380Y-252084761D02*
X346452380Y-252084761D01*
X346452380Y-252322857D01*
X346500000Y-252465714D01*
X346595238Y-252560952D01*
X346690476Y-252608571D01*
X346880952Y-252656190D01*
X347023809Y-252656190D01*
X347214285Y-252608571D01*
X347309523Y-252560952D01*
X347404761Y-252465714D01*
X347452380Y-252322857D01*
X347452380Y-252084761D01*
X347547619Y-252846666D02*
X347547619Y-253608571D01*
X346452380Y-254322857D02*
X346452380Y-253846666D01*
X346928571Y-253799047D01*
X346880952Y-253846666D01*
X346833333Y-253941904D01*
X346833333Y-254180000D01*
X346880952Y-254275238D01*
X346928571Y-254322857D01*
X347023809Y-254370476D01*
X347261904Y-254370476D01*
X347357142Y-254322857D01*
X347404761Y-254275238D01*
X347452380Y-254180000D01*
X347452380Y-253941904D01*
X347404761Y-253846666D01*
X347357142Y-253799047D01*
X346547619Y-254751428D02*
X346500000Y-254799047D01*
X346452380Y-254894285D01*
X346452380Y-255132380D01*
X346500000Y-255227619D01*
X346547619Y-255275238D01*
X346642857Y-255322857D01*
X346738095Y-255322857D01*
X346880952Y-255275238D01*
X347452380Y-254703809D01*
X347452380Y-255322857D01*
X343727380Y-252091761D02*
X342727380Y-252091761D01*
X342727380Y-252329857D01*
X342775000Y-252472714D01*
X342870238Y-252567952D01*
X342965476Y-252615571D01*
X343155952Y-252663190D01*
X343298809Y-252663190D01*
X343489285Y-252615571D01*
X343584523Y-252567952D01*
X343679761Y-252472714D01*
X343727380Y-252329857D01*
X343727380Y-252091761D01*
X343822619Y-252853666D02*
X343822619Y-253615571D01*
X343060714Y-254282238D02*
X343727380Y-254282238D01*
X342679761Y-254044142D02*
X343394047Y-253806047D01*
X343394047Y-254425095D01*
X342727380Y-254710809D02*
X342727380Y-255377476D01*
X343727380Y-254948904D01*
X276677380Y-252091761D02*
X275677380Y-252091761D01*
X275677380Y-252329857D01*
X275725000Y-252472714D01*
X275820238Y-252567952D01*
X275915476Y-252615571D01*
X276105952Y-252663190D01*
X276248809Y-252663190D01*
X276439285Y-252615571D01*
X276534523Y-252567952D01*
X276629761Y-252472714D01*
X276677380Y-252329857D01*
X276677380Y-252091761D01*
X276772619Y-252853666D02*
X276772619Y-253615571D01*
X275677380Y-253758428D02*
X275677380Y-254377476D01*
X276058333Y-254044142D01*
X276058333Y-254187000D01*
X276105952Y-254282238D01*
X276153571Y-254329857D01*
X276248809Y-254377476D01*
X276486904Y-254377476D01*
X276582142Y-254329857D01*
X276629761Y-254282238D01*
X276677380Y-254187000D01*
X276677380Y-253901285D01*
X276629761Y-253806047D01*
X276582142Y-253758428D01*
X276010714Y-255234619D02*
X276677380Y-255234619D01*
X275629761Y-254996523D02*
X276344047Y-254758428D01*
X276344047Y-255377476D01*
X273502380Y-252091761D02*
X272502380Y-252091761D01*
X272502380Y-252329857D01*
X272550000Y-252472714D01*
X272645238Y-252567952D01*
X272740476Y-252615571D01*
X272930952Y-252663190D01*
X273073809Y-252663190D01*
X273264285Y-252615571D01*
X273359523Y-252567952D01*
X273454761Y-252472714D01*
X273502380Y-252329857D01*
X273502380Y-252091761D01*
X273597619Y-252853666D02*
X273597619Y-253615571D01*
X272597619Y-253806047D02*
X272550000Y-253853666D01*
X272502380Y-253948904D01*
X272502380Y-254187000D01*
X272550000Y-254282238D01*
X272597619Y-254329857D01*
X272692857Y-254377476D01*
X272788095Y-254377476D01*
X272930952Y-254329857D01*
X273502380Y-253758428D01*
X273502380Y-254377476D01*
X273502380Y-254853666D02*
X273502380Y-255044142D01*
X273454761Y-255139380D01*
X273407142Y-255187000D01*
X273264285Y-255282238D01*
X273073809Y-255329857D01*
X272692857Y-255329857D01*
X272597619Y-255282238D01*
X272550000Y-255234619D01*
X272502380Y-255139380D01*
X272502380Y-254948904D01*
X272550000Y-254853666D01*
X272597619Y-254806047D01*
X272692857Y-254758428D01*
X272930952Y-254758428D01*
X273026190Y-254806047D01*
X273073809Y-254853666D01*
X273121428Y-254948904D01*
X273121428Y-255139380D01*
X273073809Y-255234619D01*
X273026190Y-255282238D01*
X272930952Y-255329857D01*
X197784980Y-252023761D02*
X196784980Y-252023761D01*
X196784980Y-252261857D01*
X196832600Y-252404714D01*
X196927838Y-252499952D01*
X197023076Y-252547571D01*
X197213552Y-252595190D01*
X197356409Y-252595190D01*
X197546885Y-252547571D01*
X197642123Y-252499952D01*
X197737361Y-252404714D01*
X197784980Y-252261857D01*
X197784980Y-252023761D01*
X197880219Y-252785666D02*
X197880219Y-253547571D01*
X196880219Y-253738047D02*
X196832600Y-253785666D01*
X196784980Y-253880904D01*
X196784980Y-254119000D01*
X196832600Y-254214238D01*
X196880219Y-254261857D01*
X196975457Y-254309476D01*
X197070695Y-254309476D01*
X197213552Y-254261857D01*
X197784980Y-253690428D01*
X197784980Y-254309476D01*
X196784980Y-254928523D02*
X196784980Y-255023761D01*
X196832600Y-255119000D01*
X196880219Y-255166619D01*
X196975457Y-255214238D01*
X197165933Y-255261857D01*
X197404028Y-255261857D01*
X197594504Y-255214238D01*
X197689742Y-255166619D01*
X197737361Y-255119000D01*
X197784980Y-255023761D01*
X197784980Y-254928523D01*
X197737361Y-254833285D01*
X197689742Y-254785666D01*
X197594504Y-254738047D01*
X197404028Y-254690428D01*
X197165933Y-254690428D01*
X196975457Y-254738047D01*
X196880219Y-254785666D01*
X196832600Y-254833285D01*
X196784980Y-254928523D01*
X194533780Y-252023761D02*
X193533780Y-252023761D01*
X193533780Y-252261857D01*
X193581400Y-252404714D01*
X193676638Y-252499952D01*
X193771876Y-252547571D01*
X193962352Y-252595190D01*
X194105209Y-252595190D01*
X194295685Y-252547571D01*
X194390923Y-252499952D01*
X194486161Y-252404714D01*
X194533780Y-252261857D01*
X194533780Y-252023761D01*
X194629019Y-252785666D02*
X194629019Y-253547571D01*
X194533780Y-254309476D02*
X194533780Y-253738047D01*
X194533780Y-254023761D02*
X193533780Y-254023761D01*
X193676638Y-253928523D01*
X193771876Y-253833285D01*
X193819495Y-253738047D01*
X193533780Y-255214238D02*
X193533780Y-254738047D01*
X194009971Y-254690428D01*
X193962352Y-254738047D01*
X193914733Y-254833285D01*
X193914733Y-255071380D01*
X193962352Y-255166619D01*
X194009971Y-255214238D01*
X194105209Y-255261857D01*
X194343304Y-255261857D01*
X194438542Y-255214238D01*
X194486161Y-255166619D01*
X194533780Y-255071380D01*
X194533780Y-254833285D01*
X194486161Y-254738047D01*
X194438542Y-254690428D01*
X132903980Y-252091761D02*
X131903980Y-252091761D01*
X131903980Y-252329857D01*
X131951600Y-252472714D01*
X132046838Y-252567952D01*
X132142076Y-252615571D01*
X132332552Y-252663190D01*
X132475409Y-252663190D01*
X132665885Y-252615571D01*
X132761123Y-252567952D01*
X132856361Y-252472714D01*
X132903980Y-252329857D01*
X132903980Y-252091761D01*
X132999219Y-252853666D02*
X132999219Y-253615571D01*
X132903980Y-254377476D02*
X132903980Y-253806047D01*
X132903980Y-254091761D02*
X131903980Y-254091761D01*
X132046838Y-253996523D01*
X132142076Y-253901285D01*
X132189695Y-253806047D01*
X131903980Y-254996523D02*
X131903980Y-255091761D01*
X131951600Y-255187000D01*
X131999219Y-255234619D01*
X132094457Y-255282238D01*
X132284933Y-255329857D01*
X132523028Y-255329857D01*
X132713504Y-255282238D01*
X132808742Y-255234619D01*
X132856361Y-255187000D01*
X132903980Y-255091761D01*
X132903980Y-254996523D01*
X132856361Y-254901285D01*
X132808742Y-254853666D01*
X132713504Y-254806047D01*
X132523028Y-254758428D01*
X132284933Y-254758428D01*
X132094457Y-254806047D01*
X131999219Y-254853666D01*
X131951600Y-254901285D01*
X131903980Y-254996523D01*
X129601980Y-252567952D02*
X128601980Y-252567952D01*
X128601980Y-252806047D01*
X128649600Y-252948904D01*
X128744838Y-253044142D01*
X128840076Y-253091761D01*
X129030552Y-253139380D01*
X129173409Y-253139380D01*
X129363885Y-253091761D01*
X129459123Y-253044142D01*
X129554361Y-252948904D01*
X129601980Y-252806047D01*
X129601980Y-252567952D01*
X129697219Y-253329857D02*
X129697219Y-254091761D01*
X128601980Y-254806047D02*
X128601980Y-254329857D01*
X129078171Y-254282238D01*
X129030552Y-254329857D01*
X128982933Y-254425095D01*
X128982933Y-254663190D01*
X129030552Y-254758428D01*
X129078171Y-254806047D01*
X129173409Y-254853666D01*
X129411504Y-254853666D01*
X129506742Y-254806047D01*
X129554361Y-254758428D01*
X129601980Y-254663190D01*
X129601980Y-254425095D01*
X129554361Y-254329857D01*
X129506742Y-254282238D01*
X453477380Y-237784761D02*
X452477380Y-237784761D01*
X452477380Y-238022857D01*
X452525000Y-238165714D01*
X452620238Y-238260952D01*
X452715476Y-238308571D01*
X452905952Y-238356190D01*
X453048809Y-238356190D01*
X453239285Y-238308571D01*
X453334523Y-238260952D01*
X453429761Y-238165714D01*
X453477380Y-238022857D01*
X453477380Y-237784761D01*
X453572619Y-238546666D02*
X453572619Y-239308571D01*
X452477380Y-239451428D02*
X452477380Y-240118095D01*
X453477380Y-239689523D01*
X452477380Y-240689523D02*
X452477380Y-240784761D01*
X452525000Y-240880000D01*
X452572619Y-240927619D01*
X452667857Y-240975238D01*
X452858333Y-241022857D01*
X453096428Y-241022857D01*
X453286904Y-240975238D01*
X453382142Y-240927619D01*
X453429761Y-240880000D01*
X453477380Y-240784761D01*
X453477380Y-240689523D01*
X453429761Y-240594285D01*
X453382142Y-240546666D01*
X453286904Y-240499047D01*
X453096428Y-240451428D01*
X452858333Y-240451428D01*
X452667857Y-240499047D01*
X452572619Y-240546666D01*
X452525000Y-240594285D01*
X452477380Y-240689523D01*
X456952380Y-237784761D02*
X455952380Y-237784761D01*
X455952380Y-238022857D01*
X456000000Y-238165714D01*
X456095238Y-238260952D01*
X456190476Y-238308571D01*
X456380952Y-238356190D01*
X456523809Y-238356190D01*
X456714285Y-238308571D01*
X456809523Y-238260952D01*
X456904761Y-238165714D01*
X456952380Y-238022857D01*
X456952380Y-237784761D01*
X457047619Y-238546666D02*
X457047619Y-239308571D01*
X455952380Y-239451428D02*
X455952380Y-240118095D01*
X456952380Y-239689523D01*
X455952380Y-240975238D02*
X455952380Y-240499047D01*
X456428571Y-240451428D01*
X456380952Y-240499047D01*
X456333333Y-240594285D01*
X456333333Y-240832380D01*
X456380952Y-240927619D01*
X456428571Y-240975238D01*
X456523809Y-241022857D01*
X456761904Y-241022857D01*
X456857142Y-240975238D01*
X456904761Y-240927619D01*
X456952380Y-240832380D01*
X456952380Y-240594285D01*
X456904761Y-240499047D01*
X456857142Y-240451428D01*
X392777380Y-233034761D02*
X391777380Y-233034761D01*
X391777380Y-233272857D01*
X391825000Y-233415714D01*
X391920238Y-233510952D01*
X392015476Y-233558571D01*
X392205952Y-233606190D01*
X392348809Y-233606190D01*
X392539285Y-233558571D01*
X392634523Y-233510952D01*
X392729761Y-233415714D01*
X392777380Y-233272857D01*
X392777380Y-233034761D01*
X392872619Y-233796666D02*
X392872619Y-234558571D01*
X391777380Y-235225238D02*
X391777380Y-235034761D01*
X391825000Y-234939523D01*
X391872619Y-234891904D01*
X392015476Y-234796666D01*
X392205952Y-234749047D01*
X392586904Y-234749047D01*
X392682142Y-234796666D01*
X392729761Y-234844285D01*
X392777380Y-234939523D01*
X392777380Y-235130000D01*
X392729761Y-235225238D01*
X392682142Y-235272857D01*
X392586904Y-235320476D01*
X392348809Y-235320476D01*
X392253571Y-235272857D01*
X392205952Y-235225238D01*
X392158333Y-235130000D01*
X392158333Y-234939523D01*
X392205952Y-234844285D01*
X392253571Y-234796666D01*
X392348809Y-234749047D01*
X391777380Y-235939523D02*
X391777380Y-236034761D01*
X391825000Y-236130000D01*
X391872619Y-236177619D01*
X391967857Y-236225238D01*
X392158333Y-236272857D01*
X392396428Y-236272857D01*
X392586904Y-236225238D01*
X392682142Y-236177619D01*
X392729761Y-236130000D01*
X392777380Y-236034761D01*
X392777380Y-235939523D01*
X392729761Y-235844285D01*
X392682142Y-235796666D01*
X392586904Y-235749047D01*
X392396428Y-235701428D01*
X392158333Y-235701428D01*
X391967857Y-235749047D01*
X391872619Y-235796666D01*
X391825000Y-235844285D01*
X391777380Y-235939523D01*
X356899880Y-233041761D02*
X355899880Y-233041761D01*
X355899880Y-233279857D01*
X355947500Y-233422714D01*
X356042738Y-233517952D01*
X356137976Y-233565571D01*
X356328452Y-233613190D01*
X356471309Y-233613190D01*
X356661785Y-233565571D01*
X356757023Y-233517952D01*
X356852261Y-233422714D01*
X356899880Y-233279857D01*
X356899880Y-233041761D01*
X356995119Y-233803666D02*
X356995119Y-234565571D01*
X355899880Y-235279857D02*
X355899880Y-234803666D01*
X356376071Y-234756047D01*
X356328452Y-234803666D01*
X356280833Y-234898904D01*
X356280833Y-235137000D01*
X356328452Y-235232238D01*
X356376071Y-235279857D01*
X356471309Y-235327476D01*
X356709404Y-235327476D01*
X356804642Y-235279857D01*
X356852261Y-235232238D01*
X356899880Y-235137000D01*
X356899880Y-234898904D01*
X356852261Y-234803666D01*
X356804642Y-234756047D01*
X355899880Y-236184619D02*
X355899880Y-235994142D01*
X355947500Y-235898904D01*
X355995119Y-235851285D01*
X356137976Y-235756047D01*
X356328452Y-235708428D01*
X356709404Y-235708428D01*
X356804642Y-235756047D01*
X356852261Y-235803666D01*
X356899880Y-235898904D01*
X356899880Y-236089380D01*
X356852261Y-236184619D01*
X356804642Y-236232238D01*
X356709404Y-236279857D01*
X356471309Y-236279857D01*
X356376071Y-236232238D01*
X356328452Y-236184619D01*
X356280833Y-236089380D01*
X356280833Y-235898904D01*
X356328452Y-235803666D01*
X356376071Y-235756047D01*
X356471309Y-235708428D01*
X353349880Y-233041761D02*
X352349880Y-233041761D01*
X352349880Y-233279857D01*
X352397500Y-233422714D01*
X352492738Y-233517952D01*
X352587976Y-233565571D01*
X352778452Y-233613190D01*
X352921309Y-233613190D01*
X353111785Y-233565571D01*
X353207023Y-233517952D01*
X353302261Y-233422714D01*
X353349880Y-233279857D01*
X353349880Y-233041761D01*
X353445119Y-233803666D02*
X353445119Y-234565571D01*
X352349880Y-235279857D02*
X352349880Y-234803666D01*
X352826071Y-234756047D01*
X352778452Y-234803666D01*
X352730833Y-234898904D01*
X352730833Y-235137000D01*
X352778452Y-235232238D01*
X352826071Y-235279857D01*
X352921309Y-235327476D01*
X353159404Y-235327476D01*
X353254642Y-235279857D01*
X353302261Y-235232238D01*
X353349880Y-235137000D01*
X353349880Y-234898904D01*
X353302261Y-234803666D01*
X353254642Y-234756047D01*
X353349880Y-236279857D02*
X353349880Y-235708428D01*
X353349880Y-235994142D02*
X352349880Y-235994142D01*
X352492738Y-235898904D01*
X352587976Y-235803666D01*
X352635595Y-235708428D01*
X318799880Y-233041761D02*
X317799880Y-233041761D01*
X317799880Y-233279857D01*
X317847500Y-233422714D01*
X317942738Y-233517952D01*
X318037976Y-233565571D01*
X318228452Y-233613190D01*
X318371309Y-233613190D01*
X318561785Y-233565571D01*
X318657023Y-233517952D01*
X318752261Y-233422714D01*
X318799880Y-233279857D01*
X318799880Y-233041761D01*
X318895119Y-233803666D02*
X318895119Y-234565571D01*
X318133214Y-235232238D02*
X318799880Y-235232238D01*
X317752261Y-234994142D02*
X318466547Y-234756047D01*
X318466547Y-235375095D01*
X317799880Y-236184619D02*
X317799880Y-235994142D01*
X317847500Y-235898904D01*
X317895119Y-235851285D01*
X318037976Y-235756047D01*
X318228452Y-235708428D01*
X318609404Y-235708428D01*
X318704642Y-235756047D01*
X318752261Y-235803666D01*
X318799880Y-235898904D01*
X318799880Y-236089380D01*
X318752261Y-236184619D01*
X318704642Y-236232238D01*
X318609404Y-236279857D01*
X318371309Y-236279857D01*
X318276071Y-236232238D01*
X318228452Y-236184619D01*
X318180833Y-236089380D01*
X318180833Y-235898904D01*
X318228452Y-235803666D01*
X318276071Y-235756047D01*
X318371309Y-235708428D01*
X315249880Y-233041761D02*
X314249880Y-233041761D01*
X314249880Y-233279857D01*
X314297500Y-233422714D01*
X314392738Y-233517952D01*
X314487976Y-233565571D01*
X314678452Y-233613190D01*
X314821309Y-233613190D01*
X315011785Y-233565571D01*
X315107023Y-233517952D01*
X315202261Y-233422714D01*
X315249880Y-233279857D01*
X315249880Y-233041761D01*
X315345119Y-233803666D02*
X315345119Y-234565571D01*
X314583214Y-235232238D02*
X315249880Y-235232238D01*
X314202261Y-234994142D02*
X314916547Y-234756047D01*
X314916547Y-235375095D01*
X314345119Y-235708428D02*
X314297500Y-235756047D01*
X314249880Y-235851285D01*
X314249880Y-236089380D01*
X314297500Y-236184619D01*
X314345119Y-236232238D01*
X314440357Y-236279857D01*
X314535595Y-236279857D01*
X314678452Y-236232238D01*
X315249880Y-235660809D01*
X315249880Y-236279857D01*
X280699880Y-233041761D02*
X279699880Y-233041761D01*
X279699880Y-233279857D01*
X279747500Y-233422714D01*
X279842738Y-233517952D01*
X279937976Y-233565571D01*
X280128452Y-233613190D01*
X280271309Y-233613190D01*
X280461785Y-233565571D01*
X280557023Y-233517952D01*
X280652261Y-233422714D01*
X280699880Y-233279857D01*
X280699880Y-233041761D01*
X280795119Y-233803666D02*
X280795119Y-234565571D01*
X279699880Y-234708428D02*
X279699880Y-235327476D01*
X280080833Y-234994142D01*
X280080833Y-235137000D01*
X280128452Y-235232238D01*
X280176071Y-235279857D01*
X280271309Y-235327476D01*
X280509404Y-235327476D01*
X280604642Y-235279857D01*
X280652261Y-235232238D01*
X280699880Y-235137000D01*
X280699880Y-234851285D01*
X280652261Y-234756047D01*
X280604642Y-234708428D01*
X280128452Y-235898904D02*
X280080833Y-235803666D01*
X280033214Y-235756047D01*
X279937976Y-235708428D01*
X279890357Y-235708428D01*
X279795119Y-235756047D01*
X279747500Y-235803666D01*
X279699880Y-235898904D01*
X279699880Y-236089380D01*
X279747500Y-236184619D01*
X279795119Y-236232238D01*
X279890357Y-236279857D01*
X279937976Y-236279857D01*
X280033214Y-236232238D01*
X280080833Y-236184619D01*
X280128452Y-236089380D01*
X280128452Y-235898904D01*
X280176071Y-235803666D01*
X280223690Y-235756047D01*
X280318928Y-235708428D01*
X280509404Y-235708428D01*
X280604642Y-235756047D01*
X280652261Y-235803666D01*
X280699880Y-235898904D01*
X280699880Y-236089380D01*
X280652261Y-236184619D01*
X280604642Y-236232238D01*
X280509404Y-236279857D01*
X280318928Y-236279857D01*
X280223690Y-236232238D01*
X280176071Y-236184619D01*
X280128452Y-236089380D01*
X277149880Y-233041761D02*
X276149880Y-233041761D01*
X276149880Y-233279857D01*
X276197500Y-233422714D01*
X276292738Y-233517952D01*
X276387976Y-233565571D01*
X276578452Y-233613190D01*
X276721309Y-233613190D01*
X276911785Y-233565571D01*
X277007023Y-233517952D01*
X277102261Y-233422714D01*
X277149880Y-233279857D01*
X277149880Y-233041761D01*
X277245119Y-233803666D02*
X277245119Y-234565571D01*
X276149880Y-234708428D02*
X276149880Y-235327476D01*
X276530833Y-234994142D01*
X276530833Y-235137000D01*
X276578452Y-235232238D01*
X276626071Y-235279857D01*
X276721309Y-235327476D01*
X276959404Y-235327476D01*
X277054642Y-235279857D01*
X277102261Y-235232238D01*
X277149880Y-235137000D01*
X277149880Y-234851285D01*
X277102261Y-234756047D01*
X277054642Y-234708428D01*
X276149880Y-235660809D02*
X276149880Y-236279857D01*
X276530833Y-235946523D01*
X276530833Y-236089380D01*
X276578452Y-236184619D01*
X276626071Y-236232238D01*
X276721309Y-236279857D01*
X276959404Y-236279857D01*
X277054642Y-236232238D01*
X277102261Y-236184619D01*
X277149880Y-236089380D01*
X277149880Y-235803666D01*
X277102261Y-235708428D01*
X277054642Y-235660809D01*
X242599880Y-233041761D02*
X241599880Y-233041761D01*
X241599880Y-233279857D01*
X241647500Y-233422714D01*
X241742738Y-233517952D01*
X241837976Y-233565571D01*
X242028452Y-233613190D01*
X242171309Y-233613190D01*
X242361785Y-233565571D01*
X242457023Y-233517952D01*
X242552261Y-233422714D01*
X242599880Y-233279857D01*
X242599880Y-233041761D01*
X242695119Y-233803666D02*
X242695119Y-234565571D01*
X241695119Y-234756047D02*
X241647500Y-234803666D01*
X241599880Y-234898904D01*
X241599880Y-235137000D01*
X241647500Y-235232238D01*
X241695119Y-235279857D01*
X241790357Y-235327476D01*
X241885595Y-235327476D01*
X242028452Y-235279857D01*
X242599880Y-234708428D01*
X242599880Y-235327476D01*
X242028452Y-235898904D02*
X241980833Y-235803666D01*
X241933214Y-235756047D01*
X241837976Y-235708428D01*
X241790357Y-235708428D01*
X241695119Y-235756047D01*
X241647500Y-235803666D01*
X241599880Y-235898904D01*
X241599880Y-236089380D01*
X241647500Y-236184619D01*
X241695119Y-236232238D01*
X241790357Y-236279857D01*
X241837976Y-236279857D01*
X241933214Y-236232238D01*
X241980833Y-236184619D01*
X242028452Y-236089380D01*
X242028452Y-235898904D01*
X242076071Y-235803666D01*
X242123690Y-235756047D01*
X242218928Y-235708428D01*
X242409404Y-235708428D01*
X242504642Y-235756047D01*
X242552261Y-235803666D01*
X242599880Y-235898904D01*
X242599880Y-236089380D01*
X242552261Y-236184619D01*
X242504642Y-236232238D01*
X242409404Y-236279857D01*
X242218928Y-236279857D01*
X242123690Y-236232238D01*
X242076071Y-236184619D01*
X242028452Y-236089380D01*
X239049880Y-233041761D02*
X238049880Y-233041761D01*
X238049880Y-233279857D01*
X238097500Y-233422714D01*
X238192738Y-233517952D01*
X238287976Y-233565571D01*
X238478452Y-233613190D01*
X238621309Y-233613190D01*
X238811785Y-233565571D01*
X238907023Y-233517952D01*
X239002261Y-233422714D01*
X239049880Y-233279857D01*
X239049880Y-233041761D01*
X239145119Y-233803666D02*
X239145119Y-234565571D01*
X238145119Y-234756047D02*
X238097500Y-234803666D01*
X238049880Y-234898904D01*
X238049880Y-235137000D01*
X238097500Y-235232238D01*
X238145119Y-235279857D01*
X238240357Y-235327476D01*
X238335595Y-235327476D01*
X238478452Y-235279857D01*
X239049880Y-234708428D01*
X239049880Y-235327476D01*
X238383214Y-236184619D02*
X239049880Y-236184619D01*
X238002261Y-235946523D02*
X238716547Y-235708428D01*
X238716547Y-236327476D01*
X200888980Y-233049961D02*
X199888980Y-233049961D01*
X199888980Y-233288057D01*
X199936600Y-233430914D01*
X200031838Y-233526152D01*
X200127076Y-233573771D01*
X200317552Y-233621390D01*
X200460409Y-233621390D01*
X200650885Y-233573771D01*
X200746123Y-233526152D01*
X200841361Y-233430914D01*
X200888980Y-233288057D01*
X200888980Y-233049961D01*
X200984219Y-233811866D02*
X200984219Y-234573771D01*
X200888980Y-235335676D02*
X200888980Y-234764247D01*
X200888980Y-235049961D02*
X199888980Y-235049961D01*
X200031838Y-234954723D01*
X200127076Y-234859485D01*
X200174695Y-234764247D01*
X200888980Y-235811866D02*
X200888980Y-236002342D01*
X200841361Y-236097580D01*
X200793742Y-236145200D01*
X200650885Y-236240438D01*
X200460409Y-236288057D01*
X200079457Y-236288057D01*
X199984219Y-236240438D01*
X199936600Y-236192819D01*
X199888980Y-236097580D01*
X199888980Y-235907104D01*
X199936600Y-235811866D01*
X199984219Y-235764247D01*
X200079457Y-235716628D01*
X200317552Y-235716628D01*
X200412790Y-235764247D01*
X200460409Y-235811866D01*
X200508028Y-235907104D01*
X200508028Y-236097580D01*
X200460409Y-236192819D01*
X200412790Y-236240438D01*
X200317552Y-236288057D01*
X197409180Y-233041761D02*
X196409180Y-233041761D01*
X196409180Y-233279857D01*
X196456800Y-233422714D01*
X196552038Y-233517952D01*
X196647276Y-233565571D01*
X196837752Y-233613190D01*
X196980609Y-233613190D01*
X197171085Y-233565571D01*
X197266323Y-233517952D01*
X197361561Y-233422714D01*
X197409180Y-233279857D01*
X197409180Y-233041761D01*
X197504419Y-233803666D02*
X197504419Y-234565571D01*
X197409180Y-235327476D02*
X197409180Y-234756047D01*
X197409180Y-235041761D02*
X196409180Y-235041761D01*
X196552038Y-234946523D01*
X196647276Y-234851285D01*
X196694895Y-234756047D01*
X196742514Y-236184619D02*
X197409180Y-236184619D01*
X196361561Y-235946523D02*
X197075847Y-235708428D01*
X197075847Y-236327476D01*
X132903980Y-233517952D02*
X131903980Y-233517952D01*
X131903980Y-233756047D01*
X131951600Y-233898904D01*
X132046838Y-233994142D01*
X132142076Y-234041761D01*
X132332552Y-234089380D01*
X132475409Y-234089380D01*
X132665885Y-234041761D01*
X132761123Y-233994142D01*
X132856361Y-233898904D01*
X132903980Y-233756047D01*
X132903980Y-233517952D01*
X132999219Y-234279857D02*
X132999219Y-235041761D01*
X132903980Y-235327476D02*
X132903980Y-235517952D01*
X132856361Y-235613190D01*
X132808742Y-235660809D01*
X132665885Y-235756047D01*
X132475409Y-235803666D01*
X132094457Y-235803666D01*
X131999219Y-235756047D01*
X131951600Y-235708428D01*
X131903980Y-235613190D01*
X131903980Y-235422714D01*
X131951600Y-235327476D01*
X131999219Y-235279857D01*
X132094457Y-235232238D01*
X132332552Y-235232238D01*
X132427790Y-235279857D01*
X132475409Y-235327476D01*
X132523028Y-235422714D01*
X132523028Y-235613190D01*
X132475409Y-235708428D01*
X132427790Y-235756047D01*
X132332552Y-235803666D01*
X129601980Y-233517952D02*
X128601980Y-233517952D01*
X128601980Y-233756047D01*
X128649600Y-233898904D01*
X128744838Y-233994142D01*
X128840076Y-234041761D01*
X129030552Y-234089380D01*
X129173409Y-234089380D01*
X129363885Y-234041761D01*
X129459123Y-233994142D01*
X129554361Y-233898904D01*
X129601980Y-233756047D01*
X129601980Y-233517952D01*
X129697219Y-234279857D02*
X129697219Y-235041761D01*
X128935314Y-235708428D02*
X129601980Y-235708428D01*
X128554361Y-235470333D02*
X129268647Y-235232238D01*
X129268647Y-235851285D01*
X438727380Y-216334761D02*
X437727380Y-216334761D01*
X437727380Y-216572857D01*
X437775000Y-216715714D01*
X437870238Y-216810952D01*
X437965476Y-216858571D01*
X438155952Y-216906190D01*
X438298809Y-216906190D01*
X438489285Y-216858571D01*
X438584523Y-216810952D01*
X438679761Y-216715714D01*
X438727380Y-216572857D01*
X438727380Y-216334761D01*
X438822619Y-217096666D02*
X438822619Y-217858571D01*
X437727380Y-218001428D02*
X437727380Y-218668095D01*
X438727380Y-218239523D01*
X438060714Y-219477619D02*
X438727380Y-219477619D01*
X437679761Y-219239523D02*
X438394047Y-219001428D01*
X438394047Y-219620476D01*
X435312380Y-216316761D02*
X434312380Y-216316761D01*
X434312380Y-216554857D01*
X434360000Y-216697714D01*
X434455238Y-216792952D01*
X434550476Y-216840571D01*
X434740952Y-216888190D01*
X434883809Y-216888190D01*
X435074285Y-216840571D01*
X435169523Y-216792952D01*
X435264761Y-216697714D01*
X435312380Y-216554857D01*
X435312380Y-216316761D01*
X435407619Y-217078666D02*
X435407619Y-217840571D01*
X434312380Y-218507238D02*
X434312380Y-218316761D01*
X434360000Y-218221523D01*
X434407619Y-218173904D01*
X434550476Y-218078666D01*
X434740952Y-218031047D01*
X435121904Y-218031047D01*
X435217142Y-218078666D01*
X435264761Y-218126285D01*
X435312380Y-218221523D01*
X435312380Y-218412000D01*
X435264761Y-218507238D01*
X435217142Y-218554857D01*
X435121904Y-218602476D01*
X434883809Y-218602476D01*
X434788571Y-218554857D01*
X434740952Y-218507238D01*
X434693333Y-218412000D01*
X434693333Y-218221523D01*
X434740952Y-218126285D01*
X434788571Y-218078666D01*
X434883809Y-218031047D01*
X435312380Y-219078666D02*
X435312380Y-219269142D01*
X435264761Y-219364380D01*
X435217142Y-219412000D01*
X435074285Y-219507238D01*
X434883809Y-219554857D01*
X434502857Y-219554857D01*
X434407619Y-219507238D01*
X434360000Y-219459619D01*
X434312380Y-219364380D01*
X434312380Y-219173904D01*
X434360000Y-219078666D01*
X434407619Y-219031047D01*
X434502857Y-218983428D01*
X434740952Y-218983428D01*
X434836190Y-219031047D01*
X434883809Y-219078666D01*
X434931428Y-219173904D01*
X434931428Y-219364380D01*
X434883809Y-219459619D01*
X434836190Y-219507238D01*
X434740952Y-219554857D01*
X385427380Y-213991761D02*
X384427380Y-213991761D01*
X384427380Y-214229857D01*
X384475000Y-214372714D01*
X384570238Y-214467952D01*
X384665476Y-214515571D01*
X384855952Y-214563190D01*
X384998809Y-214563190D01*
X385189285Y-214515571D01*
X385284523Y-214467952D01*
X385379761Y-214372714D01*
X385427380Y-214229857D01*
X385427380Y-213991761D01*
X385522619Y-214753666D02*
X385522619Y-215515571D01*
X384427380Y-216182238D02*
X384427380Y-215991761D01*
X384475000Y-215896523D01*
X384522619Y-215848904D01*
X384665476Y-215753666D01*
X384855952Y-215706047D01*
X385236904Y-215706047D01*
X385332142Y-215753666D01*
X385379761Y-215801285D01*
X385427380Y-215896523D01*
X385427380Y-216087000D01*
X385379761Y-216182238D01*
X385332142Y-216229857D01*
X385236904Y-216277476D01*
X384998809Y-216277476D01*
X384903571Y-216229857D01*
X384855952Y-216182238D01*
X384808333Y-216087000D01*
X384808333Y-215896523D01*
X384855952Y-215801285D01*
X384903571Y-215753666D01*
X384998809Y-215706047D01*
X384760714Y-217134619D02*
X385427380Y-217134619D01*
X384379761Y-216896523D02*
X385094047Y-216658428D01*
X385094047Y-217277476D01*
X381952380Y-213984761D02*
X380952380Y-213984761D01*
X380952380Y-214222857D01*
X381000000Y-214365714D01*
X381095238Y-214460952D01*
X381190476Y-214508571D01*
X381380952Y-214556190D01*
X381523809Y-214556190D01*
X381714285Y-214508571D01*
X381809523Y-214460952D01*
X381904761Y-214365714D01*
X381952380Y-214222857D01*
X381952380Y-213984761D01*
X382047619Y-214746666D02*
X382047619Y-215508571D01*
X380952380Y-216222857D02*
X380952380Y-215746666D01*
X381428571Y-215699047D01*
X381380952Y-215746666D01*
X381333333Y-215841904D01*
X381333333Y-216080000D01*
X381380952Y-216175238D01*
X381428571Y-216222857D01*
X381523809Y-216270476D01*
X381761904Y-216270476D01*
X381857142Y-216222857D01*
X381904761Y-216175238D01*
X381952380Y-216080000D01*
X381952380Y-215841904D01*
X381904761Y-215746666D01*
X381857142Y-215699047D01*
X381952380Y-216746666D02*
X381952380Y-216937142D01*
X381904761Y-217032380D01*
X381857142Y-217080000D01*
X381714285Y-217175238D01*
X381523809Y-217222857D01*
X381142857Y-217222857D01*
X381047619Y-217175238D01*
X381000000Y-217127619D01*
X380952380Y-217032380D01*
X380952380Y-216841904D01*
X381000000Y-216746666D01*
X381047619Y-216699047D01*
X381142857Y-216651428D01*
X381380952Y-216651428D01*
X381476190Y-216699047D01*
X381523809Y-216746666D01*
X381571428Y-216841904D01*
X381571428Y-217032380D01*
X381523809Y-217127619D01*
X381476190Y-217175238D01*
X381380952Y-217222857D01*
X347374880Y-213991761D02*
X346374880Y-213991761D01*
X346374880Y-214229857D01*
X346422500Y-214372714D01*
X346517738Y-214467952D01*
X346612976Y-214515571D01*
X346803452Y-214563190D01*
X346946309Y-214563190D01*
X347136785Y-214515571D01*
X347232023Y-214467952D01*
X347327261Y-214372714D01*
X347374880Y-214229857D01*
X347374880Y-213991761D01*
X347470119Y-214753666D02*
X347470119Y-215515571D01*
X346374880Y-216229857D02*
X346374880Y-215753666D01*
X346851071Y-215706047D01*
X346803452Y-215753666D01*
X346755833Y-215848904D01*
X346755833Y-216087000D01*
X346803452Y-216182238D01*
X346851071Y-216229857D01*
X346946309Y-216277476D01*
X347184404Y-216277476D01*
X347279642Y-216229857D01*
X347327261Y-216182238D01*
X347374880Y-216087000D01*
X347374880Y-215848904D01*
X347327261Y-215753666D01*
X347279642Y-215706047D01*
X346374880Y-217182238D02*
X346374880Y-216706047D01*
X346851071Y-216658428D01*
X346803452Y-216706047D01*
X346755833Y-216801285D01*
X346755833Y-217039380D01*
X346803452Y-217134619D01*
X346851071Y-217182238D01*
X346946309Y-217229857D01*
X347184404Y-217229857D01*
X347279642Y-217182238D01*
X347327261Y-217134619D01*
X347374880Y-217039380D01*
X347374880Y-216801285D01*
X347327261Y-216706047D01*
X347279642Y-216658428D01*
X343824880Y-213991761D02*
X342824880Y-213991761D01*
X342824880Y-214229857D01*
X342872500Y-214372714D01*
X342967738Y-214467952D01*
X343062976Y-214515571D01*
X343253452Y-214563190D01*
X343396309Y-214563190D01*
X343586785Y-214515571D01*
X343682023Y-214467952D01*
X343777261Y-214372714D01*
X343824880Y-214229857D01*
X343824880Y-213991761D01*
X343920119Y-214753666D02*
X343920119Y-215515571D01*
X342824880Y-216229857D02*
X342824880Y-215753666D01*
X343301071Y-215706047D01*
X343253452Y-215753666D01*
X343205833Y-215848904D01*
X343205833Y-216087000D01*
X343253452Y-216182238D01*
X343301071Y-216229857D01*
X343396309Y-216277476D01*
X343634404Y-216277476D01*
X343729642Y-216229857D01*
X343777261Y-216182238D01*
X343824880Y-216087000D01*
X343824880Y-215848904D01*
X343777261Y-215753666D01*
X343729642Y-215706047D01*
X342824880Y-216896523D02*
X342824880Y-216991761D01*
X342872500Y-217087000D01*
X342920119Y-217134619D01*
X343015357Y-217182238D01*
X343205833Y-217229857D01*
X343443928Y-217229857D01*
X343634404Y-217182238D01*
X343729642Y-217134619D01*
X343777261Y-217087000D01*
X343824880Y-216991761D01*
X343824880Y-216896523D01*
X343777261Y-216801285D01*
X343729642Y-216753666D01*
X343634404Y-216706047D01*
X343443928Y-216658428D01*
X343205833Y-216658428D01*
X343015357Y-216706047D01*
X342920119Y-216753666D01*
X342872500Y-216801285D01*
X342824880Y-216896523D01*
X309274880Y-213991761D02*
X308274880Y-213991761D01*
X308274880Y-214229857D01*
X308322500Y-214372714D01*
X308417738Y-214467952D01*
X308512976Y-214515571D01*
X308703452Y-214563190D01*
X308846309Y-214563190D01*
X309036785Y-214515571D01*
X309132023Y-214467952D01*
X309227261Y-214372714D01*
X309274880Y-214229857D01*
X309274880Y-213991761D01*
X309370119Y-214753666D02*
X309370119Y-215515571D01*
X308608214Y-216182238D02*
X309274880Y-216182238D01*
X308227261Y-215944142D02*
X308941547Y-215706047D01*
X308941547Y-216325095D01*
X308274880Y-217182238D02*
X308274880Y-216706047D01*
X308751071Y-216658428D01*
X308703452Y-216706047D01*
X308655833Y-216801285D01*
X308655833Y-217039380D01*
X308703452Y-217134619D01*
X308751071Y-217182238D01*
X308846309Y-217229857D01*
X309084404Y-217229857D01*
X309179642Y-217182238D01*
X309227261Y-217134619D01*
X309274880Y-217039380D01*
X309274880Y-216801285D01*
X309227261Y-216706047D01*
X309179642Y-216658428D01*
X305724880Y-213991761D02*
X304724880Y-213991761D01*
X304724880Y-214229857D01*
X304772500Y-214372714D01*
X304867738Y-214467952D01*
X304962976Y-214515571D01*
X305153452Y-214563190D01*
X305296309Y-214563190D01*
X305486785Y-214515571D01*
X305582023Y-214467952D01*
X305677261Y-214372714D01*
X305724880Y-214229857D01*
X305724880Y-213991761D01*
X305820119Y-214753666D02*
X305820119Y-215515571D01*
X305058214Y-216182238D02*
X305724880Y-216182238D01*
X304677261Y-215944142D02*
X305391547Y-215706047D01*
X305391547Y-216325095D01*
X305724880Y-217229857D02*
X305724880Y-216658428D01*
X305724880Y-216944142D02*
X304724880Y-216944142D01*
X304867738Y-216848904D01*
X304962976Y-216753666D01*
X305010595Y-216658428D01*
X271174880Y-213991761D02*
X270174880Y-213991761D01*
X270174880Y-214229857D01*
X270222500Y-214372714D01*
X270317738Y-214467952D01*
X270412976Y-214515571D01*
X270603452Y-214563190D01*
X270746309Y-214563190D01*
X270936785Y-214515571D01*
X271032023Y-214467952D01*
X271127261Y-214372714D01*
X271174880Y-214229857D01*
X271174880Y-213991761D01*
X271270119Y-214753666D02*
X271270119Y-215515571D01*
X270174880Y-215658428D02*
X270174880Y-216277476D01*
X270555833Y-215944142D01*
X270555833Y-216087000D01*
X270603452Y-216182238D01*
X270651071Y-216229857D01*
X270746309Y-216277476D01*
X270984404Y-216277476D01*
X271079642Y-216229857D01*
X271127261Y-216182238D01*
X271174880Y-216087000D01*
X271174880Y-215801285D01*
X271127261Y-215706047D01*
X271079642Y-215658428D01*
X270174880Y-216610809D02*
X270174880Y-217277476D01*
X271174880Y-216848904D01*
X267624880Y-213991761D02*
X266624880Y-213991761D01*
X266624880Y-214229857D01*
X266672500Y-214372714D01*
X266767738Y-214467952D01*
X266862976Y-214515571D01*
X267053452Y-214563190D01*
X267196309Y-214563190D01*
X267386785Y-214515571D01*
X267482023Y-214467952D01*
X267577261Y-214372714D01*
X267624880Y-214229857D01*
X267624880Y-213991761D01*
X267720119Y-214753666D02*
X267720119Y-215515571D01*
X266624880Y-215658428D02*
X266624880Y-216277476D01*
X267005833Y-215944142D01*
X267005833Y-216087000D01*
X267053452Y-216182238D01*
X267101071Y-216229857D01*
X267196309Y-216277476D01*
X267434404Y-216277476D01*
X267529642Y-216229857D01*
X267577261Y-216182238D01*
X267624880Y-216087000D01*
X267624880Y-215801285D01*
X267577261Y-215706047D01*
X267529642Y-215658428D01*
X266720119Y-216658428D02*
X266672500Y-216706047D01*
X266624880Y-216801285D01*
X266624880Y-217039380D01*
X266672500Y-217134619D01*
X266720119Y-217182238D01*
X266815357Y-217229857D01*
X266910595Y-217229857D01*
X267053452Y-217182238D01*
X267624880Y-216610809D01*
X267624880Y-217229857D01*
X233074880Y-213991761D02*
X232074880Y-213991761D01*
X232074880Y-214229857D01*
X232122500Y-214372714D01*
X232217738Y-214467952D01*
X232312976Y-214515571D01*
X232503452Y-214563190D01*
X232646309Y-214563190D01*
X232836785Y-214515571D01*
X232932023Y-214467952D01*
X233027261Y-214372714D01*
X233074880Y-214229857D01*
X233074880Y-213991761D01*
X233170119Y-214753666D02*
X233170119Y-215515571D01*
X232170119Y-215706047D02*
X232122500Y-215753666D01*
X232074880Y-215848904D01*
X232074880Y-216087000D01*
X232122500Y-216182238D01*
X232170119Y-216229857D01*
X232265357Y-216277476D01*
X232360595Y-216277476D01*
X232503452Y-216229857D01*
X233074880Y-215658428D01*
X233074880Y-216277476D01*
X232074880Y-216610809D02*
X232074880Y-217277476D01*
X233074880Y-216848904D01*
X229524880Y-213991761D02*
X228524880Y-213991761D01*
X228524880Y-214229857D01*
X228572500Y-214372714D01*
X228667738Y-214467952D01*
X228762976Y-214515571D01*
X228953452Y-214563190D01*
X229096309Y-214563190D01*
X229286785Y-214515571D01*
X229382023Y-214467952D01*
X229477261Y-214372714D01*
X229524880Y-214229857D01*
X229524880Y-213991761D01*
X229620119Y-214753666D02*
X229620119Y-215515571D01*
X228620119Y-215706047D02*
X228572500Y-215753666D01*
X228524880Y-215848904D01*
X228524880Y-216087000D01*
X228572500Y-216182238D01*
X228620119Y-216229857D01*
X228715357Y-216277476D01*
X228810595Y-216277476D01*
X228953452Y-216229857D01*
X229524880Y-215658428D01*
X229524880Y-216277476D01*
X228524880Y-216610809D02*
X228524880Y-217229857D01*
X228905833Y-216896523D01*
X228905833Y-217039380D01*
X228953452Y-217134619D01*
X229001071Y-217182238D01*
X229096309Y-217229857D01*
X229334404Y-217229857D01*
X229429642Y-217182238D01*
X229477261Y-217134619D01*
X229524880Y-217039380D01*
X229524880Y-216753666D01*
X229477261Y-216658428D01*
X229429642Y-216610809D01*
X194940180Y-213974561D02*
X193940180Y-213974561D01*
X193940180Y-214212657D01*
X193987800Y-214355514D01*
X194083038Y-214450752D01*
X194178276Y-214498371D01*
X194368752Y-214545990D01*
X194511609Y-214545990D01*
X194702085Y-214498371D01*
X194797323Y-214450752D01*
X194892561Y-214355514D01*
X194940180Y-214212657D01*
X194940180Y-213974561D01*
X195035419Y-214736466D02*
X195035419Y-215498371D01*
X194940180Y-216260276D02*
X194940180Y-215688847D01*
X194940180Y-215974561D02*
X193940180Y-215974561D01*
X194083038Y-215879323D01*
X194178276Y-215784085D01*
X194225895Y-215688847D01*
X194368752Y-216831704D02*
X194321133Y-216736466D01*
X194273514Y-216688847D01*
X194178276Y-216641228D01*
X194130657Y-216641228D01*
X194035419Y-216688847D01*
X193987800Y-216736466D01*
X193940180Y-216831704D01*
X193940180Y-217022180D01*
X193987800Y-217117419D01*
X194035419Y-217165038D01*
X194130657Y-217212657D01*
X194178276Y-217212657D01*
X194273514Y-217165038D01*
X194321133Y-217117419D01*
X194368752Y-217022180D01*
X194368752Y-216831704D01*
X194416371Y-216736466D01*
X194463990Y-216688847D01*
X194559228Y-216641228D01*
X194749704Y-216641228D01*
X194844942Y-216688847D01*
X194892561Y-216736466D01*
X194940180Y-216831704D01*
X194940180Y-217022180D01*
X194892561Y-217117419D01*
X194844942Y-217165038D01*
X194749704Y-217212657D01*
X194559228Y-217212657D01*
X194463990Y-217165038D01*
X194416371Y-217117419D01*
X194368752Y-217022180D01*
X191282580Y-213974561D02*
X190282580Y-213974561D01*
X190282580Y-214212657D01*
X190330200Y-214355514D01*
X190425438Y-214450752D01*
X190520676Y-214498371D01*
X190711152Y-214545990D01*
X190854009Y-214545990D01*
X191044485Y-214498371D01*
X191139723Y-214450752D01*
X191234961Y-214355514D01*
X191282580Y-214212657D01*
X191282580Y-213974561D01*
X191377819Y-214736466D02*
X191377819Y-215498371D01*
X191282580Y-216260276D02*
X191282580Y-215688847D01*
X191282580Y-215974561D02*
X190282580Y-215974561D01*
X190425438Y-215879323D01*
X190520676Y-215784085D01*
X190568295Y-215688847D01*
X191282580Y-217212657D02*
X191282580Y-216641228D01*
X191282580Y-216926942D02*
X190282580Y-216926942D01*
X190425438Y-216831704D01*
X190520676Y-216736466D01*
X190568295Y-216641228D01*
X132903980Y-214467952D02*
X131903980Y-214467952D01*
X131903980Y-214706047D01*
X131951600Y-214848904D01*
X132046838Y-214944142D01*
X132142076Y-214991761D01*
X132332552Y-215039380D01*
X132475409Y-215039380D01*
X132665885Y-214991761D01*
X132761123Y-214944142D01*
X132856361Y-214848904D01*
X132903980Y-214706047D01*
X132903980Y-214467952D01*
X132999219Y-215229857D02*
X132999219Y-215991761D01*
X132332552Y-216372714D02*
X132284933Y-216277476D01*
X132237314Y-216229857D01*
X132142076Y-216182238D01*
X132094457Y-216182238D01*
X131999219Y-216229857D01*
X131951600Y-216277476D01*
X131903980Y-216372714D01*
X131903980Y-216563190D01*
X131951600Y-216658428D01*
X131999219Y-216706047D01*
X132094457Y-216753666D01*
X132142076Y-216753666D01*
X132237314Y-216706047D01*
X132284933Y-216658428D01*
X132332552Y-216563190D01*
X132332552Y-216372714D01*
X132380171Y-216277476D01*
X132427790Y-216229857D01*
X132523028Y-216182238D01*
X132713504Y-216182238D01*
X132808742Y-216229857D01*
X132856361Y-216277476D01*
X132903980Y-216372714D01*
X132903980Y-216563190D01*
X132856361Y-216658428D01*
X132808742Y-216706047D01*
X132713504Y-216753666D01*
X132523028Y-216753666D01*
X132427790Y-216706047D01*
X132380171Y-216658428D01*
X132332552Y-216563190D01*
X129601980Y-214467952D02*
X128601980Y-214467952D01*
X128601980Y-214706047D01*
X128649600Y-214848904D01*
X128744838Y-214944142D01*
X128840076Y-214991761D01*
X129030552Y-215039380D01*
X129173409Y-215039380D01*
X129363885Y-214991761D01*
X129459123Y-214944142D01*
X129554361Y-214848904D01*
X129601980Y-214706047D01*
X129601980Y-214467952D01*
X129697219Y-215229857D02*
X129697219Y-215991761D01*
X128601980Y-216134619D02*
X128601980Y-216753666D01*
X128982933Y-216420333D01*
X128982933Y-216563190D01*
X129030552Y-216658428D01*
X129078171Y-216706047D01*
X129173409Y-216753666D01*
X129411504Y-216753666D01*
X129506742Y-216706047D01*
X129554361Y-216658428D01*
X129601980Y-216563190D01*
X129601980Y-216277476D01*
X129554361Y-216182238D01*
X129506742Y-216134619D01*
X443677380Y-194909761D02*
X442677380Y-194909761D01*
X442677380Y-195147857D01*
X442725000Y-195290714D01*
X442820238Y-195385952D01*
X442915476Y-195433571D01*
X443105952Y-195481190D01*
X443248809Y-195481190D01*
X443439285Y-195433571D01*
X443534523Y-195385952D01*
X443629761Y-195290714D01*
X443677380Y-195147857D01*
X443677380Y-194909761D01*
X443772619Y-195671666D02*
X443772619Y-196433571D01*
X442677380Y-196576428D02*
X442677380Y-197243095D01*
X443677380Y-196814523D01*
X443105952Y-197766904D02*
X443058333Y-197671666D01*
X443010714Y-197624047D01*
X442915476Y-197576428D01*
X442867857Y-197576428D01*
X442772619Y-197624047D01*
X442725000Y-197671666D01*
X442677380Y-197766904D01*
X442677380Y-197957380D01*
X442725000Y-198052619D01*
X442772619Y-198100238D01*
X442867857Y-198147857D01*
X442915476Y-198147857D01*
X443010714Y-198100238D01*
X443058333Y-198052619D01*
X443105952Y-197957380D01*
X443105952Y-197766904D01*
X443153571Y-197671666D01*
X443201190Y-197624047D01*
X443296428Y-197576428D01*
X443486904Y-197576428D01*
X443582142Y-197624047D01*
X443629761Y-197671666D01*
X443677380Y-197766904D01*
X443677380Y-197957380D01*
X443629761Y-198052619D01*
X443582142Y-198100238D01*
X443486904Y-198147857D01*
X443296428Y-198147857D01*
X443201190Y-198100238D01*
X443153571Y-198052619D01*
X443105952Y-197957380D01*
X440227380Y-194884761D02*
X439227380Y-194884761D01*
X439227380Y-195122857D01*
X439275000Y-195265714D01*
X439370238Y-195360952D01*
X439465476Y-195408571D01*
X439655952Y-195456190D01*
X439798809Y-195456190D01*
X439989285Y-195408571D01*
X440084523Y-195360952D01*
X440179761Y-195265714D01*
X440227380Y-195122857D01*
X440227380Y-194884761D01*
X440322619Y-195646666D02*
X440322619Y-196408571D01*
X439227380Y-196551428D02*
X439227380Y-197218095D01*
X440227380Y-196789523D01*
X439227380Y-197503809D02*
X439227380Y-198122857D01*
X439608333Y-197789523D01*
X439608333Y-197932380D01*
X439655952Y-198027619D01*
X439703571Y-198075238D01*
X439798809Y-198122857D01*
X440036904Y-198122857D01*
X440132142Y-198075238D01*
X440179761Y-198027619D01*
X440227380Y-197932380D01*
X440227380Y-197646666D01*
X440179761Y-197551428D01*
X440132142Y-197503809D01*
X416012380Y-194941761D02*
X415012380Y-194941761D01*
X415012380Y-195179857D01*
X415060000Y-195322714D01*
X415155238Y-195417952D01*
X415250476Y-195465571D01*
X415440952Y-195513190D01*
X415583809Y-195513190D01*
X415774285Y-195465571D01*
X415869523Y-195417952D01*
X415964761Y-195322714D01*
X416012380Y-195179857D01*
X416012380Y-194941761D01*
X416107619Y-195703666D02*
X416107619Y-196465571D01*
X415012380Y-197132238D02*
X415012380Y-196941761D01*
X415060000Y-196846523D01*
X415107619Y-196798904D01*
X415250476Y-196703666D01*
X415440952Y-196656047D01*
X415821904Y-196656047D01*
X415917142Y-196703666D01*
X415964761Y-196751285D01*
X416012380Y-196846523D01*
X416012380Y-197037000D01*
X415964761Y-197132238D01*
X415917142Y-197179857D01*
X415821904Y-197227476D01*
X415583809Y-197227476D01*
X415488571Y-197179857D01*
X415440952Y-197132238D01*
X415393333Y-197037000D01*
X415393333Y-196846523D01*
X415440952Y-196751285D01*
X415488571Y-196703666D01*
X415583809Y-196656047D01*
X415440952Y-197798904D02*
X415393333Y-197703666D01*
X415345714Y-197656047D01*
X415250476Y-197608428D01*
X415202857Y-197608428D01*
X415107619Y-197656047D01*
X415060000Y-197703666D01*
X415012380Y-197798904D01*
X415012380Y-197989380D01*
X415060000Y-198084619D01*
X415107619Y-198132238D01*
X415202857Y-198179857D01*
X415250476Y-198179857D01*
X415345714Y-198132238D01*
X415393333Y-198084619D01*
X415440952Y-197989380D01*
X415440952Y-197798904D01*
X415488571Y-197703666D01*
X415536190Y-197656047D01*
X415631428Y-197608428D01*
X415821904Y-197608428D01*
X415917142Y-197656047D01*
X415964761Y-197703666D01*
X416012380Y-197798904D01*
X416012380Y-197989380D01*
X415964761Y-198084619D01*
X415917142Y-198132238D01*
X415821904Y-198179857D01*
X415631428Y-198179857D01*
X415536190Y-198132238D01*
X415488571Y-198084619D01*
X415440952Y-197989380D01*
X380702380Y-194941761D02*
X379702380Y-194941761D01*
X379702380Y-195179857D01*
X379750000Y-195322714D01*
X379845238Y-195417952D01*
X379940476Y-195465571D01*
X380130952Y-195513190D01*
X380273809Y-195513190D01*
X380464285Y-195465571D01*
X380559523Y-195417952D01*
X380654761Y-195322714D01*
X380702380Y-195179857D01*
X380702380Y-194941761D01*
X380797619Y-195703666D02*
X380797619Y-196465571D01*
X379702380Y-197132238D02*
X379702380Y-196941761D01*
X379750000Y-196846523D01*
X379797619Y-196798904D01*
X379940476Y-196703666D01*
X380130952Y-196656047D01*
X380511904Y-196656047D01*
X380607142Y-196703666D01*
X380654761Y-196751285D01*
X380702380Y-196846523D01*
X380702380Y-197037000D01*
X380654761Y-197132238D01*
X380607142Y-197179857D01*
X380511904Y-197227476D01*
X380273809Y-197227476D01*
X380178571Y-197179857D01*
X380130952Y-197132238D01*
X380083333Y-197037000D01*
X380083333Y-196846523D01*
X380130952Y-196751285D01*
X380178571Y-196703666D01*
X380273809Y-196656047D01*
X379702380Y-197560809D02*
X379702380Y-198179857D01*
X380083333Y-197846523D01*
X380083333Y-197989380D01*
X380130952Y-198084619D01*
X380178571Y-198132238D01*
X380273809Y-198179857D01*
X380511904Y-198179857D01*
X380607142Y-198132238D01*
X380654761Y-198084619D01*
X380702380Y-197989380D01*
X380702380Y-197703666D01*
X380654761Y-197608428D01*
X380607142Y-197560809D01*
X377202380Y-194934761D02*
X376202380Y-194934761D01*
X376202380Y-195172857D01*
X376250000Y-195315714D01*
X376345238Y-195410952D01*
X376440476Y-195458571D01*
X376630952Y-195506190D01*
X376773809Y-195506190D01*
X376964285Y-195458571D01*
X377059523Y-195410952D01*
X377154761Y-195315714D01*
X377202380Y-195172857D01*
X377202380Y-194934761D01*
X377297619Y-195696666D02*
X377297619Y-196458571D01*
X376202380Y-197172857D02*
X376202380Y-196696666D01*
X376678571Y-196649047D01*
X376630952Y-196696666D01*
X376583333Y-196791904D01*
X376583333Y-197030000D01*
X376630952Y-197125238D01*
X376678571Y-197172857D01*
X376773809Y-197220476D01*
X377011904Y-197220476D01*
X377107142Y-197172857D01*
X377154761Y-197125238D01*
X377202380Y-197030000D01*
X377202380Y-196791904D01*
X377154761Y-196696666D01*
X377107142Y-196649047D01*
X376630952Y-197791904D02*
X376583333Y-197696666D01*
X376535714Y-197649047D01*
X376440476Y-197601428D01*
X376392857Y-197601428D01*
X376297619Y-197649047D01*
X376250000Y-197696666D01*
X376202380Y-197791904D01*
X376202380Y-197982380D01*
X376250000Y-198077619D01*
X376297619Y-198125238D01*
X376392857Y-198172857D01*
X376440476Y-198172857D01*
X376535714Y-198125238D01*
X376583333Y-198077619D01*
X376630952Y-197982380D01*
X376630952Y-197791904D01*
X376678571Y-197696666D01*
X376726190Y-197649047D01*
X376821428Y-197601428D01*
X377011904Y-197601428D01*
X377107142Y-197649047D01*
X377154761Y-197696666D01*
X377202380Y-197791904D01*
X377202380Y-197982380D01*
X377154761Y-198077619D01*
X377107142Y-198125238D01*
X377011904Y-198172857D01*
X376821428Y-198172857D01*
X376726190Y-198125238D01*
X376678571Y-198077619D01*
X376630952Y-197982380D01*
X342612380Y-194941761D02*
X341612380Y-194941761D01*
X341612380Y-195179857D01*
X341660000Y-195322714D01*
X341755238Y-195417952D01*
X341850476Y-195465571D01*
X342040952Y-195513190D01*
X342183809Y-195513190D01*
X342374285Y-195465571D01*
X342469523Y-195417952D01*
X342564761Y-195322714D01*
X342612380Y-195179857D01*
X342612380Y-194941761D01*
X342707619Y-195703666D02*
X342707619Y-196465571D01*
X341612380Y-197179857D02*
X341612380Y-196703666D01*
X342088571Y-196656047D01*
X342040952Y-196703666D01*
X341993333Y-196798904D01*
X341993333Y-197037000D01*
X342040952Y-197132238D01*
X342088571Y-197179857D01*
X342183809Y-197227476D01*
X342421904Y-197227476D01*
X342517142Y-197179857D01*
X342564761Y-197132238D01*
X342612380Y-197037000D01*
X342612380Y-196798904D01*
X342564761Y-196703666D01*
X342517142Y-196656047D01*
X341945714Y-198084619D02*
X342612380Y-198084619D01*
X341564761Y-197846523D02*
X342279047Y-197608428D01*
X342279047Y-198227476D01*
X339062380Y-194941761D02*
X338062380Y-194941761D01*
X338062380Y-195179857D01*
X338110000Y-195322714D01*
X338205238Y-195417952D01*
X338300476Y-195465571D01*
X338490952Y-195513190D01*
X338633809Y-195513190D01*
X338824285Y-195465571D01*
X338919523Y-195417952D01*
X339014761Y-195322714D01*
X339062380Y-195179857D01*
X339062380Y-194941761D01*
X339157619Y-195703666D02*
X339157619Y-196465571D01*
X338395714Y-197132238D02*
X339062380Y-197132238D01*
X338014761Y-196894142D02*
X338729047Y-196656047D01*
X338729047Y-197275095D01*
X339062380Y-197703666D02*
X339062380Y-197894142D01*
X339014761Y-197989380D01*
X338967142Y-198037000D01*
X338824285Y-198132238D01*
X338633809Y-198179857D01*
X338252857Y-198179857D01*
X338157619Y-198132238D01*
X338110000Y-198084619D01*
X338062380Y-197989380D01*
X338062380Y-197798904D01*
X338110000Y-197703666D01*
X338157619Y-197656047D01*
X338252857Y-197608428D01*
X338490952Y-197608428D01*
X338586190Y-197656047D01*
X338633809Y-197703666D01*
X338681428Y-197798904D01*
X338681428Y-197989380D01*
X338633809Y-198084619D01*
X338586190Y-198132238D01*
X338490952Y-198179857D01*
X304512380Y-194941761D02*
X303512380Y-194941761D01*
X303512380Y-195179857D01*
X303560000Y-195322714D01*
X303655238Y-195417952D01*
X303750476Y-195465571D01*
X303940952Y-195513190D01*
X304083809Y-195513190D01*
X304274285Y-195465571D01*
X304369523Y-195417952D01*
X304464761Y-195322714D01*
X304512380Y-195179857D01*
X304512380Y-194941761D01*
X304607619Y-195703666D02*
X304607619Y-196465571D01*
X303845714Y-197132238D02*
X304512380Y-197132238D01*
X303464761Y-196894142D02*
X304179047Y-196656047D01*
X304179047Y-197275095D01*
X303845714Y-198084619D02*
X304512380Y-198084619D01*
X303464761Y-197846523D02*
X304179047Y-197608428D01*
X304179047Y-198227476D01*
X300962380Y-194941761D02*
X299962380Y-194941761D01*
X299962380Y-195179857D01*
X300010000Y-195322714D01*
X300105238Y-195417952D01*
X300200476Y-195465571D01*
X300390952Y-195513190D01*
X300533809Y-195513190D01*
X300724285Y-195465571D01*
X300819523Y-195417952D01*
X300914761Y-195322714D01*
X300962380Y-195179857D01*
X300962380Y-194941761D01*
X301057619Y-195703666D02*
X301057619Y-196465571D01*
X300295714Y-197132238D02*
X300962380Y-197132238D01*
X299914761Y-196894142D02*
X300629047Y-196656047D01*
X300629047Y-197275095D01*
X299962380Y-197846523D02*
X299962380Y-197941761D01*
X300010000Y-198037000D01*
X300057619Y-198084619D01*
X300152857Y-198132238D01*
X300343333Y-198179857D01*
X300581428Y-198179857D01*
X300771904Y-198132238D01*
X300867142Y-198084619D01*
X300914761Y-198037000D01*
X300962380Y-197941761D01*
X300962380Y-197846523D01*
X300914761Y-197751285D01*
X300867142Y-197703666D01*
X300771904Y-197656047D01*
X300581428Y-197608428D01*
X300343333Y-197608428D01*
X300152857Y-197656047D01*
X300057619Y-197703666D01*
X300010000Y-197751285D01*
X299962380Y-197846523D01*
X266412380Y-194941761D02*
X265412380Y-194941761D01*
X265412380Y-195179857D01*
X265460000Y-195322714D01*
X265555238Y-195417952D01*
X265650476Y-195465571D01*
X265840952Y-195513190D01*
X265983809Y-195513190D01*
X266174285Y-195465571D01*
X266269523Y-195417952D01*
X266364761Y-195322714D01*
X266412380Y-195179857D01*
X266412380Y-194941761D01*
X266507619Y-195703666D02*
X266507619Y-196465571D01*
X265412380Y-196608428D02*
X265412380Y-197227476D01*
X265793333Y-196894142D01*
X265793333Y-197037000D01*
X265840952Y-197132238D01*
X265888571Y-197179857D01*
X265983809Y-197227476D01*
X266221904Y-197227476D01*
X266317142Y-197179857D01*
X266364761Y-197132238D01*
X266412380Y-197037000D01*
X266412380Y-196751285D01*
X266364761Y-196656047D01*
X266317142Y-196608428D01*
X265412380Y-198084619D02*
X265412380Y-197894142D01*
X265460000Y-197798904D01*
X265507619Y-197751285D01*
X265650476Y-197656047D01*
X265840952Y-197608428D01*
X266221904Y-197608428D01*
X266317142Y-197656047D01*
X266364761Y-197703666D01*
X266412380Y-197798904D01*
X266412380Y-197989380D01*
X266364761Y-198084619D01*
X266317142Y-198132238D01*
X266221904Y-198179857D01*
X265983809Y-198179857D01*
X265888571Y-198132238D01*
X265840952Y-198084619D01*
X265793333Y-197989380D01*
X265793333Y-197798904D01*
X265840952Y-197703666D01*
X265888571Y-197656047D01*
X265983809Y-197608428D01*
X262862380Y-194941761D02*
X261862380Y-194941761D01*
X261862380Y-195179857D01*
X261910000Y-195322714D01*
X262005238Y-195417952D01*
X262100476Y-195465571D01*
X262290952Y-195513190D01*
X262433809Y-195513190D01*
X262624285Y-195465571D01*
X262719523Y-195417952D01*
X262814761Y-195322714D01*
X262862380Y-195179857D01*
X262862380Y-194941761D01*
X262957619Y-195703666D02*
X262957619Y-196465571D01*
X261862380Y-196608428D02*
X261862380Y-197227476D01*
X262243333Y-196894142D01*
X262243333Y-197037000D01*
X262290952Y-197132238D01*
X262338571Y-197179857D01*
X262433809Y-197227476D01*
X262671904Y-197227476D01*
X262767142Y-197179857D01*
X262814761Y-197132238D01*
X262862380Y-197037000D01*
X262862380Y-196751285D01*
X262814761Y-196656047D01*
X262767142Y-196608428D01*
X262862380Y-198179857D02*
X262862380Y-197608428D01*
X262862380Y-197894142D02*
X261862380Y-197894142D01*
X262005238Y-197798904D01*
X262100476Y-197703666D01*
X262148095Y-197608428D01*
X228312380Y-194941761D02*
X227312380Y-194941761D01*
X227312380Y-195179857D01*
X227360000Y-195322714D01*
X227455238Y-195417952D01*
X227550476Y-195465571D01*
X227740952Y-195513190D01*
X227883809Y-195513190D01*
X228074285Y-195465571D01*
X228169523Y-195417952D01*
X228264761Y-195322714D01*
X228312380Y-195179857D01*
X228312380Y-194941761D01*
X228407619Y-195703666D02*
X228407619Y-196465571D01*
X227407619Y-196656047D02*
X227360000Y-196703666D01*
X227312380Y-196798904D01*
X227312380Y-197037000D01*
X227360000Y-197132238D01*
X227407619Y-197179857D01*
X227502857Y-197227476D01*
X227598095Y-197227476D01*
X227740952Y-197179857D01*
X228312380Y-196608428D01*
X228312380Y-197227476D01*
X227312380Y-198084619D02*
X227312380Y-197894142D01*
X227360000Y-197798904D01*
X227407619Y-197751285D01*
X227550476Y-197656047D01*
X227740952Y-197608428D01*
X228121904Y-197608428D01*
X228217142Y-197656047D01*
X228264761Y-197703666D01*
X228312380Y-197798904D01*
X228312380Y-197989380D01*
X228264761Y-198084619D01*
X228217142Y-198132238D01*
X228121904Y-198179857D01*
X227883809Y-198179857D01*
X227788571Y-198132238D01*
X227740952Y-198084619D01*
X227693333Y-197989380D01*
X227693333Y-197798904D01*
X227740952Y-197703666D01*
X227788571Y-197656047D01*
X227883809Y-197608428D01*
X224762380Y-194941761D02*
X223762380Y-194941761D01*
X223762380Y-195179857D01*
X223810000Y-195322714D01*
X223905238Y-195417952D01*
X224000476Y-195465571D01*
X224190952Y-195513190D01*
X224333809Y-195513190D01*
X224524285Y-195465571D01*
X224619523Y-195417952D01*
X224714761Y-195322714D01*
X224762380Y-195179857D01*
X224762380Y-194941761D01*
X224857619Y-195703666D02*
X224857619Y-196465571D01*
X223857619Y-196656047D02*
X223810000Y-196703666D01*
X223762380Y-196798904D01*
X223762380Y-197037000D01*
X223810000Y-197132238D01*
X223857619Y-197179857D01*
X223952857Y-197227476D01*
X224048095Y-197227476D01*
X224190952Y-197179857D01*
X224762380Y-196608428D01*
X224762380Y-197227476D01*
X223857619Y-197608428D02*
X223810000Y-197656047D01*
X223762380Y-197751285D01*
X223762380Y-197989380D01*
X223810000Y-198084619D01*
X223857619Y-198132238D01*
X223952857Y-198179857D01*
X224048095Y-198179857D01*
X224190952Y-198132238D01*
X224762380Y-197560809D01*
X224762380Y-198179857D01*
X190393580Y-194975361D02*
X189393580Y-194975361D01*
X189393580Y-195213457D01*
X189441200Y-195356314D01*
X189536438Y-195451552D01*
X189631676Y-195499171D01*
X189822152Y-195546790D01*
X189965009Y-195546790D01*
X190155485Y-195499171D01*
X190250723Y-195451552D01*
X190345961Y-195356314D01*
X190393580Y-195213457D01*
X190393580Y-194975361D01*
X190488819Y-195737266D02*
X190488819Y-196499171D01*
X190393580Y-197261076D02*
X190393580Y-196689647D01*
X190393580Y-196975361D02*
X189393580Y-196975361D01*
X189536438Y-196880123D01*
X189631676Y-196784885D01*
X189679295Y-196689647D01*
X189393580Y-197594409D02*
X189393580Y-198261076D01*
X190393580Y-197832504D01*
X186227980Y-194941761D02*
X185227980Y-194941761D01*
X185227980Y-195179857D01*
X185275600Y-195322714D01*
X185370838Y-195417952D01*
X185466076Y-195465571D01*
X185656552Y-195513190D01*
X185799409Y-195513190D01*
X185989885Y-195465571D01*
X186085123Y-195417952D01*
X186180361Y-195322714D01*
X186227980Y-195179857D01*
X186227980Y-194941761D01*
X186323219Y-195703666D02*
X186323219Y-196465571D01*
X186227980Y-197227476D02*
X186227980Y-196656047D01*
X186227980Y-196941761D02*
X185227980Y-196941761D01*
X185370838Y-196846523D01*
X185466076Y-196751285D01*
X185513695Y-196656047D01*
X185227980Y-197560809D02*
X185227980Y-198179857D01*
X185608933Y-197846523D01*
X185608933Y-197989380D01*
X185656552Y-198084619D01*
X185704171Y-198132238D01*
X185799409Y-198179857D01*
X186037504Y-198179857D01*
X186132742Y-198132238D01*
X186180361Y-198084619D01*
X186227980Y-197989380D01*
X186227980Y-197703666D01*
X186180361Y-197608428D01*
X186132742Y-197560809D01*
X132903980Y-195417952D02*
X131903980Y-195417952D01*
X131903980Y-195656047D01*
X131951600Y-195798904D01*
X132046838Y-195894142D01*
X132142076Y-195941761D01*
X132332552Y-195989380D01*
X132475409Y-195989380D01*
X132665885Y-195941761D01*
X132761123Y-195894142D01*
X132856361Y-195798904D01*
X132903980Y-195656047D01*
X132903980Y-195417952D01*
X132999219Y-196179857D02*
X132999219Y-196941761D01*
X131903980Y-197084619D02*
X131903980Y-197751285D01*
X132903980Y-197322714D01*
X129601980Y-195417952D02*
X128601980Y-195417952D01*
X128601980Y-195656047D01*
X128649600Y-195798904D01*
X128744838Y-195894142D01*
X128840076Y-195941761D01*
X129030552Y-195989380D01*
X129173409Y-195989380D01*
X129363885Y-195941761D01*
X129459123Y-195894142D01*
X129554361Y-195798904D01*
X129601980Y-195656047D01*
X129601980Y-195417952D01*
X129697219Y-196179857D02*
X129697219Y-196941761D01*
X128697219Y-197132238D02*
X128649600Y-197179857D01*
X128601980Y-197275095D01*
X128601980Y-197513190D01*
X128649600Y-197608428D01*
X128697219Y-197656047D01*
X128792457Y-197703666D01*
X128887695Y-197703666D01*
X129030552Y-197656047D01*
X129601980Y-197084619D01*
X129601980Y-197703666D01*
X441827380Y-216359761D02*
X440827380Y-216359761D01*
X440827380Y-216597857D01*
X440875000Y-216740714D01*
X440970238Y-216835952D01*
X441065476Y-216883571D01*
X441255952Y-216931190D01*
X441398809Y-216931190D01*
X441589285Y-216883571D01*
X441684523Y-216835952D01*
X441779761Y-216740714D01*
X441827380Y-216597857D01*
X441827380Y-216359761D01*
X441922619Y-217121666D02*
X441922619Y-217883571D01*
X440827380Y-218026428D02*
X440827380Y-218693095D01*
X441827380Y-218264523D01*
X441827380Y-219121666D02*
X441827380Y-219312142D01*
X441779761Y-219407380D01*
X441732142Y-219455000D01*
X441589285Y-219550238D01*
X441398809Y-219597857D01*
X441017857Y-219597857D01*
X440922619Y-219550238D01*
X440875000Y-219502619D01*
X440827380Y-219407380D01*
X440827380Y-219216904D01*
X440875000Y-219121666D01*
X440922619Y-219074047D01*
X441017857Y-219026428D01*
X441255952Y-219026428D01*
X441351190Y-219074047D01*
X441398809Y-219121666D01*
X441446428Y-219216904D01*
X441446428Y-219407380D01*
X441398809Y-219502619D01*
X441351190Y-219550238D01*
X441255952Y-219597857D01*
X443977380Y-175891761D02*
X442977380Y-175891761D01*
X442977380Y-176129857D01*
X443025000Y-176272714D01*
X443120238Y-176367952D01*
X443215476Y-176415571D01*
X443405952Y-176463190D01*
X443548809Y-176463190D01*
X443739285Y-176415571D01*
X443834523Y-176367952D01*
X443929761Y-176272714D01*
X443977380Y-176129857D01*
X443977380Y-175891761D01*
X444072619Y-176653666D02*
X444072619Y-177415571D01*
X442977380Y-177558428D02*
X442977380Y-178225095D01*
X443977380Y-177796523D01*
X442977380Y-178510809D02*
X442977380Y-179177476D01*
X443977380Y-178748904D01*
X409202380Y-175891761D02*
X408202380Y-175891761D01*
X408202380Y-176129857D01*
X408250000Y-176272714D01*
X408345238Y-176367952D01*
X408440476Y-176415571D01*
X408630952Y-176463190D01*
X408773809Y-176463190D01*
X408964285Y-176415571D01*
X409059523Y-176367952D01*
X409154761Y-176272714D01*
X409202380Y-176129857D01*
X409202380Y-175891761D01*
X409297619Y-176653666D02*
X409297619Y-177415571D01*
X408202380Y-177558428D02*
X408202380Y-178225095D01*
X409202380Y-177796523D01*
X408297619Y-178558428D02*
X408250000Y-178606047D01*
X408202380Y-178701285D01*
X408202380Y-178939380D01*
X408250000Y-179034619D01*
X408297619Y-179082238D01*
X408392857Y-179129857D01*
X408488095Y-179129857D01*
X408630952Y-179082238D01*
X409202380Y-178510809D01*
X409202380Y-179129857D01*
X405702380Y-175884761D02*
X404702380Y-175884761D01*
X404702380Y-176122857D01*
X404750000Y-176265714D01*
X404845238Y-176360952D01*
X404940476Y-176408571D01*
X405130952Y-176456190D01*
X405273809Y-176456190D01*
X405464285Y-176408571D01*
X405559523Y-176360952D01*
X405654761Y-176265714D01*
X405702380Y-176122857D01*
X405702380Y-175884761D01*
X405797619Y-176646666D02*
X405797619Y-177408571D01*
X404702380Y-178075238D02*
X404702380Y-177884761D01*
X404750000Y-177789523D01*
X404797619Y-177741904D01*
X404940476Y-177646666D01*
X405130952Y-177599047D01*
X405511904Y-177599047D01*
X405607142Y-177646666D01*
X405654761Y-177694285D01*
X405702380Y-177789523D01*
X405702380Y-177980000D01*
X405654761Y-178075238D01*
X405607142Y-178122857D01*
X405511904Y-178170476D01*
X405273809Y-178170476D01*
X405178571Y-178122857D01*
X405130952Y-178075238D01*
X405083333Y-177980000D01*
X405083333Y-177789523D01*
X405130952Y-177694285D01*
X405178571Y-177646666D01*
X405273809Y-177599047D01*
X404702380Y-178503809D02*
X404702380Y-179170476D01*
X405702380Y-178741904D01*
X371252380Y-175884761D02*
X370252380Y-175884761D01*
X370252380Y-176122857D01*
X370300000Y-176265714D01*
X370395238Y-176360952D01*
X370490476Y-176408571D01*
X370680952Y-176456190D01*
X370823809Y-176456190D01*
X371014285Y-176408571D01*
X371109523Y-176360952D01*
X371204761Y-176265714D01*
X371252380Y-176122857D01*
X371252380Y-175884761D01*
X371347619Y-176646666D02*
X371347619Y-177408571D01*
X370252380Y-178075238D02*
X370252380Y-177884761D01*
X370300000Y-177789523D01*
X370347619Y-177741904D01*
X370490476Y-177646666D01*
X370680952Y-177599047D01*
X371061904Y-177599047D01*
X371157142Y-177646666D01*
X371204761Y-177694285D01*
X371252380Y-177789523D01*
X371252380Y-177980000D01*
X371204761Y-178075238D01*
X371157142Y-178122857D01*
X371061904Y-178170476D01*
X370823809Y-178170476D01*
X370728571Y-178122857D01*
X370680952Y-178075238D01*
X370633333Y-177980000D01*
X370633333Y-177789523D01*
X370680952Y-177694285D01*
X370728571Y-177646666D01*
X370823809Y-177599047D01*
X370347619Y-178551428D02*
X370300000Y-178599047D01*
X370252380Y-178694285D01*
X370252380Y-178932380D01*
X370300000Y-179027619D01*
X370347619Y-179075238D01*
X370442857Y-179122857D01*
X370538095Y-179122857D01*
X370680952Y-179075238D01*
X371252380Y-178503809D01*
X371252380Y-179122857D01*
X367727380Y-175884761D02*
X366727380Y-175884761D01*
X366727380Y-176122857D01*
X366775000Y-176265714D01*
X366870238Y-176360952D01*
X366965476Y-176408571D01*
X367155952Y-176456190D01*
X367298809Y-176456190D01*
X367489285Y-176408571D01*
X367584523Y-176360952D01*
X367679761Y-176265714D01*
X367727380Y-176122857D01*
X367727380Y-175884761D01*
X367822619Y-176646666D02*
X367822619Y-177408571D01*
X366727380Y-178122857D02*
X366727380Y-177646666D01*
X367203571Y-177599047D01*
X367155952Y-177646666D01*
X367108333Y-177741904D01*
X367108333Y-177980000D01*
X367155952Y-178075238D01*
X367203571Y-178122857D01*
X367298809Y-178170476D01*
X367536904Y-178170476D01*
X367632142Y-178122857D01*
X367679761Y-178075238D01*
X367727380Y-177980000D01*
X367727380Y-177741904D01*
X367679761Y-177646666D01*
X367632142Y-177599047D01*
X366727380Y-178503809D02*
X366727380Y-179170476D01*
X367727380Y-178741904D01*
X333087380Y-175891761D02*
X332087380Y-175891761D01*
X332087380Y-176129857D01*
X332135000Y-176272714D01*
X332230238Y-176367952D01*
X332325476Y-176415571D01*
X332515952Y-176463190D01*
X332658809Y-176463190D01*
X332849285Y-176415571D01*
X332944523Y-176367952D01*
X333039761Y-176272714D01*
X333087380Y-176129857D01*
X333087380Y-175891761D01*
X333182619Y-176653666D02*
X333182619Y-177415571D01*
X332087380Y-178129857D02*
X332087380Y-177653666D01*
X332563571Y-177606047D01*
X332515952Y-177653666D01*
X332468333Y-177748904D01*
X332468333Y-177987000D01*
X332515952Y-178082238D01*
X332563571Y-178129857D01*
X332658809Y-178177476D01*
X332896904Y-178177476D01*
X332992142Y-178129857D01*
X333039761Y-178082238D01*
X333087380Y-177987000D01*
X333087380Y-177748904D01*
X333039761Y-177653666D01*
X332992142Y-177606047D01*
X332087380Y-178510809D02*
X332087380Y-179129857D01*
X332468333Y-178796523D01*
X332468333Y-178939380D01*
X332515952Y-179034619D01*
X332563571Y-179082238D01*
X332658809Y-179129857D01*
X332896904Y-179129857D01*
X332992142Y-179082238D01*
X333039761Y-179034619D01*
X333087380Y-178939380D01*
X333087380Y-178653666D01*
X333039761Y-178558428D01*
X332992142Y-178510809D01*
X329537380Y-175891761D02*
X328537380Y-175891761D01*
X328537380Y-176129857D01*
X328585000Y-176272714D01*
X328680238Y-176367952D01*
X328775476Y-176415571D01*
X328965952Y-176463190D01*
X329108809Y-176463190D01*
X329299285Y-176415571D01*
X329394523Y-176367952D01*
X329489761Y-176272714D01*
X329537380Y-176129857D01*
X329537380Y-175891761D01*
X329632619Y-176653666D02*
X329632619Y-177415571D01*
X328870714Y-178082238D02*
X329537380Y-178082238D01*
X328489761Y-177844142D02*
X329204047Y-177606047D01*
X329204047Y-178225095D01*
X328965952Y-178748904D02*
X328918333Y-178653666D01*
X328870714Y-178606047D01*
X328775476Y-178558428D01*
X328727857Y-178558428D01*
X328632619Y-178606047D01*
X328585000Y-178653666D01*
X328537380Y-178748904D01*
X328537380Y-178939380D01*
X328585000Y-179034619D01*
X328632619Y-179082238D01*
X328727857Y-179129857D01*
X328775476Y-179129857D01*
X328870714Y-179082238D01*
X328918333Y-179034619D01*
X328965952Y-178939380D01*
X328965952Y-178748904D01*
X329013571Y-178653666D01*
X329061190Y-178606047D01*
X329156428Y-178558428D01*
X329346904Y-178558428D01*
X329442142Y-178606047D01*
X329489761Y-178653666D01*
X329537380Y-178748904D01*
X329537380Y-178939380D01*
X329489761Y-179034619D01*
X329442142Y-179082238D01*
X329346904Y-179129857D01*
X329156428Y-179129857D01*
X329061190Y-179082238D01*
X329013571Y-179034619D01*
X328965952Y-178939380D01*
X294987380Y-175891761D02*
X293987380Y-175891761D01*
X293987380Y-176129857D01*
X294035000Y-176272714D01*
X294130238Y-176367952D01*
X294225476Y-176415571D01*
X294415952Y-176463190D01*
X294558809Y-176463190D01*
X294749285Y-176415571D01*
X294844523Y-176367952D01*
X294939761Y-176272714D01*
X294987380Y-176129857D01*
X294987380Y-175891761D01*
X295082619Y-176653666D02*
X295082619Y-177415571D01*
X294320714Y-178082238D02*
X294987380Y-178082238D01*
X293939761Y-177844142D02*
X294654047Y-177606047D01*
X294654047Y-178225095D01*
X293987380Y-178510809D02*
X293987380Y-179129857D01*
X294368333Y-178796523D01*
X294368333Y-178939380D01*
X294415952Y-179034619D01*
X294463571Y-179082238D01*
X294558809Y-179129857D01*
X294796904Y-179129857D01*
X294892142Y-179082238D01*
X294939761Y-179034619D01*
X294987380Y-178939380D01*
X294987380Y-178653666D01*
X294939761Y-178558428D01*
X294892142Y-178510809D01*
X291437380Y-175891761D02*
X290437380Y-175891761D01*
X290437380Y-176129857D01*
X290485000Y-176272714D01*
X290580238Y-176367952D01*
X290675476Y-176415571D01*
X290865952Y-176463190D01*
X291008809Y-176463190D01*
X291199285Y-176415571D01*
X291294523Y-176367952D01*
X291389761Y-176272714D01*
X291437380Y-176129857D01*
X291437380Y-175891761D01*
X291532619Y-176653666D02*
X291532619Y-177415571D01*
X290437380Y-177558428D02*
X290437380Y-178177476D01*
X290818333Y-177844142D01*
X290818333Y-177987000D01*
X290865952Y-178082238D01*
X290913571Y-178129857D01*
X291008809Y-178177476D01*
X291246904Y-178177476D01*
X291342142Y-178129857D01*
X291389761Y-178082238D01*
X291437380Y-177987000D01*
X291437380Y-177701285D01*
X291389761Y-177606047D01*
X291342142Y-177558428D01*
X291437380Y-178653666D02*
X291437380Y-178844142D01*
X291389761Y-178939380D01*
X291342142Y-178987000D01*
X291199285Y-179082238D01*
X291008809Y-179129857D01*
X290627857Y-179129857D01*
X290532619Y-179082238D01*
X290485000Y-179034619D01*
X290437380Y-178939380D01*
X290437380Y-178748904D01*
X290485000Y-178653666D01*
X290532619Y-178606047D01*
X290627857Y-178558428D01*
X290865952Y-178558428D01*
X290961190Y-178606047D01*
X291008809Y-178653666D01*
X291056428Y-178748904D01*
X291056428Y-178939380D01*
X291008809Y-179034619D01*
X290961190Y-179082238D01*
X290865952Y-179129857D01*
X256887380Y-175891761D02*
X255887380Y-175891761D01*
X255887380Y-176129857D01*
X255935000Y-176272714D01*
X256030238Y-176367952D01*
X256125476Y-176415571D01*
X256315952Y-176463190D01*
X256458809Y-176463190D01*
X256649285Y-176415571D01*
X256744523Y-176367952D01*
X256839761Y-176272714D01*
X256887380Y-176129857D01*
X256887380Y-175891761D01*
X256982619Y-176653666D02*
X256982619Y-177415571D01*
X255887380Y-177558428D02*
X255887380Y-178177476D01*
X256268333Y-177844142D01*
X256268333Y-177987000D01*
X256315952Y-178082238D01*
X256363571Y-178129857D01*
X256458809Y-178177476D01*
X256696904Y-178177476D01*
X256792142Y-178129857D01*
X256839761Y-178082238D01*
X256887380Y-177987000D01*
X256887380Y-177701285D01*
X256839761Y-177606047D01*
X256792142Y-177558428D01*
X255887380Y-179082238D02*
X255887380Y-178606047D01*
X256363571Y-178558428D01*
X256315952Y-178606047D01*
X256268333Y-178701285D01*
X256268333Y-178939380D01*
X256315952Y-179034619D01*
X256363571Y-179082238D01*
X256458809Y-179129857D01*
X256696904Y-179129857D01*
X256792142Y-179082238D01*
X256839761Y-179034619D01*
X256887380Y-178939380D01*
X256887380Y-178701285D01*
X256839761Y-178606047D01*
X256792142Y-178558428D01*
X253337380Y-175891761D02*
X252337380Y-175891761D01*
X252337380Y-176129857D01*
X252385000Y-176272714D01*
X252480238Y-176367952D01*
X252575476Y-176415571D01*
X252765952Y-176463190D01*
X252908809Y-176463190D01*
X253099285Y-176415571D01*
X253194523Y-176367952D01*
X253289761Y-176272714D01*
X253337380Y-176129857D01*
X253337380Y-175891761D01*
X253432619Y-176653666D02*
X253432619Y-177415571D01*
X252337380Y-177558428D02*
X252337380Y-178177476D01*
X252718333Y-177844142D01*
X252718333Y-177987000D01*
X252765952Y-178082238D01*
X252813571Y-178129857D01*
X252908809Y-178177476D01*
X253146904Y-178177476D01*
X253242142Y-178129857D01*
X253289761Y-178082238D01*
X253337380Y-177987000D01*
X253337380Y-177701285D01*
X253289761Y-177606047D01*
X253242142Y-177558428D01*
X252337380Y-178796523D02*
X252337380Y-178891761D01*
X252385000Y-178987000D01*
X252432619Y-179034619D01*
X252527857Y-179082238D01*
X252718333Y-179129857D01*
X252956428Y-179129857D01*
X253146904Y-179082238D01*
X253242142Y-179034619D01*
X253289761Y-178987000D01*
X253337380Y-178891761D01*
X253337380Y-178796523D01*
X253289761Y-178701285D01*
X253242142Y-178653666D01*
X253146904Y-178606047D01*
X252956428Y-178558428D01*
X252718333Y-178558428D01*
X252527857Y-178606047D01*
X252432619Y-178653666D01*
X252385000Y-178701285D01*
X252337380Y-178796523D01*
X218787380Y-175891761D02*
X217787380Y-175891761D01*
X217787380Y-176129857D01*
X217835000Y-176272714D01*
X217930238Y-176367952D01*
X218025476Y-176415571D01*
X218215952Y-176463190D01*
X218358809Y-176463190D01*
X218549285Y-176415571D01*
X218644523Y-176367952D01*
X218739761Y-176272714D01*
X218787380Y-176129857D01*
X218787380Y-175891761D01*
X218882619Y-176653666D02*
X218882619Y-177415571D01*
X217882619Y-177606047D02*
X217835000Y-177653666D01*
X217787380Y-177748904D01*
X217787380Y-177987000D01*
X217835000Y-178082238D01*
X217882619Y-178129857D01*
X217977857Y-178177476D01*
X218073095Y-178177476D01*
X218215952Y-178129857D01*
X218787380Y-177558428D01*
X218787380Y-178177476D01*
X217787380Y-179082238D02*
X217787380Y-178606047D01*
X218263571Y-178558428D01*
X218215952Y-178606047D01*
X218168333Y-178701285D01*
X218168333Y-178939380D01*
X218215952Y-179034619D01*
X218263571Y-179082238D01*
X218358809Y-179129857D01*
X218596904Y-179129857D01*
X218692142Y-179082238D01*
X218739761Y-179034619D01*
X218787380Y-178939380D01*
X218787380Y-178701285D01*
X218739761Y-178606047D01*
X218692142Y-178558428D01*
X215237380Y-175891761D02*
X214237380Y-175891761D01*
X214237380Y-176129857D01*
X214285000Y-176272714D01*
X214380238Y-176367952D01*
X214475476Y-176415571D01*
X214665952Y-176463190D01*
X214808809Y-176463190D01*
X214999285Y-176415571D01*
X215094523Y-176367952D01*
X215189761Y-176272714D01*
X215237380Y-176129857D01*
X215237380Y-175891761D01*
X215332619Y-176653666D02*
X215332619Y-177415571D01*
X214332619Y-177606047D02*
X214285000Y-177653666D01*
X214237380Y-177748904D01*
X214237380Y-177987000D01*
X214285000Y-178082238D01*
X214332619Y-178129857D01*
X214427857Y-178177476D01*
X214523095Y-178177476D01*
X214665952Y-178129857D01*
X215237380Y-177558428D01*
X215237380Y-178177476D01*
X215237380Y-179129857D02*
X215237380Y-178558428D01*
X215237380Y-178844142D02*
X214237380Y-178844142D01*
X214380238Y-178748904D01*
X214475476Y-178653666D01*
X214523095Y-178558428D01*
X180665380Y-175874561D02*
X179665380Y-175874561D01*
X179665380Y-176112657D01*
X179713000Y-176255514D01*
X179808238Y-176350752D01*
X179903476Y-176398371D01*
X180093952Y-176445990D01*
X180236809Y-176445990D01*
X180427285Y-176398371D01*
X180522523Y-176350752D01*
X180617761Y-176255514D01*
X180665380Y-176112657D01*
X180665380Y-175874561D01*
X180760619Y-176636466D02*
X180760619Y-177398371D01*
X180665380Y-178160276D02*
X180665380Y-177588847D01*
X180665380Y-177874561D02*
X179665380Y-177874561D01*
X179808238Y-177779323D01*
X179903476Y-177684085D01*
X179951095Y-177588847D01*
X179665380Y-179017419D02*
X179665380Y-178826942D01*
X179713000Y-178731704D01*
X179760619Y-178684085D01*
X179903476Y-178588847D01*
X180093952Y-178541228D01*
X180474904Y-178541228D01*
X180570142Y-178588847D01*
X180617761Y-178636466D01*
X180665380Y-178731704D01*
X180665380Y-178922180D01*
X180617761Y-179017419D01*
X180570142Y-179065038D01*
X180474904Y-179112657D01*
X180236809Y-179112657D01*
X180141571Y-179065038D01*
X180093952Y-179017419D01*
X180046333Y-178922180D01*
X180046333Y-178731704D01*
X180093952Y-178636466D01*
X180141571Y-178588847D01*
X180236809Y-178541228D01*
X177109380Y-175874561D02*
X176109380Y-175874561D01*
X176109380Y-176112657D01*
X176157000Y-176255514D01*
X176252238Y-176350752D01*
X176347476Y-176398371D01*
X176537952Y-176445990D01*
X176680809Y-176445990D01*
X176871285Y-176398371D01*
X176966523Y-176350752D01*
X177061761Y-176255514D01*
X177109380Y-176112657D01*
X177109380Y-175874561D01*
X177204619Y-176636466D02*
X177204619Y-177398371D01*
X177109380Y-178160276D02*
X177109380Y-177588847D01*
X177109380Y-177874561D02*
X176109380Y-177874561D01*
X176252238Y-177779323D01*
X176347476Y-177684085D01*
X176395095Y-177588847D01*
X176204619Y-178541228D02*
X176157000Y-178588847D01*
X176109380Y-178684085D01*
X176109380Y-178922180D01*
X176157000Y-179017419D01*
X176204619Y-179065038D01*
X176299857Y-179112657D01*
X176395095Y-179112657D01*
X176537952Y-179065038D01*
X177109380Y-178493609D01*
X177109380Y-179112657D01*
X132903980Y-176367952D02*
X131903980Y-176367952D01*
X131903980Y-176606047D01*
X131951600Y-176748904D01*
X132046838Y-176844142D01*
X132142076Y-176891761D01*
X132332552Y-176939380D01*
X132475409Y-176939380D01*
X132665885Y-176891761D01*
X132761123Y-176844142D01*
X132856361Y-176748904D01*
X132903980Y-176606047D01*
X132903980Y-176367952D01*
X132999219Y-177129857D02*
X132999219Y-177891761D01*
X131903980Y-178558428D02*
X131903980Y-178367952D01*
X131951600Y-178272714D01*
X131999219Y-178225095D01*
X132142076Y-178129857D01*
X132332552Y-178082238D01*
X132713504Y-178082238D01*
X132808742Y-178129857D01*
X132856361Y-178177476D01*
X132903980Y-178272714D01*
X132903980Y-178463190D01*
X132856361Y-178558428D01*
X132808742Y-178606047D01*
X132713504Y-178653666D01*
X132475409Y-178653666D01*
X132380171Y-178606047D01*
X132332552Y-178558428D01*
X132284933Y-178463190D01*
X132284933Y-178272714D01*
X132332552Y-178177476D01*
X132380171Y-178129857D01*
X132475409Y-178082238D01*
X129601980Y-176367952D02*
X128601980Y-176367952D01*
X128601980Y-176606047D01*
X128649600Y-176748904D01*
X128744838Y-176844142D01*
X128840076Y-176891761D01*
X129030552Y-176939380D01*
X129173409Y-176939380D01*
X129363885Y-176891761D01*
X129459123Y-176844142D01*
X129554361Y-176748904D01*
X129601980Y-176606047D01*
X129601980Y-176367952D01*
X129697219Y-177129857D02*
X129697219Y-177891761D01*
X129601980Y-178653666D02*
X129601980Y-178082238D01*
X129601980Y-178367952D02*
X128601980Y-178367952D01*
X128744838Y-178272714D01*
X128840076Y-178177476D01*
X128887695Y-178082238D01*
X274511904Y-164352380D02*
X274511904Y-165161904D01*
X274464285Y-165257142D01*
X274416666Y-165304761D01*
X274321428Y-165352380D01*
X274130952Y-165352380D01*
X274035714Y-165304761D01*
X273988095Y-165257142D01*
X273940476Y-165161904D01*
X273940476Y-164352380D01*
X273511904Y-164447619D02*
X273464285Y-164400000D01*
X273369047Y-164352380D01*
X273130952Y-164352380D01*
X273035714Y-164400000D01*
X272988095Y-164447619D01*
X272940476Y-164542857D01*
X272940476Y-164638095D01*
X272988095Y-164780952D01*
X273559523Y-165352380D01*
X272940476Y-165352380D01*
X455531793Y-214010858D02*
X455868511Y-214347576D01*
X455397106Y-213404767D02*
X455531793Y-214010858D01*
X454925702Y-213876171D01*
X455026717Y-215189369D02*
X455430778Y-214785308D01*
X455228747Y-214987339D02*
X454521641Y-214280232D01*
X454689999Y-214313904D01*
X454824686Y-214313904D01*
X454925702Y-214280232D01*
X275538095Y-163552380D02*
X275538095Y-164361904D01*
X275490476Y-164457142D01*
X275442857Y-164504761D01*
X275347619Y-164552380D01*
X275157142Y-164552380D01*
X275061904Y-164504761D01*
X275014285Y-164457142D01*
X274966666Y-164361904D01*
X274966666Y-163552380D01*
X274538095Y-164504761D02*
X274395238Y-164552380D01*
X274157142Y-164552380D01*
X274061904Y-164504761D01*
X274014285Y-164457142D01*
X273966666Y-164361904D01*
X273966666Y-164266666D01*
X274014285Y-164171428D01*
X274061904Y-164123809D01*
X274157142Y-164076190D01*
X274347619Y-164028571D01*
X274442857Y-163980952D01*
X274490476Y-163933333D01*
X274538095Y-163838095D01*
X274538095Y-163742857D01*
X274490476Y-163647619D01*
X274442857Y-163600000D01*
X274347619Y-163552380D01*
X274109523Y-163552380D01*
X273966666Y-163600000D01*
X273204761Y-164028571D02*
X273061904Y-164076190D01*
X273014285Y-164123809D01*
X272966666Y-164219047D01*
X272966666Y-164361904D01*
X273014285Y-164457142D01*
X273061904Y-164504761D01*
X273157142Y-164552380D01*
X273538095Y-164552380D01*
X273538095Y-163552380D01*
X273204761Y-163552380D01*
X273109523Y-163600000D01*
X273061904Y-163647619D01*
X273014285Y-163742857D01*
X273014285Y-163838095D01*
X273061904Y-163933333D01*
X273109523Y-163980952D01*
X273204761Y-164028571D01*
X273538095Y-164028571D01*
X272014285Y-164552380D02*
X272585714Y-164552380D01*
X272300000Y-164552380D02*
X272300000Y-163552380D01*
X272395238Y-163695238D01*
X272490476Y-163790476D01*
X272585714Y-163838095D01*
X444758576Y-195681080D02*
X445330996Y-196253500D01*
X445364668Y-196354515D01*
X445364668Y-196421859D01*
X445330996Y-196522874D01*
X445196309Y-196657561D01*
X445095294Y-196691233D01*
X445027950Y-196691233D01*
X444926935Y-196657561D01*
X444354515Y-196085141D01*
X444354515Y-197499355D02*
X444758576Y-197095294D01*
X444556546Y-197297324D02*
X443849439Y-196590218D01*
X444017798Y-196623889D01*
X444152485Y-196623889D01*
X444253500Y-196590218D01*
X452740761Y-175191666D02*
X452788380Y-175334523D01*
X452788380Y-175572619D01*
X452740761Y-175667857D01*
X452693142Y-175715476D01*
X452597904Y-175763095D01*
X452502666Y-175763095D01*
X452407428Y-175715476D01*
X452359809Y-175667857D01*
X452312190Y-175572619D01*
X452264571Y-175382142D01*
X452216952Y-175286904D01*
X452169333Y-175239285D01*
X452074095Y-175191666D01*
X451978857Y-175191666D01*
X451883619Y-175239285D01*
X451836000Y-175286904D01*
X451788380Y-175382142D01*
X451788380Y-175620238D01*
X451836000Y-175763095D01*
X451788380Y-176096428D02*
X452788380Y-176334523D01*
X452074095Y-176525000D01*
X452788380Y-176715476D01*
X451788380Y-176953571D01*
X452788380Y-177858333D02*
X452788380Y-177286904D01*
X452788380Y-177572619D02*
X451788380Y-177572619D01*
X451931238Y-177477380D01*
X452026476Y-177382142D01*
X452074095Y-177286904D01*
X280641666Y-162827380D02*
X280975000Y-162351190D01*
X281213095Y-162827380D02*
X281213095Y-161827380D01*
X280832142Y-161827380D01*
X280736904Y-161875000D01*
X280689285Y-161922619D01*
X280641666Y-162017857D01*
X280641666Y-162160714D01*
X280689285Y-162255952D01*
X280736904Y-162303571D01*
X280832142Y-162351190D01*
X281213095Y-162351190D01*
X279784523Y-161827380D02*
X279975000Y-161827380D01*
X280070238Y-161875000D01*
X280117857Y-161922619D01*
X280213095Y-162065476D01*
X280260714Y-162255952D01*
X280260714Y-162636904D01*
X280213095Y-162732142D01*
X280165476Y-162779761D01*
X280070238Y-162827380D01*
X279879761Y-162827380D01*
X279784523Y-162779761D01*
X279736904Y-162732142D01*
X279689285Y-162636904D01*
X279689285Y-162398809D01*
X279736904Y-162303571D01*
X279784523Y-162255952D01*
X279879761Y-162208333D01*
X280070238Y-162208333D01*
X280165476Y-162255952D01*
X280213095Y-162303571D01*
X280260714Y-162398809D01*
X266966666Y-166127380D02*
X267300000Y-165651190D01*
X267538095Y-166127380D02*
X267538095Y-165127380D01*
X267157142Y-165127380D01*
X267061904Y-165175000D01*
X267014285Y-165222619D01*
X266966666Y-165317857D01*
X266966666Y-165460714D01*
X267014285Y-165555952D01*
X267061904Y-165603571D01*
X267157142Y-165651190D01*
X267538095Y-165651190D01*
X266061904Y-165127380D02*
X266538095Y-165127380D01*
X266585714Y-165603571D01*
X266538095Y-165555952D01*
X266442857Y-165508333D01*
X266204761Y-165508333D01*
X266109523Y-165555952D01*
X266061904Y-165603571D01*
X266014285Y-165698809D01*
X266014285Y-165936904D01*
X266061904Y-166032142D01*
X266109523Y-166079761D01*
X266204761Y-166127380D01*
X266442857Y-166127380D01*
X266538095Y-166079761D01*
X266585714Y-166032142D01*
X438411243Y-204504458D02*
X438983663Y-204403443D01*
X438815304Y-204908519D02*
X439522411Y-204201413D01*
X439253037Y-203932038D01*
X439152022Y-203898367D01*
X439084678Y-203898367D01*
X438983663Y-203932038D01*
X438882648Y-204033054D01*
X438848976Y-204134069D01*
X438848976Y-204201413D01*
X438882648Y-204302428D01*
X439152022Y-204571802D01*
X438276556Y-203426962D02*
X437805151Y-203898367D01*
X438714289Y-203325947D02*
X438377571Y-203999382D01*
X437939838Y-203561649D01*
X460352380Y-182958333D02*
X459876190Y-182625000D01*
X460352380Y-182386904D02*
X459352380Y-182386904D01*
X459352380Y-182767857D01*
X459400000Y-182863095D01*
X459447619Y-182910714D01*
X459542857Y-182958333D01*
X459685714Y-182958333D01*
X459780952Y-182910714D01*
X459828571Y-182863095D01*
X459876190Y-182767857D01*
X459876190Y-182386904D01*
X459352380Y-183291666D02*
X459352380Y-183910714D01*
X459733333Y-183577380D01*
X459733333Y-183720238D01*
X459780952Y-183815476D01*
X459828571Y-183863095D01*
X459923809Y-183910714D01*
X460161904Y-183910714D01*
X460257142Y-183863095D01*
X460304761Y-183815476D01*
X460352380Y-183720238D01*
X460352380Y-183434523D01*
X460304761Y-183339285D01*
X460257142Y-183291666D01*
X276877980Y-173982333D02*
X276401790Y-173649000D01*
X276877980Y-173410904D02*
X275877980Y-173410904D01*
X275877980Y-173791857D01*
X275925600Y-173887095D01*
X275973219Y-173934714D01*
X276068457Y-173982333D01*
X276211314Y-173982333D01*
X276306552Y-173934714D01*
X276354171Y-173887095D01*
X276401790Y-173791857D01*
X276401790Y-173410904D01*
X275973219Y-174363285D02*
X275925600Y-174410904D01*
X275877980Y-174506142D01*
X275877980Y-174744238D01*
X275925600Y-174839476D01*
X275973219Y-174887095D01*
X276068457Y-174934714D01*
X276163695Y-174934714D01*
X276306552Y-174887095D01*
X276877980Y-174315666D01*
X276877980Y-174934714D01*
X274702380Y-173982333D02*
X274226190Y-173649000D01*
X274702380Y-173410904D02*
X273702380Y-173410904D01*
X273702380Y-173791857D01*
X273750000Y-173887095D01*
X273797619Y-173934714D01*
X273892857Y-173982333D01*
X274035714Y-173982333D01*
X274130952Y-173934714D01*
X274178571Y-173887095D01*
X274226190Y-173791857D01*
X274226190Y-173410904D01*
X274702380Y-174934714D02*
X274702380Y-174363285D01*
X274702380Y-174649000D02*
X273702380Y-174649000D01*
X273845238Y-174553761D01*
X273940476Y-174458523D01*
X273988095Y-174363285D01*
X273933333Y-178158571D02*
X274266666Y-178158571D01*
X274266666Y-178682380D02*
X274266666Y-177682380D01*
X273790476Y-177682380D01*
X272885714Y-178682380D02*
X273457142Y-178682380D01*
X273171428Y-178682380D02*
X273171428Y-177682380D01*
X273266666Y-177825238D01*
X273361904Y-177920476D01*
X273457142Y-177968095D01*
X447257038Y-210778663D02*
X447257038Y-210846006D01*
X447324382Y-210980693D01*
X447391726Y-211048037D01*
X447526413Y-211115380D01*
X447661100Y-211115380D01*
X447762115Y-211081709D01*
X447930474Y-210980693D01*
X448031489Y-210879678D01*
X448132504Y-210711319D01*
X448166176Y-210610304D01*
X448166176Y-210475617D01*
X448098832Y-210340930D01*
X448031489Y-210273586D01*
X447896802Y-210206243D01*
X447829458Y-210206243D01*
X447661100Y-209903197D02*
X447189695Y-209431793D01*
X446785634Y-210441945D01*
X452157038Y-190103663D02*
X452157038Y-190171006D01*
X452224382Y-190305693D01*
X452291726Y-190373037D01*
X452426413Y-190440380D01*
X452561100Y-190440380D01*
X452662115Y-190406709D01*
X452830474Y-190305693D01*
X452931489Y-190204678D01*
X453032504Y-190036319D01*
X453066176Y-189935304D01*
X453066176Y-189800617D01*
X452998832Y-189665930D01*
X452931489Y-189598586D01*
X452796802Y-189531243D01*
X452729458Y-189531243D01*
X452190710Y-188857808D02*
X452325397Y-188992495D01*
X452359069Y-189093510D01*
X452359069Y-189160854D01*
X452325397Y-189329212D01*
X452224382Y-189497571D01*
X451955008Y-189766945D01*
X451853993Y-189800617D01*
X451786649Y-189800617D01*
X451685634Y-189766945D01*
X451550947Y-189632258D01*
X451517275Y-189531243D01*
X451517275Y-189463899D01*
X451550947Y-189362884D01*
X451719306Y-189194525D01*
X451820321Y-189160854D01*
X451887664Y-189160854D01*
X451988680Y-189194525D01*
X452123367Y-189329212D01*
X452157038Y-189430228D01*
X452157038Y-189497571D01*
X452123367Y-189598586D01*
X459079166Y-210607142D02*
X459126785Y-210654761D01*
X459269642Y-210702380D01*
X459364880Y-210702380D01*
X459507738Y-210654761D01*
X459602976Y-210559523D01*
X459650595Y-210464285D01*
X459698214Y-210273809D01*
X459698214Y-210130952D01*
X459650595Y-209940476D01*
X459602976Y-209845238D01*
X459507738Y-209750000D01*
X459364880Y-209702380D01*
X459269642Y-209702380D01*
X459126785Y-209750000D01*
X459079166Y-209797619D01*
X458174404Y-209702380D02*
X458650595Y-209702380D01*
X458698214Y-210178571D01*
X458650595Y-210130952D01*
X458555357Y-210083333D01*
X458317261Y-210083333D01*
X458222023Y-210130952D01*
X458174404Y-210178571D01*
X458126785Y-210273809D01*
X458126785Y-210511904D01*
X458174404Y-210607142D01*
X458222023Y-210654761D01*
X458317261Y-210702380D01*
X458555357Y-210702380D01*
X458650595Y-210654761D01*
X458698214Y-210607142D01*
X441587115Y-200351413D02*
X441654458Y-200351413D01*
X441789145Y-200284069D01*
X441856489Y-200216726D01*
X441923832Y-200082038D01*
X441923832Y-199947351D01*
X441890161Y-199846336D01*
X441789145Y-199677977D01*
X441688130Y-199576962D01*
X441519771Y-199475947D01*
X441418756Y-199442275D01*
X441284069Y-199442275D01*
X441149382Y-199509619D01*
X441082038Y-199576962D01*
X441014695Y-199711649D01*
X441014695Y-199778993D01*
X440576962Y-200553443D02*
X441048367Y-201024848D01*
X440475947Y-200115710D02*
X441149382Y-200452428D01*
X440711649Y-200890161D01*
X455698586Y-197637115D02*
X455698586Y-197704458D01*
X455765930Y-197839145D01*
X455833274Y-197906489D01*
X455967961Y-197973832D01*
X456102648Y-197973832D01*
X456203663Y-197940161D01*
X456372022Y-197839145D01*
X456473037Y-197738130D01*
X456574052Y-197569771D01*
X456607724Y-197468756D01*
X456607724Y-197334069D01*
X456540380Y-197199382D01*
X456473037Y-197132038D01*
X456338350Y-197064695D01*
X456271006Y-197064695D01*
X456102648Y-196761649D02*
X455664915Y-196323916D01*
X455631243Y-196828993D01*
X455530228Y-196727977D01*
X455429212Y-196694306D01*
X455361869Y-196694306D01*
X455260854Y-196727977D01*
X455092495Y-196896336D01*
X455058823Y-196997351D01*
X455058823Y-197064695D01*
X455092495Y-197165710D01*
X455294525Y-197367741D01*
X455395541Y-197401413D01*
X455462884Y-197401413D01*
X456719538Y-209628663D02*
X456719538Y-209696006D01*
X456786882Y-209830693D01*
X456854226Y-209898037D01*
X456988913Y-209965380D01*
X457123600Y-209965380D01*
X457224615Y-209931709D01*
X457392974Y-209830693D01*
X457493989Y-209729678D01*
X457595004Y-209561319D01*
X457628676Y-209460304D01*
X457628676Y-209325617D01*
X457561332Y-209190930D01*
X457493989Y-209123586D01*
X457359302Y-209056243D01*
X457291958Y-209056243D01*
X457022584Y-208786869D02*
X457022584Y-208719525D01*
X456988913Y-208618510D01*
X456820554Y-208450151D01*
X456719538Y-208416480D01*
X456652195Y-208416480D01*
X456551180Y-208450151D01*
X456483836Y-208517495D01*
X456416493Y-208652182D01*
X456416493Y-209460304D01*
X455978760Y-209022571D01*
X449973999Y-216400028D02*
X449973999Y-216467371D01*
X450041343Y-216602058D01*
X450108687Y-216669402D01*
X450243374Y-216736745D01*
X450378061Y-216736745D01*
X450479076Y-216703074D01*
X450647435Y-216602058D01*
X450748450Y-216501043D01*
X450849465Y-216332684D01*
X450883137Y-216231669D01*
X450883137Y-216096982D01*
X450815793Y-215962295D01*
X450748450Y-215894951D01*
X450613763Y-215827608D01*
X450546419Y-215827608D01*
X449233221Y-215793936D02*
X449637282Y-216197997D01*
X449435251Y-215995967D02*
X450142358Y-215288860D01*
X450108687Y-215457219D01*
X450108687Y-215591906D01*
X450142358Y-215692921D01*
M02*
