M48
; DRILL file {KiCad (5.1.4)-1} date 3/16/2020 10:49:14 AM
; FORMAT={3:3/ absolute / metric / suppress leading zeros}
; #@! TF.CreationDate,2020-03-16T10:49:14-07:00
; #@! TF.GenerationSoftware,Kicad,Pcbnew,(5.1.4)-1
FMAT,2
METRIC,TZ
T1C0.400
T2C0.600
T3C1.000
T4C1.470
T5C0.650
T6C1.500
T7C1.750
T8C3.048
T9C3.988
%
G90
G05
T1
X117475Y-194300
X136525Y-195016
X169862Y-195487
X193675Y-195925
X212725Y-196366
X231775Y-196925
X250825Y-197435
X269152Y-197718
X270425Y-164025
X271100Y-173501
X271100Y-174951
X272038Y-163961
X288929Y-198166
X308013Y-198617
X327083Y-199066
X346228Y-199602
X365357Y-200059
X384407Y-200416
X440725Y-217700
X441300Y-200450
X442776Y-186694
X443825Y-188750
X444009Y-185691
X444350Y-212325
X445010Y-193030
X448297Y-212453
X448989Y-213175
X449625Y-192425
X451075Y-193640
X451972Y-219200
X452244Y-193669
X453000Y-219925
X453080Y-173560
X453254Y-209322
X453962Y-208614
X454175Y-193600
X454426Y-207729
X454580Y-255019
X454580Y-216109
X454680Y-235225
X454955Y-192809
X455397Y-178204
X456250Y-176550
X456405Y-197755
X456670Y-206430
X457406Y-192999
X457460Y-201740
X458130Y-216910
X458250Y-194793
X458537Y-197802
X458550Y-198814
X458550Y-199860
X459430Y-207100
X460000Y-194800
X460130Y-217300
X461200Y-208680
X461694Y-191294
X461751Y-225673
X462200Y-217300
X465890Y-186640
X473660Y-235840
T3
X466520Y-164472
X466520Y-178972
X469020Y-164472
X471520Y-164472
X471520Y-178972
T4
X422275Y-169418
X428625Y-166878
X298450Y-169367
X304800Y-166827
X169862Y-188417
X176213Y-185877
X396081Y-245567
X402431Y-243027
X260350Y-169367
X266700Y-166827
X117475Y-245567
X123825Y-243027
X250825Y-188417
X257175Y-185877
X319881Y-245567
X326231Y-243027
X177006Y-226517
X183356Y-223977
X165100Y-169367
X171450Y-166827
X303213Y-226517
X309563Y-223977
X460375Y-250330
X466725Y-247789
X312738Y-207467
X319088Y-204927
X117475Y-169367
X123825Y-166827
X341313Y-226517
X347662Y-223977
X198438Y-207467
X204788Y-204927
X167481Y-245567
X173831Y-243027
X136525Y-226517
X142875Y-223977
X403225Y-188417
X409575Y-185877
X360363Y-226517
X366713Y-223977
X255588Y-207467
X261938Y-204927
X427038Y-188417
X433388Y-185877
X227013Y-226517
X233363Y-223977
X350838Y-207467
X357188Y-204927
X317500Y-169367
X323850Y-166827
X431800Y-169367
X438150Y-166827
X407987Y-226517
X414338Y-223977
X393700Y-169367
X400050Y-166827
X193675Y-188417
X200025Y-185877
X231775Y-188417
X238125Y-185877
X322263Y-226517
X328613Y-223977
X412750Y-169367
X419100Y-166827
X222250Y-169367
X228600Y-166827
X248444Y-245567
X254794Y-243027
X281813Y-245618
X288163Y-243078
X388938Y-207467
X395287Y-204927
X346075Y-188417
X352425Y-185877
X284162Y-226517
X290513Y-223977
X353219Y-245567
X359569Y-243027
X274638Y-207467
X280988Y-204927
X210344Y-245567
X216694Y-243027
X167481Y-207467
X173831Y-204927
X384175Y-188417
X390525Y-185877
X136525Y-245567
X142875Y-243027
X293688Y-207467
X300037Y-204927
X212725Y-188417
X219075Y-185877
X265113Y-226517
X271463Y-223977
X117475Y-226517
X123825Y-223977
X327025Y-188417
X333375Y-185877
X419894Y-207467
X426244Y-204927
X331787Y-207467
X338138Y-204927
X241300Y-169367
X247650Y-166827
X136525Y-188417
X142875Y-185877
X336550Y-169367
X342900Y-166827
X269125Y-188417
X275475Y-185877
X422275Y-250330
X428625Y-247789
X279400Y-169367
X285750Y-166827
X207963Y-226517
X214313Y-223977
X288925Y-188417
X295275Y-185877
X441325Y-250330
X447675Y-247789
X236538Y-207467
X242888Y-204927
X203200Y-169367
X209550Y-166827
X441325Y-231280
X447675Y-228740
X369888Y-207467
X376238Y-204927
X136525Y-169367
X142875Y-166827
X379412Y-226517
X385763Y-223977
X217488Y-207467
X223838Y-204927
X117475Y-188417
X123825Y-185877
X465138Y-226517
X471488Y-223977
X117475Y-207467
X123825Y-204927
X365125Y-188417
X371475Y-185877
X286544Y-245567
X292894Y-243027
X136525Y-207467
X142875Y-204927
X465138Y-188417
X471488Y-185877
X246063Y-226517
X252413Y-223977
X465138Y-207467
X471488Y-204927
X374650Y-169367
X381000Y-166827
X184150Y-169367
X190500Y-166827
X172260Y-207462
X178610Y-204922
X355600Y-169367
X361950Y-166827
X307975Y-188417
X314325Y-185877
T5
X270910Y-160150
X276690Y-160150
T7
X135255Y-190957
X145415Y-190957
X335280Y-171907
X345440Y-171907
X267855Y-190957
X278015Y-190957
X421005Y-252869
X431165Y-252869
X278130Y-171907
X288290Y-171907
X206693Y-229057
X216853Y-229057
X287655Y-190957
X297815Y-190957
X440055Y-252869
X450215Y-252869
X235267Y-210007
X245427Y-210007
X201930Y-171907
X212090Y-171907
X440055Y-233819
X450215Y-233819
X368618Y-210007
X378778Y-210007
X135255Y-171907
X145415Y-171907
X378143Y-229057
X388303Y-229057
X216218Y-210007
X226378Y-210007
X116205Y-190957
X126365Y-190957
X463868Y-229057
X474028Y-229057
X116205Y-210007
X126365Y-210007
X363855Y-190957
X374015Y-190957
X285274Y-248107
X295434Y-248107
X135255Y-210007
X145415Y-210007
X463868Y-190957
X474028Y-190957
X244792Y-229057
X254952Y-229057
X463868Y-210007
X474028Y-210007
X373380Y-171907
X383540Y-171907
X182880Y-171907
X193040Y-171907
X170990Y-210002
X181150Y-210002
X354330Y-171907
X364490Y-171907
X306705Y-190957
X316865Y-190957
X421005Y-171958
X431165Y-171958
X297180Y-171907
X307340Y-171907
X168593Y-190957
X178753Y-190957
X394811Y-248107
X404971Y-248107
X259080Y-171907
X269240Y-171907
X116205Y-248107
X126365Y-248107
X249555Y-190957
X259715Y-190957
X318611Y-248107
X328771Y-248107
X175736Y-229057
X185896Y-229057
X163830Y-171907
X173990Y-171907
X301943Y-229057
X312102Y-229057
X459105Y-252869
X469265Y-252869
X311467Y-210007
X321628Y-210007
X116205Y-171907
X126365Y-171907
X340043Y-229057
X350203Y-229057
X197168Y-210007
X207327Y-210007
X166211Y-248107
X176371Y-248107
X135255Y-229057
X145415Y-229057
X401955Y-190957
X412115Y-190957
X359093Y-229057
X369253Y-229057
X254318Y-210007
X264477Y-210007
X425768Y-190957
X435928Y-190957
X225742Y-229057
X235903Y-229057
X349568Y-210007
X359728Y-210007
X316230Y-171907
X326390Y-171907
X430530Y-171907
X440690Y-171907
X406718Y-229057
X416878Y-229057
X392430Y-171907
X402590Y-171907
X192405Y-190957
X202565Y-190957
X230505Y-190957
X240665Y-190957
X320993Y-229057
X331153Y-229057
X411480Y-171907
X421640Y-171907
X220980Y-171907
X231140Y-171907
X247174Y-248107
X257334Y-248107
X280543Y-248158
X290703Y-248158
X387668Y-210007
X397828Y-210007
X344805Y-190957
X354965Y-190957
X282892Y-229057
X293053Y-229057
X351949Y-248107
X362109Y-248107
X273368Y-210007
X283527Y-210007
X209074Y-248107
X219234Y-248107
X166211Y-210007
X176371Y-210007
X382905Y-190957
X393065Y-190957
X135255Y-248107
X145415Y-248107
X292417Y-210007
X302577Y-210007
X211455Y-190957
X221615Y-190957
X263842Y-229057
X274003Y-229057
X116205Y-229057
X126365Y-229057
X325755Y-190957
X335915Y-190957
X418624Y-210007
X428784Y-210007
X330518Y-210007
X340678Y-210007
X240030Y-171907
X250190Y-171907
T8
X411797Y-203022
X435610Y-203022
X414179Y-164973
X437991Y-164973
X311785Y-241122
X335597Y-241122
X168910Y-222072
X192723Y-222072
X399891Y-222072
X423704Y-222072
X240348Y-241122
X264160Y-241122
X235623Y-241173
X335623Y-241173
T9
X414179Y-180213
X426085Y-171958
X437991Y-180213
X302260Y-171907
X173673Y-190957
X399891Y-248107
X264160Y-171907
X121285Y-248107
X254635Y-190957
X311785Y-256362
X323691Y-248107
X335597Y-256362
X168910Y-237312
X180816Y-229057
X192723Y-237312
X168910Y-171907
X307023Y-229057
X464185Y-252869
X316548Y-210007
X121285Y-171907
X345123Y-229057
X202248Y-210007
X171291Y-248107
X140335Y-229057
X407035Y-190957
X364172Y-229057
X259398Y-210007
X430847Y-190957
X230823Y-229057
X354648Y-210007
X321310Y-171907
X435610Y-171907
X399891Y-237312
X411797Y-229057
X423704Y-237312
X397510Y-171907
X197485Y-190957
X235585Y-190957
X326073Y-229057
X416560Y-171907
X226060Y-171907
X240348Y-256362
X252254Y-248107
X264160Y-256362
X235623Y-256413
X285623Y-248158
X335623Y-256413
X392748Y-210007
X349885Y-190957
X287972Y-229057
X357029Y-248107
X278448Y-210007
X214154Y-248107
X171291Y-210007
X387985Y-190957
X140335Y-248107
X297498Y-210007
X216535Y-190957
X268923Y-229057
X121285Y-229057
X330835Y-190957
X411797Y-218262
X423704Y-210007
X435610Y-218262
X335597Y-210007
X245110Y-171907
X140335Y-190957
X340360Y-171907
X272935Y-190957
X426085Y-252869
X283210Y-171907
X211773Y-229057
X292735Y-190957
X445135Y-252869
X240348Y-210007
X207010Y-171907
X445135Y-233819
X373698Y-210007
X140335Y-171907
X383222Y-229057
X221298Y-210007
X121285Y-190957
X468948Y-229057
X121285Y-210007
X368935Y-190957
X290354Y-248107
X140335Y-210007
X468948Y-190957
X249873Y-229057
X468948Y-210007
X378460Y-171907
X187960Y-171907
X176070Y-210002
X359410Y-171907
X311785Y-190957
T2
G00X269480Y-156200
M15
G01X269480Y-156800
M16
G05
G00X269480Y-160130
M15
G01X269480Y-161230
M16
G05
G00X278120Y-156200
M15
G01X278120Y-156800
M16
G05
G00X278120Y-160130
M15
G01X278120Y-161230
M16
G05
T6
G00X463420Y-171322
M15
G01X463420Y-172622
M16
G05
G00X474620Y-171322
M15
G01X474620Y-172622
M16
G05
T0
M30
